<?xml version="1.0" encoding="UTF-8" standalone="no"?>
<svg
   xmlns:dc="http://purl.org/dc/elements/1.1/"
   xmlns:cc="http://creativecommons.org/ns#"
   xmlns:rdf="http://www.w3.org/1999/02/22-rdf-syntax-ns#"
   xmlns:svg="http://www.w3.org/2000/svg"
   xmlns="http://www.w3.org/2000/svg"
   xmlns:sodipodi="http://sodipodi.sourceforge.net/DTD/sodipodi-0.dtd"
   xmlns:inkscape="http://www.inkscape.org/namespaces/inkscape"
   width="1000"
   height="1130.0001"
   viewBox="0 0 264.58333 298.9792"
   version="1.1"
   id="svg8"
   inkscape:version="1.0.2-2 (e86c870879, 2021-01-15)"
   sodipodi:docname="breeze.svg">
  <defs
     id="defs2" />
  <sodipodi:namedview
     id="base"
     pagecolor="#ffffff"
     bordercolor="#666666"
     borderopacity="1.0"
     inkscape:pageopacity="0.0"
     inkscape:pageshadow="2"
     inkscape:zoom="0.87420044"
     inkscape:cx="2190.718"
     inkscape:cy="1742.6821"
     inkscape:document-units="mm"
     inkscape:current-layer="layer1"
     inkscape:document-rotation="0"
     showgrid="false"
     inkscape:window-width="1370"
     inkscape:window-height="1002"
     inkscape:window-x="536"
     inkscape:window-y="0"
     inkscape:window-maximized="0" />
  <metadata
     id="metadata5">
    <rdf:RDF>
      <cc:Work
         rdf:about="">
        <dc:format>image/svg+xml</dc:format>
        <dc:type
           rdf:resource="http://purl.org/dc/dcmitype/StillImage" />
        <dc:title />
      </cc:Work>
    </rdf:RDF>
  </metadata>
  <g
     inkscape:label="Layer 1"
     inkscape:groupmode="layer"
     id="layer1"
     transform="translate(0,-1.0208069)">
    <g
       id="g2685"
       transform="matrix(5.2789514,0,0,5.2789514,-425.65046,-794.33364)">
      <path
         style="fill:#fefefe;stroke-width:0.264583"
         d="M -45.153942,116.85011 V -18.616554 H 90.312718 225.77938 V 116.85011 252.31677 H 90.312718 -45.153942 Z"
         id="path2691" />
      <path
         style="fill:#969685;stroke-width:0.264583"
         d="m 76.961902,237.33594 -10.837277,-0.89219 -16.282513,-6.24088 c -8.955384,-3.43249 -16.38432,-6.33866 -16.508746,-6.45816 -0.124425,-0.1195 -0.927359,-3.94928 -1.784299,-8.51063 l -1.55807,-8.29335 -0.0031,-6.48229 c -0.0019,-3.72784 -0.121811,-6.90975 -0.282456,-7.48825 -0.373985,-1.34676 -1.510537,-2.03445 -3.36452,-2.03576 -1.766626,-0.001 -3.424502,-0.81306 -5.460431,-2.67378 -2.839998,-2.5956 -4.444934,-5.31723 -5.444757,-9.23315 -0.461465,-1.80739 -0.529246,-2.93975 -0.529246,-8.84179 v -6.76894 H -0.96852751 -16.843527 v -7.40833 -7.40834 h 8.0697915 8.06979131 v 2.11667 2.11667 H 7.2335554 15.171055 v -19.31458 -19.31459 h -4.101041 c -2.5576401,0 -4.1010419,-0.0996 -4.1010419,-0.26458 0,-0.14552 -0.3571875,-0.26458 -0.79375,-0.26458 H 5.3814722 v 13.56893 13.56893 l -1.3890625,1.33414 c -0.7639843,0.73377 -2.0974392,1.95009 -2.9632326,2.70294 l -1.57416757,1.3688 H -10.678635 -20.812277 v -7.40833 -7.40833 h 3.704167 3.704166 v -1.98438 -1.98437 h -3.704166 -3.704167 v -11.1125 -11.1125 h 4.233334 4.233333 v -7.011458 -7.011458 l -4.960938,-0.0026 -4.960937,-0.0026 -6.879166,-1.938332 -6.879166,-1.938332 -0.06748,-25.012466 -0.06748,-25.012511 3.807965,-3.605909 3.807966,-3.605905 h 15.192507 15.192507 l 9.621064,-5.460764 c 9.550778,-5.420871 9.627693,-5.45837 10.528191,-5.132745 0.49892,0.180412 1.006835,0.22674 1.128705,0.102952 0.517546,-0.5257 5.811176,-7.382943 5.811218,-7.527718 2.7e-5,-0.08739 -0.654796,-0.681437 -1.455161,-1.320093 -0.800364,-0.638657 -1.455208,-1.2516039 -1.455208,-1.3621072 0,-0.1105032 0.906735,-1.4512263 2.014966,-2.979386 l 2.014966,-2.7784709 h 11.611075 11.611075 v 0.6614583 c 0,0.5953125 0.105833,0.6614583 1.058333,0.6614583 0.9525,0 1.058334,-0.066146 1.058334,-0.6614583 V 3.6084449 h 8.731249 c 8.55486,0 8.73125,0.010689 8.73125,0.5291666 0,0.3880557 0.17639,0.5291667 0.661458,0.5291667 0.363802,0 0.661458,0.1190625 0.661458,0.2645833 0,0.1455208 0.297657,0.2645833 0.661459,0.2645833 0.485068,0 0.661458,0.141111 0.661458,0.5291667 0,0.4787698 0.17639,0.5291666 1.852083,0.5291666 h 1.852084 V 4.9313615 3.6084449 h 6.815433 6.815431 l 3.370352,-6.7468747 3.37035,-6.7468746 h 14.685049 14.68505 v 8.2020829 c 0,5.2916664 -0.0939,8.2020829 -0.26458,8.2020829 -0.14552,0 -0.26458,0.3571875 -0.26458,0.79375 0,0.7643521 0.0441,0.79375 1.19062,0.79375 1.09361,0 1.19063,-0.053896 1.19063,-0.6614583 0,-0.6565585 0.0176,-0.6614584 2.38125,-0.6614584 h 2.38125 v 0.79375 c 0,0.7857331 0.0147,0.79375 1.4552,0.79375 1.44051,0 1.45521,-0.00802 1.45521,-0.79375 0,-0.7752889 0.0305,-0.79375 1.31272,-0.79375 h 1.31272 l 0.29053,1.1244792 c 0.15979,0.6184635 0.351,1.3328384 0.4249,1.5874999 0.11091,0.38218 0.4473,0.4630208 1.92669,0.4630208 h 1.79231 l 2.97956,3.5542984 c 2.69881,3.219386 3.3385,4.207915 6.78882,10.490851 l 3.80925,6.936554 v 4.85498 4.854982 h -6.28825 -6.28825 l -3.36597,-2.711979 -3.36598,-2.711979 -0.003,-1.918229 -0.003,-1.918229 h -11.50938 -11.50937 v 1.058333 1.058333 h 10.31875 10.31875 v 4.233333 4.233333 h 10.84792 10.84791 v 3.571875 3.571875 H 148.3889 137.67327 v 12.699999 12.7 h -1.19062 c -1.08895,0 -1.19063,0.05567 -1.19063,0.651877 0,0.642292 -0.0379,0.653148 -2.57968,0.738376 l -2.57969,0.0865 2.57969,0.05537 c 2.09205,0.04491 2.57968,0.130395 2.57968,0.45225 0,0.220485 0.23519,0.396875 0.52917,0.396875 0.48997,0 0.52917,0.176389 0.52917,2.38125 0,2.36361 0.005,2.381249 0.66145,2.381249 0.52917,0 0.66146,0.132292 0.66146,0.661459 0,0.485068 0.14111,0.661458 0.52917,0.661458 0.50712,0 0.52917,0.17639 0.52917,4.233333 0,4.056943 -0.022,4.233333 -0.52917,4.233333 -0.35278,0 -0.52917,0.17639 -0.52917,0.529167 0,0.497096 -0.17639,0.529167 -2.91041,0.529167 h -2.91042 v 11.906251 11.90625 h 2.77812 2.77813 v 18.38854 18.38854 h -2.91042 c -2.73402,0 -2.91041,0.0321 -2.91041,0.52917 0,0.42837 0.17639,0.52916 0.92604,0.52916 0.91411,0 0.92604,0.0146 0.92604,1.13262 0,0.98581 0.0943,1.17186 0.7276,1.43536 0.40019,0.1665 1.73855,0.71714 2.97414,1.22364 1.97725,0.81053 2.26554,1.01388 2.40517,1.69657 0.12675,0.61976 4.80333,8.56437 5.54011,9.41159 0.14668,0.16866 8.21811,-4.83323 9.05418,-5.61092 0.1078,-0.10027 1.15327,-4.16604 2.32326,-9.03506 1.17,-4.86902 2.19115,-9.06111 2.26923,-9.31577 0.13215,-0.431 0.88186,-0.46303 10.83976,-0.46303 h 10.6978 v -1.05833 -1.05833 h -7.01146 -7.01146 v -6.35 -6.35 h 2.77813 2.77812 v -1.98438 -1.98437 h -6.61458 -6.61459 v -0.92604 c 0,-0.904 -0.0252,-0.92604 -1.05833,-0.92604 h -1.05833 v -1.05834 -1.05833 h -1.98438 -1.98437 v 1.98437 1.98438 l -2.57969,-0.004 -2.57969,-0.004 -3.63802,-3.35177 -3.63802,-3.35177 v -1.67155 -1.67154 h -3.83646 -3.83645 v -6.21771 -6.21771 h 3.83645 3.83646 v -3.04271 -3.042706 h 0.66146 c 0.55857,0 0.66146,-0.123473 0.66146,-0.79375 v -0.79375 h 1.98437 1.98438 v -1.852083 c 0,-1.469909 0.0819,-1.852083 0.39687,-1.852083 0.34861,0 0.38912,-1.713505 0.33312,-14.089062 l -0.0637,-14.089062 -0.0709,13.95677 -0.0709,13.95677 h -2.61042 c -1.43574,0 -2.9825,-0.07441 -3.43725,-0.165364 l -0.82682,-0.165381 v -4.20026 c 0,-3.557174 0.0608,-4.20026 0.39687,-4.20026 0.34745,0 0.39797,-1.672246 0.40566,-13.427604 l 0.009,-13.427603 4.29218,-2.579687 c 2.65199,-1.593903 4.56965,-2.579688 5.01831,-2.579688 0.39937,0 0.72612,-0.119062 0.72612,-0.264583 0,-0.166309 1.71979,-0.264583 4.63021,-0.264583 h 4.63021 v 5.820833 5.820833 l 7.20989,0.0013 7.2099,0.0013 21.62299,14.220014 21.62298,14.220012 0.007,9.458854 0.007,9.458883 h -3.04271 c -1.67349,0 -3.04271,0.0406 -3.04271,0.0903 0,0.36029 -4.02631,10.89482 -4.20769,11.00909 -0.34473,0.21718 -1.35471,2.72918 -4.24277,10.5525 -1.43393,3.88433 -2.98535,8.04309 -3.44758,9.2417 l -0.84042,2.1793 h -3.28806 -3.28806 v 1.05833 c 0,0.89344 0.0852,1.05833 0.54699,1.05833 0.39561,0 0.50991,0.12815 0.41299,0.46303 -0.29182,1.0083 -3.84006,18.52975 -3.97834,19.64531 -0.0812,0.65484 -0.32988,3.39328 -0.55268,6.08541 -0.37204,4.49552 -0.4928,5.14564 -1.48039,7.96998 -0.91471,2.61593 -1.56598,3.84084 -4.36096,8.20208 -2.99384,4.67156 -3.47961,5.28922 -5.46945,6.9545 -3.9,3.2639 -7.36867,5.27139 -13.81742,7.99685 -2.07401,0.87654 -2.17286,0.89118 -6.01927,0.89118 h -3.91064 v 3.38778 c 0,3.26499 -0.0272,3.4306 -0.74927,4.56926 -0.4121,0.64982 -1.15624,1.51237 -1.65365,1.9168 -0.4974,0.40442 -1.14249,0.94776 -1.43354,1.20741 -1.64087,1.46392 -2.80954,1.85126 -6.47998,2.14773 -2.63036,0.21245 -4.19425,0.20832 -5.97465,-0.0158 l -2.41166,-0.30356 -5.26685,-4.63414 c -2.89677,-2.54878 -5.50498,-4.78608 -5.79602,-4.97177 -1.32766,-0.8471 -9.03797,-2.19787 -12.76615,-2.2365 -0.85429,-0.009 -0.85989,-0.0175 -0.85989,-1.33183 v -1.32291 h -1.19063 -1.19062 v 1.85208 1.85208 h -7.672923 c -6.619893,0 -7.672916,0.0541 -7.672916,0.39409 0,0.21675 -0.305113,1.15625 -0.67803,2.08778 -0.648327,1.6195 -0.664974,1.79056 -0.380026,3.90539 0.163899,1.21643 0.595522,3.19476 0.95916,4.39627 0.553796,1.82983 0.787368,2.24985 1.438362,2.58649 l 0.7772,0.4019 v 8.66549 8.6655 l -2.252847,1.11729 c -1.239065,0.61451 -2.578518,1.10251 -2.976563,1.08444 -0.398042,-0.0181 -5.600488,-0.43434 -11.560989,-0.92505 z m 63.373118,-29.88539 c 0.18998,-0.22891 0.7755,-0.63562 1.30115,-0.90378 1.55801,-0.79484 3.08698,-4.30156 2.13268,-4.89135 -0.13986,-0.0864 -1.22778,0.0851 -2.4176,0.38127 -1.18983,0.29612 -2.91411,0.53841 -3.83176,0.53841 -2.05364,0 -2.49219,0.45478 -2.49219,2.58444 0,1.14252 0.12259,1.53095 0.64943,2.0578 0.56444,0.56444 0.88914,0.64943 2.48115,0.64943 1.34323,0 1.92383,-0.111 2.17714,-0.41622 z m -4.3937,-0.4978 c -0.48922,-0.48921 -0.64944,-0.9316 -0.64944,-1.79321 0,-1.86726 0.44373,-2.24156 2.8395,-2.39518 1.13041,-0.0725 2.79971,-0.30319 3.70955,-0.51268 0.90984,-0.2095 1.71352,-0.32165 1.78594,-0.24923 0.29282,0.29282 0.0966,1.18862 -0.53212,2.42934 -0.48042,0.94807 -0.95907,1.46058 -1.73268,1.85525 -0.58789,0.29991 -1.13535,0.71852 -1.21659,0.93022 -0.1081,0.28169 -0.60458,0.38492 -1.85122,0.38492 -1.45589,0 -1.79791,-0.0944 -2.35294,-0.64943 z m -73.674434,-0.80577 v -1.19063 h -1.190625 -1.190625 v -8.20208 -8.20208 h 2.116667 2.116666 v -1.32292 -1.32292 h -2.116666 -2.116667 v -5.62562 -5.62562 L 45.06897,161.69698 30.252304,148.73885 v -1.26 -1.26 h -2.248958 -2.248958 v 14.58754 c 0,10.16489 0.09156,14.89313 0.302003,15.59553 0.397603,1.32707 1.580084,2.73007 3.004563,3.56487 0.970423,0.56871 1.683221,0.71716 4.544584,0.9465 4.486569,0.3596 7.424631,1.45435 10.472867,3.9023 1.695899,1.36192 4.388291,4.99265 5.820055,7.84843 1.130144,2.25416 2.199256,7.19387 2.460035,11.36629 0.100047,1.60073 0.234264,2.99971 0.298262,3.10885 0.064,0.10914 2.252458,0.19844 4.863245,0.19844 h 4.746884 z m 10.583333,0 v -1.19063 h -1.190625 -1.190625 v 1.01424 c 0,1.25944 0.107572,1.36701 1.367015,1.36701 h 1.014235 z m 10.847916,0 v -1.19063 H 82.50751 81.316885 v 1.19063 1.19062 h 1.190625 1.190625 z m 25.664585,-14.81667 v -0.66146 h 6.61458 6.61458 V 172.4126 154.15635 h 3.04271 c 2.86632,0 3.04271,-0.0307 3.04271,-0.52916 0,-0.49849 -0.17639,-0.52917 -3.04271,-0.52917 h -3.04271 v -8.99583 -8.99583 h -1.19062 -1.19063 v -1.5875 -1.5875 h 1.19063 1.19062 v -8.86355 -8.86354 h -0.79375 -0.79375 v -4.49791 -4.49792 h 0.79375 0.79375 v -7.672916 -7.672917 h -1.5875 -1.5875 v -5.423958 -5.423958 h 1.5875 1.5875 V 78.08865 77.162608 h 1.32292 1.32292 v -1.269979 c 0,-1.07665 0.17347,-1.509628 1.13954,-2.844271 1.30223,-1.79905 1.5816,-2.23575 1.43027,-2.23575 -0.059,0 -0.69108,0.831504 -1.40467,1.847787 -1.29464,1.843796 -1.30015,1.847794 -2.55421,1.852083 l -1.25677,0.0043 V 62.345942 50.175109 H 112.19871 101.80555 L 91.635635,46.470943 c -5.593453,-2.037292 -10.203402,-3.704167 -10.244331,-3.704167 -0.04093,0 -0.07442,-0.47625 -0.07442,-1.058333 V 40.65011 h -1.322916 -1.322917 v 5.820833 5.820833 H 75.36376 72.056469 v -0.661458 c 0,-0.595313 -0.105833,-0.661459 -1.058333,-0.661459 -0.9525,0 -1.058334,0.06615 -1.058334,0.661459 v 0.661458 h -2.778125 -2.778124 v -0.661458 c 0,-0.64256 -0.05292,-0.661459 -1.852084,-0.661459 h -1.852083 v -1.984375 -1.984375 h -1.984375 -1.984375 v -4.413765 -4.413769 l 1.389063,-2.325592 1.389062,-2.325592 9.591146,-0.0075 9.591145,-0.0075 v 0.79375 c 0,0.77611 0.0294,0.79375 1.322917,0.79375 1.293518,0 1.322916,-0.01765 1.322916,-0.79375 v -0.79375 h 6.35 6.349999 v 2.645833 2.645834 h 2.116667 2.116667 V 36.152193 33.50636 h 1.852082 1.85208 V 32.315735 31.12511 H 90.709593 79.464802 v -4.101041 -4.101042 h -1.852083 c -1.058334,0 -1.852084,0.113393 -1.852084,0.264584 0,0.14552 -0.238125,0.264583 -0.529166,0.264583 -0.291042,0 -0.529167,0.119062 -0.529167,0.264583 0,0.145521 -0.178594,0.264584 -0.396875,0.264584 -0.246943,0 -0.396875,0.249883 -0.396875,0.661458 v 0.661458 h -9.524999 -9.525 v -0.661458 c 0,-0.558565 -0.123473,-0.661458 -0.79375,-0.661458 -0.670277,0 -0.79375,0.102893 -0.79375,0.661458 v 0.661458 h -4.211285 c -2.316205,0 -4.25097,-0.08989 -4.299479,-0.199755 -0.04851,-0.109866 -0.900364,-0.841256 -1.893017,-1.625311 -1.51992,-1.200518 -1.858489,-1.367378 -2.144784,-1.057013 -0.186978,0.202694 -2.165323,2.630725 -4.396319,5.395621 -2.230996,2.764895 -4.21264,5.122296 -4.403653,5.238667 -0.276982,0.168746 -0.347295,2.271279 -0.347295,10.384896 v 10.17331 h 1.5875 1.5875 v 2.116667 2.116667 h 5.159374 5.159375 v -2.116667 -2.116667 h 5.820833 c 5.644444,0 5.820833,-0.01603 5.820833,-0.529166 0,-0.518941 0.17639,-0.529167 9.128125,-0.529167 h 9.128124 v 1.852083 c 0,1.675694 0.0504,1.852084 0.529167,1.852084 0.411575,0 0.529167,0.176389 0.529167,0.79375 0,0.77611 0.0294,0.79375 1.322916,0.79375 h 1.322917 v 0.926041 0.926042 h 10.451041 10.451041 v 9.392708 9.392708 h -2.778125 -2.778125 v 1.058333 c 0,0.999537 0.0441,1.058333 0.79375,1.058333 0.749652,0 0.79375,0.0588 0.79375,1.058333 v 1.058334 h 1.984375 1.984375 l -1.24e-4,8.532812 -1.24e-4,8.532812 10.451164,-0.07494 10.45117,-0.07494 v 1.993178 c 0,1.67133 0.0701,1.99317 0.43412,1.99317 0.27642,0 0.0121,0.36994 -0.7276,1.01832 -1.71958,1.5073 -2.58327,2.34108 -1.96845,1.90028 0.29818,-0.21378 0.92909,-0.74315 1.40203,-1.17638 l 0.8599,-0.78769 v 5.07898 5.07899 h 0.79375 c 0.70555,0 0.79375,0.0882 0.79375,0.79375 v 0.79375 h -6.61459 -6.61458 v 7.80521 7.80521 h 1.32292 1.32291 v 1.5875 1.5875 h -1.32291 -1.32292 v 0.92604 0.92604 h -7.40833 -7.408336 v 8.73125 8.73125 h 7.408336 7.40833 v 15.875 15.875 h -1.85208 -1.85209 v 1.19062 c 0,1.18433 0.005,1.19063 0.92605,1.19063 h 0.92604 v 1.71979 1.71979 h 1.19062 c 1.09361,0 1.19063,-0.0539 1.19063,-0.66146 z m 13.22916,-37.70312 c 0,-0.16036 1.14653,-0.26459 2.91042,-0.26459 1.76389,0 2.91042,0.10423 2.91042,0.26459 0,0.16035 -1.14653,0.26458 -2.91042,0.26458 -1.76389,0 -2.91042,-0.10423 -2.91042,-0.26458 z m -10.84791,-20.10833 v -1.5875 h 4.10104 4.10104 v 1.5875 1.5875 h -4.10104 -4.10104 z m -2.64584,-15.34584 v -1.5875 h 6.4823 6.48229 v 1.5875 1.5875 h -6.48229 -6.4823 z m 11.97845,-14.02291 c 0.37,-0.29105 0.74324,-0.52917 0.82943,-0.52917 0.0862,0 0.15671,0.23812 0.15671,0.52917 0,0.41663 -0.17639,0.52916 -0.82944,0.52916 h -0.82943 z M 95.868968,80.602191 v -1.852083 h 1.852083 1.852083 v 1.852083 1.852083 h -1.852083 -1.852083 z m -1.5875,-1.058333 c 0,-0.670277 0.102894,-0.79375 0.661458,-0.79375 0.558565,0 0.661458,0.123473 0.661458,0.79375 0,0.670277 -0.102893,0.79375 -0.661458,0.79375 -0.558564,0 -0.661458,-0.123473 -0.661458,-0.79375 z M 35.014804,55.599067 v -1.984375 h 3.96875 3.96875 v 1.984375 1.984375 h -3.96875 -3.96875 z m 8.202083,0 v -1.984375 h 0.79375 0.79375 v 1.984375 1.984375 h -0.79375 -0.79375 z m 33.072915,1.322917 c 0,-0.607563 0.09701,-0.661458 1.190625,-0.661458 1.09361,0 1.190625,0.0539 1.190625,0.661458 0,0.607563 -0.09701,0.661458 -1.190625,0.661458 -1.09361,0 -1.190625,-0.05389 -1.190625,-0.661458 z m -1.058333,-1.5875 c 0,-0.637715 0.06173,-0.661458 1.719791,-0.661458 1.658057,0 1.719792,0.02373 1.719792,0.661458 0,0.637715 -0.06173,0.661458 -1.719792,0.661458 -1.658056,0 -1.719791,-0.02373 -1.719791,-0.661458 z m 0,-1.852083 v -0.926042 h 1.719791 1.719792 v 0.926042 0.926041 H 76.95126 75.231469 Z M 94.281468,37.739693 v -0.79375 h 1.852083 1.852083 v 0.79375 0.79375 h -1.852083 -1.852083 z m 0,-2.645833 v -1.5875 h 1.852083 1.852083 v 1.5875 1.5875 H 96.133551 94.281468 Z M 74.173135,24.775111 c 0,-0.293982 0.17639,-0.529167 0.396875,-0.529167 0.218282,0 0.396875,-0.119063 0.396875,-0.264583 0,-0.145521 0.178594,-0.264584 0.396875,-0.264584 0.264584,0 0.396875,0.264584 0.396875,0.79375 0,0.705557 -0.08819,0.79375 -0.79375,0.79375 -0.61736,0 -0.79375,-0.117591 -0.79375,-0.529166 z M 139.20679,190.37041 c 0.2479,-0.45518 0.83767,-1.40481 1.31061,-2.11028 0.94238,-1.40573 1.06427,-2.36617 0.55629,-4.38354 -0.27482,-1.09141 -0.43164,-1.26536 -1.65365,-1.83437 -0.74252,-0.34573 -1.84236,-0.62978 -2.44408,-0.6312 -0.90463,-0.002 -1.17544,0.12339 -1.56415,0.72502 -0.25856,0.40018 -0.76285,1.0031 -1.12064,1.33982 -0.53461,0.50312 -0.62323,0.78054 -0.49727,1.5567 0.10587,0.65239 -0.007,1.27621 -0.365,2.01716 -0.28505,0.58998 -0.51827,1.46286 -0.51827,1.93973 0,1.06209 0.51555,1.38497 2.91042,1.82276 2.73454,0.49988 2.88349,0.48044 3.38574,-0.4418 z m -3.12116,0.17722 c -3.03859,-0.55546 -3.42779,-1.0898 -2.37736,-3.26392 0.39125,-0.8098 0.48873,-1.38044 0.36645,-2.14513 -0.14157,-0.88535 -0.0803,-1.0947 0.40802,-1.3938 0.31604,-0.19358 0.81569,-0.73892 1.11033,-1.21186 0.62381,-1.00129 1.30354,-1.09237 3.23668,-0.43368 1.54301,0.52576 2.02679,1.22974 2.20642,3.21074 0.12533,1.38221 0.0689,1.62321 -0.5534,2.36275 -0.38114,0.45296 -0.69297,0.92755 -0.69297,1.05467 0,0.44872 -1.34632,2.20555 -1.66319,2.17032 -0.17665,-0.0196 -1.09509,-0.17718 -2.04098,-0.35009 z m 28.04583,-2.10269 c 2.00058,-0.49982 4.67161,-1.60988 5.86696,-2.43826 0.54782,-0.37964 1.35964,-1.25687 1.80404,-1.94941 0.4444,-0.69254 1.05471,-1.54207 1.35625,-1.88785 1.46068,-1.675 1.40932,-1.12947 1.51032,-16.04067 l 0.0936,-13.82448 h -3.83379 -3.83379 l -1.24159,3.37344 c -0.68287,1.85539 -1.77055,4.80219 -2.41705,6.54844 l -1.17546,3.175 -6.60539,4.20511 c -3.63296,2.31281 -6.60538,4.2601 -6.60538,4.32731 0,0.0672 0.7739,1.58102 1.71979,3.36404 l 1.71979,3.24185 v 4.13865 4.13866 l 5.09323,-0.004 c 3.42459,-0.003 5.56998,-0.12324 6.54843,-0.3677 z m -0.79375,-5.68414 v -5.5857 h 5.42396 5.42396 v 1.42405 c 0,1.30141 -0.14242,1.64129 -1.65365,3.94635 -0.9095,1.38726 -1.98607,2.78307 -2.39237,3.10182 -0.85951,0.67427 -4.64898,2.29528 -5.92564,2.53479 l -0.87626,0.16438 z m -67.468742,4.46847 v -1.32292 h -1.190625 -1.190625 v -3.83646 -3.83645 h -8.73125 -8.731249 v 3.83645 3.83646 H 74.57001 73.114802 v 1.32292 1.32292 H 84.491885 95.868968 Z M 75.496052,145.99023 v -8.95986 l -1.227553,-0.16826 c -0.675156,-0.0925 -1.858391,-0.16825 -2.629416,-0.16825 -2.968008,0 -8.023907,-1.53633 -11.978157,-3.63979 -4.237271,-2.254 -7.377483,-4.95411 -10.164339,-8.73978 -1.428803,-1.9409 -3.861096,-6.64376 -4.679722,-9.04829 -0.608182,-1.78641 -1.321295,-6.36252 -1.33023,-8.53621 l -0.0052,-1.25677 h 1.852084 1.852083 v -2.91041 -2.91042 h 6.349999 6.35 v 1.85208 1.85209 h 2.248958 2.248959 v -1.85209 -1.85208 h 2.778124 2.778125 v -7.805208 -7.805208 h -0.79375 -0.79375 v 4.744926 4.744927 l -0.705662,0.08372 c -0.512569,0.06081 -0.784063,0.305665 -0.992187,0.894831 -0.157589,0.446112 -0.811178,1.428377 -1.452422,2.182813 l -1.165895,1.3717 H 55.61085 c -5.440444,0 -8.425248,-0.09373 -8.425248,-0.264583 0,-0.171622 -3.439583,-0.264583 -9.789583,-0.264583 H 27.606471 V 111.77276 126.01 l 16.073437,14.46691 16.073437,14.46692 7.871353,0.003 7.871354,0.003 z M 60.150219,102.29802 v -0.79375 h 1.984375 1.984375 v 0.79375 0.79375 h -1.984375 -1.984375 z m 0,-1.85208 v -0.79375 h 1.984375 1.984375 v 0.79375 0.79375 h -1.984375 -1.984375 z m -12.964582,-1.5875 c 0,-0.520456 0.17639,-0.529166 10.715624,-0.529166 h 10.715625 v -7.011458 c 0,-6.835069 0.01331,-7.011458 0.529166,-7.011458 0.51679,0 0.529167,0.176389 0.529167,7.540624 v 7.540625 H 58.430428 c -11.068401,0 -11.244791,-0.0083 -11.244791,-0.529167 z m 17.462499,-0.931952 c 0,-0.07601 0.459248,-0.641559 1.020551,-1.256771 0.5613,-0.615212 1.136173,-1.475756 1.277493,-1.912318 0.164184,-0.507191 0.464383,-0.824273 0.831535,-0.878298 0.549243,-0.08082 0.574587,0.0096 0.574587,2.050521 v 2.135068 h -1.852083 c -1.018646,0 -1.852083,-0.06219 -1.852083,-0.138202 z M 21.256471,147.0126 c 0,-0.67027 -0.102893,-0.79375 -0.661458,-0.79375 -0.558564,0 -0.661458,0.12348 -0.661458,0.79375 0,0.67028 0.102894,0.79375 0.661458,0.79375 0.558565,0 0.661458,-0.12347 0.661458,-0.79375 z m 111.654159,-2.11666 v -1.05834 h -3.04271 -3.0427 v 1.05834 1.05833 h 3.0427 3.04271 z M 87.026223,122.96295 c 1.301202,-0.59097 2.123342,-1.57716 2.534158,-3.03981 0.236034,-0.84037 0.993994,-1.78722 3.323351,-4.15155 l 3.017581,-3.0629 -1.422556,-1.21533 -1.422556,-1.21533 -2.321557,2.06657 -2.321558,2.06657 -1.100703,-0.62943 c -2.277166,-1.30217 -5.677458,-0.55412 -7.032014,1.54701 l -0.63964,0.99219 h -3.924422 -3.924421 v 2.24896 2.24896 h 4.051284 4.051283 l 0.584158,0.79011 c 1.307888,1.76902 4.280395,2.3837 6.547612,1.35398 z m -3.940916,-0.39879 c -1.36384,-0.50257 -1.932038,-1.06635 -2.455132,-2.43606 -0.539316,-1.41218 -0.384278,-3.30754 0.351764,-4.30041 0.796792,-1.07481 2.412587,-1.8793 3.774529,-1.8793 2.618277,0 4.756772,2.36997 4.383648,4.85813 -0.443846,2.95977 -3.340906,4.7577 -6.054809,3.75764 z M 72.056469,118.5699 v -1.98438 l 3.770312,5.3e-4 3.770313,5.3e-4 v 1.98398 1.98398 l -3.770313,-2.1e-4 -3.770312,-6e-5 z m 17.727082,-0.85733 c 0,-0.46657 -0.257505,-1.37833 -0.572233,-2.02614 l -0.572235,-1.17783 1.432131,-1.30646 c 0.78767,-0.71856 1.790412,-1.60693 2.22831,-1.97416 l 0.796182,-0.66769 1.260089,1.09439 1.260086,1.09438 -2.916166,2.90591 c -2.854021,2.84398 -2.916164,2.88783 -2.916164,2.0576 z m 74.410639,0.65558 -3.76689,-3.77362 -0.007,-8.72794 -0.007,-8.727941 3.77734,-3.667038 3.77734,-3.667035 -3.9026,3.633655 -3.90261,3.633658 v 8.761321 8.76132 l 3.7669,3.77362 c 2.07178,2.07549 3.82642,3.77362 3.89918,3.77362 0.0728,0 -1.56281,-1.69813 -3.6346,-3.77362 z m 39.62477,-12.3982 v -8.638047 l -4.03489,-3.765754 -4.0349,-3.765753 3.91062,3.801419 3.91062,3.801417 -0.008,8.595648 -0.008,8.59565 -3.77031,3.83977 -3.77032,3.83976 3.90261,-3.83303 3.9026,-3.83304 z m -24.60625,4.92703 v -2.77812 h 2.77813 2.77812 v 2.77812 2.77813 h 7.54063 7.54062 v -7.67292 -7.672916 h -7.54062 -7.54063 v 2.778126 2.77812 h -2.77812 -2.77813 v -2.77812 -2.778126 h -7.54062 -7.54063 v 7.672916 7.67292 h 7.54063 7.54062 z m -14.81666,-4.89479 v -7.408333 h 7.27604 7.27604 v 7.408333 7.40833 h -7.27604 -7.27604 z m 20.6375,0 v -7.408333 h 7.27604 7.27604 v 7.408333 7.40833 h -7.27604 -7.27604 z m -5.82084,0 v -1.85208 h 2.77813 2.77812 v 1.85208 1.85208 h -2.77812 -2.77813 z M 6.9689721,105.73761 c 0,-0.51343 0.1763898,-0.52917 5.9311189,-0.52917 h 5.93112 l 0.101719,-5.886979 c 0.101428,-5.870191 0.104021,-5.892376 0.908785,-7.779702 1.11768,-2.621174 3.384968,-5.134149 5.64197,-6.253342 l 1.713669,-0.849768 12.639976,-0.07587 12.639973,-0.07587 v 2.258687 2.258684 h 1.984375 1.984375 V 77.824066 66.843858 H 43.878345 31.310638 l -0.0055,1.653646 -0.0055,1.653646 -7.2044,4.562014 c -3.962421,2.50911 -7.914089,5.200685 -8.781486,5.981279 l -1.577083,1.419262 1.538758,1.752672 1.538761,1.752671 -0.677407,0.805053 c -0.372573,0.442778 -1.545953,1.754703 -2.607509,2.915385 l -1.930085,2.110338 -6.548437,1.4e-4 -6.5484371,1.43e-4 v 6.879167 6.879166 H 1.941889 c 3.2631934,0 3.4395832,0.0271 3.4395832,0.52917 0,0.41157 0.1763897,0.52916 0.7937499,0.52916 0.6173602,0 0.79375,-0.11759 0.79375,-0.52916 z M 52.741887,86.423024 v -2.116666 h 1.719791 1.719792 v 2.116666 2.116667 H 54.461678 52.741887 Z M 169.9523,81.395941 v -5.027083 h -1.05834 c -1.03313,0 -1.05833,0.02204 -1.05833,0.926042 v 0.926041 h -2.91042 -2.91041 v 2.248958 2.248959 h 1.85208 1.85208 v 1.852083 1.852083 h 2.11667 2.11667 z m -3.96875,3.042708 v -1.719791 h 1.85208 1.85208 v 1.719791 1.719792 h -1.85208 -1.85208 z m -3.70417,-3.96875 v -1.984374 h 1.71979 1.71979 v 1.984374 1.984375 h -1.71979 -1.71979 z m 3.70417,0 v -1.984374 h 1.85208 1.85208 v 1.984374 1.984375 h -1.85208 -1.85208 z m 2.11666,-3.042708 c 0,-0.705556 0.0882,-0.79375 0.79375,-0.79375 0.70556,0 0.79375,0.08819 0.79375,0.79375 0,0.705557 -0.0882,0.79375 -0.79375,0.79375 -0.70555,0 -0.79375,-0.08819 -0.79375,-0.79375 z m -187.060403,1.322917 v -3.96875 h -3.439583 -3.439584 v -4.7625 c 0,-4.58611 -0.0196,-4.762499 -0.529166,-4.762499 -0.518477,0 -0.529167,0.176389 -0.529167,8.731249 v 8.73125 h 3.96875 3.96875 z m -7.672917,0 v -3.704167 h 3.704167 3.704166 v 3.704167 3.704166 h -3.704166 -3.704167 z m 0,-8.598958 c 0,-2.910417 0.09827,-4.630208 0.264584,-4.630208 0.166309,0 0.264583,1.719791 0.264583,4.630208 0,2.910416 -0.09827,4.630208 -0.264583,4.630208 -0.16631,0 -0.264584,-1.719792 -0.264584,-4.630208 z m 114.699674,5.57426 c 0.373708,-0.992849 0.64502,-1.833425 0.602914,-1.867945 -0.26915,-0.220665 -1.326258,-0.691084 -1.390771,-0.618898 -0.04305,0.04817 -0.446397,0.82204 -0.896327,1.719713 l -0.818057,1.632127 0.845897,0.535583 c 0.465241,0.294571 0.875366,0.506113 0.911384,0.470093 0.03602,-0.03602 0.371252,-0.877824 0.74496,-1.870673 z m -1.766824,1.106088 c -0.402555,-0.273775 -0.37307,-0.434758 0.337429,-1.842246 0.686863,-1.360668 0.838655,-1.51008 1.289187,-1.268963 0.501912,0.268616 0.500894,0.300445 -0.05945,1.857809 -0.581425,1.615945 -0.789448,1.782318 -1.567162,1.2534 z m -3.862453,-2.84389 c 0.54918,0 0.546301,0.214662 0.04289,-3.199109 l -0.15962,-1.082442 -1.8909,0.186055 c -1.039996,0.102331 -1.931655,0.223385 -1.981465,0.269013 -0.04981,0.04563 -0.0046,1.000133 0.100428,2.121122 l 0.190992,2.038162 1.59203,-0.166402 c 0.875617,-0.09152 1.823156,-0.166399 2.105641,-0.166399 z m -3.626408,-1.740601 c -0.102521,-0.957331 -0.146159,-1.777381 -0.09697,-1.822331 0.04919,-0.04495 0.826148,-0.165478 1.726578,-0.267837 l 1.637141,-0.186108 0.161206,1.016251 c 0.468336,2.952456 0.576492,2.641269 -0.983131,2.828591 -2.357181,0.283118 -2.238362,0.35935 -2.444824,-1.568566 z m -8.175765,0.948933 c 1.992127,-0.435414 3.66772,-0.837337 3.723542,-0.893159 0.05582,-0.05582 -0.09811,-0.896149 -0.342085,-1.867394 -0.423005,-1.683986 -0.475686,-1.759482 -1.135695,-1.627532 -0.380664,0.0761 -2.061334,0.392676 -3.734824,0.703498 -1.673489,0.310822 -3.073439,0.592818 -3.110999,0.626658 -0.09631,0.08677 0.766389,3.849597 0.882589,3.849597 0.05248,0 1.725345,-0.356251 3.717472,-0.791668 z m -3.757766,-0.196969 c -0.09015,-0.402135 -0.268181,-1.141179 -0.395636,-1.642319 -0.127453,-0.501142 -0.19594,-0.946957 -0.152191,-0.990705 0.132024,-0.132025 6.907527,-1.37137 6.998723,-1.280174 0.178702,0.178703 0.819428,2.898828 0.708861,3.009392 -0.0641,0.0641 -1.399167,0.395505 -2.966818,0.736463 -1.567653,0.340955 -3.115497,0.682598 -3.439657,0.759208 -0.477655,0.112887 -0.62045,7.94e-4 -0.753282,-0.591865 z M -3.7204771,65.28138 c 1.5718524,-0.713851 2.3180806,-1.899679 2.4229005,-3.850224 0.069472,-1.292733 -0.03112,-1.800302 -0.5255153,-2.651697 -2.3463461,-4.040631 -8.6617301,-2.308362 -8.6617301,2.375858 0,3.498347 3.476786,5.619091 6.7643449,4.126063 z m -4.2138307,-0.582702 c -0.6890041,-0.36353 -1.1733794,-0.88831 -1.5155412,-1.641954 -0.635833,-1.400479 -0.63568,-2.402668 5.291e-4,-3.804113 1.2995672,-2.862461 5.8657937,-2.878055 7.1609502,-0.02445 0.6472026,1.425974 0.6500522,2.422167 0.010954,3.82987 -0.9105979,2.005705 -3.526901,2.764498 -5.6569396,1.640654 z M -25.83936,51.233443 v -4.7625 h 3.439584 3.439583 v -3.96875 -3.96875 h -3.96875 -3.96875 v 8.73125 c 0,8.55486 0.01069,8.731249 0.529167,8.731249 0.509568,0 0.529166,-0.176389 0.529166,-4.762499 z m -0.79375,-0.132292 c 0,-2.910417 0.09827,-4.630208 0.264584,-4.630208 0.166309,0 0.264583,1.719791 0.264583,4.630208 0,2.910416 -0.09827,4.630208 -0.264583,4.630208 -0.16631,0 -0.264584,-1.719792 -0.264584,-4.630208 z m 0,-8.598958 v -3.704166 h 3.704167 3.704166 v 3.704166 3.704166 h -3.704166 -3.704167 z m 47.360415,2.778125 V 36.68136 h -0.79375 -0.79375 v 8.598958 8.598958 h 0.79375 0.79375 z m -1.322917,0 c 0,-8.157985 0.01119,-8.334375 0.529167,-8.334375 0.517967,0 0.529166,0.17639 0.529166,8.334375 0,8.157985 -0.01119,8.334374 -0.529166,8.334374 -0.517967,0 -0.529167,-0.176389 -0.529167,-8.334374 z M 31.476793,22.72459 c 1.162857,-1.273307 2.571628,-2.825644 3.1306,-3.449638 l 1.016318,-1.13453 -0.750829,-0.783699 c -0.412957,-0.431032 -0.826106,-0.783695 -0.91811,-0.783695 -0.14216,0 -3.680439,3.928273 -5.806254,6.446231 l -0.648579,0.76822 0.78087,0.624793 c 0.42948,0.343635 0.848556,0.625385 0.931286,0.626107 0.08273,7.94e-4 1.101841,-1.040482 2.264698,-2.313789 z m 47.988009,-8.268229 v -1.852083 h -1.852083 c -1.469909,0 -1.852084,0.08189 -1.852084,0.396875 0,0.246943 -0.249883,0.396875 -0.661458,0.396875 -0.595312,0 -0.661458,0.105833 -0.661458,1.058333 0,0.9525 0.06615,1.058333 0.661458,1.058333 0.411575,0 0.661458,0.149932 0.661458,0.396875 0,0.314981 0.382175,0.396875 1.852084,0.396875 h 1.852083 z m -4.7625,0 c 0,-0.61736 0.117592,-0.79375 0.529167,-0.79375 0.411575,0 0.529166,0.17639 0.529166,0.79375 0,0.61736 -0.117591,0.79375 -0.529166,0.79375 -0.411575,0 -0.529167,-0.17639 -0.529167,-0.79375 z M 162.0148,202.51245 c 7.81075,-3.44122 10.56296,-5.02086 14.57972,-8.36806 2.10106,-1.75084 2.52859,-2.28949 5.54466,-6.98581 4.2568,-6.62825 5.33487,-9.37473 5.78854,-14.74673 0.62735,-7.42869 0.87839,-9.09634 2.68827,-17.85862 1.02197,-4.94771 1.91843,-9.20419 1.99213,-9.45885 0.11473,-0.39642 0.47399,-0.46303 2.49742,-0.46303 h 2.36342 v 5.41487 c 0,3.44504 -0.14888,6.48231 -0.40927,8.34918 -0.3401,2.43846 -0.35852,3.47954 -0.10898,6.16066 0.18532,1.99109 0.22812,4.74368 0.1118,7.18948 l -0.18849,3.96314 -3.2584,9.11242 -3.25839,9.11241 -2.31282,2.32359 c -2.28415,2.29478 -2.3701,2.34999 -6.93236,4.45309 l -4.61954,2.1295 -7.56959,-0.0179 c -5.7476,-0.0136 -7.41037,-0.088 -6.90812,-0.30933 z m -23.74636,-44.32921 c -1.00782,-0.38725 -1.12447,-0.52247 -1.12447,-1.30344 0,-0.85634 0.0205,-0.87136 1.19062,-0.87136 h 1.19063 v 1.32291 c 0,0.72761 -0.0298,1.31415 -0.0661,1.30344 -0.0364,-0.0107 -0.57216,-0.21392 -1.19063,-0.45155 z m -2.24895,-0.87308 c -0.72829,-0.42419 -0.59452,-1.30172 0.19843,-1.30172 0.55857,0 0.66146,0.12347 0.66146,0.79375 0,0.85082 -0.13467,0.93037 -0.85989,0.50797 z m -1.71979,-0.83089 c -0.46445,-0.224 -0.59532,-0.51087 -0.59532,-1.30501 0,-0.98693 0.0282,-1.01791 0.92604,-1.01791 1.00405,0 1.08552,0.19483 0.76068,1.81901 -0.18097,0.90484 -0.22138,0.9235 -1.0914,0.50391 z m 1.52135,-1.52917 v -0.79375 h 1.85208 1.85209 v 0.79375 0.79375 h -1.85209 -1.85208 z m -3.96875,-1.32291 c 0,-0.15959 1.10243,-0.26459 2.77812,-0.26459 1.6757,0 2.77813,0.105 2.77813,0.26459 0,0.15959 -1.10243,0.26458 -2.77813,0.26458 -1.67569,0 -2.77812,-0.10499 -2.77812,-0.26458 z m -148.695827,-6.21771 v -0.92604 h 8.0697915 8.06979131 v 0.92604 0.92604 H -8.7737355 -16.843527 Z m -3.96875,-17.99167 v -1.71979 h 1.5875 1.5875 v 1.71979 1.7198 h -1.5875 -1.5875 z m 3.439584,0 v -1.71979 h 1.852083 1.852083 v 1.71979 1.7198 h -1.852083 -1.852083 z m 183.620823,-1.5875 v -1.71979 h 2.64583 2.64584 v 1.71979 1.7198 h -2.64584 -2.64583 z m -13.49375,-3.83645 v -1.85209 h 1.71979 1.71979 v 1.85209 1.85208 h -1.71979 -1.71979 z m 3.70417,1.05833 c 0,-0.73075 0.0735,-0.79375 0.92604,-0.79375 0.85255,0 0.92604,0.063 0.92604,0.79375 0,0.73075 -0.0735,0.79375 -0.92604,0.79375 -0.85255,0 -0.92604,-0.063 -0.92604,-0.79375 z M 140.05438,96.344899 c 0,-0.485069 0.14111,-0.661459 0.52917,-0.661459 0.38806,0 0.52917,0.17639 0.52917,0.661459 0,0.485068 -0.14111,0.661458 -0.52917,0.661458 -0.38806,0 -0.52917,-0.17639 -0.52917,-0.661458 z m 0,-2.645834 v -1.719791 h 1.71979 1.7198 v 1.719791 1.719792 h -1.7198 -1.71979 z m 3.70417,0 c 0,-1.658056 0.0237,-1.719791 0.66146,-1.719791 0.63771,0 0.66146,0.06173 0.66146,1.719791 0,1.658057 -0.0237,1.719792 -0.66146,1.719792 -0.63772,0 -0.66146,-0.06173 -0.66146,-1.719792 z m 6.08542,-43.920831 c 0,-0.337658 0.69085,-0.396875 4.6302,-0.396875 3.93936,0 4.63021,0.05922 4.63021,0.396875 0,0.337659 -0.69085,0.396875 -4.63021,0.396875 -3.93935,0 -4.6302,-0.05922 -4.6302,-0.396875 z m 0,-8.466666 c 0,-0.337659 0.69085,-0.396875 4.6302,-0.396875 3.93936,0 4.63021,0.05922 4.63021,0.396875 0,0.337659 -0.69085,0.396875 -4.63021,0.396875 -3.93935,0 -4.6302,-0.05922 -4.6302,-0.396875 z M 142.09095,9.4954238 c -0.0612,-0.1091406 -0.19297,-0.555625 -0.29276,-0.9921875 -0.0998,-0.4365624 -0.24334,-1.0021093 -0.31899,-1.2567707 -0.10844,-0.3649903 0.0224,-0.4630209 0.61799,-0.4630209 0.5663,0 0.98901,0.281668 1.68757,1.1244792 1.49806,1.8073977 1.49959,1.7859374 -0.12727,1.7859374 -0.80037,0 -1.50531,-0.089297 -1.56654,-0.1984375 z m -6.2699,-2.0505207 c 0,-0.6075617 0.097,-0.6614584 1.19062,-0.6614584 1.09361,0 1.19063,0.053897 1.19063,0.6614584 0,0.6075626 -0.097,0.6614583 -1.19063,0.6614583 -1.09361,0 -1.19062,-0.053896 -1.19062,-0.6614583 z M 128.6773,7.3126114 c 0,-0.4283731 0.17639,-0.5291667 0.92604,-0.5291667 0.74965,0 0.92604,0.1007936 0.92604,0.5291667 0,0.4283731 -0.17639,0.5291666 -0.92604,0.5291666 -0.74965,0 -0.92604,-0.1007935 -0.92604,-0.5291666 z M 74.437719,4.6667782 c 0,-0.1455208 -0.297656,-0.2645833 -0.661459,-0.2645833 -0.411575,0 -0.661458,-0.1499307 -0.661458,-0.396875 0,-0.2939815 0.308682,-0.396875 1.190625,-0.396875 1.09361,0 1.190625,0.053897 1.190625,0.6614583 0,0.4850693 -0.14111,0.6614583 -0.529167,0.6614583 -0.291041,0 -0.529166,-0.1190625 -0.529166,-0.2645833 z M 53.535636,4.1376115 c 0,-0.4115741 0.17639,-0.5291666 0.79375,-0.5291666 0.617361,0 0.79375,0.1175925 0.79375,0.5291666 0,0.4115742 -0.176389,0.5291667 -0.79375,0.5291667 -0.61736,0 -0.79375,-0.1175925 -0.79375,-0.5291667 z"
         id="path2689" />
      <path
         style="fill:#7c807c;stroke-width:0.264583"
         d="m 76.961902,237.33594 -10.837277,-0.89219 -16.282513,-6.24088 c -8.955384,-3.43249 -16.38432,-6.33866 -16.508746,-6.45816 -0.124425,-0.1195 -0.927359,-3.94928 -1.784299,-8.51063 l -1.55807,-8.29335 -0.0031,-6.48229 c -0.0019,-3.72784 -0.121811,-6.90975 -0.282456,-7.48825 -0.373985,-1.34676 -1.510537,-2.03445 -3.36452,-2.03576 -1.766626,-0.001 -3.424502,-0.81306 -5.460431,-2.67378 -2.839998,-2.5956 -4.444934,-5.31723 -5.444757,-9.23315 -0.461465,-1.80739 -0.529246,-2.93975 -0.529246,-8.84179 v -6.76894 H -0.96852751 -16.843527 v -7.40833 -7.40834 h 8.0697915 8.06979131 v 2.11667 2.11667 H 7.2335554 15.171055 v -19.31458 -19.31459 h -4.101041 c -2.5576401,0 -4.1010419,-0.0996 -4.1010419,-0.26458 0,-0.14552 -0.3571875,-0.26458 -0.79375,-0.26458 H 5.3814722 v 13.56893 13.56893 l -1.3890625,1.33414 c -0.7639843,0.73377 -2.0974392,1.95009 -2.9632326,2.70294 l -1.57416757,1.3688 H -10.678635 -20.812277 v -7.40833 -7.40833 h 3.704167 3.704166 v -1.98438 -1.98437 h -3.704166 -3.704167 v -11.1125 -11.1125 h 4.233334 4.233333 v -7.011458 -7.011458 l -4.960938,-0.0026 -4.960937,-0.0026 -6.879166,-1.938332 -6.879166,-1.938332 -0.06748,-25.012466 -0.06748,-25.012511 3.807965,-3.605909 3.807966,-3.605905 h 15.192507 15.192507 l 9.621064,-5.460764 c 9.550778,-5.420871 9.627693,-5.45837 10.528191,-5.132745 0.49892,0.180412 1.006835,0.22674 1.128705,0.102952 0.517546,-0.5257 5.811176,-7.382943 5.811218,-7.527718 2.7e-5,-0.08739 -0.654796,-0.681437 -1.455161,-1.320093 -0.800364,-0.638657 -1.455208,-1.2516039 -1.455208,-1.3621072 0,-0.1105032 0.906735,-1.4512263 2.014966,-2.979386 l 2.014966,-2.7784709 h 11.611075 11.611075 v 0.6614583 c 0,0.5953125 0.105833,0.6614583 1.058333,0.6614583 0.9525,0 1.058334,-0.066146 1.058334,-0.6614583 V 3.6084449 h 8.731249 c 8.55486,0 8.73125,0.010689 8.73125,0.5291666 0,0.3880557 0.17639,0.5291667 0.661458,0.5291667 0.363802,0 0.661458,0.1190625 0.661458,0.2645833 0,0.1455208 0.297657,0.2645833 0.661459,0.2645833 0.485068,0 0.661458,0.141111 0.661458,0.5291667 0,0.4787698 0.17639,0.5291666 1.852083,0.5291666 h 1.852084 V 4.9313615 3.6084449 h 6.815433 6.815431 l 3.370352,-6.7468747 3.37035,-6.7468746 h 14.685049 14.68505 v 8.2020829 c 0,5.2916664 -0.0939,8.2020829 -0.26458,8.2020829 -0.14552,0 -0.26458,0.3571875 -0.26458,0.79375 0,0.7643521 0.0441,0.79375 1.19062,0.79375 1.09361,0 1.19063,-0.053896 1.19063,-0.6614583 0,-0.6565585 0.0176,-0.6614584 2.38125,-0.6614584 h 2.38125 v 0.79375 c 0,0.7857331 0.0147,0.79375 1.4552,0.79375 1.44051,0 1.45521,-0.00802 1.45521,-0.79375 0,-0.7752889 0.0305,-0.79375 1.31272,-0.79375 h 1.31272 l 0.29053,1.1244792 c 0.15979,0.6184635 0.351,1.3328384 0.4249,1.5874999 0.11091,0.38218 0.4473,0.4630208 1.92669,0.4630208 h 1.79231 l 2.97956,3.5542984 c 2.69881,3.219386 3.3385,4.207915 6.78882,10.490851 l 3.80925,6.936554 v 4.85498 4.854982 h -6.28825 -6.28825 l -3.36597,-2.711979 -3.36598,-2.711979 -0.003,-1.918229 -0.003,-1.918229 h -11.50938 -11.50937 v 1.058333 1.058333 h 10.31875 10.31875 v 4.233333 4.233333 h 10.84792 10.84791 v 3.571875 3.571875 H 148.3889 137.67327 v 12.699999 12.7 h -1.19062 c -1.08895,0 -1.19063,0.05567 -1.19063,0.651877 0,0.642292 -0.0379,0.653148 -2.57968,0.738376 l -2.57969,0.0865 2.57969,0.05537 c 2.09205,0.04491 2.57968,0.130395 2.57968,0.45225 0,0.220485 0.23519,0.396875 0.52917,0.396875 0.48997,0 0.52917,0.176389 0.52917,2.38125 0,2.36361 0.005,2.381249 0.66145,2.381249 0.52917,0 0.66146,0.132292 0.66146,0.661459 0,0.485068 0.14111,0.661458 0.52917,0.661458 0.50712,0 0.52917,0.17639 0.52917,4.233333 0,4.056943 -0.022,4.233333 -0.52917,4.233333 -0.35278,0 -0.52917,0.17639 -0.52917,0.529167 0,0.497096 -0.17639,0.529167 -2.91041,0.529167 h -2.91042 v 11.906251 11.90625 h 2.77812 2.77813 v 18.38854 18.38854 h -2.91042 c -2.73402,0 -2.91041,0.0321 -2.91041,0.52917 0,0.42837 0.17639,0.52916 0.92604,0.52916 0.91411,0 0.92604,0.0146 0.92604,1.13262 0,0.98581 0.0943,1.17186 0.7276,1.43536 0.40019,0.1665 1.73855,0.71714 2.97414,1.22364 1.97725,0.81053 2.26554,1.01388 2.40517,1.69657 0.12675,0.61976 4.80333,8.56437 5.54011,9.41159 0.14668,0.16866 8.21811,-4.83323 9.05418,-5.61092 0.1078,-0.10027 1.15327,-4.16604 2.32326,-9.03506 1.17,-4.86902 2.19115,-9.06111 2.26923,-9.31577 0.13215,-0.431 0.88186,-0.46303 10.83976,-0.46303 h 10.6978 v -1.05833 -1.05833 h -7.01146 -7.01146 v -6.35 -6.35 h 2.77813 2.77812 v -1.98438 -1.98437 h -6.61458 -6.61459 v -0.92604 c 0,-0.904 -0.0252,-0.92604 -1.05833,-0.92604 h -1.05833 v -1.05834 -1.05833 h -1.98438 -1.98437 v 1.98437 1.98438 l -2.57969,-0.004 -2.57969,-0.004 -3.63802,-3.35177 -3.63802,-3.35177 v -1.67155 -1.67154 h -3.83646 -3.83645 v -6.21771 -6.21771 h 3.83645 3.83646 v -3.04271 -3.042706 h 0.66146 c 0.55857,0 0.66146,-0.123473 0.66146,-0.79375 v -0.79375 h 1.98437 1.98438 v -1.852083 c 0,-1.469909 0.0819,-1.852083 0.39687,-1.852083 0.34861,0 0.38912,-1.713505 0.33312,-14.089062 l -0.0637,-14.089062 -0.0709,13.95677 -0.0709,13.95677 h -2.61042 c -1.43574,0 -2.9825,-0.07441 -3.43725,-0.165364 l -0.82682,-0.165381 v -4.20026 c 0,-3.557174 0.0608,-4.20026 0.39687,-4.20026 0.34745,0 0.39797,-1.672246 0.40566,-13.427604 l 0.009,-13.427603 4.29218,-2.579687 c 2.65199,-1.593903 4.56965,-2.579688 5.01831,-2.579688 0.39937,0 0.72612,-0.119062 0.72612,-0.264583 0,-0.166309 1.71979,-0.264583 4.63021,-0.264583 h 4.63021 v 5.820833 5.820833 l 7.20989,0.0013 7.2099,0.0013 21.62299,14.220014 21.62298,14.220012 0.007,9.458854 0.007,9.458883 h -3.04271 c -1.67349,0 -3.04271,0.0406 -3.04271,0.0903 0,0.36029 -4.02631,10.89482 -4.20769,11.00909 -0.34473,0.21718 -1.35471,2.72918 -4.24277,10.5525 -1.43393,3.88433 -2.98535,8.04309 -3.44758,9.2417 l -0.84042,2.1793 h -3.28806 -3.28806 v 1.05833 c 0,0.89344 0.0852,1.05833 0.54699,1.05833 0.39561,0 0.50991,0.12815 0.41299,0.46303 -0.29182,1.0083 -3.84006,18.52975 -3.97834,19.64531 -0.0812,0.65484 -0.32988,3.39328 -0.55268,6.08541 -0.37204,4.49552 -0.4928,5.14564 -1.48039,7.96998 -0.91471,2.61593 -1.56598,3.84084 -4.36096,8.20208 -2.99384,4.67156 -3.47961,5.28922 -5.46945,6.9545 -3.9,3.2639 -7.36867,5.27139 -13.81742,7.99685 -2.07401,0.87654 -2.17286,0.89118 -6.01927,0.89118 h -3.91064 v 3.38778 c 0,3.26499 -0.0272,3.4306 -0.74927,4.56926 -0.4121,0.64982 -1.15624,1.51237 -1.65365,1.9168 -0.4974,0.40442 -1.14249,0.94776 -1.43354,1.20741 -1.64087,1.46392 -2.80954,1.85126 -6.47998,2.14773 -2.63036,0.21245 -4.19425,0.20832 -5.97465,-0.0158 l -2.41166,-0.30356 -5.26685,-4.63414 c -2.89677,-2.54878 -5.50498,-4.78608 -5.79602,-4.97177 -1.32766,-0.8471 -9.03797,-2.19787 -12.76615,-2.2365 -0.85429,-0.009 -0.85989,-0.0175 -0.85989,-1.33183 v -1.32291 h -1.19063 -1.19062 v 1.85208 1.85208 h -7.672923 c -6.619893,0 -7.672916,0.0541 -7.672916,0.39409 0,0.21675 -0.305113,1.15625 -0.67803,2.08778 -0.648327,1.6195 -0.664974,1.79056 -0.380026,3.90539 0.163899,1.21643 0.595522,3.19476 0.95916,4.39627 0.553796,1.82983 0.787368,2.24985 1.438362,2.58649 l 0.7772,0.4019 v 8.66549 8.6655 l -2.252847,1.11729 c -1.239065,0.61451 -2.578518,1.10251 -2.976563,1.08444 -0.398042,-0.0181 -5.600488,-0.43434 -11.560989,-0.92505 z m 63.373118,-29.88539 c 0.18998,-0.22891 0.7755,-0.63562 1.30115,-0.90378 1.55801,-0.79484 3.08698,-4.30156 2.13268,-4.89135 -0.13986,-0.0864 -1.22778,0.0851 -2.4176,0.38127 -1.18983,0.29612 -2.91411,0.53841 -3.83176,0.53841 -2.05364,0 -2.49219,0.45478 -2.49219,2.58444 0,1.14252 0.12259,1.53095 0.64943,2.0578 0.56444,0.56444 0.88914,0.64943 2.48115,0.64943 1.34323,0 1.92383,-0.111 2.17714,-0.41622 z m -4.3937,-0.4978 c -0.48922,-0.48921 -0.64944,-0.9316 -0.64944,-1.79321 0,-1.86726 0.44373,-2.24156 2.8395,-2.39518 1.13041,-0.0725 2.79971,-0.30319 3.70955,-0.51268 0.90984,-0.2095 1.71352,-0.32165 1.78594,-0.24923 0.29282,0.29282 0.0966,1.18862 -0.53212,2.42934 -0.48042,0.94807 -0.95907,1.46058 -1.73268,1.85525 -0.58789,0.29991 -1.13535,0.71852 -1.21659,0.93022 -0.1081,0.28169 -0.60458,0.38492 -1.85122,0.38492 -1.45589,0 -1.79791,-0.0944 -2.35294,-0.64943 z m -73.674434,-0.80577 v -1.19063 h -1.190625 -1.190625 v -8.20208 -8.20208 h 2.116667 2.116666 v -1.32292 -1.32292 h -2.116666 -2.116667 v -5.62562 -5.62562 L 45.06897,161.69698 30.252304,148.73885 v -1.26 -1.26 h -2.248958 -2.248958 v 14.58754 c 0,10.16489 0.09156,14.89313 0.302003,15.59553 0.397603,1.32707 1.580084,2.73007 3.004563,3.56487 0.970423,0.56871 1.683221,0.71716 4.544584,0.9465 4.486569,0.3596 7.424631,1.45435 10.472867,3.9023 1.695899,1.36192 4.388291,4.99265 5.820055,7.84843 1.130144,2.25416 2.199256,7.19387 2.460035,11.36629 0.100047,1.60073 0.234264,2.99971 0.298262,3.10885 0.064,0.10914 2.252458,0.19844 4.863245,0.19844 h 4.746884 z m 10.583333,0 v -1.19063 h -1.190625 -1.190625 v 1.01424 c 0,1.25944 0.107572,1.36701 1.367015,1.36701 h 1.014235 z m 10.847916,0 v -1.19063 H 82.50751 81.316885 v 1.19063 1.19062 h 1.190625 1.190625 z m 25.664585,-14.81667 v -0.66146 h 6.61458 6.61458 V 172.4126 154.15635 h 3.04271 c 2.86632,0 3.04271,-0.0307 3.04271,-0.52916 0,-0.49849 -0.17639,-0.52917 -3.04271,-0.52917 h -3.04271 v -8.99583 -8.99583 h -1.19062 -1.19063 v -1.5875 -1.5875 h 1.19063 1.19062 v -8.86355 -8.86354 h -0.79375 -0.79375 v -4.49791 -4.49792 h 0.79375 0.79375 v -7.672916 -7.672917 h -1.5875 -1.5875 v -5.423958 -5.423958 h 1.5875 1.5875 V 78.08865 77.162608 h 1.32292 1.32292 v -1.269979 c 0,-1.07665 0.17347,-1.509628 1.13954,-2.844271 1.30223,-1.79905 1.5816,-2.23575 1.43027,-2.23575 -0.059,0 -0.69108,0.831504 -1.40467,1.847787 -1.29464,1.843796 -1.30015,1.847794 -2.55421,1.852083 l -1.25677,0.0043 V 62.345942 50.175109 H 112.19871 101.80555 L 91.635635,46.470943 c -5.593453,-2.037292 -10.203402,-3.704167 -10.244331,-3.704167 -0.04093,0 -0.07442,-0.47625 -0.07442,-1.058333 V 40.65011 h -1.322916 -1.322917 v 5.820833 5.820833 H 75.36376 72.056469 v -0.661458 c 0,-0.595313 -0.105833,-0.661459 -1.058333,-0.661459 -0.9525,0 -1.058334,0.06615 -1.058334,0.661459 v 0.661458 h -2.778125 -2.778124 v -0.661458 c 0,-0.64256 -0.05292,-0.661459 -1.852084,-0.661459 h -1.852083 v -1.984375 -1.984375 h -1.984375 -1.984375 v -4.413765 -4.413769 l 1.389063,-2.325592 1.389062,-2.325592 9.591146,-0.0075 9.591145,-0.0075 v 0.79375 c 0,0.77611 0.0294,0.79375 1.322917,0.79375 1.293518,0 1.322916,-0.01765 1.322916,-0.79375 v -0.79375 h 6.35 6.349999 v 2.645833 2.645834 h 2.116667 2.116667 V 36.152193 33.50636 h 1.852082 1.85208 V 32.315735 31.12511 H 90.709593 79.464802 v -4.101041 -4.101042 h -1.852083 c -1.058334,0 -1.852084,0.113393 -1.852084,0.264584 0,0.14552 -0.238125,0.264583 -0.529166,0.264583 -0.291042,0 -0.529167,0.119062 -0.529167,0.264583 0,0.145521 -0.178594,0.264584 -0.396875,0.264584 -0.246943,0 -0.396875,0.249883 -0.396875,0.661458 v 0.661458 h -9.524999 -9.525 v -0.661458 c 0,-0.558565 -0.123473,-0.661458 -0.79375,-0.661458 -0.670277,0 -0.79375,0.102893 -0.79375,0.661458 v 0.661458 h -4.211285 c -2.316205,0 -4.25097,-0.08989 -4.299479,-0.199755 -0.04851,-0.109866 -0.900364,-0.841256 -1.893017,-1.625311 -1.51992,-1.200518 -1.858489,-1.367378 -2.144784,-1.057013 -0.186978,0.202694 -2.165323,2.630725 -4.396319,5.395621 -2.230996,2.764895 -4.21264,5.122296 -4.403653,5.238667 -0.276982,0.168746 -0.347295,2.271279 -0.347295,10.384896 v 10.17331 h 1.5875 1.5875 v 2.116667 2.116667 h 5.159374 5.159375 v -2.116667 -2.116667 h 5.820833 c 5.644444,0 5.820833,-0.01603 5.820833,-0.529166 0,-0.518941 0.17639,-0.529167 9.128125,-0.529167 h 9.128124 v 1.852083 c 0,1.675694 0.0504,1.852084 0.529167,1.852084 0.411575,0 0.529167,0.176389 0.529167,0.79375 0,0.77611 0.0294,0.79375 1.322916,0.79375 h 1.322917 v 0.926041 0.926042 h 10.451041 10.451041 v 9.392708 9.392708 h -2.778125 -2.778125 v 1.058333 c 0,0.999537 0.0441,1.058333 0.79375,1.058333 0.749652,0 0.79375,0.0588 0.79375,1.058333 v 1.058334 h 1.984375 1.984375 l -1.24e-4,8.532812 -1.24e-4,8.532812 10.451164,-0.07494 10.45117,-0.07494 v 1.993178 c 0,1.67133 0.0701,1.99317 0.43412,1.99317 0.27642,0 0.0121,0.36994 -0.7276,1.01832 -1.71958,1.5073 -2.58327,2.34108 -1.96845,1.90028 0.29818,-0.21378 0.92909,-0.74315 1.40203,-1.17638 l 0.8599,-0.78769 v 5.07898 5.07899 h 0.79375 c 0.70555,0 0.79375,0.0882 0.79375,0.79375 v 0.79375 h -6.61459 -6.61458 v 7.80521 7.80521 h 1.32292 1.32291 v 1.5875 1.5875 h -1.32291 -1.32292 v 0.92604 0.92604 h -7.40833 -7.408336 v 8.73125 8.73125 h 7.408336 7.40833 v 15.875 15.875 h -1.85208 -1.85209 v 1.19062 c 0,1.18433 0.005,1.19063 0.92605,1.19063 h 0.92604 v 1.71979 1.71979 h 1.19062 c 1.09361,0 1.19063,-0.0539 1.19063,-0.66146 z m 13.22916,-37.70312 c 0,-0.16036 1.14653,-0.26459 2.91042,-0.26459 1.76389,0 2.91042,0.10423 2.91042,0.26459 0,0.16035 -1.14653,0.26458 -2.91042,0.26458 -1.76389,0 -2.91042,-0.10423 -2.91042,-0.26458 z m -10.84791,-20.10833 v -1.5875 h 4.10104 4.10104 v 1.5875 1.5875 h -4.10104 -4.10104 z m -2.64584,-15.34584 v -1.5875 h 6.4823 6.48229 v 1.5875 1.5875 h -6.48229 -6.4823 z m 11.97845,-14.02291 c 0.37,-0.29105 0.74324,-0.52917 0.82943,-0.52917 0.0862,0 0.15671,0.23812 0.15671,0.52917 0,0.41663 -0.17639,0.52916 -0.82944,0.52916 h -0.82943 z M 95.868968,80.602191 v -1.852083 h 1.852083 1.852083 v 1.852083 1.852083 h -1.852083 -1.852083 z m -1.5875,-1.058333 c 0,-0.670277 0.102894,-0.79375 0.661458,-0.79375 0.558565,0 0.661458,0.123473 0.661458,0.79375 0,0.670277 -0.102893,0.79375 -0.661458,0.79375 -0.558564,0 -0.661458,-0.123473 -0.661458,-0.79375 z M 35.014804,55.599067 v -1.984375 h 3.96875 3.96875 v 1.984375 1.984375 h -3.96875 -3.96875 z m 8.202083,0 v -1.984375 h 0.79375 0.79375 v 1.984375 1.984375 h -0.79375 -0.79375 z m 33.072915,1.322917 c 0,-0.607563 0.09701,-0.661458 1.190625,-0.661458 1.09361,0 1.190625,0.0539 1.190625,0.661458 0,0.607563 -0.09701,0.661458 -1.190625,0.661458 -1.09361,0 -1.190625,-0.05389 -1.190625,-0.661458 z m -1.058333,-1.5875 c 0,-0.637715 0.06173,-0.661458 1.719791,-0.661458 1.658057,0 1.719792,0.02373 1.719792,0.661458 0,0.637715 -0.06173,0.661458 -1.719792,0.661458 -1.658056,0 -1.719791,-0.02373 -1.719791,-0.661458 z m 0,-1.852083 v -0.926042 h 1.719791 1.719792 v 0.926042 0.926041 H 76.95126 75.231469 Z M 94.281468,37.739693 v -0.79375 h 1.852083 1.852083 v 0.79375 0.79375 h -1.852083 -1.852083 z m 0,-2.645833 v -1.5875 h 1.852083 1.852083 v 1.5875 1.5875 H 96.133551 94.281468 Z M 74.173135,24.775111 c 0,-0.293982 0.17639,-0.529167 0.396875,-0.529167 0.218282,0 0.396875,-0.119063 0.396875,-0.264583 0,-0.145521 0.178594,-0.264584 0.396875,-0.264584 0.264584,0 0.396875,0.264584 0.396875,0.79375 0,0.705557 -0.08819,0.79375 -0.79375,0.79375 -0.61736,0 -0.79375,-0.117591 -0.79375,-0.529166 z M 139.20679,190.37041 c 0.2479,-0.45518 0.83767,-1.40481 1.31061,-2.11028 0.94238,-1.40573 1.06427,-2.36617 0.55629,-4.38354 -0.27482,-1.09141 -0.43164,-1.26536 -1.65365,-1.83437 -0.74252,-0.34573 -1.84236,-0.62978 -2.44408,-0.6312 -0.90463,-0.002 -1.17544,0.12339 -1.56415,0.72502 -0.25856,0.40018 -0.76285,1.0031 -1.12064,1.33982 -0.53461,0.50312 -0.62323,0.78054 -0.49727,1.5567 0.10587,0.65239 -0.007,1.27621 -0.365,2.01716 -0.28505,0.58998 -0.51827,1.46286 -0.51827,1.93973 0,1.06209 0.51555,1.38497 2.91042,1.82276 2.73454,0.49988 2.88349,0.48044 3.38574,-0.4418 z m -3.12116,0.17722 c -3.03859,-0.55546 -3.42779,-1.0898 -2.37736,-3.26392 0.39125,-0.8098 0.48873,-1.38044 0.36645,-2.14513 -0.14157,-0.88535 -0.0803,-1.0947 0.40802,-1.3938 0.31604,-0.19358 0.81569,-0.73892 1.11033,-1.21186 0.62381,-1.00129 1.30354,-1.09237 3.23668,-0.43368 1.54301,0.52576 2.02679,1.22974 2.20642,3.21074 0.12533,1.38221 0.0689,1.62321 -0.5534,2.36275 -0.38114,0.45296 -0.69297,0.92755 -0.69297,1.05467 0,0.44872 -1.34632,2.20555 -1.66319,2.17032 -0.17665,-0.0196 -1.09509,-0.17718 -2.04098,-0.35009 z m 28.04583,-2.10269 c 2.00058,-0.49982 4.67161,-1.60988 5.86696,-2.43826 0.54782,-0.37964 1.35964,-1.25687 1.80404,-1.94941 0.4444,-0.69254 1.05471,-1.54207 1.35625,-1.88785 1.46068,-1.675 1.40932,-1.12947 1.51032,-16.04067 l 0.0936,-13.82448 h -3.83379 -3.83379 l -1.24159,3.37344 c -0.68287,1.85539 -1.77055,4.80219 -2.41705,6.54844 l -1.17546,3.175 -6.60539,4.20511 c -3.63296,2.31281 -6.60538,4.2601 -6.60538,4.32731 0,0.0672 0.7739,1.58102 1.71979,3.36404 l 1.71979,3.24185 v 4.13865 4.13866 l 5.09323,-0.004 c 3.42459,-0.003 5.56998,-0.12324 6.54843,-0.3677 z m -0.79375,-5.68414 v -5.5857 h 5.42396 5.42396 v 1.42405 c 0,1.30141 -0.14242,1.64129 -1.65365,3.94635 -0.9095,1.38726 -1.98607,2.78307 -2.39237,3.10182 -0.85951,0.67427 -4.64898,2.29528 -5.92564,2.53479 l -0.87626,0.16438 z m -67.468742,4.46847 v -1.32292 h -1.190625 -1.190625 v -3.83646 -3.83645 h -8.73125 -8.731249 v 3.83645 3.83646 H 74.57001 73.114802 v 1.32292 1.32292 H 84.491885 95.868968 Z M 75.496052,145.99023 v -8.95986 l -1.227553,-0.16826 c -0.675156,-0.0925 -1.858391,-0.16825 -2.629416,-0.16825 -2.968008,0 -8.023907,-1.53633 -11.978157,-3.63979 -4.237271,-2.254 -7.377483,-4.95411 -10.164339,-8.73978 -1.428803,-1.9409 -3.861096,-6.64376 -4.679722,-9.04829 -0.608182,-1.78641 -1.321295,-6.36252 -1.33023,-8.53621 l -0.0052,-1.25677 h 1.852084 1.852083 v -2.91041 -2.91042 h 6.349999 6.35 v 1.85208 1.85209 h 2.248958 2.248959 v -1.85209 -1.85208 h 2.778124 2.778125 v -7.805208 -7.805208 h -0.79375 -0.79375 v 4.744926 4.744927 l -0.705662,0.08372 c -0.512569,0.06081 -0.784063,0.305665 -0.992187,0.894831 -0.157589,0.446112 -0.811178,1.428377 -1.452422,2.182813 l -1.165895,1.3717 H 55.61085 c -5.440444,0 -8.425248,-0.09373 -8.425248,-0.264583 0,-0.171622 -3.439583,-0.264583 -9.789583,-0.264583 H 27.606471 V 111.77276 126.01 l 16.073437,14.46691 16.073437,14.46692 7.871353,0.003 7.871354,0.003 z M 60.150219,102.29802 v -0.79375 h 1.984375 1.984375 v 0.79375 0.79375 h -1.984375 -1.984375 z m 0,-1.85208 v -0.79375 h 1.984375 1.984375 v 0.79375 0.79375 h -1.984375 -1.984375 z m -12.964582,-1.5875 c 0,-0.520456 0.17639,-0.529166 10.715624,-0.529166 h 10.715625 v -7.011458 c 0,-6.835069 0.01331,-7.011458 0.529166,-7.011458 0.51679,0 0.529167,0.176389 0.529167,7.540624 v 7.540625 H 58.430428 c -11.068401,0 -11.244791,-0.0083 -11.244791,-0.529167 z m 17.462499,-0.931952 c 0,-0.07601 0.459248,-0.641559 1.020551,-1.256771 0.5613,-0.615212 1.136173,-1.475756 1.277493,-1.912318 0.164184,-0.507191 0.464383,-0.824273 0.831535,-0.878298 0.549243,-0.08082 0.574587,0.0096 0.574587,2.050521 v 2.135068 h -1.852083 c -1.018646,0 -1.852083,-0.06219 -1.852083,-0.138202 z M 21.256471,147.0126 c 0,-0.67027 -0.102893,-0.79375 -0.661458,-0.79375 -0.558564,0 -0.661458,0.12348 -0.661458,0.79375 0,0.67028 0.102894,0.79375 0.661458,0.79375 0.558565,0 0.661458,-0.12347 0.661458,-0.79375 z m 111.654159,-2.11666 v -1.05834 h -3.04271 -3.0427 v 1.05834 1.05833 h 3.0427 3.04271 z M 87.529201,122.85963 c 1.138539,-0.64483 2.242942,-2.29394 2.249998,-3.35972 0.0032,-0.48262 0.817856,-1.47311 3.063235,-3.72435 l 3.058879,-3.06687 -1.423591,-1.21622 -1.423593,-1.21621 -2.200002,1.96401 c -1.21,1.0802 -2.243968,1.964 -2.297705,1.964 -0.05374,0 -0.541994,-0.23812 -1.085017,-0.52916 -1.357206,-0.72743 -4.193558,-0.73045 -5.613611,-0.006 -0.991674,0.5059 -2.128409,1.76736 -2.128409,2.36192 0,0.19725 -1.26837,0.28989 -3.96875,0.28989 h -3.968749 v 2.24896 2.24896 h 3.937346 3.937346 l 0.674243,0.88397 c 0.980276,1.28521 2.115786,1.74952 4.283356,1.75148 1.435952,0.001 2.08866,-0.13232 2.905024,-0.59468 z M 82.73335,122.2629 c -1.752957,-0.76829 -2.779418,-3.08814 -2.208926,-4.99226 0.897913,-2.99697 4.552521,-4.15853 7.00769,-2.2273 2.202267,1.73231 1.82562,5.83089 -0.651999,7.09487 -1.198843,0.61161 -2.917878,0.6633 -4.146765,0.12469 z m -10.676881,-3.693 v -1.98438 h 3.683264 3.683262 l 0.08705,1.98499 0.08705,1.985 -3.770313,-5.3e-4 -3.770312,-7.1e-4 z m 17.727082,-1.06677 c 0,-0.58175 -0.241435,-1.5082 -0.536522,-2.05877 l -0.536522,-1.00103 1.396418,-1.27383 c 0.76803,-0.70061 1.754701,-1.57429 2.192599,-1.94152 l 0.796182,-0.66769 1.260089,1.09439 1.260086,1.09438 -2.916166,2.90591 -2.916164,2.9059 z m 109.122929,1.96057 c 1.31941,-1.34492 2.16082,-2.27481 1.86977,-2.06643 -0.49,0.35084 -0.5019,0.34414 -0.16073,-0.0905 0.20264,-0.25818 0.43373,-0.40411 0.51355,-0.3243 0.0798,0.0798 0.71769,-0.41884 1.4175,-1.10813 l 1.27239,-1.25326 v -8.64457 -8.644567 l -3.91772,-3.716716 -3.91772,-3.716718 -14.09465,-0.02657 -14.09466,-0.02657 -3.81575,3.613277 -3.81575,3.613277 v 8.771717 8.77173 l 1.85924,1.84499 c 1.02258,1.01474 1.91555,1.81522 1.98437,1.77884 0.0688,-0.0364 0.0954,-0.01 0.059,0.059 -0.0364,0.0688 0.76729,0.96862 1.78594,1.99954 l 1.85208,1.8744 14.40209,-0.13155 14.4021,-0.13154 z m -2.76043,2.31359 c 0,-0.0549 0.20836,-0.2633 0.46302,-0.46302 0.41964,-0.32911 0.429,-0.31975 0.0999,0.0999 -0.34564,0.44073 -0.56291,0.58089 -0.56291,0.36312 z m 1.05833,-1.05833 c 0,-0.0549 0.20836,-0.2633 0.46302,-0.46302 0.41965,-0.32911 0.429,-0.31975 0.0999,0.0999 -0.34565,0.44073 -0.56292,0.58089 -0.56292,0.36313 z m 1.05833,-1.05833 c 0,-0.0549 0.20836,-0.2633 0.46302,-0.46302 0.41965,-0.32911 0.42901,-0.31975 0.0999,0.0999 -0.34564,0.44073 -0.56292,0.58089 -0.56292,0.36313 z m 1.05834,-1.05834 c 0,-0.0549 0.20836,-0.2633 0.46302,-0.46302 0.41964,-0.3291 0.429,-0.31975 0.0999,0.0999 -0.34564,0.44073 -0.56291,0.58089 -0.56291,0.36312 z m -37.53204,-2.63894 c -1.28529,-1.30146 -1.38976,-1.49932 -1.29221,-2.4474 l 0.10613,-1.03147 0.0445,1.05001 c 0.0374,0.88295 0.26405,1.27235 1.42451,2.4474 0.75901,0.76856 1.32049,1.39738 1.24773,1.39738 -0.0728,0 -0.76155,-0.63716 -1.53063,-1.41592 z m 2.60704,-9.96116 v -7.408333 h 7.27604 7.27604 v 7.408333 7.40833 h -7.27604 -7.27604 z m 20.6375,0 v -7.408333 h 7.27604 7.27604 v 7.408333 7.40833 h -7.27604 -7.27604 z m -5.82084,0 v -1.85208 h 2.77813 2.77812 v 1.85208 1.85208 h -2.77812 -2.77813 z m 22.3502,-10.384895 -1.84499,-1.91823 1.91823,1.844988 c 1.05503,1.014743 1.91823,1.877946 1.91823,1.918229 0,0.194074 -0.27785,-0.06334 -1.99147,-1.844987 z m -38.48978,-1.092084 c 0,-0.05494 0.20836,-0.2633 0.46302,-0.463021 0.41965,-0.329107 0.42901,-0.319749 0.0999,0.0999 -0.34565,0.44073 -0.56292,0.580888 -0.56292,0.363125 z m 33.86667,-3.207395 c -0.64268,-0.654844 -1.10898,-1.190625 -1.03622,-1.190625 0.0728,0 0.65812,0.535781 1.3008,1.190625 0.64268,0.654843 1.10898,1.190625 1.03622,1.190625 -0.0728,0 -0.65812,-0.535782 -1.3008,-1.190625 z m -32.80834,26.987494 c 0,-0.0728 -0.0595,-0.13229 -0.13229,-0.13229 -0.0728,0 -0.13229,0.0595 -0.13229,0.13229 0,0.0728 0.0595,0.1323 0.13229,0.1323 0.0728,0 0.13229,-0.0595 0.13229,-0.1323 z M 6.9689721,105.73761 c 0,-0.51343 0.1763898,-0.52917 5.9311189,-0.52917 h 5.93112 l 0.101719,-5.886979 c 0.101428,-5.870191 0.104021,-5.892376 0.908785,-7.779702 1.11768,-2.621174 3.384968,-5.134149 5.64197,-6.253342 l 1.713669,-0.849768 12.639976,-0.07587 12.639973,-0.07587 v 2.258687 2.258684 h 1.984375 1.984375 V 77.824066 66.843858 H 43.878345 31.310638 l -0.0055,1.653646 -0.0055,1.653646 -7.2044,4.562014 c -3.962421,2.50911 -7.914089,5.200685 -8.781486,5.981279 l -1.577083,1.419262 1.538758,1.752672 1.538761,1.752671 -0.677407,0.805053 c -0.372573,0.442778 -1.545953,1.754703 -2.607509,2.915385 l -1.930085,2.110338 -6.548437,1.4e-4 -6.5484371,1.43e-4 v 6.879167 6.879166 H 1.941889 c 3.2631934,0 3.4395832,0.0271 3.4395832,0.52917 0,0.41157 0.1763897,0.52916 0.7937499,0.52916 0.6173602,0 0.79375,-0.11759 0.79375,-0.52916 z M 52.741887,86.423024 v -2.116666 h 1.719791 1.719792 v 2.116666 2.116667 H 54.461678 52.741887 Z M 169.9523,81.395941 v -5.027083 h -1.05834 c -1.03313,0 -1.05833,0.02204 -1.05833,0.926042 v 0.926041 h -2.91042 -2.91041 v 2.248958 2.248959 h 1.85208 1.85208 v 1.852083 1.852083 h 2.11667 2.11667 z m -3.96875,3.042708 v -1.719791 h 1.85208 1.85208 v 1.719791 1.719792 h -1.85208 -1.85208 z m -3.70417,-3.96875 v -1.984374 h 1.71979 1.71979 v 1.984374 1.984375 h -1.71979 -1.71979 z m 3.70417,0 v -1.984374 h 1.85208 1.85208 v 1.984374 1.984375 h -1.85208 -1.85208 z m 2.11666,-3.042708 c 0,-0.705556 0.0882,-0.79375 0.79375,-0.79375 0.70556,0 0.79375,0.08819 0.79375,0.79375 0,0.705557 -0.0882,0.79375 -0.79375,0.79375 -0.70555,0 -0.79375,-0.08819 -0.79375,-0.79375 z m -187.060403,1.322917 v -3.96875 H -4.9372773 9.0856387 V 60.62615 46.470943 H -4.9372773 -18.960193 v -3.96875 -3.96875 h -3.96875 -3.96875 v 8.73125 c 0,8.55486 0.01069,8.731249 0.529167,8.731249 0.509568,0 0.529166,-0.176389 0.529166,-4.762499 v -4.7625 h 3.439584 3.439583 V 60.62615 74.781358 h -3.439583 -3.439584 v -4.7625 c 0,-4.58611 -0.0196,-4.762499 -0.529166,-4.762499 -0.518477,0 -0.529167,0.176389 -0.529167,8.731249 v 8.73125 h 3.96875 3.96875 z m -7.672917,0 v -3.704167 h 3.704167 3.704166 v 3.704167 3.704166 h -3.704166 -3.704167 z m 0,-8.598958 c 0,-2.910417 0.09827,-4.630208 0.264584,-4.630208 0.166309,0 0.264583,1.719791 0.264583,4.630208 0,2.910416 -0.09827,4.630208 -0.264583,4.630208 -0.16631,0 -0.264584,-1.719792 -0.264584,-4.630208 z m 0,-19.049999 c 0,-2.910417 0.09827,-4.630208 0.264584,-4.630208 0.166309,0 0.264583,1.719791 0.264583,4.630208 0,2.910416 -0.09827,4.630208 -0.264583,4.630208 -0.16631,0 -0.264584,-1.719792 -0.264584,-4.630208 z m 0,-8.598958 v -3.704166 h 3.704167 3.704166 v 3.704166 3.704166 h -3.704166 -3.704167 z M 88.066564,75.72541 c 0.373708,-0.992849 0.64502,-1.833425 0.602914,-1.867945 -0.26915,-0.220665 -1.326258,-0.691084 -1.390771,-0.618898 -0.04305,0.04817 -0.446397,0.82204 -0.896327,1.719713 l -0.818057,1.632127 0.845897,0.535583 c 0.465241,0.294571 0.875366,0.506113 0.911384,0.470093 0.03602,-0.03602 0.371252,-0.877824 0.74496,-1.870673 z m -1.766824,1.106088 c -0.402555,-0.273775 -0.37307,-0.434758 0.337429,-1.842246 0.686863,-1.360668 0.838655,-1.51008 1.289187,-1.268963 0.501912,0.268616 0.500894,0.300445 -0.05945,1.857809 -0.581425,1.615945 -0.789448,1.782318 -1.567162,1.2534 z m -3.862453,-2.84389 c 0.54918,0 0.546301,0.214662 0.04289,-3.199109 l -0.15962,-1.082442 -1.8909,0.186055 c -1.039996,0.102331 -1.931655,0.223385 -1.981465,0.269013 -0.04981,0.04563 -0.0046,1.000133 0.100428,2.121122 l 0.190992,2.038162 1.59203,-0.166402 c 0.875617,-0.09152 1.823156,-0.166399 2.105641,-0.166399 z m -3.626408,-1.740601 c -0.102521,-0.957331 -0.146159,-1.777381 -0.09697,-1.822331 0.04919,-0.04495 0.826148,-0.165478 1.726578,-0.267837 l 1.637141,-0.186108 0.161206,1.016251 c 0.468336,2.952456 0.576492,2.641269 -0.983131,2.828591 -2.357181,0.283118 -2.238362,0.35935 -2.444824,-1.568566 z m -8.175765,0.948933 c 1.992127,-0.435414 3.66772,-0.837337 3.723542,-0.893159 0.05582,-0.05582 -0.09811,-0.896149 -0.342085,-1.867394 -0.423005,-1.683986 -0.475686,-1.759482 -1.135695,-1.627532 -0.380664,0.0761 -2.061334,0.392676 -3.734824,0.703498 -1.673489,0.310822 -3.073439,0.592818 -3.110999,0.626658 -0.09631,0.08677 0.766389,3.849597 0.882589,3.849597 0.05248,0 1.725345,-0.356251 3.717472,-0.791668 z m -3.757766,-0.196969 c -0.09015,-0.402135 -0.268181,-1.141179 -0.395636,-1.642319 -0.127453,-0.501142 -0.19594,-0.946957 -0.152191,-0.990705 0.132024,-0.132025 6.907527,-1.37137 6.998723,-1.280174 0.178702,0.178703 0.819428,2.898828 0.708861,3.009392 -0.0641,0.0641 -1.399167,0.395505 -2.966818,0.736463 -1.567653,0.340955 -3.115497,0.682598 -3.439657,0.759208 -0.477655,0.112887 -0.62045,7.94e-4 -0.753282,-0.591865 z M 20.727305,45.280318 V 36.68136 h -0.79375 -0.79375 v 8.598958 8.598958 h 0.79375 0.79375 z m -1.322917,0 c 0,-8.157985 0.01119,-8.334375 0.529167,-8.334375 0.517967,0 0.529166,0.17639 0.529166,8.334375 0,8.157985 -0.01119,8.334374 -0.529166,8.334374 -0.517967,0 -0.529167,-0.176389 -0.529167,-8.334374 z M 31.476793,22.72459 c 1.162857,-1.273307 2.571628,-2.825644 3.1306,-3.449638 l 1.016318,-1.13453 -0.750829,-0.783699 c -0.412957,-0.431032 -0.826106,-0.783695 -0.91811,-0.783695 -0.14216,0 -3.680439,3.928273 -5.806254,6.446231 l -0.648579,0.76822 0.78087,0.624793 c 0.42948,0.343635 0.848556,0.625385 0.931286,0.626107 0.08273,7.94e-4 1.101841,-1.040482 2.264698,-2.313789 z m 47.988009,-8.268229 v -1.852083 h -1.852083 c -1.469909,0 -1.852084,0.08189 -1.852084,0.396875 0,0.246943 -0.249883,0.396875 -0.661458,0.396875 -0.595312,0 -0.661458,0.105833 -0.661458,1.058333 0,0.9525 0.06615,1.058333 0.661458,1.058333 0.411575,0 0.661458,0.149932 0.661458,0.396875 0,0.314981 0.382175,0.396875 1.852084,0.396875 h 1.852083 z m -4.7625,0 c 0,-0.61736 0.117592,-0.79375 0.529167,-0.79375 0.411575,0 0.529166,0.17639 0.529166,0.79375 0,0.61736 -0.117591,0.79375 -0.529166,0.79375 -0.411575,0 -0.529167,-0.17639 -0.529167,-0.79375 z M 162.0148,202.51245 c 7.81075,-3.44122 10.56296,-5.02086 14.57972,-8.36806 2.10106,-1.75084 2.52859,-2.28949 5.54466,-6.98581 4.2568,-6.62825 5.33487,-9.37473 5.78854,-14.74673 0.62735,-7.42869 0.87839,-9.09634 2.68827,-17.85862 1.02197,-4.94771 1.91843,-9.20419 1.99213,-9.45885 0.11473,-0.39642 0.47399,-0.46303 2.49742,-0.46303 h 2.36342 v 5.41487 c 0,3.44504 -0.14888,6.48231 -0.40927,8.34918 -0.3401,2.43846 -0.35852,3.47954 -0.10898,6.16066 0.18532,1.99109 0.22812,4.74368 0.1118,7.18948 l -0.18849,3.96314 -3.2584,9.11242 -3.25839,9.11241 -2.31282,2.32359 c -2.28415,2.29478 -2.3701,2.34999 -6.93236,4.45309 l -4.61954,2.1295 -7.56959,-0.0179 c -5.7476,-0.0136 -7.41037,-0.088 -6.90812,-0.30933 z m -23.74636,-44.32921 c -1.00782,-0.38725 -1.12447,-0.52247 -1.12447,-1.30344 0,-0.85634 0.0205,-0.87136 1.19062,-0.87136 h 1.19063 v 1.32291 c 0,0.72761 -0.0298,1.31415 -0.0661,1.30344 -0.0364,-0.0107 -0.57216,-0.21392 -1.19063,-0.45155 z m -2.24895,-0.87308 c -0.72829,-0.42419 -0.59452,-1.30172 0.19843,-1.30172 0.55857,0 0.66146,0.12347 0.66146,0.79375 0,0.85082 -0.13467,0.93037 -0.85989,0.50797 z m -1.71979,-0.83089 c -0.46445,-0.224 -0.59532,-0.51087 -0.59532,-1.30501 0,-0.98693 0.0282,-1.01791 0.92604,-1.01791 1.00405,0 1.08552,0.19483 0.76068,1.81901 -0.18097,0.90484 -0.22138,0.9235 -1.0914,0.50391 z m 1.52135,-1.52917 v -0.79375 h 1.85208 1.85209 v 0.79375 0.79375 h -1.85209 -1.85208 z m -3.96875,-1.32291 c 0,-0.15959 1.10243,-0.26459 2.77812,-0.26459 1.6757,0 2.77813,0.105 2.77813,0.26459 0,0.15959 -1.10243,0.26458 -2.77813,0.26458 -1.67569,0 -2.77812,-0.10499 -2.77812,-0.26458 z m -148.695827,-6.21771 v -0.92604 h 8.0697915 8.06979131 v 0.92604 0.92604 H -8.7737355 -16.843527 Z m -3.96875,-17.99167 v -1.71979 h 1.5875 1.5875 v 1.71979 1.7198 h -1.5875 -1.5875 z m 3.439584,0 v -1.71979 h 1.852083 1.852083 v 1.71979 1.7198 h -1.852083 -1.852083 z m 183.620823,-1.5875 v -1.71979 h 2.64583 2.64584 v 1.71979 1.7198 h -2.64584 -2.64583 z m -13.49375,-3.83645 v -1.85209 h 1.71979 1.71979 v 1.85209 1.85208 h -1.71979 -1.71979 z m 3.70417,1.05833 c 0,-0.73075 0.0735,-0.79375 0.92604,-0.79375 0.85255,0 0.92604,0.063 0.92604,0.79375 0,0.73075 -0.0735,0.79375 -0.92604,0.79375 -0.85255,0 -0.92604,-0.063 -0.92604,-0.79375 z M 140.05438,96.344899 c 0,-0.485069 0.14111,-0.661459 0.52917,-0.661459 0.38806,0 0.52917,0.17639 0.52917,0.661459 0,0.485068 -0.14111,0.661458 -0.52917,0.661458 -0.38806,0 -0.52917,-0.17639 -0.52917,-0.661458 z m 0,-2.645834 v -1.719791 h 1.71979 1.7198 v 1.719791 1.719792 h -1.7198 -1.71979 z m 3.70417,0 c 0,-1.658056 0.0237,-1.719791 0.66146,-1.719791 0.63771,0 0.66146,0.06173 0.66146,1.719791 0,1.658057 -0.0237,1.719792 -0.66146,1.719792 -0.63772,0 -0.66146,-0.06173 -0.66146,-1.719792 z m 6.08542,-43.920831 c 0,-0.337658 0.69085,-0.396875 4.6302,-0.396875 3.93936,0 4.63021,0.05922 4.63021,0.396875 0,0.337659 -0.69085,0.396875 -4.63021,0.396875 -3.93935,0 -4.6302,-0.05922 -4.6302,-0.396875 z m 0,-8.466666 c 0,-0.337659 0.69085,-0.396875 4.6302,-0.396875 3.93936,0 4.63021,0.05922 4.63021,0.396875 0,0.337659 -0.69085,0.396875 -4.63021,0.396875 -3.93935,0 -4.6302,-0.05922 -4.6302,-0.396875 z M 142.09095,9.4954238 c -0.0612,-0.1091406 -0.19297,-0.555625 -0.29276,-0.9921875 -0.0998,-0.4365624 -0.24334,-1.0021093 -0.31899,-1.2567707 -0.10844,-0.3649903 0.0224,-0.4630209 0.61799,-0.4630209 0.5663,0 0.98901,0.281668 1.68757,1.1244792 1.49806,1.8073977 1.49959,1.7859374 -0.12727,1.7859374 -0.80037,0 -1.50531,-0.089297 -1.56654,-0.1984375 z m -6.2699,-2.0505207 c 0,-0.6075617 0.097,-0.6614584 1.19062,-0.6614584 1.09361,0 1.19063,0.053897 1.19063,0.6614584 0,0.6075626 -0.097,0.6614583 -1.19063,0.6614583 -1.09361,0 -1.19062,-0.053896 -1.19062,-0.6614583 z M 128.6773,7.3126114 c 0,-0.4283731 0.17639,-0.5291667 0.92604,-0.5291667 0.74965,0 0.92604,0.1007936 0.92604,0.5291667 0,0.4283731 -0.17639,0.5291666 -0.92604,0.5291666 -0.74965,0 -0.92604,-0.1007935 -0.92604,-0.5291666 z M 74.437719,4.6667782 c 0,-0.1455208 -0.297656,-0.2645833 -0.661459,-0.2645833 -0.411575,0 -0.661458,-0.1499307 -0.661458,-0.396875 0,-0.2939815 0.308682,-0.396875 1.190625,-0.396875 1.09361,0 1.190625,0.053897 1.190625,0.6614583 0,0.4850693 -0.14111,0.6614583 -0.529167,0.6614583 -0.291041,0 -0.529166,-0.1190625 -0.529166,-0.2645833 z M 53.535636,4.1376115 c 0,-0.4115741 0.17639,-0.5291666 0.79375,-0.5291666 0.617361,0 0.79375,0.1175925 0.79375,0.5291666 0,0.4115742 -0.176389,0.5291667 -0.79375,0.5291667 -0.61736,0 -0.79375,-0.1175925 -0.79375,-0.5291667 z"
         id="path2687" />
    </g>
  </g>
</svg>
