<?xml version="1.0" encoding="UTF-8" standalone="no"?>
<svg
   xmlns:dc="http://purl.org/dc/elements/1.1/"
   xmlns:cc="http://creativecommons.org/ns#"
   xmlns:rdf="http://www.w3.org/1999/02/22-rdf-syntax-ns#"
   xmlns:svg="http://www.w3.org/2000/svg"
   xmlns="http://www.w3.org/2000/svg"
   xmlns:sodipodi="http://sodipodi.sourceforge.net/DTD/sodipodi-0.dtd"
   xmlns:inkscape="http://www.inkscape.org/namespaces/inkscape"
   width="1436.4548"
   height="1436.4548"
   viewBox="0 0 380.062 380.062"
   version="1.1"
   id="svg8"
   inkscape:version="1.0.2-2 (e86c870879, 2021-01-15)"
   sodipodi:docname="ascent.svg">
  <defs
     id="defs2" />
  <sodipodi:namedview
     id="base"
     pagecolor="#ffffff"
     bordercolor="#666666"
     borderopacity="1.0"
     inkscape:pageopacity="0.0"
     inkscape:pageshadow="2"
     inkscape:zoom="0.33272382"
     inkscape:cx="-375.79155"
     inkscape:cy="442.14326"
     inkscape:document-units="mm"
     inkscape:current-layer="g2079"
     inkscape:document-rotation="0"
     showgrid="false"
     inkscape:window-width="1920"
     inkscape:window-height="1010"
     inkscape:window-x="-7"
     inkscape:window-y="-7"
     inkscape:window-maximized="1"
     units="px" />
  <metadata
     id="metadata5">
    <rdf:RDF>
      <cc:Work
         rdf:about="">
        <dc:format>image/svg+xml</dc:format>
        <dc:type
           rdf:resource="http://purl.org/dc/dcmitype/StillImage" />
        <dc:title></dc:title>
      </cc:Work>
    </rdf:RDF>
  </metadata>
  <g
     inkscape:label="Layer 1"
     inkscape:groupmode="layer"
     id="layer1"
     transform="translate(308.71358,-82.306931)">
    <g
       id="g841"
       transform="matrix(1.402788,0,0,1.402788,-330.63247,63.39016)">
      <g
         id="g2079"
         transform="translate(5.9923128,-1.2840669)">
        <path
           style="fill:#a3a188;stroke-width:0.264583"
           d="m 69.428752,254.87856 v -7.54063 h 1.852083 1.852083 v -0.79375 -0.79375 h -3.704166 -3.704167 v -9.525 -9.525 h 1.852083 1.852084 v -1.85208 -1.85208 H 67.576668 65.724585 V 209.7671 196.53793 h -0.926042 -0.926041 v 1.7198 1.71979 H 56.331877 48.791253 V 175.50356 151.0296 H 34.768337 20.745421 v -16.93333 -16.93333 h 13.890624 13.890624 v -1.05834 -1.05833 h -1.719791 -1.719792 v -5.68854 -5.68854 h 1.5875 1.5875 V 89.646273 75.623357 H 59.903752 71.545418 V 55.779608 35.935859 h 2.778125 2.778125 v 1.984375 1.984374 h 1.852083 1.852083 v -1.984374 -1.984375 h 0.79375 0.79375 v 12.303124 12.303124 h -0.79375 -0.79375 V 72.71294 c 0,7.9375 -0.09203,12.170833 -0.264583,12.170833 -0.145521,0 -0.264583,0.119062 -0.264583,0.264583 0,0.145521 0.297656,0.264584 0.661458,0.264584 0.650433,0 0.661458,0.03528 0.661458,2.116666 0,1.940277 0.0441,2.116667 0.529167,2.116667 0.482129,0 0.529167,0.176389 0.529167,1.984375 0,1.807985 -0.04704,1.984374 -0.529167,1.984374 -0.487664,0 -0.529167,0.17639 -0.529167,2.248959 v 2.248958 h -5.027083 -5.027083 v -6.35 c 0,-5.468056 0.05512,-6.349999 0.396875,-6.349999 0.218281,0 0.396875,-0.119063 0.396875,-0.264584 0,-0.169857 -2.55764,-0.264583 -7.14375,-0.264583 h -7.143749 v 9.524999 9.524998 h 10.318749 10.31875 v 1.85209 1.85208 h 1.944166 1.944169 l 0.172498,-2.81929 c 0.09488,-1.5506 0.1725,-4.28904 0.1725,-6.085411 v -3.266133 h 1.852083 1.852083 v -2.910417 -2.910416 h 1.058334 1.058333 l 0.0039,-1.389063 0.0039,-1.389062 2.752963,-1.918229 2.752963,-1.918229 h 6.5035 6.50351 v 1.846924 1.846923 l -5.75469,0.07674 -5.754684,0.07674 5.754684,0.06071 5.7547,0.06071 v 0.79375 c 0,0.730753 0.0735,0.79375 0.92604,0.79375 h 0.92604 v -4.497916 -4.497917 h 1.98437 1.98438 V 78.40148 77.210855 h -2.91042 -2.91041 v -1.71979 -1.719792 H 94.961042 82.657918 V 56.837941 39.904608 h 1.984375 1.984374 v -1.984374 -1.984375 h 7.408333 7.40833 v 1.984375 1.984374 h 2.11667 2.11667 v -1.984374 -1.984375 h 6.48229 6.48229 v 3.836458 3.836458 h 3.83646 3.83646 v 3.175 3.175 h 4.6302 4.63021 V 38.713983 27.469192 h 5.68854 5.68854 v 6.085417 6.085416 h -1.85208 -1.85208 v 2.910417 2.910416 h 1.85208 1.85208 V 64.246274 83.03169 h 1.05834 1.05833 v -3.175 -3.175 h 25.4 25.4 v 11.244791 11.244791 h -4.49792 c -4.32152,0 -4.49791,0.02074 -4.49791,0.529167 0,0.520001 0.17639,0.529171 10.18645,0.529171 h 10.18646 v -1.984379 -1.984375 h 9.65729 9.65729 v 11.244794 11.24479 h 2.6533 2.65331 l -0.0736,17.06569 c -0.0405,9.38613 0.0157,17.06566 0.12483,17.06562 0.10914,-3e-5 0.19843,0.47619 0.19843,1.05827 v 1.05833 h 13.36146 13.36146 v 5.01111 5.01112 l 0.9087,0.0821 c 0.71241,0.0644 1.65453,0.71083 4.36128,2.99254 l 3.45257,2.91041 0.004,5.22552 0.004,5.22552 h -14.41979 -14.41979 l -0.0402,2.31511 c -0.0221,1.27331 -0.008,5.08331 0.0324,8.46667 l 0.0726,6.15156 H 211.01253 179.2301 v 14.02291 14.02292 h -7.54063 -7.54062 v -3.70417 -3.70416 h -3.96875 -3.96875 v 3.70416 3.70417 H 148.93604 141.66 v -1.71979 c 0,-1.65806 -0.0237,-1.71979 -0.66146,-1.71979 -0.57956,0 -0.66146,0.11465 -0.66146,0.92604 v 0.92604 h -14.68437 -14.68438 v -14.15521 -14.15521 h -0.92604 -0.92604 v 24.60625 24.60625 h -3.70417 -3.70416 v -20.76979 c 0,-20.5934 -0.005,-20.76979 -0.52917,-20.76979 -0.50712,0 -0.52917,0.17639 -0.52917,4.23333 v 4.23334 H 87.420417 74.191251 v -4.23334 c 0,-3.58657 -0.06063,-4.23333 -0.396875,-4.23333 -0.337658,0 -0.396875,0.69086 -0.396875,4.63021 v 4.63021 H 85.303751 97.21 v 1.85208 1.85208 h 1.719792 1.719788 v 14.2875 14.2875 H 96.945417 93.24125 v 0.79375 0.79375 h 1.852084 1.852083 v 7.54063 7.54062 H 83.187084 69.428752 Z m 19.843749,-8.33438 v -0.79375 h -6.217708 -6.217708 v 0.79375 0.79375 h 6.217708 6.217708 z m -12.170833,0 c 0,-0.51349 0.17639,-0.52917 5.953125,-0.52917 5.776735,0 5.953124,0.0157 5.953124,0.52917 0,0.51349 -0.176389,0.52917 -5.953124,0.52917 -5.776735,0 -5.953125,-0.0157 -5.953125,-0.52917 z m 11.724864,-15.08125 h 1.504302 v -1.85208 -1.85208 h -1.799167 c -0.989541,0 -1.919806,-0.12064 -2.067253,-0.26809 -0.181062,-0.18106 -0.470879,-0.0522 -0.892788,0.39687 -0.456094,0.48549 -0.897893,0.66497 -1.636911,0.66497 h -1.012214 v 1.83945 1.83946 l 1.653646,0.0788 c 1.272812,0.0606 1.779439,-0.0279 2.199864,-0.38425 0.380606,-0.32263 1.002327,-0.46302 2.050521,-0.46302 z m -4.118094,0.58211 -1.521354,-0.0794 v -1.57429 -1.5743 h 0.879922 c 0.597721,0 1.080268,-0.21326 1.50462,-0.66496 0.421909,-0.44911 0.711726,-0.57794 0.892788,-0.39688 0.147447,0.14745 1.01818,0.26809 1.934962,0.26809 h 1.666875 v 1.5875 1.5875 h -1.37201 c -0.922203,0 -1.551086,0.1518 -1.91823,0.46302 -0.412456,0.34963 -0.918781,0.44359 -2.067573,0.38367 z M 141.66,205.93064 v -9.65729 h 2.64583 2.64583 v -5.55625 -5.55625 H 144.30583 141.66 v -9.92187 -9.92188 h 3.57187 c 3.39549,0 3.57188,-0.0261 3.57188,-0.52916 0,-0.52057 -0.17639,-0.52917 -10.84792,-0.52917 h -10.84791 v -2.77813 -2.77812 h 1.85208 1.85208 v -1.85208 -1.85209 H 128.96 127.10792 v -0.92604 c 0,-0.64676 -0.1197,-0.92604 -0.39688,-0.92604 -0.33453,0 -0.39687,0.60266 -0.39687,3.83646 v 3.83646 H 124.46208 122.61 v 1.71979 1.71979 h -5.82083 -5.82084 v -4.63021 -4.63021 h -8.73125 c -7.584719,0 -8.731246,0.0521 -8.731246,0.39688 0,0.3159 0.39134,0.39771 1.918229,0.40096 l 1.918229,0.004 3.108858,3.28184 3.10885,3.28184 v 6.76824 6.76825 h -6.482291 -6.482292 v 0.92604 0.92604 h 2.38125 2.38125 v 4.49792 4.49791 h -6.473036 -6.473034 l -0.08575,-2.71198 -0.08575,-2.71197 -0.0558,2.84427 -0.0558,2.84427 h 6.746875 6.746874 v -1.71979 c 0,-1.35231 0.0848,-1.71979 0.396875,-1.71979 0.328724,0 0.396875,-0.49977 0.396875,-2.91042 v -2.91041 h 2.248958 2.248966 v 2.91041 2.91042 h 4.10104 4.10104 v 2.64583 2.64584 h 0.92604 0.92604 v -3.70417 -3.70417 h 9.525 9.525 v 10.31875 10.31875 h -2.91041 -2.91042 v 5.68855 5.68854 h 8.06979 8.06979 v 1.05833 c 0,0.9525 0.0662,1.05833 0.66146,1.05833 H 141.66 Z m -46.0375,-25.4 c 0,-1.67569 0.104995,-2.77812 0.264584,-2.77812 0.159588,0 0.264583,1.10243 0.264583,2.77812 0,1.6757 -0.104995,2.77813 -0.264583,2.77813 -0.159589,0 -0.264584,-1.10243 -0.264584,-2.77813 z m 31.06824,-21.69583 c 2.2e-4,-3.05594 0.0387,-4.26986 0.0856,-2.6976 0.0469,1.57226 0.0467,4.07257 -2.7e-4,5.55625 -0.0471,1.48368 -0.0854,0.19729 -0.0852,-2.85865 z m -3.81616,3.70417 v -1.45521 h 1.5875 1.5875 v 1.45521 1.45521 h -1.5875 -1.5875 z m 4.49792,-5.68854 v -1.5875 h 1.5875 1.5875 v 1.5875 1.5875 h -1.5875 -1.5875 z m -34.197395,50.89781 c 0.538525,-0.14432 0.595312,-0.32064 0.595312,-1.84847 0,-0.92891 -0.0893,-1.68915 -0.198437,-1.68941 -0.109141,-2.7e-4 -0.158097,0.71411 -0.108792,1.5875 0.04931,0.87339 0.04931,1.61092 0,1.63897 -0.04931,0.028 -2.292302,0.12262 -4.984437,0.21016 l -4.894792,0.15918 4.497917,0.0508 c 2.473854,0.0279 4.765807,-0.021 5.093229,-0.10874 z m -9.988021,-0.23011 c 0,-0.0728 -0.05953,-0.13229 -0.132291,-0.13229 -0.07276,0 -0.132292,0.0595 -0.132292,0.13229 0,0.0728 0.05953,0.13229 0.132292,0.13229 0.07276,0 0.132291,-0.0595 0.132291,-0.13229 z m -0.529166,-0.26458 c 0,-0.0728 -0.05953,-0.13229 -0.132292,-0.13229 -0.07276,0 -0.132292,0.0595 -0.132292,0.13229 0,0.0728 0.05953,0.13229 0.132292,0.13229 0.07276,0 0.132292,-0.0595 0.132292,-0.13229 z m -1.05573,-0.79098 c -0.609227,-0.64849 -0.611116,-0.66794 -0.122087,-1.25677 l 0.496716,-0.59808 -0.637752,0.58877 -0.637752,0.58878 0.627547,0.66799 c 0.345152,0.3674 0.687081,0.668 0.759841,0.668 0.07276,0 -0.146169,-0.29641 -0.486513,-0.65869 z m 0.791146,-1.85485 c 0,-0.0728 -0.05953,-0.1323 -0.132291,-0.1323 -0.07276,0 -0.132292,0.0595 -0.132292,0.1323 0,0.0728 0.05953,0.13229 0.132292,0.13229 0.07276,0 0.132291,-0.0595 0.132291,-0.13229 z m 9.392708,-0.48477 c 0.727604,-0.0433 -0.879739,-0.099 -3.571875,-0.1237 -2.692135,-0.0247 -5.032867,0.0426 -5.201628,0.1495 -0.281162,0.17812 5.642728,0.1607 8.773503,-0.0258 z m 149.766608,-14.79492 1.04588,-1.12448 -1.06948,0.99219 c -0.89993,0.83487 -1.2545,0.99218 -2.23637,0.99218 -0.94754,0 -1.3433,-0.16162 -2.10551,-0.85989 l -0.93863,-0.8599 0.91179,0.99219 c 0.8001,0.87064 1.06093,0.99219 2.12912,0.99219 1.09169,0 1.32525,-0.11605 2.2632,-1.12448 z M 65.724585,187.93898 v -0.92605 h 5.423958 5.423958 v -4.6302 -4.63021 h 4.101042 4.101041 v -0.92604 -0.92604 H 82.790209 80.805834 V 165.84627 155.7921 h 2.116667 c 1.705091,0 2.116666,-0.0772 2.116666,-0.39687 0,-0.29986 -0.323379,-0.39688 -1.322916,-0.39688 h -1.322917 v -1.98437 -1.98438 h -8.863541 -8.863541 v -7.40833 c 0,-6.4088 -0.05355,-7.40833 -0.396875,-7.40833 -0.348859,0 -0.396875,2.16076 -0.396875,17.85937 v 17.85938 h -2.775125 -2.775121 l -0.07223,-10.64948 c -0.06686,-9.85644 -0.07693,-9.57074 -0.135295,3.83645 l -0.06306,14.48594 h 2.910416 2.910417 v 4.63021 4.63021 h 0.926041 c 0.881944,0 0.926042,-0.0441 0.926042,-0.92604 z m 170.578385,-1.25677 c -0.0631,-0.32743 -0.11466,-0.0595 -0.11466,0.59531 0,0.65484 0.0516,0.92273 0.11466,0.59531 0.0631,-0.32742 0.0631,-0.8632 0,-1.19062 z M 205.68916,173.78377 V 160.5546 h -0.92604 -0.92604 V 150.23585 139.9171 h 3.70416 3.70417 v -15.21354 -15.21354 h -7.54062 -7.54063 v 15.21354 15.21354 h -4.7625 -4.7625 v -1.85208 -1.85208 h -1.84049 -1.84049 l -0.0913,1.91823 c -0.0502,1.05502 -0.11497,-0.37373 -0.14388,-3.175 l -0.0526,-5.09323 h -13.22916 -13.22917 l 0.0599,5.09323 0.06,5.09323 0.0782,-4.96094 0.0782,-4.96094 h 12.95875 12.95874 v 4.89479 4.89479 l -7.34219,0.004 -7.34218,0.004 -1.91823,1.87817 -1.91823,1.87817 v 1.82156 1.82155 h -1.85209 -1.85208 v 1.98438 1.98437 h 1.85208 1.85209 v 6.4823 6.48229 h -4.63021 c -4.45382,0 -4.63021,0.0202 -4.63021,0.52916 0,0.50484 0.17639,0.52917 3.83646,0.52917 h 3.83646 v 7.14375 7.14375 h -3.83646 -3.83646 v 3.70417 3.70416 h 25.53229 25.53229 v -13.22916 z m -45.24375,-24.47396 v -1.71979 h 1.5875 1.5875 v 1.71979 1.71979 h -1.5875 -1.5875 z m 22.75417,-11.24479 v -1.5875 h 1.5875 1.5875 v 1.5875 1.5875 h -1.5875 -1.5875 z m 56.22395,46.0375 c 0.83067,0 1.24802,0.19667 2.10552,0.99219 l 1.06948,0.99218 -1.04588,-1.12448 c -0.90174,-0.9695 -1.19517,-1.12448 -2.12912,-1.12448 -0.93394,0 -1.22737,0.15498 -2.12911,1.12448 l -1.04588,1.12448 1.06948,-0.99218 c 0.8575,-0.79552 1.27485,-0.99219 2.10551,-0.99219 z m -18.45468,-12.6178 c -0.25466,-0.0666 -0.67138,-0.0666 -0.92604,0 -0.25466,0.0665 -0.0463,0.121 0.46302,0.121 0.50932,0 0.71768,-0.0545 0.46302,-0.121 z m -1.52136,-0.21449 c 0,-0.0728 -0.0595,-0.13229 -0.13229,-0.13229 -0.0728,0 -0.13229,0.0595 -0.13229,0.13229 0,0.0728 0.0595,0.13229 0.13229,0.13229 0.0728,0 0.13229,-0.0595 0.13229,-0.13229 z m 2.38125,0 c 0,-0.0728 -0.0595,-0.13229 -0.13229,-0.13229 -0.0728,0 -0.13229,0.0595 -0.13229,0.13229 0,0.0728 0.0595,0.13229 0.13229,0.13229 0.0728,0 0.13229,-0.0595 0.13229,-0.13229 z m -2.91041,-0.23219 c 0,-0.0549 -0.20836,-0.2633 -0.46302,-0.46302 -0.41965,-0.32911 -0.42901,-0.31975 -0.0999,0.0999 0.34564,0.44073 0.56292,0.58089 0.56292,0.36313 z m 3.73791,-0.36313 c 0.32911,-0.41964 0.31975,-0.429 -0.0999,-0.0999 -0.25466,0.19972 -0.46302,0.40808 -0.46302,0.46302 0,0.21776 0.21727,0.0776 0.56291,-0.36313 z m -4.53166,-0.7276 c 0,-0.0728 -0.0595,-0.13229 -0.13229,-0.13229 -0.0728,0 -0.1323,0.0595 -0.1323,0.13229 0,0.0728 0.0595,0.13229 0.1323,0.13229 0.0728,0 0.13229,-0.0595 0.13229,-0.13229 z m 5.02708,0 c 0,-0.0728 -0.0595,-0.13229 -0.13229,-0.13229 -0.0728,0 -0.13229,0.0595 -0.13229,0.13229 0,0.0728 0.0595,0.13229 0.13229,0.13229 0.0728,0 0.13229,-0.0595 0.13229,-0.13229 z m -5.37386,-1.65365 c -0.0666,-0.25466 -0.12101,-0.0463 -0.12101,0.46303 0,0.50932 0.0545,0.71768 0.12101,0.46302 0.0665,-0.25467 0.0665,-0.67138 0,-0.92605 z m 5.55625,0 c -0.0665,-0.25466 -0.12101,-0.0463 -0.12101,0.46303 0,0.50932 0.0545,0.71768 0.12101,0.46302 0.0665,-0.25467 0.0665,-0.67138 0,-0.92605 z m -5.20947,-0.7276 c 0,-0.0728 -0.0595,-0.13229 -0.13229,-0.13229 -0.0728,0 -0.1323,0.0595 -0.1323,0.13229 0,0.0728 0.0595,0.13229 0.1323,0.13229 0.0728,0 0.13229,-0.0595 0.13229,-0.13229 z m 5.02708,0 c 0,-0.0728 -0.0595,-0.13229 -0.13229,-0.13229 -0.0728,0 -0.13229,0.0595 -0.13229,0.13229 0,0.0728 0.0595,0.13229 0.13229,0.13229 0.0728,0 0.13229,-0.0595 0.13229,-0.13229 z m -4.46417,-0.8599 c 0.32911,-0.41964 0.31975,-0.429 -0.0999,-0.0999 -0.25466,0.19972 -0.46302,0.40808 -0.46302,0.46302 0,0.21776 0.21727,0.0776 0.56291,-0.36313 z m 4.19959,0.36313 c 0,-0.0549 -0.20836,-0.2633 -0.46302,-0.46302 -0.41965,-0.32911 -0.42901,-0.31975 -0.0999,0.0999 0.34564,0.44073 0.56292,0.58089 0.56292,0.36313 z m -3.43959,-0.82615 c 0,-0.0728 -0.0595,-0.13229 -0.13229,-0.13229 -0.0728,0 -0.13229,0.0595 -0.13229,0.13229 0,0.0728 0.0595,0.1323 0.13229,0.1323 0.0728,0 0.13229,-0.0595 0.13229,-0.1323 z m 2.38125,0 c 0,-0.0728 -0.0595,-0.13229 -0.13229,-0.13229 -0.0728,0 -0.13229,0.0595 -0.13229,0.13229 0,0.0728 0.0595,0.1323 0.13229,0.1323 0.0728,0 0.13229,-0.0595 0.13229,-0.1323 z m -0.85989,-0.31467 c -0.25466,-0.0666 -0.67138,-0.0666 -0.92604,0 -0.25466,0.0666 -0.0463,0.121 0.46302,0.121 0.50932,0 0.71768,-0.0545 0.46302,-0.121 z m -71.03461,-15.19332 c -0.64239,-0.18561 -0.91501,-0.45824 -1.10062,-1.10062 -0.19128,-0.66199 -0.25209,-0.7201 -0.27059,-0.25857 -0.0307,0.76583 0.86394,1.66048 1.62978,1.62978 0.46153,-0.0185 0.40342,-0.0793 -0.25857,-0.27059 z m 1.38305,-0.23471 c 0.0899,-0.14552 0.10399,-0.26459 0.0312,-0.26459 -0.0728,0 -0.20588,0.11907 -0.29581,0.26459 -0.0899,0.14552 -0.10399,0.26458 -0.0312,0.26458 0.0728,0 0.20587,-0.11906 0.29581,-0.26458 z m 0.30752,-1.38907 c -0.0734,-0.1819 -0.13345,-0.0331 -0.13345,0.33073 0,0.36381 0.0601,0.51263 0.13345,0.33073 0.0734,-0.1819 0.0734,-0.47956 0,-0.66146 z m -2.42419,-0.7276 c 0.0899,-0.14552 0.10399,-0.26458 0.0312,-0.26458 -0.0728,0 -0.20587,0.11906 -0.29581,0.26458 -0.0899,0.14552 -0.10399,0.26458 -0.0312,0.26458 0.0728,0 0.20588,-0.11906 0.29581,-0.26458 z m 2.24896,0.14791 c 0,-0.0642 -0.13746,-0.20163 -0.30546,-0.30547 -0.18926,-0.11696 -0.23365,-0.0726 -0.11668,0.11668 0.1885,0.305 0.42214,0.40949 0.42214,0.18879 z m -0.99219,-0.58772 c -0.1819,-0.0734 -0.47955,-0.0734 -0.66145,0 -0.18191,0.0734 -0.0331,0.13345 0.33072,0.13345 0.36381,0 0.51263,-0.06 0.33073,-0.13345 z m -23.34947,-8.15915 c 0,-5.51215 0.0164,-5.68854 0.52916,-5.68854 0.48213,0 0.52917,-0.17639 0.52917,-1.98437 v -1.98438 h 9.38687 9.38687 l 0.0782,4.96094 0.0782,4.96094 0.0599,-5.09323 0.06,-5.09323 h -9.525 c -6.17361,0 -9.525,-0.0931 -9.525,-0.26459 0,-0.15287 0.83785,-0.26458 1.98437,-0.26458 h 1.98438 v -1.71979 -1.71979 h -1.98438 -1.98437 v -9.12813 -9.12812 h -1.85208 -1.85209 v 1.98437 1.98438 h -7.67291 -7.67292 v -8.46667 -8.466664 h -0.92604 c -0.88195,0 -0.92604,0.0441 -0.92604,0.926041 v 0.926042 l -5.75469,0.06071 -5.754688,0.06071 5.754688,0.07674 5.75469,0.07674 v 1.714632 1.714639 h -7.540628 -7.540625 v 7.40833 7.40833 H 75.249585 58.316252 v 1.05833 1.05834 h 2.778125 2.778125 v 5.55625 c 0,4.7625 0.0567,5.55625 0.396875,5.55625 0.314981,0 0.396875,-0.38218 0.396875,-1.85209 v -1.85208 h 5.423958 5.423958 v 7.60013 7.60013 l 1.778841,1.79258 1.778842,1.79258 h 1.720664 1.720668 l 1.924449,-1.91161 1.924452,-1.91161 v -3.64464 -3.64464 h 6.746875 6.746874 v 4.7625 4.7625 h 5.556247 5.55625 v -3.83646 -3.83646 h 7.67292 7.67292 v 5.68854 c 0,4.88009 0.0564,5.68854 0.39687,5.68854 0.34047,0 0.39688,-0.80845 0.39688,-5.68854 z m -0.41679,-0.13229 c 0,-3.1287 0.0383,-4.40862 0.085,-2.84427 0.0468,1.56435 0.0468,4.12419 0,5.68854 -0.0468,1.56435 -0.085,0.28443 -0.085,-2.84427 z m 1.7397,-12.03854 v -1.45521 h 1.71979 1.7198 v 1.45521 1.45521 h -1.7198 -1.71979 z m -83.343744,7.80521 c 0.291042,-0.29104 0.529167,-0.76729 0.529167,-1.05834 0,-0.29104 -0.238125,-0.76729 -0.529167,-1.05833 -0.291042,-0.29104 -0.767292,-0.52917 -1.058333,-0.52917 -0.291042,0 -0.767292,0.23813 -1.058333,0.52917 -0.291042,0.29104 -0.529167,0.76729 -0.529167,1.05833 0,0.29105 0.238125,0.7673 0.529167,1.05834 0.291041,0.29104 0.767291,0.52916 1.058333,0.52916 0.291041,0 0.767291,-0.23812 1.058333,-0.52916 z M 43.12161,135.268 c -0.802404,-0.80241 -0.221665,-2.23006 0.907143,-2.23006 0.631306,0 1.322916,0.69161 1.322916,1.32291 0,0.63131 -0.69161,1.32292 -1.322916,1.32292 -0.270254,0 -0.678469,-0.1871 -0.907143,-0.41577 z m 143.51755,-14.4009 v -1.85208 H 184.78708 182.935 V 107.63794 96.260856 h -16.93334 -16.93333 v -3.175 -3.175 H 148.01 146.95166 v 1.322917 1.322916 h -8.46666 -8.46667 v -4.894791 -4.894792 h 2.77813 2.77812 V 71.12544 59.483774 h -4.63021 -4.6302 v 8.863541 8.863542 h -2.91042 -2.91042 v 1.190625 1.190624 h 1.98438 1.98437 v 11.244792 11.244792 h 1.85209 1.85208 v -1.85208 -1.852088 h 7.54062 7.54063 v 7.540628 7.54062 h -2.91042 -2.91042 v 4.63021 4.63021 h 24.60625 24.60625 z m -3.43958,0 v -1.5875 h 1.5875 1.5875 v 1.5875 1.5875 h -1.5875 -1.5875 z M 101.70792,66.230649 v -1.984375 h -5.688545 -5.688541 v 1.984375 1.984375 h 5.688541 5.688545 z m -11.112503,0 v -1.719792 h 5.423958 5.423955 v 1.719792 1.719791 h -5.423955 -5.423958 z m 5.291667,-15.213541 c 0,-1.675694 0.0504,-1.852083 0.529166,-1.852083 0.478769,0 0.529167,-0.17639 0.529167,-1.852084 V 45.460858 H 95.093334 93.24125 v 1.852083 c 0,1.675694 -0.0504,1.852084 -0.529166,1.852084 -0.478769,0 -0.529167,0.176389 -0.529167,1.852083 v 1.852083 H 94.035 95.887084 Z m -3.439584,0 v -1.5875 h 1.5875 1.5875 v 1.5875 1.5875 H 94.035 92.4475 Z m 1.058334,-3.704167 v -1.5875 h 1.5875 1.5875 v 1.5875 1.5875 h -1.5875 -1.5875 z m 7.408336,185.869779 c 0,-8.20208 0.0919,-12.5677 0.26458,-12.5677 0.17268,0 0.26458,4.36562 0.26458,12.5677 0,8.20209 -0.0919,12.56771 -0.26458,12.56771 -0.17267,0 -0.26458,-4.36562 -0.26458,-12.56771 z m -34.925002,-8.33437 v -1.5875 h 1.5875 1.5875 v 1.5875 1.5875 h -1.5875 -1.5875 z m 90.487492,-2.11667 v -3.43958 h 3.70417 3.70417 v 3.43958 3.43959 h -3.70417 -3.70417 z m -55.56249,-5.95312 v -3.57188 H 87.288126 73.662085 l 0.05912,-4.43177 0.05912,-4.43177 0.07973,4.29948 0.07973,4.29948 h 13.487196 13.487199 v -4.23333 c 0,-2.64584 0.0992,-4.23334 0.26458,-4.23334 0.17051,0 0.26458,2.82223 0.26458,7.9375 0,5.11528 -0.0941,7.9375 -0.26458,7.9375 -0.16332,0 -0.26458,-1.36701 -0.26458,-3.57187 z m -3.439586,-1.45521 v -1.5875 h 1.455208 1.455208 v 1.5875 1.5875 H 98.929792 97.474584 Z M 235.85166,152.48481 c 0,-0.0728 0.0595,-0.13229 0.13229,-0.13229 0.0728,0 0.13229,0.0595 0.13229,0.13229 0,0.0728 -0.0595,0.13229 -0.13229,0.13229 -0.0728,0 -0.13229,-0.0595 -0.13229,-0.13229 z m -5.02708,-37.17396 v -3.175 h 2.38125 2.38125 v 3.175 3.175 h -2.38125 -2.38125 z M 78.953751,105.78586 v -1.5875 h 1.719792 1.719791 v 1.5875 1.5875 H 80.673543 78.953751 Z M 191.13708,99.700439 c 0,-0.165698 1.6316,-0.264583 4.36562,-0.264583 2.73403,0 4.36563,0.09888 4.36563,0.264583 0,0.165698 -1.6316,0.264583 -4.36563,0.264583 -2.73402,0 -4.36562,-0.09889 -4.36562,-0.264583 z M 82.922501,91.101481 v -4.101042 h 1.719792 1.719791 v 4.101042 4.101041 h -1.719791 -1.719792 z m 3.704166,-2.910417 c 0,-1.184325 0.0049,-1.190625 0.926042,-1.190625 0.921142,0 0.926042,0.0063 0.926042,1.190625 0,1.184326 -0.0049,1.190625 -0.926042,1.190625 -0.921142,0 -0.926042,-0.0063 -0.926042,-1.190625 z M 118.90583,41.492108 v -1.852083 h 3.57188 3.57187 v 1.852083 1.852084 h -3.57187 -3.57188 z M 77.366251,37.920234 v -1.719792 h 1.5875 1.5875 v 1.719792 1.719791 h -1.5875 -1.5875 z m 5.55625,0 v -1.719792 h 1.719792 1.719791 v 1.719792 1.719791 h -1.719791 -1.719792 z m 18.785419,0 v -1.719792 h 1.85208 1.85208 v 1.719792 1.719791 H 103.56 101.70792 Z m 17.19791,-0.132292 v -1.5875 h 3.57188 3.57187 v 1.5875 1.5875 h -3.57187 -3.57188 z"
           id="path2085" />
        <path
           style="fill:#807e80;stroke-width:0.264583"
           d="m 69.428752,254.87856 v -7.54063 h 1.852083 1.852083 v -0.79375 -0.79375 h 1.852083 1.852084 v 0.79375 0.79375 h 6.217708 6.217708 v -0.79375 -0.79375 h 1.984375 1.984374 v 0.79375 0.79375 h 1.852084 1.852083 v 7.54063 7.54062 H 83.187084 69.428752 Z m 7.672916,-8.33438 c 0,-0.51349 0.17639,-0.52917 5.953125,-0.52917 5.776735,0 5.953124,0.0157 5.953124,0.52917 0,0.51349 -0.176389,0.52917 -5.953124,0.52917 -5.776735,0 -5.953125,-0.0157 -5.953125,-0.52917 z m 23.812502,-13.36146 c 0,-8.20208 0.0919,-12.5677 0.26458,-12.5677 0.17268,0 0.26458,4.36562 0.26458,12.5677 0,8.20209 -0.0919,12.56771 -0.26458,12.56771 -0.17267,0 -0.26458,-4.36562 -0.26458,-12.56771 z m 0.79375,-8.20208 c 0,-20.5934 -0.005,-20.76979 -0.52917,-20.76979 -0.50712,0 -0.52917,0.17639 -0.52917,4.23333 v 4.23334 H 87.420417 74.191251 v -4.23334 c 0,-3.58657 -0.06063,-4.23333 -0.396875,-4.23333 -0.337658,0 -0.396875,0.69086 -0.396875,4.63021 v 4.63021 h -3.836458 -3.836458 v -8.46667 -8.46667 h -0.926042 -0.926041 v 1.7198 1.71979 H 56.331877 48.791253 V 175.50356 151.0296 H 34.768337 20.745421 v -16.93333 -16.93333 h 13.890624 13.890624 v -1.05834 -1.05833 h -1.719791 -1.719792 v -5.68854 -5.68854 h 1.5875 1.5875 V 89.646273 75.623357 H 59.903752 71.545418 V 55.779608 35.935859 h 2.778125 2.778125 v 1.984375 1.984374 h 1.852083 1.852083 v -1.984374 -1.984375 h 0.79375 0.79375 v 12.303124 12.303124 h -0.79375 -0.79375 V 72.71294 c 0,7.9375 -0.09203,12.170833 -0.264583,12.170833 -0.145521,0 -0.264583,0.119062 -0.264583,0.264583 0,0.145521 0.297656,0.264584 0.661458,0.264584 0.650433,0 0.661458,0.03528 0.661458,2.116666 0,1.940277 0.0441,2.116667 0.529167,2.116667 0.482129,0 0.529167,0.176389 0.529167,1.984375 0,1.807985 -0.04704,1.984374 -0.529167,1.984374 -0.487664,0 -0.529167,0.17639 -0.529167,2.248959 v 2.248958 h -5.027083 -5.027083 v -6.35 c 0,-5.468056 0.05512,-6.349999 0.396875,-6.349999 0.218281,0 0.396875,-0.119063 0.396875,-0.264584 0,-0.169857 -2.55764,-0.264583 -7.14375,-0.264583 h -7.143749 v 9.524999 9.524998 h 10.318749 10.31875 v 1.85209 1.85208 h 1.944166 1.944169 l 0.172498,-2.81929 c 0.09488,-1.5506 0.1725,-4.28904 0.1725,-6.085411 v -3.266133 h 1.852083 1.852083 v -2.910417 -2.910416 h 1.058334 1.058333 l 0.0037,-1.389063 0.0037,-1.389062 2.77154,-1.918229 2.771542,-1.918229 h 6.485134 6.48514 v 1.846924 1.846923 l -5.75469,0.07674 -5.754685,0.07674 5.754685,0.06071 5.75471,0.06071 v 0.79375 c 0,0.730753 0.0735,0.79375 0.92604,0.79375 h 0.92604 v -4.497916 -4.497917 h 1.98437 1.98438 V 78.40148 77.210855 h -2.91042 -2.91041 v -1.719792 -1.719792 h -0.79375 -0.79375 V 54.853566 35.935859 h 6.48229 6.48229 v 3.836458 3.836458 h 3.83646 3.83646 v 3.175 3.175 h 4.6302 4.63021 V 38.713983 27.469192 h 5.68854 5.68854 v 6.085417 6.085416 h -1.85208 -1.85208 v 2.910417 2.910416 h 1.85208 1.85208 V 64.246274 83.03169 h 1.05834 1.05833 v -3.175 -3.175 h 25.4 25.4 v 11.244791 11.244791 h -4.49792 c -4.32152,0 -4.49791,0.02074 -4.49791,0.529167 0,0.520001 0.17639,0.529171 10.18645,0.529171 h 10.18646 v -1.984379 -1.984375 h 9.65729 9.65729 v 11.244794 11.24479 h 2.6533 2.65331 l -0.0736,17.06569 c -0.0405,9.38613 0.0157,17.06566 0.12483,17.06562 0.10914,-3e-5 0.19843,0.47619 0.19843,1.05827 v 1.05833 h 13.36146 13.36146 v 5.02709 5.02708 h 0.80758 c 0.64196,0 1.53628,0.61043 4.36087,2.97656 l 3.55329,2.97656 0.005,5.22552 0.005,5.22552 h -14.41979 -14.41979 v 2.17037 2.17036 l -1.00334,-0.97974 c -0.8697,-0.84922 -1.16936,-0.97974 -2.24948,-0.97974 -1.12324,0 -1.35043,0.11075 -2.30395,1.12305 -0.91468,0.97107 -1.05783,1.28604 -1.05783,2.32755 0,1.04563 0.13235,1.33374 1.00335,2.18425 0.88172,0.86098 1.16099,0.97974 2.30394,0.97974 1.14296,0 1.42223,-0.11876 2.30395,-0.97974 l 1.00335,-0.97974 v 4.94849 4.94849 h -31.75 -31.75 v 14.02291 14.02292 h -7.54063 -7.54062 v -3.70417 -3.70416 h -3.96875 -3.96875 v 3.70416 3.70417 H 148.93604 141.66 v -1.71979 c 0,-1.65806 -0.0237,-1.71979 -0.66146,-1.71979 -0.57956,0 -0.66146,0.11465 -0.66146,0.92604 v 0.92604 h -14.68437 -14.68438 v -14.15521 -14.15521 h -0.92604 -0.92604 v 24.60625 24.60625 h -3.70417 -3.70416 z m 39.95208,-19.05 v -9.65729 h 2.64583 2.64583 v -5.55625 -5.55625 H 144.30583 141.66 v -9.92187 -9.92188 h 3.57187 c 3.39549,0 3.57188,-0.0261 3.57188,-0.52916 0,-0.52057 -0.17639,-0.52917 -10.84792,-0.52917 h -10.84791 v -2.77813 -2.77812 h 1.85208 1.85208 v -1.85208 -1.85209 H 128.96 127.10792 v -0.92604 c 0,-0.64676 -0.1197,-0.92604 -0.39688,-0.92604 -0.33453,0 -0.39687,0.60266 -0.39687,3.83646 v 3.83646 H 124.46208 122.61 v 1.71979 1.71979 h -5.82083 -5.82084 v -4.63021 -4.63021 h -8.73125 c -7.584719,0 -8.731246,0.0521 -8.731246,0.39688 0,0.31545 0.384775,0.39687 1.875491,0.39687 h 1.875488 l 3.139997,3.24115 3.13999,3.24114 0.0116,6.81302 0.0116,6.81303 h -6.482291 -6.482292 v 0.92604 0.92604 h 2.38125 2.38125 v 4.49791 4.49792 h -6.473036 -6.473034 l -0.08575,-2.71198 -0.08575,-2.71198 -0.0558,2.84427 -0.0558,2.84427 h 6.746875 6.746874 v -1.71979 c 0,-1.35231 0.0848,-1.71979 0.396875,-1.71979 0.328724,0 0.396875,-0.49977 0.396875,-2.91042 v -2.91041 h 2.248958 2.248966 v 2.91041 2.91042 h 4.10104 4.10104 v 2.64583 2.64584 h 0.92604 0.92604 v -3.70417 -3.70417 h 9.525 9.525 v 10.31875 10.31875 h -2.91041 -2.91042 v 5.68855 5.68854 h 8.06979 8.06979 v 1.05833 c 0,0.9525 0.0662,1.05833 0.66146,1.05833 H 141.66 Z m -46.0375,-25.4 c 0,-1.67569 0.104995,-2.77812 0.264584,-2.77812 0.159588,0 0.264583,1.10243 0.264583,2.77812 0,1.6757 -0.104995,2.77813 -0.264583,2.77813 -0.159589,0 -0.264584,-1.10243 -0.264584,-2.77813 z m 31.06824,-21.69583 c 2.2e-4,-3.05594 0.0387,-4.26986 0.0856,-2.6976 0.0469,1.57226 0.0467,4.07257 -2.7e-4,5.55625 -0.0471,1.48368 -0.0854,0.19729 -0.0852,-2.85865 z m -3.81616,3.70417 v -1.45521 h 1.5875 1.5875 v 1.45521 1.45521 h -1.5875 -1.5875 z m 4.49792,-5.68854 v -1.5875 h 1.5875 1.5875 v 1.5875 1.5875 h -1.5875 -1.5875 z m -33.602083,49.22811 c 0,-1.01006 -0.0893,-1.8912 -0.198437,-1.9581 -0.109141,-0.0669 -2.460625,-0.16183 -5.225521,-0.21096 -4.487288,-0.0797 -5.134604,-0.0362 -6.02842,0.40508 -1.513051,0.74709 -1.726075,1.36164 -0.808315,2.33194 0.413226,0.43687 0.989444,0.89347 1.280485,1.01464 0.291042,0.12118 2.880651,0.22787 5.754687,0.23709 l 5.225521,0.0168 z m -11.244791,1.00178 c -1.496949,-0.81877 -1.52141,-1.68687 -0.06615,-2.34744 0.964592,-0.43784 1.75155,-0.51124 5.53461,-0.51623 2.425572,-0.003 4.598463,0.0665 4.828645,0.15479 0.310044,0.11897 0.418515,0.53043 0.418515,1.5875 v 1.4269 l -5.093228,-0.008 c -3.172765,-0.005 -5.29276,-0.11718 -5.622396,-0.29748 z M 65.724585,187.93898 v -0.92605 h 5.423958 5.423958 v -4.6302 -4.63021 h 4.101042 4.101041 v -0.92604 -0.92604 H 82.790209 80.805834 V 165.84627 155.7921 h 2.116667 c 1.705091,0 2.116666,-0.0772 2.116666,-0.39687 0,-0.29986 -0.323379,-0.39688 -1.322916,-0.39688 h -1.322917 v -1.98437 -1.98438 h -8.863541 -8.863541 v -7.40833 c 0,-6.4088 -0.05355,-7.40833 -0.396875,-7.40833 -0.348859,0 -0.396875,2.16076 -0.396875,17.85937 v 17.85938 h -2.775125 -2.775121 l -0.07223,-10.64948 c -0.06686,-9.85644 -0.07693,-9.57074 -0.135295,3.83645 l -0.06306,14.48594 h 2.910416 2.910417 v 4.63021 4.63021 h 0.926041 c 0.881944,0 0.926042,-0.0441 0.926042,-0.92604 z M 205.68916,173.78377 V 160.5546 h -0.92604 -0.92604 V 150.23585 139.9171 h 3.70416 3.70417 v -15.21354 -15.21354 h -7.54062 -7.54063 v 15.21354 15.21354 h -4.7625 -4.7625 v -1.85208 -1.85208 h -1.84049 -1.84049 l -0.0913,1.91823 c -0.0502,1.05502 -0.11497,-0.37373 -0.14388,-3.175 l -0.0526,-5.09323 h -13.22916 -13.22917 l 0.0599,5.09323 0.06,5.09323 0.0782,-4.96094 0.0782,-4.96094 h 12.95875 12.95874 v 4.89479 4.89479 l -7.34219,0.004 -7.34218,0.004 -1.91823,1.87817 -1.91823,1.87817 v 1.82156 1.82155 h -1.85209 -1.85208 v 1.98438 1.98437 h 1.85208 1.85209 v 6.4823 6.48229 h -4.63021 c -4.45382,0 -4.63021,0.0202 -4.63021,0.52916 0,0.50484 0.17639,0.52917 3.83646,0.52917 h 3.83646 v 7.14375 7.14375 h -3.83646 -3.83646 v 3.70417 3.70416 h 25.53229 25.53229 v -13.22916 z m -45.24375,-24.47396 v -1.71979 h 1.5875 1.5875 v 1.71979 1.71979 h -1.5875 -1.5875 z m 22.75417,-11.24479 v -1.5875 h 1.5875 1.5875 v 1.5875 1.5875 h -1.5875 -1.5875 z m 39.40256,32.78798 c 0.6851,-0.6851 0.8141,-1.01729 0.8141,-2.09631 0,-1.07903 -0.129,-1.41122 -0.8141,-2.09632 -0.68509,-0.68509 -1.01729,-0.8141 -2.09631,-0.8141 -1.07903,0 -1.41122,0.12901 -2.09632,0.8141 -0.68509,0.6851 -0.8141,1.01729 -0.8141,2.09632 0,1.07902 0.12901,1.41121 0.8141,2.09631 0.6851,0.68509 1.01729,0.8141 2.09632,0.8141 1.07902,0 1.41122,-0.12901 2.09631,-0.8141 z m -3.0984,0.14448 c -0.57018,-0.24352 -1.00433,-0.69346 -1.26032,-1.30615 -0.5393,-1.29072 0.008,-2.64582 1.28515,-3.17926 1.46923,-0.61388 2.64306,-0.11692 3.27075,1.38472 0.30287,0.72455 0.30287,0.99524 0,1.71979 -0.62738,1.5009 -1.83241,2.00582 -3.29558,1.3809 z m -68.20535,-20.38365 c 0.22868,-0.22868 0.41577,-0.75595 0.41577,-1.17173 0,-0.41577 -0.18709,-0.94305 -0.41577,-1.17172 -0.22867,-0.22868 -0.75595,-0.41578 -1.17173,-0.41578 -0.41577,0 -0.94305,0.1871 -1.17172,0.41578 -0.22868,0.22867 -0.41578,0.75595 -0.41578,1.17172 0,0.96421 0.62329,1.5875 1.5875,1.5875 0.41578,0 0.94306,-0.18709 1.17173,-0.41577 z m -1.96548,-0.37798 c -0.29104,-0.29104 -0.52916,-0.64823 -0.52916,-0.79375 0,-0.34315 0.97977,-1.32291 1.32291,-1.32291 0.34315,0 1.32292,0.97976 1.32292,1.32291 0,0.34315 -0.97977,1.32292 -1.32292,1.32292 -0.14552,0 -0.5027,-0.23813 -0.79375,-0.52917 z m -22.22499,-10.45104 c 0,-5.51215 0.0164,-5.68854 0.52916,-5.68854 0.48213,0 0.52917,-0.17639 0.52917,-1.98437 v -1.98438 h 9.38687 9.38687 l 0.0782,4.96094 0.0782,4.96094 0.0599,-5.09323 0.06,-5.09323 h -9.525 c -6.17361,0 -9.525,-0.0931 -9.525,-0.26459 0,-0.15287 0.83785,-0.26458 1.98437,-0.26458 h 1.98438 v -1.71979 -1.71979 h -1.98438 -1.98437 v -9.12813 -9.12812 h -1.85208 -1.85209 v 1.98437 1.98438 h -7.67291 -7.67292 v -8.46667 -8.466664 h -0.92604 c -0.88195,0 -0.92604,0.0441 -0.92604,0.926041 v 0.926042 l -5.75469,0.06071 -5.754688,0.06071 5.754688,0.07674 5.75469,0.07674 v 1.714632 1.714639 h -7.540628 -7.540625 v 7.40833 7.40833 H 75.249585 58.316252 v 1.05833 1.05834 h 2.778125 2.778125 v 5.55625 c 0,4.7625 0.0567,5.55625 0.396875,5.55625 0.314981,0 0.396875,-0.38218 0.396875,-1.85209 v -1.85208 h 5.423958 5.423958 v 7.60013 7.60013 l 1.778841,1.79258 1.778842,1.79258 h 1.720664 1.720668 l 1.924449,-1.91161 1.924452,-1.91161 v -3.64464 -3.64464 h 6.746875 6.746874 v 4.7625 4.7625 h 5.556247 5.55625 v -3.83646 -3.83646 h 7.67292 7.67292 v 5.68854 c 0,4.88009 0.0564,5.68854 0.39687,5.68854 0.34047,0 0.39688,-0.80845 0.39688,-5.68854 z m -0.41679,-0.13229 c 0,-3.1287 0.0383,-4.40862 0.085,-2.84427 0.0468,1.56435 0.0468,4.12419 0,5.68854 -0.0468,1.56435 -0.085,0.28443 -0.085,-2.84427 z m 1.7397,-12.03854 v -1.45521 h 1.71979 1.7198 v 1.45521 1.45521 h -1.7198 -1.71979 z m -82.96685,7.47448 c 0.162801,-0.46558 0.162832,-0.98963 9.2e-5,-1.45521 -0.210677,-0.60271 -0.433355,-0.74227 -1.297294,-0.81304 -1.162902,-0.0952 -1.725525,0.38611 -1.725525,1.47632 0,1.24221 0.463915,1.68784 1.66574,1.60006 0.931449,-0.068 1.142047,-0.19345 1.356987,-0.80813 z m -2.228977,0.0661 c -0.291042,-0.29104 -0.529167,-0.64823 -0.529167,-0.79375 0,-0.14552 0.238125,-0.5027 0.529167,-0.79375 0.291042,-0.29104 0.648229,-0.52916 0.79375,-0.52916 0.145521,0 0.502708,0.23812 0.79375,0.52916 0.291041,0.29105 0.529166,0.64823 0.529166,0.79375 0,0.14552 -0.238125,0.50271 -0.529166,0.79375 -0.291042,0.29105 -0.648229,0.52917 -0.79375,0.52917 -0.145521,0 -0.502708,-0.23812 -0.79375,-0.52917 z M 186.63916,120.8671 v -1.85208 H 184.78708 182.935 V 107.63794 96.260856 h -16.93334 -16.93333 v -3.175 -3.175 H 148.01 146.95166 v 1.322917 1.322916 h -8.46666 -8.46667 v -4.894791 -4.894792 h 2.77813 2.77812 V 71.12544 59.483774 h -4.63021 -4.6302 v 8.863541 8.863542 h -2.91042 -2.91042 v 1.190625 1.190624 h 1.98438 1.98437 v 11.244792 11.244792 h 1.85209 1.85208 v -1.85208 -1.852088 h 7.54062 7.54063 v 7.540628 7.54062 h -2.91042 -2.91042 v 4.63021 4.63021 h 24.60625 24.60625 z m -3.43958,0 v -1.5875 h 1.5875 1.5875 v 1.5875 1.5875 h -1.5875 -1.5875 z m -98.491142,111.17794 -1.521354,-0.0794 v -1.57429 -1.5743 h 0.879922 c 0.597721,0 1.080268,-0.21326 1.50462,-0.66496 0.421909,-0.44911 0.711726,-0.57794 0.892788,-0.39688 0.147447,0.14745 1.01818,0.26809 1.934962,0.26809 h 1.666875 v 1.5875 1.5875 h -1.37201 c -0.922203,0 -1.551086,0.1518 -1.91823,0.46302 -0.412456,0.34963 -0.918781,0.44359 -2.067573,0.38367 z m -18.71927,-7.19669 v -1.5875 h 1.5875 1.5875 v 1.5875 1.5875 h -1.5875 -1.5875 z m 90.487492,-2.11667 v -3.43958 h 3.70417 3.70417 v 3.43958 3.43959 h -3.70417 -3.70417 z m -55.56249,-5.95312 v -3.57188 H 87.288126 73.662085 l 0.05912,-4.43177 0.05912,-4.43177 0.07973,4.29948 0.07973,4.29948 h 13.487196 13.487199 v -4.23333 c 0,-2.64584 0.0992,-4.23334 0.26458,-4.23334 0.17051,0 0.26458,2.82223 0.26458,7.9375 0,5.11528 -0.0941,7.9375 -0.26458,7.9375 -0.16332,0 -0.26458,-1.36701 -0.26458,-3.57187 z m -3.439586,-1.45521 v -1.5875 h 1.455208 1.455208 v 1.5875 1.5875 H 98.929792 97.474584 Z M 237.49106,189.31544 c -0.71727,-0.74004 -0.84565,-1.06921 -0.84565,-2.16833 0,-1.04579 0.13719,-1.43904 0.71096,-2.03793 0.59758,-0.62373 0.92686,-0.74208 2.06476,-0.74208 1.18403,0 1.45986,0.10942 2.19946,0.87249 1.24571,1.28525 1.18703,2.55256 -0.18155,3.92114 -0.84396,0.84396 -1.2123,1.0272 -2.06477,1.0272 -0.8263,0 -1.20974,-0.17764 -1.88321,-0.87249 z m -1.6394,-36.83063 c 0,-0.0728 0.0595,-0.13229 0.13229,-0.13229 0.0728,0 0.13229,0.0595 0.13229,0.13229 0,0.0728 -0.0595,0.13229 -0.13229,0.13229 -0.0728,0 -0.13229,-0.0595 -0.13229,-0.13229 z m -5.02708,-37.17396 v -3.175 h 2.38125 2.38125 v 3.175 3.175 h -2.38125 -2.38125 z M 78.953751,105.78586 v -1.5875 h 1.719792 1.719791 v 1.5875 1.5875 H 80.673543 78.953751 Z M 191.13708,99.700439 c 0,-0.165698 1.6316,-0.264583 4.36562,-0.264583 2.73403,0 4.36563,0.09888 4.36563,0.264583 0,0.165698 -1.6316,0.264583 -4.36563,0.264583 -2.73402,0 -4.36562,-0.09889 -4.36562,-0.264583 z M 82.922501,91.101481 v -4.101042 h 1.719792 1.719791 v 4.101042 4.101041 h -1.719791 -1.719792 z m 3.704166,-2.910417 c 0,-1.184325 0.0049,-1.190625 0.926042,-1.190625 0.921142,0 0.926042,0.0063 0.926042,1.190625 0,1.184326 -0.0049,1.190625 -0.926042,1.190625 -0.921142,0 -0.926042,-0.0063 -0.926042,-1.190625 z m 3.96875,-21.960415 v -1.719792 h 5.423958 5.423955 v 1.719792 1.719791 H 96.019375 90.595417 Z M 92.4475,51.017108 v -1.5875 h 1.5875 1.5875 v 1.5875 1.5875 H 94.035 92.4475 Z m 1.058334,-3.704167 v -1.5875 h 1.5875 1.5875 v 1.5875 1.5875 h -1.5875 -1.5875 z m 25.399996,-5.820833 v -1.852083 h 3.57188 3.57187 v 1.852083 1.852084 h -3.57187 -3.57188 z M 77.366251,37.920234 v -1.719792 h 1.5875 1.5875 v 1.719792 1.719791 h -1.5875 -1.5875 z m 5.55625,0 v -1.719792 h 1.719792 1.719791 v 1.719792 1.719791 h -1.719791 -1.719792 z m 18.785419,0 v -1.719792 h 1.85208 1.85208 v 1.719792 1.719791 H 103.56 101.70792 Z m 17.19791,-0.132292 v -1.5875 h 3.57188 3.57187 v 1.5875 1.5875 h -3.57187 -3.57188 z"
           id="path2083" />
        <path
           style="fill:#7c7d7c;stroke-width:0.264583"
           d="m 69.957918,255.01085 v -7.40834 h 1.5875 1.5875 v -0.92604 -0.92604 h 1.852083 c 1.469909,0 1.852084,0.0819 1.852084,0.39688 0,0.21828 -0.119063,0.39687 -0.264584,0.39687 -0.145521,0 -0.264583,0.23813 -0.264583,0.52917 0,0.5156 0.17639,0.52916 6.879166,0.52916 6.702777,0 6.879167,-0.0136 6.879167,-0.52916 0,-0.29398 -0.17639,-0.52917 -0.396875,-0.52917 -0.218282,0 -0.396875,-0.17859 -0.396875,-0.39687 0,-0.3175 0.396875,-0.39688 1.984375,-0.39688 h 1.984374 v 0.92604 0.92604 h 1.5875 1.5875 v 7.40834 7.40833 H 83.187084 69.957918 Z m 7.14375,-8.73125 c 0,-0.16855 2.160765,-0.26459 5.953125,-0.26459 3.79236,0 5.953124,0.096 5.953124,0.26459 0,0.16855 -2.160764,0.26458 -5.953124,0.26458 -3.79236,0 -5.953125,-0.096 -5.953125,-0.26458 z m 24.606252,-21.43125 c 0,-20.46111 -0.005,-20.6375 -0.52917,-20.6375 -0.50712,0 -0.52917,0.17639 -0.52917,4.23333 v 4.23334 H 87.420417 74.191251 v -4.23334 c 0,-4.11291 -0.01566,-4.23333 -0.551021,-4.23333 -0.540671,0 -0.54937,0.087 -0.463021,4.63047 l 0.088,4.63047 -3.770313,-2.6e-4 -3.770312,-2.6e-4 v -8.86354 -8.86355 h -1.058333 -1.058333 v 2.11667 2.11667 H 56.199586 48.791253 V 175.10669 150.23585 H 35.03292 21.274587 V 133.83169 117.42752 H 35.03292 48.791253 v -1.5875 -1.5875 h -1.5875 -1.5875 v -5.29166 -5.29167 h 1.5875 1.5875 V 89.910856 76.152523 H 60.432919 72.074585 V 56.044191 35.935859 h 2.116666 2.116667 v 2.116666 2.116667 h 2.645833 2.645833 v 10.054166 c 0,9.877776 -0.0093,10.054166 -0.529166,10.054166 -0.521497,0 -0.529167,0.17639 -0.529167,12.170833 0,11.994443 -0.0077,12.170833 -0.529167,12.170833 -0.352776,0 -0.529166,0.176389 -0.529166,0.529166 0,0.440973 0.17639,0.529167 1.058333,0.529167 h 1.058333 v 2.116666 c 0,1.940277 0.0441,2.116667 0.529167,2.116667 0.470371,0 0.529167,0.17639 0.529167,1.5875 0,1.41111 -0.0588,1.5875 -0.529167,1.5875 -0.485069,0 -0.529167,0.17639 -0.529167,2.116666 v 2.116667 h -4.762499 -4.7625 v -5.820833 c 0,-5.644443 0.01603,-5.820833 0.529166,-5.820833 0.352777,0 0.529167,-0.17639 0.529167,-0.529167 0,-0.517408 -0.17639,-0.529166 -7.9375,-0.529166 h -7.937499 v 10.054166 10.054164 h 10.583333 10.583332 v 1.5875 1.5875 h 2.116667 2.116667 v -1.5875 c 0,-1.41111 0.0588,-1.5875 0.529166,-1.5875 0.507119,0 0.529167,-0.17639 0.529167,-4.23333 v -4.233334 h 1.5875 1.5875 v -3.175 -3.175 h 1.058333 1.058333 v -1.5875 -1.5875 h 1.058334 c 0.881943,0 1.058333,-0.08819 1.058333,-0.529167 0,-0.352776 0.17639,-0.529166 0.529166,-0.529166 0.352777,0 0.529167,-0.17639 0.529167,-0.529167 0,-0.341855 0.17639,-0.529166 0.498308,-0.529166 0.275791,0 0.5601,-0.236295 0.636688,-0.529167 0.133832,-0.511778 0.360895,-0.529167 6.910027,-0.529167 h 6.77164 v 1.5875 1.5875 h -5.82083 c -5.644443,0 -5.820833,0.01603 -5.820833,0.529167 0,0.51313 0.17639,0.529166 5.820833,0.529166 5.64444,0 5.82083,0.01603 5.82083,0.529167 0,0.440973 0.17639,0.529167 1.05834,0.529167 h 1.05833 V 84.61919 80.385856 h 2.11667 2.11666 v -1.587499 -1.5875 h -2.64583 -2.64583 V 75.09419 72.977523 h -1.03894 c -0.76697,0 -1.0706,0.121203 -1.15993,0.463021 -0.19166,0.733399 -0.20154,-32.390949 -0.0105,-35.082789 l 0.17192,-2.421896 h 6.31038 6.31038 v 4.233333 4.233333 h 3.70417 3.70416 v 3.175 3.175 h 4.7625 4.7625 V 39.110858 27.469192 h 5.29167 5.29166 v 5.820833 5.820833 h -1.5875 -1.5875 v 3.175 3.175 h 1.5875 1.5875 v 19.049999 19.049999 h 1.5875 1.5875 v -3.175 -3.174999 h 24.87084 24.87083 v 10.583332 10.583333 h -4.23333 -4.23334 v 1.058334 1.058334 h 10.58334 10.58333 v -2.116668 -2.116666 h 8.99583 8.99583 v 11.641664 11.64167 h 2.64584 2.64583 v 16.93333 c 0,16.75694 0.006,16.93333 0.52917,16.93333 0.44097,0 0.52916,0.17639 0.52916,1.05834 v 1.05833 h 13.22917 13.22917 v 4.7625 4.7625 h 0.95081 c 0.72829,0 0.98319,0.12384 1.08919,0.52917 0.0766,0.29287 0.3609,0.52916 0.63669,0.52916 0.32192,0 0.49831,0.18731 0.49831,0.52917 0,0.35278 0.17639,0.52917 0.52916,0.52917 0.35278,0 0.52917,0.17639 0.52917,0.52916 0,0.35278 0.17639,0.52917 0.52917,0.52917 0.35277,0 0.52916,0.17639 0.52916,0.52917 0,0.35277 0.17639,0.52916 0.52917,0.52916 0.35278,0 0.52917,0.17639 0.52917,0.52917 0,0.35278 0.17638,0.52917 0.52916,0.52917 0.35278,0 0.52917,0.17639 0.52917,0.52916 0,0.35278 0.17639,0.52917 0.52917,0.52917 0.50956,0 0.52916,0.17639 0.52916,4.7625 v 4.7625 H 256.7274 242.41357 l 0.0925,2.32237 0.0925,2.32236 -0.59531,-0.518 c -0.35413,-0.30814 -0.59531,-0.82023 -0.59531,-1.26403 0,-0.73543 -0.0226,-0.74604 -1.5875,-0.74604 -1.27617,0 -1.5875,0.0827 -1.5875,0.42165 0,0.2319 -0.22712,0.48104 -0.50471,0.55363 -0.27758,0.0726 -0.56409,0.3591 -0.63668,0.63669 -0.0726,0.27758 -0.32173,0.5047 -0.55363,0.5047 -0.35067,0 -0.42165,0.35631 -0.42165,2.11667 0,1.61216 0.0861,2.11666 0.3612,2.11666 0.19865,0 0.66392,0.23813 1.03392,0.52917 0.46641,0.36688 1.07335,0.52917 1.97905,0.52917 0.9703,0 1.4295,-0.13612 1.78521,-0.52917 0.26339,-0.29104 0.6303,-0.52917 0.81535,-0.52917 0.18506,0 0.38764,-0.14882 0.45019,-0.33072 0.0625,-0.18191 0.0729,-0.0926 0.023,0.19843 -0.0499,0.29104 -0.0923,2.34487 -0.0943,4.56407 l -0.004,4.03489 h -31.75 -31.74999 v 14.2875 14.2875 h -7.40834 -7.40833 v -3.70417 -3.70416 h -4.23333 -4.23334 v 3.70416 3.70417 h -6.87916 -6.87917 v -2.11667 -2.11666 h -1.05833 -1.05834 v 1.05833 1.05833 h -14.28749 -14.2875 v -14.2875 -14.2875 h -1.05834 -1.05833 v 24.87084 24.87083 h -3.70417 -3.70416 z m 40.21666,-18.52083 v -9.525 h 2.64583 2.64584 v -5.82084 -5.82083 h -2.64584 -2.64583 v -9.525 -9.525 h 3.70417 3.70416 v -1.05833 -1.05833 h -11.1125 -11.11249 v -2.64584 -2.64583 h 2.11666 2.11667 v -2.11667 -2.11666 h -2.11667 -2.11666 v -1.05834 c 0,-0.88194 -0.0882,-1.05833 -0.52917,-1.05833 -0.50712,0 -0.52917,0.17639 -0.52917,4.23333 v 4.23334 h -2.11666 -2.11667 v 1.5875 1.5875 h -5.29167 -5.29166 v -4.7625 -4.7625 h -8.99584 -8.99583 v 1.05833 1.05833 h 2.116667 c 1.940277,0 2.116667,0.0441 2.116667,0.52917 0,0.35278 0.176389,0.52917 0.529166,0.52917 0.352777,0 0.529167,0.17639 0.529167,0.52916 0,0.35278 0.17639,0.52917 0.529166,0.52917 0.352777,0 0.529167,0.17639 0.529167,0.52917 0,0.35277 0.17639,0.52916 0.52917,0.52916 0.35277,0 0.52916,0.17639 0.52916,0.52917 0,0.35278 0.17639,0.52917 0.52917,0.52917 0.35278,0 0.52917,0.17639 0.52917,0.52916 0,0.35278 0.17639,0.52917 0.52916,0.52917 0.5156,0 0.52917,0.17639 0.52917,6.87917 v 6.87916 h -6.35 -6.349999 v 1.05834 1.05833 h 2.645833 2.645833 v 4.23333 4.23333 h -6.35 -6.349999 v -2.64583 c 0,-2.46944 -0.03528,-2.64583 -0.529167,-2.64583 -0.499769,0 -0.529167,0.17639 -0.529167,3.175 v 3.175 h 7.408333 7.408333 v -4.7625 -4.7625 h 2.116667 2.116663 v 3.175 3.175 h 4.23334 4.23333 v 2.64583 2.64583 h 1.05833 1.05834 v -3.70416 -3.70417 h 8.99583 8.99583 v 10.05417 10.05416 h -2.64583 -2.64583 v 5.82084 5.82083 h 7.9375 7.93749 v 1.05833 1.05834 h 1.05834 1.05833 z m -19.05,-43.39167 v -1.05833 h 1.5875 1.5875 v 1.05833 1.05834 h -1.5875 -1.5875 z m 5.29167,-6.35 v -1.05833 h 1.05833 1.05834 v 1.05833 1.05834 h -1.05834 -1.05833 z M 83.716251,208.1796 c 0,-0.16713 1.855946,-0.26458 5.038674,-0.26458 H 93.7936 l -0.07774,-1.91823 c -0.07594,-1.8739 -0.09455,-1.92017 -0.805342,-2.00195 -0.416454,-0.0479 -0.727604,-0.24592 -0.727604,-0.46302 0,-0.30828 -0.594548,-0.3793 -3.175,-0.3793 -1.940277,0 -3.175,0.10289 -3.175,0.26458 0,0.14552 -0.47625,0.26458 -1.058333,0.26458 -0.582083,0 -1.058333,-0.11906 -1.058333,-0.26458 0,-0.14552 -0.238125,-0.26458 -0.529167,-0.26458 -0.352777,0 -0.529166,0.17639 -0.529166,0.52916 0,0.29105 -0.173183,0.52917 -0.38485,0.52917 -0.740169,0 -1.731817,1.29465 -1.731817,2.26098 0,0.87274 0.04294,0.91402 0.950812,0.91402 0.728297,0 0.983197,0.12384 1.089192,0.52917 0.138803,0.53077 1.134996,0.763 1.134996,0.26458 z m -0.98167,-1.32292 c -0.07659,-0.29287 -0.360897,-0.52916 -0.636688,-0.52916 -0.321919,0 -0.498309,-0.18731 -0.498309,-0.52917 0,-0.44097 0.17639,-0.52917 1.058334,-0.52917 0.881943,0 1.058333,-0.0882 1.058333,-0.52916 0,-0.50768 0.17639,-0.52917 4.343984,-0.52917 2.389193,0 4.532318,0.0723 4.7625,0.1606 0.310044,0.11897 0.418515,0.53043 0.418515,1.5875 v 1.4269 h -5.184145 c -4.96163,0 -5.190085,-0.0227 -5.322524,-0.52917 z M 65.724585,188.33585 v -1.05833 h 5.820833 5.820833 v -4.7625 -4.7625 h 3.704167 3.704166 v -1.05833 -1.05834 h -1.5875 -1.5875 v -9.525 -9.525 h 2.116667 2.116666 v -1.05833 -1.05833 h -1.587499 -1.5875 v -2.11667 -2.11667 h -8.995833 -8.995833 v -7.40833 c 0,-7.23194 -0.01259,-7.40833 -0.529167,-7.40833 -0.523978,0 -0.529166,0.17639 -0.529166,17.99166 v 17.99167 h -2.645834 -2.645833 v -10.58333 c 0,-10.40695 -0.0088,-10.58334 -0.529167,-10.58334 -0.522866,0 -0.529166,0.17639 -0.529166,14.81667 v 14.81666 h 3.175 3.175 v 4.7625 4.7625 h 1.058333 1.058333 z M 206.48291,173.51919 v -13.75834 h -1.05833 -1.05834 v -9.525 -9.525 h 3.70417 3.70417 v -15.875 -15.87499 h -7.9375 -7.9375 v 15.34583 15.34583 h -4.23333 -4.23334 v -2.11667 -2.11666 h -2.11666 -2.11667 v -3.175 -3.175 h -13.75833 -13.75834 v 5.82083 c 0,5.64444 0.016,5.82083 0.52917,5.82083 0.51153,0 0.52917,-0.17639 0.52917,-5.29166 v -5.29167 h 12.7 12.7 v 4.7625 4.7625 h -7.9375 c -7.76111,0 -7.9375,0.0117 -7.9375,0.52917 0,0.35277 -0.17639,0.52916 -0.52917,0.52916 -0.35278,0 -0.52917,0.17639 -0.52917,0.52917 0,0.35278 -0.17639,0.52917 -0.52916,0.52917 -0.35278,0 -0.52917,0.17639 -0.52917,0.52916 0,0.35278 -0.17639,0.52917 -0.52917,0.52917 -0.48506,0 -0.52916,0.17639 -0.52916,2.11667 v 2.11666 h -1.5875 -1.5875 v 2.11667 2.11667 h 1.5875 1.5875 v 6.35 6.35 h -4.23334 -4.23333 v 1.05833 1.05833 h 3.70417 3.70416 v 6.35 6.35 h -3.70416 -3.70417 v 4.23333 4.23334 h 25.92917 25.92916 z m -45.50833,-24.34167 v -1.05833 h 1.05833 1.05834 v 1.05833 1.05833 h -1.05834 -1.05833 z m 22.225,-11.1125 v -1.5875 h 1.5875 1.5875 v 1.5875 1.5875 h -1.5875 -1.5875 z m 38.96794,33.43673 1.20639,-0.16536 v -2.58925 -2.58924 l -1.55678,-0.18069 c -0.85623,-0.0994 -2.01589,-0.10311 -2.57701,-0.008 -0.84504,0.14277 -1.07385,0.32065 -1.33247,1.03585 -0.64077,1.77201 -0.15896,4.27996 0.86105,4.48203 0.92253,0.18276 2.13571,0.18811 3.39882,0.015 z m -2.88893,-0.76069 c -0.0838,-0.21828 -0.3065,-0.39687 -0.49498,-0.39687 -0.18848,0 -0.4672,-0.35719 -0.61939,-0.79375 -0.31957,-0.91675 0.0614,-2.38125 0.61939,-2.38125 0.18848,0 0.41122,-0.1786 0.49498,-0.39688 0.0838,-0.21828 0.33463,-0.39687 0.55748,-0.39687 0.22284,0 0.40517,0.17859 0.40517,0.39687 0,0.29267 0.30581,0.39688 1.16474,0.39688 1.05629,0 1.19052,0.0739 1.44145,0.79375 0.19255,0.55234 0.19255,1.03515 0,1.5875 -0.25093,0.71983 -0.38516,0.79375 -1.44145,0.79375 -0.85893,0 -1.16474,0.1042 -1.16474,0.39687 0,0.21828 -0.18233,0.39688 -0.40517,0.39688 -0.22285,0 -0.47372,-0.1786 -0.55748,-0.39688 z m -67.75235,-19.97604 c 0.0761,-0.29104 0.32812,-0.52917 0.56003,-0.52917 0.31553,0 0.42164,-0.26635 0.42164,-1.05833 0,-0.88194 -0.0882,-1.05833 -0.52916,-1.05833 -0.35278,0 -0.52917,-0.17639 -0.52917,-0.52917 0,-0.44097 -0.17639,-0.52917 -1.05833,-0.52917 -0.79199,0 -1.05834,0.10612 -1.05834,0.42165 0,0.2319 -0.23812,0.48391 -0.52916,0.56002 -0.45353,0.1186 -0.52917,0.3609 -0.52917,1.69502 v 1.55665 h 1.55664 c 1.33413,0 1.57642,-0.0756 1.69502,-0.52917 z m -2.19333,-1.45521 c 0,-0.50932 0.0498,-0.92604 0.11066,-0.92604 0.0609,0 0.29898,-0.0723 0.52916,-0.1606 0.30003,-0.11513 0.41852,-0.003 0.41852,0.39688 0,0.39052 0.16695,0.55747 0.55747,0.55747 0.39964,0 0.51201,0.11849 0.39688,0.41851 -0.0883,0.23019 -0.1606,0.46831 -0.1606,0.52917 0,0.0609 -0.41672,0.11065 -0.92604,0.11065 -0.88195,0 -0.92605,-0.0441 -0.92605,-0.92604 z m -22.22499,-9.12812 c 0,-5.64445 0.016,-5.82084 0.52916,-5.82084 0.48507,0 0.52917,-0.17639 0.52917,-2.11666 v -2.11667 h 8.99583 8.99583 v 5.29167 c 0,5.11527 0.0177,5.29166 0.52917,5.29166 0.51313,0 0.52917,-0.17639 0.52917,-5.82083 v -5.82083 h -7.40834 -7.40833 v -1.5875 -1.5875 h -2.11666 -2.11667 v -9.525 -9.525 h -2.11667 -2.11666 v 2.11667 2.11666 h -7.40834 -7.40833 v -8.46666 -8.466671 h -1.05833 -1.05834 v 1.058333 1.058334 h -5.82083 c -5.644443,0 -5.820833,0.01603 -5.820833,0.529166 0,0.513131 0.17639,0.529167 5.820833,0.529167 h 5.82083 v 1.058333 1.058334 h -7.40833 -7.408333 v 7.408334 7.40833 H 75.249585 58.316252 v 1.5875 1.5875 h 2.645833 2.645834 v 5.82083 c 0,5.64445 0.01603,5.82084 0.529166,5.82084 0.485069,0 0.529167,-0.17639 0.529167,-2.11667 v -2.11667 h 5.291666 5.291667 v 7.9375 c 0,7.76111 0.01175,7.9375 0.529166,7.9375 0.352777,0 0.529167,0.17639 0.529167,0.52917 0,0.35278 0.17639,0.52917 0.529167,0.52917 0.352776,0 0.529166,0.17639 0.529166,0.52916 0,0.35278 0.17639,0.52917 0.529167,0.52917 0.352777,0 0.529166,0.17639 0.529166,0.52917 0,0.49389 0.17639,0.52916 2.645834,0.52916 2.469443,0 2.645833,-0.0353 2.645833,-0.52916 0,-0.35278 0.17639,-0.52917 0.529167,-0.52917 0.352776,0 0.529166,-0.17639 0.529166,-0.52917 0,-0.35277 0.17639,-0.52916 0.529167,-0.52916 0.352777,0 0.529166,-0.17639 0.529166,-0.52917 0,-0.35278 0.17639,-0.52917 0.529167,-0.52917 0.507119,0 0.529167,-0.17639 0.529167,-4.23333 v -4.23333 h 6.349999 6.35 v 4.7625 4.7625 h 5.82083 5.82084 v -3.70417 -3.70417 h 7.40833 7.40833 v 5.82084 c 0,5.64444 0.016,5.82083 0.52917,5.82083 0.51313,0 0.52917,-0.17639 0.52917,-5.82083 z m 2.11666,-12.17084 v -1.05833 h 1.05834 1.05833 v 1.05833 1.05834 h -1.05833 -1.05834 z m -84.271799,7.88979 c 0.481028,-0.41825 0.663472,-0.84166 0.663472,-1.53979 0,-0.69812 -0.182444,-1.12154 -0.663472,-1.53978 -0.364908,-0.31729 -0.780722,-0.57688 -0.924028,-0.57688 -0.143306,0 -0.55912,0.25959 -0.924028,0.57688 -0.875485,0.76122 -0.907913,2.20552 -0.06816,3.03584 0.757989,0.74948 1.095674,0.75718 1.916216,0.0437 z m -1.453195,-1.53979 c 0,-0.88194 0.08819,-1.05833 0.529167,-1.05833 0.440973,0 0.529166,0.17639 0.529166,1.05833 0,0.88195 -0.08819,1.05834 -0.529166,1.05834 -0.440973,0 -0.529167,-0.17639 -0.529167,-1.05834 z M 187.43291,120.60252 v -2.11667 h -2.11666 -2.11667 V 107.37336 96.260856 h -16.93333 -16.93334 v -3.175 -3.175 h -1.5875 -1.5875 v 1.058333 1.058334 h -7.9375 -7.93749 v -4.233334 -4.233333 h 2.64583 2.64583 V 71.390024 59.219191 h -4.7625 -4.7625 v 8.995833 8.995833 h -3.175 -3.175 v 1.5875 1.587499 h 2.11667 2.11667 v 11.1125 11.112504 h 2.11666 2.11667 v -2.11667 -2.116668 h 7.40833 7.40833 v 7.408338 7.40833 h -3.175 -3.175 v 4.7625 4.7625 h 25.4 25.4 z m -4.23333,0 v -1.05833 h 1.5875 1.5875 v 1.05833 1.05833 h -1.5875 -1.5875 z m -98.491142,111.44252 -1.521354,-0.0794 v -1.57429 c 0,-0.87315 0.11784,-1.5743 0.264584,-1.5743 0.14552,0 0.264583,0.17859 0.264583,0.39687 0,0.28664 0.293981,0.39688 1.058333,0.39688 0.881944,0 1.058333,-0.0882 1.058333,-0.52917 0,-0.29104 -0.137514,-0.52916 -0.305591,-0.52916 -0.172108,0 -0.09394,-0.23387 0.178957,-0.53542 0.330488,-0.36519 0.570658,-0.44931 0.755382,-0.26459 0.148961,0.14896 1.020929,0.27084 1.937711,0.27084 h 1.666875 v 1.5875 1.5875 h -1.37201 c -0.922203,0 -1.551086,0.1518 -1.91823,0.46302 -0.412456,0.34963 -0.918781,0.44359 -2.067573,0.38367 z m -17.92552,-7.19669 v -1.5875 h 1.190625 1.190625 v 1.5875 1.5875 h -1.190625 -1.190625 z m 89.958332,-2.11667 v -2.64583 h 3.175 3.175 v 2.64583 2.64584 h -3.175 -3.175 z m -59.266666,-7.40833 v -1.5875 h 1.058333 1.058333 v 1.5875 1.5875 h -1.058333 -1.058333 z m -23.812655,-2.3151 c -1.43e-4,-0.18046 8.888314,-0.17689 19.711613,0.008 2.328333,0.0397 -1.154245,0.0989 -7.739062,0.1314 -6.584817,0.0325 -11.972467,-0.0302 -11.972551,-0.13932 z M 237.63083,189.4598 c -0.25094,-0.27729 -0.45625,-0.64361 -0.45625,-0.81405 0,-0.17044 -0.11907,-0.3099 -0.26459,-0.3099 -0.14552,0 -0.26458,-0.47625 -0.26458,-1.05833 0,-0.58209 0.11906,-1.05834 0.26458,-1.05834 0.14552,0 0.26459,-0.18974 0.26459,-0.42164 0,-0.23191 0.23812,-0.48392 0.52916,-0.56003 0.29104,-0.0761 0.52917,-0.30308 0.52917,-0.50439 0,-0.25063 0.33364,-0.36602 1.05833,-0.36602 0.76436,0 1.05834,0.11025 1.05834,0.39688 0,0.22048 0.23518,0.39687 0.52916,0.39687 0.4809,0 0.52917,0.17639 0.52917,1.93381 0,1.35801 -0.12312,2.08673 -0.4135,2.44739 -0.29328,0.36428 -0.45353,0.41744 -0.55121,0.18286 -0.16835,-0.40428 -2.12843,-0.44402 -2.26115,-0.0458 -0.0541,0.16215 -0.29152,0.0677 -0.55122,-0.21927 z m -6.80625,-74.14895 v -3.175 h 2.11666 2.11667 v 3.175 3.175 h -2.11667 -2.11666 z M 79.482918,105.78586 v -1.05834 h 1.058333 1.058333 v 1.05834 1.05833 h -1.058333 -1.058333 z m 4.233333,-14.287504 v -3.704167 h 1.058333 1.058333 v 3.704167 3.704166 h -1.058333 -1.058333 z m 3.175,-3.175 c 0,-0.352777 0.176389,-0.529167 0.529166,-0.529167 0.352777,0 0.529167,0.17639 0.529167,0.529167 0,0.352777 -0.17639,0.529167 -0.529167,0.529167 -0.352777,0 -0.529166,-0.17639 -0.529166,-0.529167 z m 3.704166,-22.092707 v -1.719792 h 5.027083 5.02708 v 1.568101 c 0,1.270942 0.0877,1.591027 0.46302,1.689097 0.25467,0.06655 -2.007522,0.134813 -5.027079,0.151694 l -5.490104,0.03069 z m 4.7625,-14.022916 c 0,-0.286631 -0.293981,-0.396875 -1.058333,-0.396875 -1.05504,0 -1.058334,-0.0032 -1.058334,-1.038934 0,-0.776121 -0.117125,-1.063466 -0.46302,-1.135923 -0.254662,-0.05334 0.280431,-0.09184 1.189095,-0.08555 l 1.652119,0.01146 0.0016,1.521354 c 7.94e-4,0.836745 -0.058,1.521354 -0.130763,1.521354 -0.07276,0 -0.132291,-0.178594 -0.132291,-0.396875 z m -0.463021,-3.494016 c -0.496938,-0.09572 -0.595312,-0.286509 -0.595312,-1.154594 0,-1.033629 0.0063,-1.039932 1.038934,-1.039932 0.766974,0 1.070604,-0.121203 1.15993,-0.46302 0.06655,-0.254662 0.134814,0.281119 0.151694,1.190625 0.0333,1.794171 0.01654,1.808181 -1.755246,1.466921 z m 24.804684,-6.957025 v -1.5875 h 3.175 3.175 v 1.5875 1.5875 h -3.175 -3.175 z m -36.777079,-2.38125 c 0,-0.145521 0.178594,-0.264584 0.396875,-0.264584 0.286631,0 0.396875,-0.293981 0.396875,-1.058333 v -1.058333 h 1.058333 c 0.764352,0 1.058333,-0.110243 1.058333,-0.396875 0,-0.218281 0.119063,-0.396875 0.264584,-0.396875 0.149251,0 0.264583,0.749653 0.264583,1.719792 v 1.719791 h -1.719791 c -0.97014,0 -1.719792,-0.115331 -1.719792,-0.264583 z m 18.785419,-1.058333 v -1.322917 h 1.5875 1.5875 v 1.058333 c 0,0.582083 0.11906,1.058333 0.26458,1.058333 0.14552,0 0.26458,0.119063 0.26458,0.264584 0,0.15119 -0.79375,0.264583 -1.85208,0.264583 h -1.85208 z M 77.366251,38.052525 v -1.058333 h 1.5875 1.5875 v 1.058333 1.058333 h -1.5875 -1.5875 z m 42.333329,0 v -1.058333 h 3.175 3.175 v 1.058333 1.058333 h -3.175 -3.175 z"
           id="path2081" />
        <rect
           style="fill:none;stroke:#656565;stroke-width:0.00712866;stroke-miterlimit:4;stroke-dasharray:none;stroke-opacity:1"
           id="rect13"
           width="270.92621"
           height="270.22232"
           x="9.6364851"
           y="15.476625" />
      </g>
    </g>
  </g>
</svg>
