<?xml version="1.0" encoding="UTF-8" standalone="no"?>
<svg
   xmlns:dc="http://purl.org/dc/elements/1.1/"
   xmlns:cc="http://creativecommons.org/ns#"
   xmlns:rdf="http://www.w3.org/1999/02/22-rdf-syntax-ns#"
   xmlns:svg="http://www.w3.org/2000/svg"
   xmlns="http://www.w3.org/2000/svg"
   xmlns:sodipodi="http://sodipodi.sourceforge.net/DTD/sodipodi-0.dtd"
   xmlns:inkscape="http://www.inkscape.org/namespaces/inkscape"
   width="1331.52"
   height="1331.52"
   viewBox="0 0 352.298 352.298"
   version="1.1"
   id="svg8"
   inkscape:version="1.0.2-2 (e86c870879, 2021-01-15)"
   sodipodi:docname="haven.svg">
  <defs
     id="defs2" />
  <sodipodi:namedview
     id="base"
     pagecolor="#ffffff"
     bordercolor="#666666"
     borderopacity="1.0"
     inkscape:pageopacity="0.0"
     inkscape:pageshadow="2"
     inkscape:zoom="0.43710022"
     inkscape:cx="564.62622"
     inkscape:cy="498.92468"
     inkscape:document-units="mm"
     inkscape:current-layer="layer1"
     inkscape:document-rotation="0"
     showgrid="false"
     inkscape:window-width="1920"
     inkscape:window-height="1010"
     inkscape:window-x="-7"
     inkscape:window-y="-7"
     inkscape:window-maximized="1"
     fit-margin-top="0"
     fit-margin-left="0"
     fit-margin-right="0"
     fit-margin-bottom="0"
     units="px" />
  <metadata
     id="metadata5">
    <rdf:RDF>
      <cc:Work
         rdf:about="">
        <dc:format>image/svg+xml</dc:format>
        <dc:type
           rdf:resource="http://purl.org/dc/dcmitype/StillImage" />
        <dc:title />
      </cc:Work>
    </rdf:RDF>
  </metadata>
  <g
     inkscape:label="Layer 1"
     inkscape:groupmode="layer"
     id="layer1"
     transform="translate(1455.0623,-427.04768)">
    <g
       id="g3286"
       transform="matrix(1.3003126,0,0,1.3003126,-1344.0312,298.75673)">
      <path
         style="fill:#a2a088;stroke-width:0.264583"
         d="m -0.7213835,338.63865 v -9.26042 h 1.9843749 1.9843749 v -1.98437 -1.98438 H 1.2629914 -0.7213835 v -9.12812 -9.12813 h -3.0427082 -3.0427082 v -2.11667 -2.11666 h -2.1166665 -2.1166666 v -12.17083 -12.17084 h -8.069791 -8.069792 v -15.21354 -15.21354 h -10.451041 -10.451041 v -4.49792 c 0,-3.82175 0.05966,-4.49791 0.396875,-4.49791 0.343654,0 0.396875,-1.02894 0.396875,-7.67292 v -7.67291 h -4.365625 -4.365624 v -1.85209 -1.85208 h -2.877844 -2.877845 l -6.448718,-7.08158 c -3.546794,-3.89487 -6.611415,-7.2873 -6.810268,-7.53873 -0.32216,-0.40734 0.124149,-1.10593 4.096506,-6.41217 l 4.458056,-5.95502 h 1.790473 1.790473 v 0.79375 0.79375 h 3.175 3.175 v -0.79375 -0.79375 h 4.497916 4.497917 v -7.14375 -7.14375 h 10.186458 10.186457 v -19.18229 -19.18229 h 10.583333 10.5833331 v -7.14375 -7.14375 h 3.9294883 3.9294856 l 0.1476163,3.72893 c 0.08119,2.05091 0.080624,6.992 -0.00132,10.9802 l -0.1488122,7.25129 h -9.3521869 -9.3521842 v 15.34583 15.34583 h 3.96875 3.9687495 v -7.14375 -7.14375 h -1.9843745 -1.984375 v -4.23333 -4.23333 h 1.852083 1.8520831 v -1.7198 -1.71979 h 6.3888829 6.3888829 l -0.092041,-10.38489 c -0.050623,-5.7117 -0.068122,-11.72435 -0.038883,-13.36146 l 0.053157,-2.97656 h 1.8520833 1.8520832 v -1.98438 -1.98437 H 23.48799 39.759865 v 3.96875 3.96875 h 9.260416 9.260416 v -3.96875 -3.96875 h 8.202083 8.202083 v 9.2093 9.2093 l -1.852083,0.89598 c -1.018646,0.49279 -1.852084,0.98463 -1.852084,1.09298 0,0.10835 0.488612,0.96341 1.085803,1.90014 l 1.085802,1.70315 1.717947,-1.04369 c 0.944872,-0.57403 1.747369,-1.00561 1.783329,-0.95907 0.03596,0.0465 2.762869,4.58791 6.059791,10.09193 l 5.994411,10.00732 v 2.72001 c 0,1.49601 0.07649,3.45186 0.169984,4.34633 l 0.169982,1.62631 h 0.888351 c 0.71196,0 0.888349,0.10508 0.888349,0.52917 0,0.48213 0.17639,0.52917 1.984375,0.52917 h 1.984375 v 7.67291 7.67292 h -4.894791 -4.894792 v 0.92604 0.92604 h 4.497917 4.497916 v 1.98438 1.98437 h 1.852083 1.852084 v 2.11667 c 0,2.08139 0.01103,2.11667 0.661458,2.11667 0.579564,0 0.661458,-0.11466 0.661458,-0.92604 v -0.92605 h 12.038542 12.03854 v 8.06979 8.0698 h 3.175 3.175 v 5.15937 5.15938 h -1.98437 -1.98438 v 1.98437 1.98438 h 10.18646 10.18646 v -7.14375 -7.14375 h 10.15815 c 9.21466,0 10.17378,0.0407 10.32644,0.43857 0.20169,0.52559 9.0804,14.59417 9.58813,15.19268 0.28592,0.33703 0.35436,3.0052 0.35436,13.81584 v 13.39813 l -5.21494,7.0201 -5.21494,7.02009 h -17.14235 -17.14235 v 20.37292 20.37291 h -5.02709 -5.02708 v -3.04271 -3.04271 h -6.21771 -6.21771 v 1.05834 1.05833 h 4.10105 4.10104 v 16.27188 16.27187 h -11.37709 c -11.200688,0 -11.377078,-0.008 -11.377078,-0.52917 0,-0.49709 -0.17639,-0.52916 -2.910417,-0.52916 h -2.910416 v -4.10104 -4.10105 H 80.373404 72.03903 v 0.79375 0.79375 h -9.921875 -9.921874 v 5.42396 5.42396 H 39.892156 27.589032 v -3.70417 -3.70416 h -6.085417 -6.085416 v 5.15937 5.15938 h -1.852083 -1.852083 v 1.05833 1.05833 H 5.4963245 -0.7213835 Z M 23.620282,317.33969 v -6.21771 h 1.984375 1.984375 v -1.98437 -1.98438 H 23.48799 19.386949 v 8.20208 8.20209 h 2.116666 2.116667 z m -3.96875,-1.98438 v -7.9375 h 1.852083 1.852084 v 7.9375 7.9375 h -1.852084 -1.852083 z m 3.96875,-6.2177 v -1.7198 h 1.852083 1.852083 v 1.7198 1.71979 h -1.852083 -1.852083 z m 57.097424,10.2526 -0.05257,-2.05052 -0.09131,1.91823 -0.09131,1.91823 H 75.467021 70.45153 v -5.02709 -5.02708 h 7.143749 7.14375 v 5.15938 5.15937 h 5.027083 5.027083 v -2.98277 -2.98277 l 2.116667,-2.10425 2.116666,-2.10425 v -2.05673 -2.05673 h 0.926042 c 0.90399,0 0.92604,-0.0252 0.92604,-1.05833 0,-1.03314 -0.022,-1.05834 -0.92604,-1.05834 h -0.926042 v -1.98437 -1.98437 h -1.058333 -1.058333 v -1.05834 -1.05833 h -1.058334 -1.058333 v -6.08542 -6.08541 h 13.229165 13.22917 v -1.98438 -1.98437 h -1.98438 -1.98437 v -6.21771 -6.21771 h -1.98438 -1.98437 v -2.11667 -2.11666 h -1.12704 c -1.09566,0 -1.12696,-0.0239 -1.12448,-0.8599 0.002,-0.81775 -0.0461,-0.85989 -0.9898,-0.85989 h -0.99236 l 1.7e-4,-1.52136 1.7e-4,-1.52135 h -0.92604 -0.92604 v 9.65729 9.65729 H 95.98382 84.739029 v -3.04271 -3.04271 h -1.058333 c -1.033135,0 -1.058334,0.022 -1.058334,0.92604 0,0.904 -0.02519,0.92605 -1.058333,0.92605 h -1.058333 v 2.11666 2.11667 h -7.9375 -7.937499 v -3.04271 -3.04271 h -0.649695 c -0.540613,0 -0.859608,-0.37697 -1.89991,-2.24523 -0.687617,-1.23487 -1.299903,-2.19554 -1.360633,-2.13481 -0.06073,0.0607 0.429819,1.07109 1.090113,2.24523 0.831149,1.47797 1.083357,2.13481 0.819703,2.13481 -0.309306,0 -0.380828,0.57145 -0.380828,3.04271 v 3.04271 h -8.334375 -8.334374 v 10.18646 10.18646 h 3.307291 3.307292 v 6.08541 6.08542 h -1.984375 -1.984375 v 1.98437 1.98438 h 1.984375 1.984375 v 2.11666 2.11667 H 66.48278 80.770279 Z m -32.226592,-4.16719 v -1.71979 h 1.719792 1.719791 v 1.71979 1.71979 h -1.719791 -1.719792 z m 46.302081,-2.24896 v -1.85208 h 1.911133 1.911133 l -1.837891,1.85208 c -1.010841,1.01865 -1.87085,1.85209 -1.911133,1.85209 -0.04028,0 -0.07324,-0.83344 -0.07324,-1.85209 z m 0.264583,-9.92187 v -1.71979 h 1.852084 1.852083 v 1.71979 1.71979 h -1.852083 -1.852084 z m 0,-2.91042 c 0,-0.85254 0.063,-0.92604 0.79375,-0.92604 0.730753,0 0.79375,0.0735 0.79375,0.92604 0,0.85255 -0.063,0.92605 -0.79375,0.92605 -0.730752,0 -0.79375,-0.0735 -0.79375,-0.92605 z m 22.489582,-15.34583 v -1.71979 h 1.71979 1.71979 v 1.71979 1.71979 h -1.71979 -1.71979 z m -36.777081,-6.21771 v -1.85208 h 1.852083 1.852084 v 1.85208 1.85209 h -1.852084 -1.852083 z m 2.116667,-2.91041 c 0,-0.70556 0.08819,-0.79375 0.79375,-0.79375 0.705556,0 0.79375,0.0882 0.79375,0.79375 0,0.70555 -0.08819,0.79375 -0.79375,0.79375 -0.705557,0 -0.79375,-0.0882 -0.79375,-0.79375 z m 26.458334,-7.40834 v -1.85208 h 1.85208 1.85208 v 1.85208 1.85209 h -1.85208 -1.85208 z m -0.26459,-2.24895 c 0,-0.0728 0.0595,-0.1323 0.1323,-0.1323 0.0728,0 0.13229,0.0595 0.13229,0.1323 0,0.0728 -0.0595,0.13229 -0.13229,0.13229 -0.0728,0 -0.1323,-0.0595 -0.1323,-0.13229 z m 0.36057,-0.5284 c -0.0914,-0.23827 -0.044,-0.55544 0.10537,-0.70483 0.43129,-0.4313 1.25386,-0.14061 1.25386,0.4431 0,0.67301 -1.11875,0.88844 -1.35923,0.26173 z M 38.172365,290.88136 V 280.6949 h -2.645834 -2.645833 v -3.04271 -3.04271 h 1.984375 1.984375 v -5.15937 -5.15938 h -1.984375 -1.984375 v -3.0427 -3.04271 h 8.202083 8.202083 v 2.11666 2.11667 h 1.852083 1.852084 v -2.11667 -2.11666 h 4.652959 4.65296 l -0.05974,0.99218 c -0.152051,2.52558 0.02215,5.09323 0.345556,5.09323 0.182229,0 0.913289,0.95566 1.624579,2.12369 0.71129,1.16803 1.343395,2.07354 1.404683,2.01226 0.06129,-0.0613 -0.434715,-0.98718 -1.102222,-2.05754 l -1.213652,-1.94611 0.668269,-0.0837 0.668269,-0.0837 v -3.02514 -3.02513 h 3.968749 3.96875 v -6.08542 -6.08542 H 64.366113 56.16403 v 4.10105 4.10104 h -6.085416 -6.085416 v -7.01146 -7.01146 h -1.190625 -1.190625 v 5.02708 5.02709 h -8.995833 -8.995833 v 1.85208 1.85208 h -3.042708 -3.042708 v 2.11667 c 0,1.94028 0.0441,2.11667 0.529166,2.11667 0.487664,0 0.529167,0.17639 0.529167,2.24896 v 2.24895 h 1.455208 1.455208 v 7.9375 7.9375 h 0.661459 0.661458 v -10.18646 -10.18645 h 4.497916 4.497917 v 13.22916 13.22917 h -4.497917 -4.497916 v -0.92604 c 0,-0.81139 -0.08189,-0.92604 -0.661458,-0.92604 -0.558565,0 -0.661459,0.12347 -0.661459,0.79375 0,0.73075 -0.0735,0.79375 -0.926041,0.79375 -0.881944,0 -0.926042,0.0441 -0.926042,0.92604 v 0.92604 H 14.359866 9.0681994 v -0.79375 -0.79375 H 4.1734079 -0.7213835 v 5.15937 5.15938 h 8.0697913 8.0697912 v 1.98437 1.98438 h 6.085416 6.085417 v 1.05833 1.05834 h 5.291666 5.291667 z m -22.489583,6.08541 v -1.71979 h 1.852084 1.852083 v 1.71979 1.7198 h -1.852083 -1.852084 z m 3.96875,0 v -1.71979 h 3.836458 3.836458 v 1.71979 1.7198 H 23.48799 19.651532 Z m 12.435416,-27.51666 c 0,-3.08681 0.09773,-4.89479 0.264584,-4.89479 0.166854,0 0.264583,1.80798 0.264583,4.89479 0,3.0868 -0.09773,4.89479 -0.264583,4.89479 -0.166855,0 -0.264584,-1.80799 -0.264584,-4.89479 z m 0.79375,4.10104 c 0,-0.77611 0.0294,-0.79375 1.322917,-0.79375 h 1.322916 v -3.30729 -3.30729 h -1.322916 c -1.293519,0 -1.322917,-0.0176 -1.322917,-0.79375 v -0.79375 h 1.852083 1.852084 v 4.89479 4.89479 h -1.852084 -1.852083 z m 0,-4.10104 v -3.04271 h 1.190625 1.190625 v 3.04271 3.04271 h -1.190625 -1.190625 z m 16.668749,-9.12813 v -1.85208 h 1.5875 1.5875 v 1.85208 1.85209 h -1.5875 -1.5875 z m -25.664582,-8.06979 v -1.71979 h 8.863542 8.863541 v 1.71979 1.71979 H 32.748407 23.884865 Z M 5.3640329,264.29073 v -6.08541 h 2.3812498 2.3812503 v -2.11667 -2.11667 H 8.6933271 7.2601243 l -3.0647136,-3.23106 -3.064711,-3.23107 v -2.72206 -2.72206 h -5.027083 -5.0270831 v -8.20208 -8.20208 h 5.0270831 5.027083 v -2.84045 -2.84045 l 3.2371743,-3.24497 3.2371769,-3.24496 h 5.0971981 5.0972 v -1.98438 -1.98437 h -2.116667 -2.116666 v -9.26042 -9.26042 H 10.920283 8.2744494 v -1.98437 -1.98438 H 6.2900745 4.3056996 v 1.05834 c 0,1.03313 -0.02204,1.05833 -0.9260416,1.05833 -0.8819436,0 -0.9260417,0.0441 -0.9260417,0.92604 v 0.92604 h -9.7895828 -9.7895825 v 6.21771 6.21771 h -9.128125 -9.128124 v 11.1125 11.1125 h 9.657291 9.657291 v 22.35729 22.35729 H -5.3515916 5.3640329 Z M -11.040133,233.86365 v -8.20208 h 0.926042 0.9260412 v 8.20208 8.20208 h -0.9260412 -0.926042 z M 2.7181997,190.07511 c 0,-0.55856 0.1234731,-0.66146 0.7937499,-0.66146 0.6702769,0 0.79375,0.1029 0.79375,0.66146 0,0.55857 -0.1234731,0.66146 -0.79375,0.66146 -0.6702768,0 -0.7937499,-0.10289 -0.7937499,-0.66146 z m 1.8520832,-1.05833 v -1.71979 h 1.7197916 1.7197916 v 1.71979 1.71979 H 6.2900745 4.5702829 Z M 145.85778,248.68032 v -13.75834 h -9.26042 -9.26042 v 13.75834 13.75833 h 9.26042 9.26042 z m -84.75486,12.52361 c -0.09701,-0.097 -0.255765,-0.097 -0.35278,0 -0.09701,0.097 -0.01764,0.17639 0.17639,0.17639 0.194027,0 0.273402,-0.0794 0.17639,-0.17639 z m -1.322917,-1.32292 c -0.09701,-0.097 -0.176389,-0.0176 -0.176389,0.17639 0,0.19403 0.07937,0.2734 0.176389,0.17639 0.09701,-0.097 0.09701,-0.25576 0,-0.35278 z m 37.129859,-3.66007 v -4.10104 h 6.085418 6.08541 v -4.10104 -4.10104 h 4.10105 4.10104 v -8.06979 -8.06979 h -3.57188 -3.57187 v -2.91042 c 0,-2.73403 -0.0321,-2.91042 -0.52917,-2.91042 -0.42837,0 -0.52917,0.17639 -0.52917,0.92604 v 0.92605 h -4.10104 -4.10104 v 12.17083 12.17083 H 96.380695 91.882779 V 231.87928 215.6074 h 8.598961 8.59895 v 0.79375 c 0,0.61736 0.1176,0.79375 0.52917,0.79375 0.47877,0 0.52917,-0.17639 0.52917,-1.85208 v -1.85208 h -2.60341 -2.6034 l -2.94979,-2.97657 c -2.82352,-2.84914 -2.949922,-3.02469 -2.952846,-4.10104 -0.0028,-1.02224 -0.0632,-1.12448 -0.664514,-1.12448 h -0.661458 v 3.83646 3.83646 h -4.497917 -4.497916 v -2.77813 -2.77812 h -1.984375 -1.984375 v 2.77812 2.77813 h -5.55625 -5.556249 v -3.57188 -3.57187 h -0.661459 c -0.558564,0 -0.661458,0.12347 -0.661458,0.79375 v 0.79375 H 62.117155 51.930697 v 0.92604 c 0,0.904 -0.02519,0.92604 -1.058333,0.92604 h -1.058333 v 1.05834 1.05833 h -4.894792 -4.894791 v -1.98438 -1.98437 h -2.116667 -2.116666 v -8.06979 -8.06979 h 3.042708 3.042708 v -1.19063 -1.19062 h -3.042708 -3.042708 v -3.96875 -3.96875 h 2.116666 2.116667 v -8.20209 c 0,-7.11435 -0.05263,-8.20208 -0.396875,-8.20208 -0.312074,0 -0.396875,-0.36748 -0.396875,-1.71979 v -1.71979 h -1.719792 -1.719791 v 6.74687 6.74688 H 21.635907 7.4806994 v -5.02709 -5.02708 H 3.379658 -0.7213835 v 7.14375 7.14375 H 14.359866 29.441115 v 15.34583 15.34584 H 27.45674 25.472365 v 1.98437 1.98438 h 5.159375 5.159375 v 1.05833 1.05833 h 1.058333 1.058333 v 1.05834 1.05833 h 1.852084 1.852083 v 7.14375 7.14375 h 1.190625 1.190625 v -3.175 -3.175 H 56.428614 68.86403 v 2.11667 2.11666 h 1.852083 1.852083 v -7.27604 -7.27604 h 9.128125 9.128124 v 6.21771 6.21771 h -3.042708 -3.042708 v 8.20208 8.20208 h 3.042708 3.042708 v 8.06979 8.06979 h 3.042709 3.042708 z m -5.820833,2.11667 v -1.71979 h 1.719791 1.719792 v 1.71979 1.71979 H 92.80882 91.089029 Z m 3.704166,-2.24896 v -3.96875 h 0.926042 0.926041 v 3.96875 3.96875 h -0.926041 -0.926042 z m -9.789583,-20.10833 v -7.9375 h 2.910417 2.910416 v 0.66146 c 0,0.65043 -0.03528,0.66146 -2.116666,0.66146 h -2.116667 v 6.48229 6.48229 h 2.116667 2.116666 v 0.79375 0.79375 h -2.910416 -2.910417 z m 1.852084,-0.13229 v -6.21771 h 1.984374 1.984375 v 6.21771 6.2177 H 88.84007 86.855696 Z m 4.233333,0 c 0,-3.96875 0.0957,-6.21771 0.264583,-6.21771 0.168884,0 0.264583,2.24896 0.264583,6.21771 0,3.96875 -0.0957,6.2177 -0.264583,6.2177 -0.168884,0 -0.264583,-2.24895 -0.264583,-6.2177 z m -21.960416,-8.06979 v -1.85209 h 1.5875 1.5875 v 1.85209 1.85208 h -1.5875 -1.5875 z M 38.172365,215.6074 v -1.85208 h 1.5875 1.587499 v 1.85208 1.85209 h -1.587499 -1.5875 z m -2.116667,-1.05833 c 0,-0.73075 0.0735,-0.79375 0.926042,-0.79375 0.852545,0 0.926041,0.063 0.926041,0.79375 0,0.73075 -0.0735,0.79375 -0.926041,0.79375 -0.852546,0 -0.926042,-0.063 -0.926042,-0.79375 z m 48.947914,-4.36563 v -2.51354 h 1.719792 1.719791 v 2.51354 2.51355 h -1.719791 -1.719792 z m -49.212497,-0.66145 v -1.85209 h 1.984375 1.984375 v 1.85209 1.85208 H 37.77549 35.791115 Z m 0.264583,-46.69896 v -1.45521 h 1.455208 1.455209 v 1.45521 1.45521 h -1.455209 -1.455208 z m 25.047222,95.99965 c -0.09701,-0.097 -0.255765,-0.097 -0.35278,0 -0.09701,0.097 -0.01764,0.17639 0.17639,0.17639 0.194027,0 0.273402,-0.0794 0.17639,-0.17639 z M 25.736949,240.87511 v -3.04271 h 1.984374 1.984375 v -3.96875 -3.96875 h -1.984375 -1.984374 v -3.04271 -3.0427 h -5.159375 -5.159375 v 10.05416 10.05417 h 5.159375 5.159375 z m -10.054167,-7.01146 v -9.78958 h 4.894792 4.894791 v 3.04271 3.04271 h 1.984375 1.984375 v 3.70416 3.70417 H 27.45674 25.472365 v 3.04271 3.0427 h -4.894791 -4.894792 z m -14.5520823,0 c 0,-3.35139 -0.061735,-3.96875 -0.39687494,-3.96875 -0.33513975,0 -0.39687498,0.61736 -0.39687498,3.96875 0,3.35139 0.0617352,3.96875 0.39687498,3.96875 0.33513974,0 0.39687494,-0.61736 0.39687494,-3.96875 z m -0.42402383,0 c 0,-2.11005 0.0410898,-2.97325 0.091313,-1.91823 0.0502206,1.05503 0.0502206,2.78143 0,3.83646 -0.0502232,1.05503 -0.091313,0.19182 -0.091313,-1.91823 z M 73.62653,195.63136 v -4.63021 h 1.322916 1.322917 v -0.92604 -0.92604 H 71.377571 66.48278 v -5.15937 -5.15938 h 2.910416 2.910417 l -0.0024,-7.47448 -0.0024,-7.47448 -6.973627,-11.77395 -6.973443,-11.77396 -11.280333,-0.069 -11.280332,-0.069 v 4.10388 4.10388 h 3.836458 3.836458 v -1.98438 -1.98437 h 6.482291 6.482292 v 8.20208 8.20209 H 52.195244 47.96191 v 10.05416 c 0,9.87778 0.0093,10.05417 0.529167,10.05417 0.505648,0 0.529167,0.17639 0.529167,3.96875 v 3.96875 h -1.455209 -1.455208 v 1.19062 1.19063 h 2.910417 2.910416 v 3.04271 3.0427 l 8.665104,0.0103 8.665104,0.0103 1.5875,1.43847 c 0.916146,0.83015 1.839259,1.44119 2.182812,1.4449 0.594926,0.006 0.595313,0.003 0.595313,-4.62379 z M 36.055698,144.3022 v -3.83646 h 1.852083 1.852084 v 1.98437 1.98438 h 1.719791 1.719792 v 1.85208 1.85209 h -3.571875 -3.571875 z m -16.756943,9.21632 c -0.09701,-0.097 -0.176389,-0.0176 -0.176389,0.17639 0,0.19402 0.07937,0.2734 0.176389,0.17639 0.09701,-0.097 0.09701,-0.25577 0,-0.35278 z m 1.940277,0.30868 c 0,-0.0728 -0.05953,-0.13229 -0.132292,-0.13229 -0.07276,0 -0.132291,0.0595 -0.132291,0.13229 0,0.0728 0.05953,0.13229 0.132291,0.13229 0.07276,0 0.132292,-0.0595 0.132292,-0.13229 z m 0.97014,-0.30868 c -0.09701,-0.097 -0.255765,-0.097 -0.35278,0 -0.09701,0.097 -0.01764,0.17639 0.17639,0.17639 0.194027,0 0.273402,-0.0794 0.17639,-0.17639 z m 1.058333,-0.26459 c -0.09701,-0.097 -0.255765,-0.097 -0.352779,0 -0.09701,0.097 -0.01764,0.17639 0.176389,0.17639 0.194027,0 0.273402,-0.0794 0.17639,-0.17639 z m -4.233333,-0.79375 c -0.09702,-0.097 -0.17639,-0.0176 -0.17639,0.17639 0,0.19403 0.07937,0.2734 0.17639,0.17639 0.09701,-0.097 0.09701,-0.25576 0,-0.35278 z m 4.850693,-0.22048 c 0,-0.0728 -0.05953,-0.13229 -0.132291,-0.13229 -0.07276,0 -0.132292,0.0595 -0.132292,0.13229 0,0.0728 0.05953,0.13229 0.132292,0.13229 0.07276,0 0.132291,-0.0595 0.132291,-0.13229 z m -5.115276,-0.57327 c -0.09701,-0.097 -0.17639,-0.0176 -0.17639,0.17639 0,0.19403 0.07938,0.2734 0.17639,0.17639 0.09701,-0.097 0.09701,-0.25576 0,-0.35278 z m 4.762499,-0.52916 c -0.09701,-0.097 -0.176389,-0.0176 -0.176389,0.17639 0,0.19402 0.07937,0.2734 0.176389,0.17639 0.09701,-0.097 0.09701,-0.25577 0,-0.35278 z m -5.203472,-1.27882 c 0,-0.0728 -0.05953,-0.13229 -0.132292,-0.13229 -0.07276,0 -0.132292,0.0595 -0.132292,0.13229 0,0.0728 0.05953,0.13229 0.132292,0.13229 0.07276,0 0.132292,-0.0595 0.132292,-0.13229 z m 4.674306,-0.83785 c -0.09702,-0.097 -0.17639,-0.0176 -0.17639,0.17639 0,0.19403 0.07937,0.2734 0.17639,0.17639 0.09701,-0.097 0.09701,-0.25577 0,-0.35278 z m -5.027083,-0.26458 c -0.09701,-0.097 -0.17639,-0.0176 -0.17639,0.17639 0,0.19402 0.07938,0.2734 0.17639,0.17639 0.09701,-0.097 0.09701,-0.25577 0,-0.35278 z m 4.762499,-0.52917 c -0.09701,-0.097 -0.176389,-0.0176 -0.176389,0.17639 0,0.19403 0.07938,0.2734 0.176389,0.17639 0.09701,-0.097 0.09701,-0.25577 0,-0.35278 z m -5.027083,-0.52917 c -0.09701,-0.097 -0.176389,-0.0176 -0.176389,0.17639 0,0.19403 0.07937,0.2734 0.176389,0.17639 0.09701,-0.097 0.09701,-0.25576 0,-0.35278 z m 4.7625,-0.52916 c -0.09701,-0.097 -0.17639,-0.0176 -0.17639,0.17639 0,0.19402 0.07938,0.2734 0.17639,0.17639 0.09701,-0.097 0.09701,-0.25577 0,-0.35278 z m -5.022733,-0.40239 c -0.08446,-0.21107 -0.147156,-0.14837 -0.159851,0.15985 -0.01148,0.27892 0.05105,0.43519 0.138965,0.34727 0.08792,-0.0879 0.09732,-0.31613 0.02088,-0.50712 z m 4.7625,-0.52917 c -0.08446,-0.21106 -0.147156,-0.14837 -0.159851,0.15986 -0.01148,0.27891 0.05105,0.43518 0.138964,0.34726 0.08792,-0.0879 0.09732,-0.31612 0.02088,-0.50712 z m -5.031433,-0.39136 c -0.09702,-0.097 -0.17639,-0.0176 -0.17639,0.17639 0,0.19403 0.07937,0.2734 0.17639,0.17639 0.09701,-0.097 0.09701,-0.25577 0,-0.35278 z m 4.762499,-0.52917 c -0.09701,-0.097 -0.176389,-0.0176 -0.176389,0.17639 0,0.19403 0.07938,0.2734 0.176389,0.17639 0.09701,-0.097 0.09701,-0.25576 0,-0.35278 z m -5.027083,-0.52916 c -0.09701,-0.097 -0.176389,-0.0176 -0.176389,0.17639 0,0.19402 0.07937,0.2734 0.176389,0.17639 0.09701,-0.097 0.09701,-0.25577 0,-0.35278 z m 4.7625,-0.52917 c -0.09702,-0.097 -0.17639,-0.0176 -0.17639,0.17639 0,0.19403 0.07937,0.2734 0.17639,0.17639 0.09701,-0.097 0.09701,-0.25577 0,-0.35278 z m -5.022733,-0.40239 c -0.08446,-0.21106 -0.147156,-0.14837 -0.159851,0.15986 -0.01148,0.27891 0.05105,0.43518 0.138965,0.34726 0.08792,-0.0879 0.09732,-0.31612 0.02087,-0.50712 z m 4.7625,-0.52916 c -0.08446,-0.21107 -0.147156,-0.14838 -0.159851,0.15985 -0.01148,0.27891 0.05105,0.43518 0.138964,0.34727 0.08792,-0.0879 0.09732,-0.31613 0.02088,-0.50712 z m -5.031433,-0.39137 c -0.09701,-0.097 -0.17639,-0.0176 -0.17639,0.17639 0,0.19403 0.07937,0.2734 0.17639,0.17639 0.09701,-0.097 0.09701,-0.25576 0,-0.35278 z m 4.7625,-0.52916 c -0.09702,-0.097 -0.17639,-0.0176 -0.17639,0.17639 0,0.19402 0.07937,0.2734 0.17639,0.17639 0.09701,-0.097 0.09701,-0.25577 0,-0.35278 z m -5.027084,-0.52917 c -0.09701,-0.097 -0.176389,-0.0176 -0.176389,0.17639 0,0.19403 0.07938,0.2734 0.176389,0.17639 0.09701,-0.097 0.09701,-0.25577 0,-0.35278 z m 4.7625,-0.52917 c -0.09701,-0.097 -0.17639,-0.0176 -0.17639,0.17639 0,0.19403 0.07937,0.2734 0.17639,0.17639 0.09701,-0.097 0.09701,-0.25576 0,-0.35278 z m -5.027083,-0.26458 c -0.09701,-0.097 -0.17639,-0.0176 -0.17639,0.17639 0,0.19403 0.07938,0.2734 0.17639,0.17639 0.09701,-0.097 0.09701,-0.25577 0,-0.35278 z m 4.850693,-0.48507 c 0,-0.0728 -0.05953,-0.13229 -0.132291,-0.13229 -0.07276,0 -0.132292,0.0595 -0.132292,0.13229 0,0.0728 0.05953,0.13229 0.132292,0.13229 0.07276,0 0.132291,-0.0595 0.132291,-0.13229 z m -5.37551,-1.50482 c -0.08446,-0.21106 -0.147156,-0.14837 -0.15985,0.15986 -0.01148,0.27891 0.05105,0.43518 0.138964,0.34726 0.08792,-0.0879 0.09732,-0.31612 0.02088,-0.50712 z m 4.75815,-0.65594 c -0.09701,-0.097 -0.17639,-0.0176 -0.17639,0.17639 0,0.19402 0.07937,0.2734 0.17639,0.17639 0.09701,-0.097 0.09701,-0.25577 0,-0.35278 z m -4.233333,0 c -0.09701,-0.097 -0.255765,-0.097 -0.352779,0 -0.09701,0.097 -0.01764,0.17639 0.176389,0.17639 0.194027,0 0.273402,-0.0794 0.17639,-0.17639 z m 1.07487,-0.24805 c -0.08792,-0.0879 -0.316124,-0.0973 -0.507119,-0.0209 -0.211066,0.0845 -0.148373,0.14716 0.159853,0.15985 0.278913,0.0115 0.435184,-0.051 0.347266,-0.13896 z m 1.058333,-0.26458 c -0.08792,-0.0879 -0.316124,-0.0973 -0.507119,-0.0209 -0.211066,0.0845 -0.148373,0.14716 0.159854,0.15985 0.278913,0.0115 0.435184,-0.051 0.347265,-0.13896 z m 1.691989,-0.43987 c -0.261307,-0.25936 -0.291698,-0.22897 -0.148113,0.14811 0.09936,0.26094 0.247303,0.40778 0.328766,0.32632 0.08146,-0.0815 1.69e-4,-0.29496 -0.180653,-0.47443 z m -0.914775,0.15875 c -0.09701,-0.097 -0.255765,-0.097 -0.35278,0 -0.09701,0.097 -0.01764,0.17639 0.17639,0.17639 0.194027,0 0.273402,-0.0794 0.17639,-0.17639 z m -6.790973,209.19721 v -0.79375 h 1.5875 1.5875 v 0.79375 0.79375 h -1.5875 -1.5875 z m 3.704166,-5.15938 v -5.95312 h 5.820833 5.820833 v 5.95312 5.95313 H 21.503615 15.682782 Z M -0.45680018,327.39386 v -1.7198 H 1.2629914 2.982783 v 1.7198 1.71979 H 1.2629914 -0.45680018 Z M -10.77555,305.03656 v -1.85208 h 1.8520836 1.8520832 v 1.85208 1.85209 H -8.9234664 -10.77555 Z m 136.52499,-79.2427 v -1.71979 h 1.7198 1.71979 v 1.71979 1.71979 h -1.71979 -1.7198 z M -59.212415,222.8173 c -0.505593,-0.54571 -1.205355,-1.31961 -1.555025,-1.71979 l -0.635765,-0.72761 h 2.559663 2.559661 v 1.71979 1.7198 h -1.004636 c -0.8211,0 -1.172575,-0.18127 -1.923898,-0.99219 z M 123.36819,205.15636 v -8.06979 H 111.19736 99.026528 v -0.92604 -0.92604 h 13.096872 13.09688 v 8.20208 8.20208 h 2.11666 2.11667 v 0.79375 0.79375 h -3.04271 -3.04271 z m 2.11667,-1.98437 V 194.9699 H 112.25569 99.026528 v -1.85208 -1.85208 h 15.213542 15.21354 v 10.05416 10.05417 h -1.98437 -1.98438 z M 94.264028,192.98553 v -1.71979 h 1.5875 1.5875 v 1.71979 1.71979 h -1.5875 -1.5875 z m -156.897908,0.79375 v -0.66146 h 2.910416 2.910417 v 0.66146 0.66146 h -2.910417 -2.910416 z m 153.722909,-20.6375 c 0,-0.31207 0.367477,-0.39688 1.719791,-0.39688 1.352315,0 1.719792,0.0848 1.719792,0.39688 0,0.31207 -0.367477,0.39687 -1.719792,0.39687 -1.352314,0 -1.719791,-0.0848 -1.719791,-0.39687 z m -1.852084,-1.45521 v -0.79375 h 2.645834 2.645833 v 0.79375 0.79375 h -2.645833 -2.645834 z m -102.129161,-17.4625 v -1.5875 h 1.719791 1.7197919 v 1.5875 1.5875 h -1.7197919 -1.719791 z m 85.411374,-9.71497 c -1.456084,-2.20855 -1.469247,-2.08504 0.318413,-2.98745 0.882055,-0.44525 1.706787,-0.74587 1.832737,-0.66803 0.293857,0.18161 1.602055,2.40763 1.602055,2.72604 0,0.18705 -1.815934,1.33582 -2.933092,1.85548 -0.08821,0.041 -0.457266,-0.37569 -0.820113,-0.92604 z M 2.189033,141.39178 c 0,-3.66007 0.024315,-3.83646 0.5291667,-3.83646 0.5048382,0 0.5291666,0.17639 0.5291666,3.83646 0,3.66007 -0.024315,3.83646 -0.5291666,3.83646 -0.5048382,0 -0.5291667,-0.17639 -0.5291667,-3.83646 z m -16.933332,-4.23333 v -3.04271 h 3.968749 3.9687501 v -1.85208 c 0,-1.05834 0.1133925,-1.85209 0.2645834,-1.85209 0.1668541,0 0.2645833,1.80799 0.2645833,4.89479 v 4.8948 h -4.2333328 -4.233333 z m 17.1979153,-2.64584 c 0,-1.67569 0.1049946,-2.77812 0.2645834,-2.77812 0.1595887,0 0.2645833,1.10243 0.2645833,2.77812 0,1.6757 -0.1049946,2.77813 -0.2645833,2.77813 -0.1595888,0 -0.2645834,-1.10243 -0.2645834,-2.77813 z m 1.3229166,-10.58333 v -1.71979 h 1.190625 1.1906249 v 1.71979 1.71979 H 4.9671579 3.7765329 Z m 2.6458332,0 c 0,-0.97014 0.1153319,-1.71979 0.2645834,-1.71979 0.1492514,0 0.2645833,0.74965 0.2645833,1.71979 0,0.97014 -0.1153319,1.71979 -0.2645833,1.71979 -0.1492515,0 -0.2645834,-0.74965 -0.2645834,-1.71979 z"
         id="path3292" />
      <path
         style="fill:#807e80;stroke-width:0.264583"
         d="m 11.978616,346.84073 v -0.79375 h 1.5875 1.5875 v 0.79375 0.79375 h -1.5875 -1.5875 z m 3.704166,-5.15938 v -5.95312 h 5.820833 5.820833 v 5.95312 5.95313 h -5.820833 -5.820833 z m 12.095422,-12.50156 c 0.0834,-7.5307 0.06242,-15.56742 -0.04662,-17.85937 l -0.198263,-4.16719 H 10.363261 -6.8067999 v -2.11667 -2.11666 h -2.1166665 -2.1166666 v -12.17083 -12.17084 h -8.069791 -8.069792 v -15.21354 -15.21354 h -10.451041 -10.451041 v -4.49792 c 0,-3.82175 0.05966,-4.49791 0.396875,-4.49791 0.343654,0 0.396875,-1.02894 0.396875,-7.67292 v -7.67291 h -4.365625 -4.365624 v -1.85209 -1.85208 h -2.877844 -2.877845 l -6.448718,-7.08158 c -3.546794,-3.89487 -6.611415,-7.2873 -6.810268,-7.53873 -0.32216,-0.40734 0.124149,-1.10593 4.096506,-6.41217 l 4.458056,-5.95502 h 1.790473 1.790473 v 0.79375 0.79375 h 3.175 3.175 v -0.79375 -0.79375 h 4.497916 4.497917 v -7.14375 -7.14375 h 10.186458 10.186457 v -19.18229 -19.18229 h 10.583333 10.5833331 v -7.14375 -7.14375 h 3.9294883 3.9294856 l 0.1476163,3.72893 c 0.08119,2.05091 0.080624,6.992 -0.00132,10.9802 l -0.1488122,7.25129 h -9.3521869 -9.3521842 v 15.34583 15.34583 h 3.96875 3.9687495 v -7.14375 -7.14375 h -1.9843745 -1.984375 v -4.23333 -4.23333 h 1.852083 1.8520831 v -1.7198 -1.71979 h 6.3499997 c 6.17361,0 6.3499997,-0.0147 6.3499997,-0.52916 0,-0.51672 0.1763898,-0.52917 7.4983685,-0.52917 h 7.498365 l 0.349099,1.45521 c 0.192006,0.80036 0.478912,1.45237 0.637569,1.44891 0.15866,-0.003 1.240973,-0.28716 2.405139,-0.63044 2.091574,-0.61675 2.115871,-0.63392 2.049513,-1.44891 l -0.06715,-0.82477 h 2.514547 2.514549 v -14.81667 -14.81666 h 5.423958 5.423959 v 3.96875 3.96875 h 9.260416 9.260416 v -3.96875 -3.96875 h 8.202083 8.202083 v 9.2093 9.2093 l -1.852083,0.89598 c -1.018646,0.49279 -1.852084,0.98463 -1.852084,1.09298 0,0.10835 0.488612,0.96341 1.085803,1.90014 l 1.085802,1.70315 1.717947,-1.04369 c 0.944872,-0.57403 1.747369,-1.00561 1.783329,-0.95907 0.03596,0.0465 2.762869,4.58791 6.059791,10.09193 l 5.994411,10.00732 v 2.72001 c 0,1.49601 0.07649,3.45186 0.169984,4.34633 l 0.169982,1.62631 H 89.9361 c 0.71196,0 0.888349,0.10508 0.888349,0.52917 0,0.48213 0.17639,0.52917 1.984375,0.52917 h 1.984375 v 7.67291 7.67292 h -4.894791 -4.894792 v 0.92604 0.92604 h 4.497917 4.497916 v 1.98438 1.98437 h 1.852083 1.852084 v 2.11667 c 0,2.08139 0.01103,2.11667 0.661458,2.11667 0.579564,0 0.661458,-0.11466 0.661458,-0.92604 v -0.92605 h 12.038538 12.03854 v 8.06979 8.0698 h 3.175 3.175 v 5.15937 5.15938 h -1.98437 -1.98438 v 1.98437 1.98438 h 10.18646 10.18646 v -7.14375 -7.14375 h 10.15815 c 9.21466,0 10.17378,0.0407 10.32644,0.43857 0.20169,0.52559 9.0804,14.59417 9.58813,15.19268 0.28592,0.33703 0.35436,3.0052 0.35436,13.81584 v 13.39813 l -5.21494,7.0201 -5.21494,7.02009 h -17.14235 -17.14235 v 20.37292 20.37291 h -5.02709 -5.02708 v -3.04271 -3.04271 h -6.21771 -6.21771 v 1.05834 1.05833 h 4.10105 4.10104 v 16.27188 16.27187 h -11.37709 c -11.200684,0 -11.377074,-0.008 -11.377074,-0.52917 0,-0.49709 -0.17639,-0.52916 -2.910417,-0.52916 h -2.910416 v -4.10104 -4.10105 H 80.373404 72.03903 v 0.79375 0.79375 h -9.921875 -9.921874 v 5.42396 5.42396 H 39.910923 27.626566 Z m 52.939502,-9.78958 -0.05257,-2.05052 -0.09131,1.91823 -0.09131,1.91823 H 75.467021 70.45153 v -5.02709 -5.02708 h 7.143749 7.14375 v 5.15938 5.15937 h 5.027083 5.027083 v -2.98277 -2.98277 l 2.116667,-2.10425 2.116666,-2.10425 v -2.05673 -2.05673 h 0.926042 c 0.90399,0 0.92604,-0.0252 0.92604,-1.05833 0,-1.03314 -0.022,-1.05834 -0.92604,-1.05834 h -0.926042 v -1.98437 -1.98437 h -1.058333 -1.058333 v -1.05834 -1.05833 h -1.058334 -1.058333 v -6.08542 -6.08541 h 13.229165 13.22917 v -1.98438 -1.98437 h -1.98438 -1.98437 v -6.21771 -6.21771 h -1.98438 -1.98437 v -2.11667 -2.11666 h -1.12704 c -1.09566,0 -1.12696,-0.0239 -1.12448,-0.8599 0.002,-0.81775 -0.0461,-0.85989 -0.9898,-0.85989 h -0.99236 l 1.7e-4,-1.52136 1.7e-4,-1.52135 h -0.92604 -0.92604 v 9.65729 9.65729 H 95.98382 84.739029 v -3.04271 -3.04271 h -1.058333 c -1.033135,0 -1.058334,0.022 -1.058334,0.92604 0,0.904 -0.02519,0.92605 -1.058333,0.92605 h -1.058333 v 2.11666 2.11667 h -7.9375 -7.937499 v -3.04271 -3.04271 h -0.649695 c -0.540613,0 -0.859608,-0.37697 -1.89991,-2.24523 -0.687617,-1.23487 -1.299903,-2.19554 -1.360633,-2.13481 -0.06073,0.0607 0.429819,1.07109 1.090113,2.24523 0.831149,1.47797 1.083357,2.13481 0.819703,2.13481 -0.309306,0 -0.380828,0.57145 -0.380828,3.04271 v 3.04271 h -8.334375 -8.334374 v 10.18646 10.18646 h 3.307291 3.307292 v 6.08541 6.08542 h -1.984375 -1.984375 v 1.98437 1.98438 h 1.984375 1.984375 v 2.11666 2.11667 H 66.48278 80.770279 Z m -32.226592,-4.16719 v -1.71979 h 1.719792 1.719791 v 1.71979 1.71979 h -1.719791 -1.719792 z m 46.302081,-2.24896 v -1.85208 h 1.911133 1.911133 l -1.837891,1.85208 c -1.010841,1.01865 -1.87085,1.85209 -1.911133,1.85209 -0.04028,0 -0.07324,-0.83344 -0.07324,-1.85209 z m 0.264583,-9.92187 v -1.71979 h 1.852084 1.852083 v 1.71979 1.71979 h -1.852083 -1.852084 z m 0,-2.91042 c 0,-0.85254 0.063,-0.92604 0.79375,-0.92604 0.730753,0 0.79375,0.0735 0.79375,0.92604 0,0.85255 -0.063,0.92605 -0.79375,0.92605 -0.730752,0 -0.79375,-0.0735 -0.79375,-0.92605 z m 22.489582,-15.34583 v -1.71979 h 1.71979 1.71979 v 1.71979 1.71979 h -1.71979 -1.71979 z m -36.777081,-6.21771 v -1.85208 h 1.852083 1.852084 v 1.85208 1.85209 h -1.852084 -1.852083 z m 2.116667,-2.91041 c 0,-0.70556 0.08819,-0.79375 0.79375,-0.79375 0.705556,0 0.79375,0.0882 0.79375,0.79375 0,0.70555 -0.08819,0.79375 -0.79375,0.79375 -0.705557,0 -0.79375,-0.0882 -0.79375,-0.79375 z m 26.458334,-7.40834 v -1.85208 h 1.85208 1.85208 v 1.85208 1.85209 h -1.85208 -1.85208 z m -0.26459,-2.24895 c 0,-0.0728 0.0595,-0.1323 0.1323,-0.1323 0.0728,0 0.13229,0.0595 0.13229,0.1323 0,0.0728 -0.0595,0.13229 -0.13229,0.13229 -0.0728,0 -0.1323,-0.0595 -0.1323,-0.13229 z m 0.36057,-0.5284 c -0.0914,-0.23827 -0.044,-0.55544 0.10537,-0.70483 0.43129,-0.4313 1.25386,-0.14061 1.25386,0.4431 0,0.67301 -1.11875,0.88844 -1.35923,0.26173 z M 38.172365,290.88136 V 280.6949 h -2.645834 -2.645833 v -3.04271 -3.04271 h 1.984375 1.984375 v -5.15937 -5.15938 h -1.984375 -1.984375 v -3.0427 -3.04271 h 8.202083 8.202083 v 2.11666 2.11667 h 1.852083 1.852084 v -2.11667 -2.11666 h 4.630208 c 4.594129,0 4.630208,0.005 4.630208,0.58208 0,0.45273 -0.07056,0.51153 -0.3175,0.26458 -0.174625,-0.17462 -0.627063,-0.3175 -1.005417,-0.3175 -0.378354,0 -0.830791,0.14288 -1.005416,0.3175 -0.174625,0.17463 -0.3175,0.62707 -0.3175,1.00542 0,0.37835 0.142875,0.83079 0.3175,1.00542 0.174625,0.17462 0.627062,0.3175 1.005416,0.3175 0.378354,0 0.830792,-0.14288 1.005417,-0.3175 0.246943,-0.24695 0.3175,0.0764 0.3175,1.45521 0,1.24347 0.09891,1.7727 0.331324,1.7727 0.182229,0 0.913289,0.95566 1.624579,2.12369 0.71129,1.16803 1.343395,2.07354 1.404683,2.01226 0.06129,-0.0613 -0.434715,-0.98718 -1.102222,-2.05754 l -1.213652,-1.94611 0.668269,-0.0837 0.668269,-0.0837 v -3.02514 -3.02513 h 3.968749 3.96875 v -6.08542 -6.08542 H 64.366113 56.16403 v 4.10105 4.10104 h -6.085416 -6.085416 v -7.01146 -7.01146 h -1.190625 -1.190625 v 5.02708 5.02709 h -8.995833 -8.995833 v 1.85208 1.85208 h -3.042708 -3.042708 v 2.11667 c 0,1.94028 0.0441,2.11667 0.529166,2.11667 0.487664,0 0.529167,0.17639 0.529167,2.24896 v 2.24895 h 1.455208 1.455208 v 7.9375 7.9375 h 0.661459 0.661458 v -10.18646 -10.18645 h 4.497916 4.497917 v 13.22916 13.22917 h -4.497917 -4.497916 v -0.92604 c 0,-0.81139 -0.08189,-0.92604 -0.661458,-0.92604 -0.558565,0 -0.661459,0.12347 -0.661459,0.79375 0,0.73075 -0.0735,0.79375 -0.926041,0.79375 -0.881944,0 -0.926042,0.0441 -0.926042,0.92604 v 0.92604 H 14.359866 9.0681994 v -0.79375 -0.79375 H 4.1734079 -0.7213835 v 5.15937 5.15938 h 8.0697913 8.0697912 v 1.98437 1.98438 h 6.085416 6.085417 v 1.05833 1.05834 h 5.291666 5.291667 z m -22.489583,6.08541 v -1.71979 h 1.852084 1.852083 v 1.71979 1.7198 h -1.852083 -1.852084 z m 3.96875,0 v -1.71979 h 3.836458 3.836458 v 1.71979 1.7198 H 23.48799 19.651532 Z m 12.435416,-27.51666 c 0,-3.08681 0.09773,-4.89479 0.264584,-4.89479 0.166854,0 0.264583,1.80798 0.264583,4.89479 0,3.0868 -0.09773,4.89479 -0.264583,4.89479 -0.166855,0 -0.264584,-1.80799 -0.264584,-4.89479 z m 0.79375,4.10104 c 0,-0.77611 0.0294,-0.79375 1.322917,-0.79375 h 1.322916 v -3.30729 -3.30729 h -1.322916 c -1.293519,0 -1.322917,-0.0176 -1.322917,-0.79375 v -0.79375 h 1.852083 1.852084 v 4.89479 4.89479 h -1.852084 -1.852083 z m 0,-4.10104 v -3.04271 h 1.190625 1.190625 v 3.04271 3.04271 h -1.190625 -1.190625 z m 16.668749,-9.12813 v -1.85208 h 1.5875 1.5875 v 1.85208 1.85209 h -1.5875 -1.5875 z m 10.734524,0.37798 c -0.228677,-0.22867 -0.415774,-0.51783 -0.415774,-0.64256 0,-0.21754 0.733517,-1.05833 0.9233,-1.05833 0.536591,0 0.928783,0.44689 0.928783,1.05833 0,0.4281 -0.175461,0.80447 -0.418515,0.89773 -0.560163,0.21496 -0.543483,0.21914 -1.017794,-0.25517 z m -36.399106,-8.44777 v -1.71979 h 8.863542 8.863541 v 1.71979 1.71979 H 32.748407 23.884865 Z M 5.3640329,264.29073 v -6.08541 h 2.3812498 2.3812503 v -2.11667 -2.11667 H 8.6933271 7.2601243 l -3.0647136,-3.23106 -3.064711,-3.23107 v -2.72206 -2.72206 h -5.027083 -5.0270831 v -8.20208 -8.20208 h 5.0270831 5.027083 v -2.84045 -2.84045 l 3.2371743,-3.24497 3.2371769,-3.24496 h 5.0971981 5.0972 v -1.98438 -1.98437 h -2.116667 -2.116666 v -9.26042 -9.26042 H 10.920283 8.2744494 v -1.98437 -1.98438 H 6.2900745 4.3056996 v 1.05834 c 0,1.03313 -0.02204,1.05833 -0.9260416,1.05833 -0.8819436,0 -0.9260417,0.0441 -0.9260417,0.92604 v 0.92604 h -9.7895828 -9.7895825 v 6.21771 6.21771 h -9.128125 -9.128124 v 11.1125 11.1125 h 9.657291 9.657291 v 22.35729 22.35729 H -5.3515916 5.3640329 Z M -11.040133,233.86365 v -8.20208 h 0.926042 0.9260412 v 8.20208 8.20208 h -0.9260412 -0.926042 z M 2.7181997,190.07511 c 0,-0.55856 0.1234731,-0.66146 0.7937499,-0.66146 0.6702769,0 0.79375,0.1029 0.79375,0.66146 0,0.55857 -0.1234731,0.66146 -0.79375,0.66146 -0.6702768,0 -0.7937499,-0.10289 -0.7937499,-0.66146 z m 1.8520832,-1.05833 v -1.71979 h 1.7197916 1.7197916 v 1.71979 1.71979 H 6.2900745 4.5702829 Z M 145.85778,248.68032 v -13.75834 h -9.26042 -9.26042 v 13.75834 13.75833 h 9.26042 9.26042 z m -48.947918,7.54062 v -4.10104 h 6.085418 6.08541 v -4.10104 -4.10104 h 4.10105 4.10104 v -8.06979 -8.06979 h -3.57188 -3.57187 v -2.91042 c 0,-2.73403 -0.0321,-2.91042 -0.52917,-2.91042 -0.42837,0 -0.52917,0.17639 -0.52917,0.92604 v 0.92605 h -4.10104 -4.10104 v 12.17083 12.17083 H 96.380695 91.882779 V 231.87928 215.6074 h 8.598961 8.59895 v 0.79375 c 0,0.61736 0.1176,0.79375 0.52917,0.79375 0.47877,0 0.52917,-0.17639 0.52917,-1.85208 v -1.85208 h -2.60341 -2.6034 l -2.94979,-2.97657 c -2.82352,-2.84914 -2.949922,-3.02469 -2.952846,-4.10104 -0.0028,-1.02224 -0.0632,-1.12448 -0.664514,-1.12448 h -0.661458 v 3.83646 3.83646 h -4.497917 -4.497916 v -2.77813 -2.77812 h -1.984375 -1.984375 v 2.77812 2.77813 h -5.55625 -5.556249 v -3.57188 -3.57187 h -0.661459 c -0.558564,0 -0.661458,0.12347 -0.661458,0.79375 v 0.79375 H 62.117155 51.930697 v 0.92604 c 0,0.904 -0.02519,0.92604 -1.058333,0.92604 h -1.058333 v 1.05834 1.05833 h -4.894792 -4.894791 v -1.98438 -1.98437 h -2.116667 -2.116666 v -8.06979 -8.06979 h 3.042708 3.042708 v -1.19063 -1.19062 h -3.042708 -3.042708 v -3.96875 -3.96875 h 2.116666 2.116667 v -8.20209 c 0,-7.11435 -0.05263,-8.20208 -0.396875,-8.20208 -0.312074,0 -0.396875,-0.36748 -0.396875,-1.71979 v -1.71979 h -1.719792 -1.719791 v 6.74687 6.74688 H 21.635907 7.4806994 v -5.02709 -5.02708 H 3.379658 -0.7213835 v 7.14375 7.14375 H 14.359866 29.441115 v 15.34583 15.34584 H 27.45674 25.472365 v 1.98437 1.98438 h 5.159375 5.159375 v 1.05833 1.05833 h 1.058333 1.058333 v 1.05834 1.05833 h 1.852084 1.852083 v 7.14375 7.14375 h 1.190625 1.190625 v -3.175 -3.175 H 56.428614 68.86403 v 2.11667 2.11666 h 1.852083 1.852083 v -7.27604 -7.27604 h 9.128125 9.128124 v 6.21771 6.21771 h -3.042708 -3.042708 v 8.20208 8.20208 h 3.042708 3.042708 v 8.06979 8.06979 h 3.042709 3.042708 z m -5.820833,2.11667 v -1.71979 h 1.719791 1.719792 v 1.71979 1.71979 H 92.80882 91.089029 Z m 3.704166,-2.24896 v -3.96875 h 0.926042 0.926041 v 3.96875 3.96875 h -0.926041 -0.926042 z m -9.789583,-20.10833 v -7.9375 h 2.910417 2.910416 v 0.66146 c 0,0.65043 -0.03528,0.66146 -2.116666,0.66146 h -2.116667 v 6.48229 6.48229 h 2.116667 2.116666 v 0.79375 0.79375 h -2.910416 -2.910417 z m 1.852084,-0.13229 v -6.21771 h 1.984374 1.984375 v 6.21771 6.2177 H 88.84007 86.855696 Z m 4.233333,0 c 0,-3.96875 0.0957,-6.21771 0.264583,-6.21771 0.168884,0 0.264583,2.24896 0.264583,6.21771 0,3.96875 -0.0957,6.2177 -0.264583,6.2177 -0.168884,0 -0.264583,-2.24895 -0.264583,-6.2177 z m -21.960416,-8.06979 v -1.85209 h 1.5875 1.5875 v 1.85209 1.85208 h -1.5875 -1.5875 z M 38.172365,215.6074 v -1.85208 h 1.5875 1.587499 v 1.85208 1.85209 h -1.587499 -1.5875 z m -2.116667,-1.05833 c 0,-0.73075 0.0735,-0.79375 0.926042,-0.79375 0.852545,0 0.926041,0.063 0.926041,0.79375 0,0.73075 -0.0735,0.79375 -0.926041,0.79375 -0.852546,0 -0.926042,-0.063 -0.926042,-0.79375 z m 48.947914,-4.36563 v -2.51354 h 1.719792 1.719791 v 2.51354 2.51355 h -1.719791 -1.719792 z m -49.212497,-0.66145 v -1.85209 h 1.984375 1.984375 v 1.85209 1.85208 H 37.77549 35.791115 Z m 0.264583,-46.69896 v -1.45521 h 1.455208 1.455209 v 1.45521 1.45521 h -1.455209 -1.455208 z m -1.5875,71.04062 V 219.84074 H 21.635907 8.803616 v 14.02291 14.02292 h 12.832291 12.832291 z m -18.785416,0 v -9.78958 h 4.894792 4.894791 v 3.04271 3.04271 h 1.984375 1.984375 v 3.70416 3.70417 H 27.45674 25.472365 v 3.04271 3.0427 h -4.894791 -4.894792 z m -14.5520823,0 c 0,-3.35139 -0.061735,-3.96875 -0.39687494,-3.96875 -0.33513975,0 -0.39687498,0.61736 -0.39687498,3.96875 0,3.35139 0.0617352,3.96875 0.39687498,3.96875 0.33513974,0 0.39687494,-0.61736 0.39687494,-3.96875 z m -0.42402383,0 c 0,-2.11005 0.0410898,-2.97325 0.091313,-1.91823 0.0502206,1.05503 0.0502206,2.78143 0,3.83646 -0.0502232,1.05503 -0.091313,0.19182 -0.091313,-1.91823 z M 73.62653,195.63136 v -4.63021 h 1.322916 1.322917 v -0.92604 -0.92604 H 71.377571 66.48278 v -5.15937 -5.15938 h 2.910416 2.910417 l -0.0024,-7.47448 -0.0024,-7.47448 -6.973627,-11.77395 -6.973443,-11.77396 -11.280333,-0.069 -11.280332,-0.069 v 4.10388 4.10388 h 3.836458 3.836458 v -1.98438 -1.98437 h 6.482291 6.482292 v 8.20208 8.20209 H 52.195244 47.96191 v 10.05416 c 0,9.87778 0.0093,10.05417 0.529167,10.05417 0.505648,0 0.529167,0.17639 0.529167,3.96875 v 3.96875 h -1.455209 -1.455208 v 1.19062 1.19063 h 2.910417 2.910416 v 3.04271 3.0427 l 8.665104,0.0103 8.665104,0.0103 1.5875,1.43847 c 0.916146,0.83015 1.839259,1.44119 2.182812,1.4449 0.594926,0.006 0.595313,0.003 0.595313,-4.62379 z M 36.055698,144.3022 v -3.83646 h 1.852083 1.852084 v 1.98437 1.98438 h 1.719791 1.719792 v 1.85208 1.85209 H 39.627573 36.055698 Z M -0.45680018,327.39386 v -1.7198 H 1.2629914 2.982783 v 1.7198 1.71979 H 1.2629914 -0.45680018 Z M 19.651532,315.35531 v -7.9375 h 1.852083 1.852084 v 7.9375 7.9375 h -1.852084 -1.852083 z m 3.96875,-6.2177 v -1.7198 h 1.852083 1.852083 v 1.7198 1.71979 h -1.852083 -1.852083 z m -34.395832,-4.10105 v -1.85208 h 1.8520836 1.8520832 v 1.85208 1.85209 H -8.9234664 -10.77555 Z m 136.52499,-79.2427 v -1.71979 h 1.7198 1.71979 v 1.71979 1.71979 h -1.71979 -1.7198 z M -59.212415,222.8173 c -0.505593,-0.54571 -1.205355,-1.31961 -1.555025,-1.71979 l -0.635765,-0.72761 h 2.559663 2.559661 v 1.71979 1.7198 h -1.004636 c -0.8211,0 -1.172575,-0.18127 -1.923898,-0.99219 z M 123.36819,205.15636 v -8.06979 H 111.19736 99.026528 v -0.92604 -0.92604 h 13.096872 13.09688 v 8.20208 8.20208 h 2.11666 2.11667 v 0.79375 0.79375 h -3.04271 -3.04271 z m 2.11667,-1.98437 V 194.9699 H 112.25569 99.026528 v -1.85208 -1.85208 h 15.213542 15.21354 v 10.05416 10.05417 h -1.98437 -1.98438 z M 94.264028,192.98553 v -1.71979 h 1.5875 1.5875 v 1.71979 1.71979 h -1.5875 -1.5875 z m -156.897908,0.79375 v -0.66146 h 2.910416 2.910417 v 0.66146 0.66146 h -2.910417 -2.910416 z m 153.722909,-20.6375 c 0,-0.31207 0.367477,-0.39688 1.719791,-0.39688 1.352315,0 1.719792,0.0848 1.719792,0.39688 0,0.31207 -0.367477,0.39687 -1.719792,0.39687 -1.352314,0 -1.719791,-0.0848 -1.719791,-0.39687 z m -1.852084,-1.45521 v -0.79375 h 2.645834 2.645833 v 0.79375 0.79375 h -2.645833 -2.645834 z m -102.129161,-17.4625 v -1.5875 h 1.719791 1.7197919 v 1.5875 1.5875 h -1.7197919 -1.719791 z M 19.515782,153.647 c -0.571079,-1.49682 -4.024688,-14.67526 -3.882461,-14.81487 0.253706,-0.24903 3.709437,-1.14477 3.854286,-0.99904 0.119928,0.12065 4.132675,14.57317 4.132675,14.88446 0,0.0928 -0.684609,0.36006 -1.521354,0.5938 -0.836745,0.23374 -1.730301,0.4834 -1.985679,0.5548 -0.255376,0.0714 -0.524238,-0.0272 -0.597467,-0.21915 z m 53.003376,-9.1379 c -1.456084,-2.20855 -1.469247,-2.08504 0.318413,-2.98745 0.882055,-0.44525 1.706787,-0.74587 1.832737,-0.66803 0.293857,0.18161 1.602055,2.40763 1.602055,2.72604 0,0.18705 -1.815934,1.33582 -2.933092,1.85548 -0.08821,0.041 -0.457266,-0.37569 -0.820113,-0.92604 z M 2.189033,141.39178 c 0,-3.66007 0.024315,-3.83646 0.5291667,-3.83646 0.5048382,0 0.5291666,0.17639 0.5291666,3.83646 0,3.66007 -0.024315,3.83646 -0.5291666,3.83646 -0.5048382,0 -0.5291667,-0.17639 -0.5291667,-3.83646 z m -16.933332,-4.23333 v -3.04271 h 3.968749 3.9687501 v -1.85208 c 0,-1.05834 0.1133925,-1.85209 0.2645834,-1.85209 0.1668541,0 0.2645833,1.80799 0.2645833,4.89479 v 4.8948 h -4.2333328 -4.233333 z m 17.1979153,-2.64584 c 0,-1.67569 0.1049946,-2.77812 0.2645834,-2.77812 0.1595887,0 0.2645833,1.10243 0.2645833,2.77812 0,1.6757 -0.1049946,2.77813 -0.2645833,2.77813 -0.1595888,0 -0.2645834,-1.10243 -0.2645834,-2.77813 z m 0.8927227,0 c 5.292e-4,-1.60072 0.044175,-2.22146 0.09684,-1.3794 0.052665,0.84206 0.052176,2.15175 -0.00106,2.91042 -0.053263,0.75867 -0.096353,0.0697 -0.095755,-1.53102 z m 0.4301939,-10.58333 v -1.71979 h 1.190625 1.1906249 v 1.71979 1.71979 H 4.9671579 3.7765329 Z m 2.6458332,0 c 0,-0.97014 0.1153319,-1.71979 0.2645834,-1.71979 0.1492514,0 0.2645833,0.74965 0.2645833,1.71979 0,0.97014 -0.1153319,1.71979 -0.2645833,1.71979 -0.1492515,0 -0.2645834,-0.74965 -0.2645834,-1.71979 z"
         id="path3290" />
      <path
         style="fill:#7d7e7d;stroke-width:0.264583"
         d="m 11.978616,346.70844 c 0,-0.63206 0.07056,-0.66146 1.5875,-0.66146 1.516943,0 1.5875,0.0294 1.5875,0.66146 0,0.63206 -0.07056,0.66146 -1.5875,0.66146 -1.516944,0 -1.5875,-0.0294 -1.5875,-0.66146 z m 4.233333,0.13229 c 0,-0.29104 -0.119062,-0.52917 -0.264583,-0.52917 -0.167569,0 -0.264584,-1.94027 -0.264584,-5.29166 v -5.29167 h 5.55625 5.55625 v 3.175 c 0,1.94028 0.102894,3.175 0.264583,3.175 0.145521,0 0.264583,0.23812 0.264583,0.52917 0,0.29104 -0.119062,0.52916 -0.264583,0.52916 -0.154339,0 -0.264583,0.88195 -0.264583,2.11667 v 2.11667 h -5.291667 c -5.115276,0 -5.291666,-0.0176 -5.291666,-0.52917 z m 11.571184,-21.77998 0.06181,-17.90752 H 10.915946 -6.0130499 v -2.11667 -2.11666 h -2.1166666 -2.1166665 v -12.17083 -12.17084 h -8.466666 -8.466667 v -15.19028 -15.19029 l -1.107648,-0.18713 c -0.609209,-0.10293 -5.341943,-0.11985 -10.517187,-0.0376 -5.175248,0.0823 -9.201179,0.0877 -8.946518,0.0122 0.415724,-0.12333 0.463021,-0.56582 0.463021,-4.3319 0,-3.77231 -0.04661,-4.20671 -0.463021,-4.31553 -0.440973,-0.11524 -0.440973,-0.12246 0,-0.15169 0.429573,-0.0285 0.463021,-0.58258 0.463021,-7.67054 v -7.63984 l -0.826823,-0.16536 c -0.454752,-0.091 -2.359752,-0.16537 -4.233333,-0.16537 h -3.40651 v -2.12999 -2.13 l -3.330523,0.0429 -3.330523,0.0429 -1.9505,-2.08012 c -1.200162,-1.27992 -1.954594,-2.30913 -1.961144,-2.67543 -0.007,-0.39257 -0.172575,-0.59532 -0.486113,-0.59532 -0.261509,0 -0.940516,-0.47625 -1.508905,-1.05833 -0.750536,-0.76862 -0.910092,-1.05833 -0.582863,-1.05833 0.274183,0 0.450572,-0.20716 0.450572,-0.52917 0,-0.35278 -0.176389,-0.52917 -0.529167,-0.52917 -0.352778,0 -0.529167,-0.17639 -0.529167,-0.52916 0,-0.58407 -0.936974,-0.76096 -1.120135,-0.21147 -0.0824,0.2472 -0.149464,0.2472 -0.302247,0 -0.107991,-0.17474 -0.07026,-0.3177 0.08385,-0.3177 0.154109,0 0.280198,-0.23813 0.280198,-0.52917 0,-0.58406 -0.936974,-0.76095 -1.120135,-0.21147 -0.0824,0.24721 -0.149464,0.24721 -0.302247,0 -0.107991,-0.17473 -0.07026,-0.31769 0.08385,-0.31769 0.154109,0 0.280199,-0.23813 0.280199,-0.52917 0,-0.35278 -0.176389,-0.52917 -0.529167,-0.52917 -0.362493,0 -0.529167,-0.17639 -0.529167,-0.56001 0,-0.45748 -0.123422,-0.53642 -0.67413,-0.43114 -0.532386,0.10177 -0.815694,-0.0567 -1.347397,-0.75383 l -0.673266,-0.8827 0.571664,-0.80282 c 0.414072,-0.58151 0.78551,-0.80283 1.347396,-0.80283 0.721936,0 0.775733,-0.0698 0.775733,-1.00621 0,-1.43001 1.338811,-3.22712 2.404139,-3.22712 0.5833,0 0.770861,-0.12339 0.770861,-0.50712 0,-0.27892 -0.140099,-0.55382 -0.31133,-0.6109 -0.187211,-0.0624 0.14191,-0.70409 0.825538,-1.60954 0.920772,-1.21956 1.281703,-1.50578 1.89883,-1.50578 0.585573,0 0.761962,-0.1225 0.761962,-0.52916 0,-0.47037 0.176389,-0.52917 1.5875,-0.52917 1.411111,0 1.5875,0.0588 1.5875,0.52917 0,0.50396 0.176389,0.52916 3.704166,0.52916 3.527777,0 3.704167,-0.0252 3.704167,-0.52916 0,-0.50302 0.17639,-0.52917 3.568851,-0.52917 2.994596,0 3.654483,-0.0733 4.101041,-0.45568 0.508653,-0.43552 0.532191,-0.76964 0.532191,-7.55506 v -7.09939 l 10.186614,0.0806 10.186616,0.0806 -1.58e-4,-19.24843 -1.57e-4,-19.24844 h 5.820834 c 3.704166,0 5.820833,0.0962 5.820833,0.26458 0,0.16659 1.763889,0.26459 4.762499,0.26459 h 4.7625001 v -7.40834 -7.40833 h 3.9687498 3.9687498 v 2.64583 c 0,1.5875 -0.1058333,2.64584 -0.2645833,2.64584 -0.1696059,0 -0.2645833,2.46944 -0.2645833,6.87916 0,4.40973 0.094977,6.87917 0.2645833,6.87917 0.1455208,0 0.2645833,0.65484 0.2645833,1.45521 0,0.80036 -0.1190625,1.45521 -0.2645833,1.45521 -0.1455208,0 -0.2645833,-0.1786 -0.2645833,-0.39688 0,-0.34543 -1.23472308,-0.39687 -9.5249996,-0.39687 h -9.5249995 v 15.34583 c 0,13.46435 0.04866,15.34583 0.396875,15.34583 0.218281,0 0.396875,0.17859 0.396875,0.39688 0,0.33299 0.56959,0.39687 3.538802,0.39687 1.946341,0 3.9108721,0.0744 4.3656247,0.16537 l 0.8268228,0.16536 v -7.40819 -7.40818 l -2.3812495,0.13577 -2.38125,0.13577 v -3.87316 -3.87315 h 1.852083 1.8520832 v -2.11667 -2.11667 h 6.3499997 c 6.17361,0 6.3499997,-0.0147 6.3499997,-0.52916 0,-0.51683 0.1763898,-0.52917 7.5638814,-0.52917 h 7.563882 l -0.178806,1.05833 c -0.146219,0.86546 -0.102237,1.05834 0.241327,1.05834 0.231074,0 0.420132,0.19247 0.420132,0.42772 0,0.31356 0.176537,0.39397 0.661458,0.30127 0.363802,-0.0695 0.661458,-0.0239 0.661458,0.10145 0,0.12534 0.47625,0.22789 1.058333,0.22789 0.881944,0 1.058334,-0.0882 1.058334,-0.52917 0,-0.33529 0.176389,-0.52916 0.481451,-0.52916 0.554657,0 1.635215,-1.13778 1.635215,-1.72181 0,-0.31719 0.41637,-0.39486 2.116667,-0.39486 h 2.116666 v -14.81667 -14.81666 h 5.423958 5.423959 v 3.96875 3.96875 h 9.260416 9.260416 v -3.96875 -3.96875 h 8.202083 8.202083 v 8.99583 8.99583 h -0.661459 c -0.485068,0 -0.661458,0.14111 -0.661458,0.52917 0,0.44097 -0.17639,0.52917 -1.058333,0.52917 -0.881944,0 -1.058333,0.0882 -1.058333,0.52916 0,0.35278 -0.17639,0.52917 -0.529167,0.52917 -0.352777,0 -0.529167,0.17639 -0.529167,0.52917 0,0.35277 0.17639,0.52916 0.529167,0.52916 0.440973,0 0.529167,0.17639 0.529167,1.05834 0,0.88194 0.08819,1.05833 0.529166,1.05833 0.352777,0 0.529167,0.17639 0.529167,0.52917 0,0.44097 0.17639,0.52916 1.058333,0.52916 0.881944,0 1.058333,-0.0882 1.058333,-0.52916 0,-0.43942 0.17639,-0.52917 1.039932,-0.52917 0.877006,0 1.053177,-0.0933 1.124479,-0.59531 0.06718,-0.47299 0.348687,-0.16233 1.369978,1.5118 0.739008,1.21139 1.160777,2.14866 0.992188,2.20486 -0.161282,0.0538 -0.293243,0.32595 -0.293243,0.60486 0,0.35802 0.185533,0.50712 0.631028,0.50712 0.598919,0 1.485638,0.94196 1.485638,1.57819 0,0.15064 0.238125,0.51202 0.529167,0.80306 0.372377,0.37238 0.529166,0.88195 0.529166,1.71979 0,1.07831 0.05953,1.19063 0.631029,1.19063 0.65242,0 1.485638,0.95932 1.485638,1.71048 0,0.2234 0.107302,0.40619 0.238448,0.40619 0.387839,0 1.438529,1.95454 1.109625,2.06418 -0.159356,0.0531 -0.28974,0.32478 -0.28974,0.6037 0,0.35801 0.185534,0.50712 0.631029,0.50712 0.65242,0 1.485638,0.95932 1.485638,1.71048 0,0.2234 0.107302,0.40618 0.238448,0.40618 0.131148,0 0.488336,0.42353 0.79375,0.94117 0.483835,0.82004 0.555302,1.36486 0.555302,4.23333 0,2.01839 -0.10237,3.29217 -0.264584,3.29217 -0.14552,0 -0.264583,0.47625 -0.264583,1.05833 v 1.05833 h 1.058333 c 0.881944,0 1.058334,0.0882 1.058334,0.52917 0,0.48507 0.176389,0.52917 2.116666,0.52917 h 2.116667 v 7.40833 7.40833 h -4.233333 c -2.645834,0 -4.233333,0.0992 -4.233333,0.26459 0,0.14552 -0.238125,0.26458 -0.529167,0.26458 -0.45861,0 -0.529167,0.17639 -0.529167,1.32292 v 1.32291 h 4.233333 c 3.586575,0 4.233334,-0.0606 4.233334,-0.39687 0,-0.21828 0.119062,-0.39688 0.264583,-0.39688 0.145521,0 0.264583,0.1786 0.264583,0.39688 0,0.21828 -0.119062,0.39687 -0.264583,0.39687 -0.146992,0 -0.264583,0.70556 -0.264583,1.5875 v 1.5875 h 2.116666 2.116667 v 2.11667 2.11667 h 1.058333 c 0.881943,0 1.058333,-0.0882 1.058333,-0.52917 0,-0.29398 -0.17639,-0.52917 -0.396875,-0.52917 -0.218281,0 -0.396875,-0.17859 -0.396875,-0.39687 0,-0.21828 0.178594,-0.39688 0.396875,-0.39688 0.218281,0 0.396875,0.1786 0.396875,0.39688 0,0.34676 1.469913,0.39687 11.641663,0.39687 h 11.64167 v 7.9375 7.9375 h 3.175 3.175 v 4.7625 4.7625 h -2.11667 -2.11666 v 2.11667 2.11667 h 10.31875 c 10.14236,0 10.31875,-0.009 10.31875,-0.52917 0,-0.29104 0.11906,-0.52917 0.26458,-0.52917 0.16933,0 0.26458,-2.38125 0.26458,-6.61458 v -6.61458 h 9.89357 c 10.94664,0 10.21476,-0.12478 10.21476,1.74143 0,0.76263 0.0937,0.9044 0.59782,0.9044 0.3288,0 0.74652,0.23812 0.92828,0.52917 0.27563,0.44135 0.26424,0.52916 -0.0686,0.52916 -0.22272,0 -0.39911,0.23387 -0.39911,0.52917 0,0.40009 0.17748,0.52996 0.7276,0.53244 0.54614,0.002 0.88545,0.24679 1.3605,0.97966 0.4058,0.62604 0.52447,1.01253 0.33073,1.07711 -0.16619,0.0554 -0.30217,0.32892 -0.30217,0.60784 0,0.3614 0.18576,0.50712 0.64646,0.50712 0.84822,0 1.47021,0.92039 1.47021,2.17553 0,0.8859 0.0741,0.99947 0.65215,0.99947 0.38136,0 0.76974,0.21972 0.93535,0.52916 0.22604,0.42236 0.20121,0.52917 -0.12298,0.52917 -0.2298,0 -0.40619,0.22979 -0.40619,0.52917 0,0.41017 0.17639,0.52916 0.78445,0.52916 0.95076,0 1.33222,0.60109 1.33222,2.09927 0,0.89934 0.0868,1.07573 0.52917,1.07573 0.52211,0 0.52916,0.17639 0.52916,13.22917 0,13.05277 -0.007,13.22916 -0.52916,13.22916 -0.35278,0 -0.52917,0.17639 -0.52917,0.52917 0,0.35278 -0.17639,0.52917 -0.52917,0.52917 -0.44097,0 -0.52916,0.17639 -0.52916,1.05833 0,0.90137 -0.083,1.05833 -0.56001,1.05833 -0.44368,0 -0.53555,0.12799 -0.44224,0.6161 0.10042,0.5253 0.027,0.59874 -0.49832,0.49832 -0.48169,-0.0921 -0.6161,-5.3e-4 -0.6161,0.42019 0,0.29588 0.14297,0.58562 0.3177,0.64386 0.24721,0.0824 0.24721,0.14947 0,0.30225 -0.17473,0.10799 -0.3177,0.0703 -0.3177,-0.0839 0,-0.15411 -0.23812,-0.2802 -0.52917,-0.2802 -0.35277,0 -0.52916,0.17639 -0.52916,0.52917 0,0.30333 0.17639,0.52916 0.41331,0.52916 0.31138,0 0.20948,0.28384 -0.41314,1.15083 -0.67051,0.93366 -0.94821,1.12755 -1.47165,1.02749 -0.51949,-0.0993 -0.64519,-0.0142 -0.64519,0.43667 0,0.30801 0.12678,0.56001 0.28174,0.56001 0.15496,0 -0.0534,0.47371 -0.46302,1.05269 -0.48685,0.68813 -0.95092,1.05464 -1.34007,1.05833 -0.41704,0.004 -0.59532,0.16411 -0.59532,0.53482 0,0.35277 -0.17638,0.52916 -0.52916,0.52916 -0.59383,0 -0.75354,0.9237 -0.19844,1.14769 0.1819,0.0734 -7.4381,0.14285 -16.93333,0.15434 l -17.26406,0.0209 v 19.97604 19.97604 h -4.7625 c -4.05695,0 -4.7625,0.0588 -4.7625,0.39688 0,0.21828 -0.11907,0.39687 -0.26459,0.39687 -0.16105,0 -0.26458,-1.19062 -0.26458,-3.04271 v -3.04271 h -6.61458 -6.61459 v 1.05834 1.05833 h 4.23334 4.23333 v 15.875 15.875 h -11.1125 c -10.936109,0 -11.112499,-0.008 -11.112499,-0.52917 0,-0.49389 -0.17639,-0.52916 -2.645833,-0.52916 -2.175463,0 -2.645834,0.0706 -2.645834,0.39687 0,0.21828 -0.119062,0.39688 -0.264583,0.39688 -0.16501,0 -0.264583,-1.54341 -0.264583,-4.10104 v -4.10105 h -8.73125 c -8.55486,0 -8.731249,0.0107 -8.731249,0.52917 0,0.29398 0.176389,0.52917 0.396875,0.52917 0.218281,0 0.396875,0.11906 0.396875,0.26458 0,0.17169 -3.483682,0.26458 -9.921875,0.26458 H 52.19533 v 5.02709 5.02708 h -6.879167 c -5.938424,0 -6.879166,0.0543 -6.879166,0.39687 0,0.22049 -0.235186,0.39688 -0.529167,0.39688 -0.293981,0 -0.529166,-0.17639 -0.529166,-0.39688 0,-0.33801 -0.7034,-0.39687 -4.743101,-0.39687 -4.233852,0 -4.752284,0.0478 -4.828645,0.44502 -0.04705,0.24476 -0.05773,-7.61336 -0.02373,-17.4625 z m 52.987146,-5.73669 c 0,-2.46944 -0.03528,-2.64583 -0.529166,-2.64583 -0.485069,0 -0.529167,0.17639 -0.529167,2.11667 v 2.11666 H 75.478613 71.24528 v -4.7431 c 0,-4.29475 -0.04377,-4.75453 -0.463021,-4.86409 -0.254662,-0.0666 2.811198,-0.12101 6.81302,-0.12101 4.001823,0 7.067682,0.0545 6.813021,0.12101 -0.421434,0.11013 -0.463021,0.59454 -0.463021,5.39326 0,5.09588 0.0177,5.27227 0.529167,5.27227 0.291041,0 0.529166,-0.11907 0.529166,-0.26459 0,-0.16659 1.76389,-0.26458 4.7625,-0.26458 2.99861,0 4.7625,0.098 4.7625,0.26458 0,0.14552 0.238125,0.26459 0.529166,0.26459 0.499769,0 0.529167,-0.17639 0.529167,-3.175 0,-2.77798 -0.05476,-3.175 -0.437883,-3.175 -0.393784,0 -0.389654,-0.0533 0.04101,-0.52917 0.26339,-0.29104 0.698561,-0.52917 0.96705,-0.52917 0.311769,0 0.488158,-0.1912 0.488158,-0.52916 0,-0.35278 0.17639,-0.52917 0.529167,-0.52917 0.352777,0 0.529167,-0.17639 0.529167,-0.52917 0,-0.34467 0.176389,-0.52916 0.505909,-0.52916 0.38404,0 0.548984,-0.25495 0.684716,-1.05834 0.109929,-0.65065 0.322722,-1.05833 0.552423,-1.05833 0.280255,0 0.373618,-0.39669 0.373618,-1.5875 0,-1.41111 0.0588,-1.5875 0.52916,-1.5875 0.44098,0 0.52917,-0.17639 0.52917,-1.05833 0,-0.88195 -0.0882,-1.05834 -0.52917,-1.05834 -0.485062,0 -0.52916,-0.17638 -0.52916,-2.11666 v -2.11667 h -1.058333 -1.058333 v -1.09535 -1.09535 l -1.521354,0.13223 c -0.836745,0.0727 -1.312995,0.0806 -1.058334,0.0176 0.42341,-0.10481 0.463021,-0.61092 0.463021,-5.91604 v -5.80144 h 13.229163 13.22917 v -2.11667 -2.11666 h -2.38125 -2.38125 v -6.21771 -6.21771 h -1.85209 -1.85208 v -2.24896 -2.24896 h -1.05833 -1.05834 v -1.05833 c 0,-1.05264 -0.005,-1.05833 -1.02526,-1.05833 -0.92751,0 -1.04039,-0.0757 -1.18401,-0.79375 -0.0873,-0.43657 -0.0873,-1.15094 0,-1.5875 0.15587,-0.77932 0.13891,-0.79375 -0.93265,-0.79375 h -1.09141 v 10.05416 10.05417 h -11.112496 -11.1125 v -3.175 -3.175 h -1.5875 -1.5875 v 1.05833 1.05834 h -1.058333 -1.058333 v 2.11666 2.11667 h -7.540625 -7.540624 v -3.04271 c 0,-2.52824 -0.0671,-3.04271 -0.396875,-3.04271 -0.246944,0 -0.396875,-0.24988 -0.396875,-0.66146 0,-0.48506 -0.141111,-0.66145 -0.529167,-0.66145 -0.440973,0 -0.529167,-0.17639 -0.529167,-1.05834 0,-0.88194 -0.08819,-1.05833 -0.529166,-1.05833 -0.352777,0 -0.529167,-0.17639 -0.529167,-0.52917 0,-0.35277 -0.17639,-0.52916 -0.529167,-0.52916 -0.440973,0 -0.529166,0.17639 -0.529166,1.05833 0,0.88194 0.08819,1.05833 0.529166,1.05833 0.507119,0 0.529167,0.17639 0.529167,4.23334 v 4.23333 H 53.253616 44.78695 v 10.58333 10.58333 h 3.704166 3.704167 v 5.29167 5.29167 h -2.116667 -2.116667 v 2.64583 2.64583 h 2.116667 2.116667 v 1.85209 1.85208 h 8.995832 c 5.820833,0 8.995833,0.0934 8.995833,0.26458 0,0.16757 1.940277,0.26459 5.291667,0.26459 h 5.291666 z m -31.749998,-4.23333 v -1.5875 h 1.058333 1.058333 v 1.5875 1.5875 h -1.058333 -1.058333 z m 45.772914,-0.89365 c 0,-0.44036 0.144989,-0.69385 0.396875,-0.69385 0.218281,0 0.396875,0.16402 0.396875,0.36448 0,0.20046 -0.178594,0.5127 -0.396875,0.69385 -0.335619,0.27854 -0.396875,0.22229 -0.396875,-0.36448 z m 0.79375,-2.26195 c 0,-0.28037 -0.208359,-0.56422 -0.463021,-0.63076 -0.254661,-0.0666 0.251354,-0.1186 1.124479,-0.11567 0.873125,0.003 1.31961,0.0569 0.992188,0.12001 -0.372176,0.0717 -0.595313,0.30611 -0.595313,0.62542 0,0.33438 -0.182745,0.51077 -0.529166,0.51077 -0.346065,0 -0.529167,-0.17639 -0.529167,-0.50977 z m -0.529167,-8.88294 c 0,-0.97014 0.115332,-1.71979 0.264584,-1.71979 0.145521,0 0.264583,0.11906 0.264583,0.26458 0,0.14699 0.705556,0.26458 1.5875,0.26458 h 1.5875 v 1.05834 1.05833 h -1.5875 c -1.234723,0 -1.5875,0.0882 -1.5875,0.39688 0,0.21828 -0.119062,0.39687 -0.264583,0.39687 -0.149252,0 -0.264584,-0.74965 -0.264584,-1.71979 z m 0,-2.88211 c 0,-0.52489 0.119063,-0.95435 0.264584,-0.95435 0.145521,0 0.264583,0.11906 0.264583,0.26459 0,0.14552 0.238125,0.26458 0.529167,0.26458 0.352777,0 0.529166,0.17639 0.529166,0.52917 0,0.29104 -0.168857,0.52916 -0.375234,0.52916 -0.206381,0 -0.563568,0.0723 -0.79375,0.1606 -0.333963,0.12815 -0.418516,-0.0322 -0.418516,-0.79375 z m 22.754162,-15.24185 v -1.05833 h 1.5875 1.5875 v 1.05833 1.05834 h -1.5875 -1.5875 z m -37.041661,-6.35 v -1.05833 h 1.5875 1.5875 v 1.05833 1.05834 h -1.5875 -1.5875 z m 2.116667,-2.64583 c 0,-0.35278 0.176389,-0.52917 0.529166,-0.52917 0.352777,0 0.529167,0.17639 0.529167,0.52917 0,0.35278 -0.17639,0.52917 -0.529167,0.52917 -0.352777,0 -0.529166,-0.17639 -0.529166,-0.52917 z m 26.458334,-7.40833 v -1.5875 h 1.5875 1.5875 v 1.5875 1.5875 h -1.5875 -1.5875 z m -71.007551,32.51067 c -0.09095,-0.45475 -0.165364,-5.21725 -0.165364,-10.58333 v -9.75651 h -2.645834 -2.645833 v -2.64583 -2.64584 h 2.248958 2.248959 v -5.82083 -5.82083 h -2.248959 -2.248958 v -2.77813 -2.77812 h 8.069791 8.069792 v 2.24896 2.24895 h 2.116666 2.116667 v -2.24895 -2.24896 l 4.564062,0.0489 c 2.510234,0.0269 3.938984,0.0927 3.175,0.14612 l -1.389062,0.0972 v 1.57368 1.57367 h 1.058333 1.058333 v 1.5875 c 0,1.3881 0.0637,1.5875 0.507119,1.5875 0.278913,0 0.568513,-0.14883 0.643554,-0.33073 0.07504,-0.1819 0.07008,0.0562 -0.01103,0.52917 -0.128037,0.74663 -0.0734,0.85989 0.414779,0.85989 0.479557,0 0.56224,0.15564 0.56224,1.05834 0,0.88194 0.08819,1.05833 0.529166,1.05833 0.352777,0 0.529167,0.17639 0.529167,0.52917 0,0.35277 0.17639,0.52916 0.529167,0.52916 0.440973,0 0.529166,-0.17639 0.529166,-1.05833 0,-0.88194 -0.08819,-1.05833 -0.529166,-1.05833 -0.440973,0 -0.529167,-0.17639 -0.529167,-1.05834 0,-0.94567 -0.06875,-1.05833 -0.645843,-1.05833 -0.355213,0 -0.719428,-0.11906 -0.809365,-0.26458 -0.09274,-0.15006 0.129545,-0.26459 0.513551,-0.26459 h 0.677074 v -3.0699 -3.0699 l 4.365688,0.0933 4.365691,0.0933 -6.6e-5,-6.28386 -5.6e-5,-6.28385 H 64.366113 55.37028 v 4.23333 4.23334 h -5.291666 -5.291666 v -7.40834 c 0,-7.23194 -0.0126,-7.40833 -0.529167,-7.40833 -0.293981,0 -0.529167,0.17639 -0.529167,0.39688 0,0.28663 -0.293981,0.39687 -1.058333,0.39687 h -1.058333 v 4.89479 4.89479 h -8.995833 -8.995833 v 1.98438 1.98437 h -2.645833 c -2.175463,0 -2.645833,-0.0705 -2.645833,-0.39687 0,-0.22827 -0.238861,-0.39688 -0.56224,-0.39688 -0.488598,0 -0.540581,0.1083 -0.396875,0.82683 0.09095,0.45475 0.165365,1.58584 0.165365,2.51354 0,1.43024 0.0704,1.68662 0.46302,1.6861 0.411417,-5.3e-4 0.453483,0.25011 0.377436,2.24896 l -0.08559,2.24957 h 1.606942 1.606938 v 7.9375 7.9375 h 1.058334 1.058333 v -10.03476 c 0,-9.33444 -0.03231,-10.04321 -0.463021,-10.15577 -0.254661,-0.0666 1.620573,-0.121 4.167187,-0.121 2.546615,0 4.421849,0.0544 4.167188,0.121 -0.432848,0.11312 -0.463021,0.94732 -0.463021,12.8016 v 12.6806 h -3.704167 c -3.527776,0 -3.704166,-0.0252 -3.704166,-0.52917 0,-0.44097 -0.17639,-0.52916 -1.058333,-0.52916 -0.999538,0 -1.058334,0.0441 -1.058334,0.79375 0,0.73075 -0.0735,0.79375 -0.926041,0.79375 -0.881944,0 -0.926042,0.0441 -0.926042,0.92604 v 0.92604 l -5.357812,-0.0307 c -2.946797,-0.0169 -5.1494529,-0.0851 -4.8947915,-0.1517 0.3418178,-0.0893 0.4630208,-0.39295 0.4630208,-1.15993 0,-0.86254 -0.089842,-1.03893 -0.5291666,-1.03893 -0.2939812,0 -0.5291667,0.17639 -0.5291667,0.39687 0,0.22049 -0.2351854,0.39688 -0.5291666,0.39688 -0.2939812,0 -0.5291667,-0.17639 -0.5291667,-0.39688 0,-0.33624 -0.646758,-0.39687 -4.2333331,-0.39687 h -4.2333331 v 5.55625 5.55625 h 7.9374996 7.9374999 v 2.38125 2.38125 h 5.820833 c 4.997685,0 5.820833,-0.0561 5.820833,-0.39688 0,-0.21828 0.178594,-0.39687 0.396875,-0.39687 0.218281,0 0.396875,0.17859 0.396875,0.39687 0,0.21828 -0.178594,0.39688 -0.396875,0.39688 -0.286631,0 -0.396875,0.29398 -0.396875,1.05833 v 1.05833 h 5.853906 5.853906 z m -22.12578,-3.93567 v -1.5875 h 1.5875 1.5875 v 1.5875 1.5875 h -1.5875 -1.5875 z m 4.233333,0 v -1.5875 h 3.439583 3.439583 v 1.5875 1.5875 h -3.439583 -3.439583 z m 12.699999,-23.12941 c 0,-0.20638 -0.04002,-0.5338 -0.08893,-0.7276 -0.04891,-0.1938 -0.03899,-0.26307 0.02204,-0.15393 0.06104,0.10914 0.81543,0.19844 1.676426,0.19844 1.389063,0 1.565452,0.0596 1.565452,0.52916 0,0.47037 -0.176389,0.52917 -1.5875,0.52917 -1.194032,0 -1.587499,-0.093 -1.587499,-0.37524 z m -1.058333,-1.21226 c 0,-0.29104 0.119063,-0.52917 0.264584,-0.52917 0.14552,0 0.264583,0.23813 0.264583,0.52917 0,0.29104 -0.119063,0.52917 -0.264583,0.52917 -0.145521,0 -0.264584,-0.23813 -0.264584,-0.52917 z m 0.926042,-3.37558 c 0,-1.63828 0.03969,-2.85867 0.08819,-2.71197 0.04851,0.14669 0.554525,0.26672 1.12448,0.26672 h 1.036285 v 2.61919 2.61919 l -1.124479,0.0928 -1.124479,0.0928 z m -0.926042,-2.97442 c 0,-0.29104 0.119063,-0.52917 0.264584,-0.52917 0.14552,0 0.264583,0.23813 0.264583,0.52917 0,0.29104 -0.119063,0.52917 -0.264583,0.52917 -0.145521,0 -0.264584,-0.23813 -0.264584,-0.52917 z m 1.005546,-0.99219 c 0.103249,-0.53693 0.267129,-0.59531 1.671133,-0.59531 1.357143,0 1.556654,0.0649 1.556654,0.50659 0,0.43623 -0.232105,0.51891 -1.671132,0.59531 -1.610537,0.0855 -1.66698,0.0671 -1.556655,-0.50659 z m 16.98612,-5.35781 v -1.5875 h 1.058333 1.058334 v 1.5875 1.5875 h -1.058334 -1.058333 z m 10.583333,0 c 0,-0.35278 0.17639,-0.52917 0.529166,-0.52917 0.352777,0 0.529167,0.17639 0.529167,0.52917 0,0.35278 -0.17639,0.52917 -0.529167,0.52917 -0.352776,0 -0.529166,-0.17639 -0.529166,-0.52917 z m -35.983332,-7.9375 v -1.05833 h 8.466666 8.466667 v 1.05833 1.05833 h -8.466667 -8.466666 z m -19.2691029,12.56792 -0.086812,-6.4825 h 2.4019164 2.4019165 v -1.98438 c 0,-1.5875 0.07938,-1.98437 0.396875,-1.98437 0.220485,0 0.396875,-0.23519 0.396875,-0.52917 0,-0.35278 -0.17639,-0.52917 -0.529167,-0.52917 -0.293981,0 -0.5291663,0.17639 -0.5291663,0.39688 0,0.29896 -0.3209343,0.39687 -1.3009138,0.39687 H 7.2601243 l -3.0204144,-3.18436 -3.0204171,-3.18437 0.120994,-2.0901 c 0.066548,-1.14955 0.044347,-2.3955 -0.049337,-2.76876 L 1.120619,242.06573 h -4.6251678 -4.6251678 v -8.20208 -8.20208 h 4.7859101 4.7859075 l -0.089553,-2.91366 c -0.049258,-1.60251 -0.049869,-2.79313 -0.00132,-2.64583 0.1689709,0.51324 1.1023917,0.29196 1.1023917,-0.26134 0,-0.29105 -0.1260898,-0.52917 -0.280199,-0.52917 -0.1541092,0 -0.1918414,-0.14297 -0.083849,-0.3177 0.152781,-0.2472 0.2198449,-0.2472 0.3022468,0 0.1831604,0.54948 1.1201346,0.37259 1.1201346,-0.21147 0,-0.29104 -0.1260898,-0.52916 -0.280199,-0.52916 -0.1541092,0 -0.1918414,-0.14297 -0.083849,-0.3177 0.152781,-0.24721 0.2198449,-0.24721 0.3022468,0 0.1831604,0.54948 1.1201346,0.37259 1.1201346,-0.21147 0,-0.29104 -0.1260898,-0.52917 -0.280199,-0.52917 -0.1541092,0 -0.1918414,-0.14296 -0.083849,-0.3177 0.152781,-0.2472 0.2198449,-0.2472 0.3022467,0 0.1831605,0.54949 1.1201347,0.3726 1.1201347,-0.21146 0,-0.35278 0.1763897,-0.52917 0.5291666,-0.52917 0.3527769,0 0.5291667,-0.17639 0.5291667,-0.52917 0,-0.35277 0.1763897,-0.52916 0.5291666,-0.52916 0.3527769,0 0.5291666,-0.17639 0.5291666,-0.52917 0,-0.50906 0.1763898,-0.52917 4.6422336,-0.52917 4.576016,0 4.651499,-0.009 5.291667,-0.64943 0.574762,-0.57476 0.649433,-0.87898 0.649433,-2.64583 v -1.9964 h -2.116667 c -1.705091,0 -2.116667,0.0772 -2.116667,0.39687 0,0.21828 -0.119062,0.39688 -0.264583,0.39688 -0.171349,0 -0.264583,-3.2632 -0.264583,-9.26042 v -9.26042 H 11.18487 8.8036197 v -2.24895 -2.24896 H 6.1577828 3.5119496 v 1.05833 c 0,0.88194 -0.088194,1.05833 -0.5291666,1.05833 -0.4507706,0 -0.5291667,0.17639 -0.5291667,1.19063 v 1.19062 h -9.7895828 -9.7895825 v 6.21771 6.21771 h -9.128125 -9.128124 v 11.1125 11.1125 h 9.657291 9.657291 v 22.225 c 0,14.64027 -0.09029,22.225 -0.264583,22.225 -0.145521,0 -0.264584,0.23812 -0.264584,0.52916 0,0.52072 0.176459,0.52917 11.0463539,0.52938 l 11.0463536,2.1e-4 z M -11.040133,233.86365 v -8.20208 h 0.926042 0.9260412 v 8.20208 8.20208 h -0.9260412 -0.926042 z M 4.5702829,189.14907 v -1.5875 h 1.5874999 1.5874999 v 1.5875 1.5875 H 6.1577828 4.5702829 Z M 145.85778,262.04178 c 0,-0.21829 0.11906,-0.39688 0.26458,-0.39688 0.173,0 0.26458,-4.7625 0.26458,-13.75833 v -13.75834 h -9.525 -9.525 v 14.15521 14.15521 h 9.26042 c 8.05509,0 9.26042,-0.0517 9.26042,-0.39687 z m -48.154168,-5.68855 v -4.23333 h 5.688538 5.68854 l 0.0307,-4.16719 c 0.0169,-2.29195 0.0851,-3.95882 0.15169,-3.70416 0.10885,0.41652 0.54415,0.46302 4.33493,0.46302 4.03754,0 4.21393,-0.0221 4.21393,-0.52917 0,-0.29104 -0.11906,-0.52917 -0.26458,-0.52917 -0.17051,0 -0.26458,-2.82222 -0.26458,-7.9375 v -7.93749 h -3.60111 -3.60112 l 0.19077,-3.175 0.19077,-3.175 h -1.08758 -1.08757 v 1.05833 1.05833 h -2.87734 c -1.58254,0 -3.24941,0.0744 -3.70417,0.16537 l -0.82682,0.16536 v 12.13776 12.13776 l -4.564061,-0.0209 c -2.510234,-0.0115 -4.415234,-0.081 -4.233333,-0.15434 0.412038,-0.16628 0.476142,-5.38104 0.06615,-5.38104 -0.145521,0 -0.264583,-0.23812 -0.264583,-0.52917 0,-0.29104 0.119062,-0.52916 0.264583,-0.52916 0.16837,0 0.264583,-2.11667 0.264583,-5.82084 0,-3.70416 -0.09621,-5.82083 -0.264583,-5.82083 -0.145521,0 -0.264583,-0.23812 -0.264583,-0.52916 0,-0.29105 0.119062,-0.52917 0.264583,-0.52917 0.15875,0 0.264583,-1.05833 0.264583,-2.64583 0,-1.5875 -0.105833,-2.64584 -0.264583,-2.64584 -0.164629,0 -0.264583,-1.4993 -0.264583,-3.96875 v -3.96875 h 8.598957 c 5.55625,0 8.59895,0.0936 8.59895,0.26459 0,0.14552 -0.17859,0.26458 -0.39687,0.26458 -0.22049,0 -0.39688,0.23518 -0.39688,0.52917 0,0.44097 0.17639,0.52916 1.05834,0.52916 1.18378,0 1.2169,-0.0922 0.89008,-2.47661 l -0.16826,-1.22755 h -2.47758 -2.47758 v -0.79375 c 0,-0.61736 -0.11759,-0.79375 -0.52916,-0.79375 -0.35278,0 -0.52917,-0.17639 -0.52917,-0.52917 0,-0.35278 -0.17639,-0.52917 -0.52917,-0.52917 -0.35277,0 -0.52916,-0.17639 -0.52916,-0.52916 0,-0.35278 -0.17639,-0.52917 -0.52917,-0.52917 -0.35278,0 -0.52917,-0.17639 -0.52917,-0.52917 0,-0.35277 -0.17638,-0.52916 -0.52916,-0.52916 -0.29104,0 -0.52917,0.12609 -0.52917,0.2802 0,0.1541 -0.14296,0.19184 -0.3177,0.0838 -0.2472,-0.15278 -0.2472,-0.21984 0,-0.30224 0.54949,-0.18316 0.3726,-1.12014 -0.21147,-1.12014 -0.29104,0 -0.529158,0.13364 -0.529158,0.29698 0,0.20519 -0.122671,0.19517 -0.396875,-0.0324 -0.218281,-0.18116 -0.396875,-0.55293 -0.396875,-0.82615 0,-0.27322 0.178594,-0.49677 0.396875,-0.49677 0.286631,0 0.396875,-0.29398 0.396875,-1.05833 0,-0.88195 -0.08819,-1.05834 -0.529166,-1.05834 -0.293982,0 -0.529167,0.17639 -0.529167,0.39688 0,0.22048 -0.235186,0.39687 -0.529167,0.39687 -0.504838,0 -0.529166,0.17639 -0.529166,3.83646 v 3.83646 h -4.233333 -4.233334 v -3.175 -3.175 h -2.645833 -2.645833 v 3.175 3.175 h -4.7625 -4.7625 v -3.70417 -3.70416 H 73.36195 c -0.881943,0 -1.058333,0.0882 -1.058333,0.52916 0,0.52035 -0.17639,0.52917 -10.583333,0.52917 H 51.136947 v 1.05833 c 0,0.76436 0.110244,1.05834 0.396875,1.05834 0.218282,0 0.396875,0.11906 0.396875,0.26458 0,0.14552 -0.178593,0.26458 -0.396875,0.26458 -0.218281,0 -0.396875,-0.11906 -0.396875,-0.26458 0,-0.14552 -0.47625,-0.26458 -1.058333,-0.26458 h -1.058333 v 1.05833 c 0,0.76435 0.110244,1.05833 0.396875,1.05833 0.218281,0 0.396875,0.11907 0.396875,0.26459 0,0.16631 -1.719792,0.26458 -4.630208,0.26458 h -4.630209 v -2.38125 -2.38125 h -2.381249 -2.38125 v -7.67292 -7.67291 h 2.910416 c 1.76389,0 2.910417,0.10423 2.910417,0.26458 0,0.14552 0.238125,0.26458 0.529166,0.26458 0.468204,0 0.529167,-0.17639 0.529167,-1.53109 v -1.53109 l -3.439583,0.10717 -3.439583,0.10717 v -4.00004 -4.00003 h 2.116666 2.116667 v -8.20209 c 0,-5.29166 -0.09389,-8.20208 -0.264583,-8.20208 -0.149252,0 -0.264584,-0.74965 -0.264584,-1.71979 v -1.71979 h -2.116666 -2.116667 v 2.11667 c 0,1.23472 0.110244,2.11666 0.264583,2.11666 0.16631,0 0.264584,1.71979 0.264584,4.63021 0,2.91042 -0.09827,4.63021 -0.264584,4.63021 -0.14552,0 -0.264583,-0.1786 -0.264583,-0.39688 0,-0.34768 -1.702938,-0.39687 -13.738933,-0.39687 -12.8622131,0 -13.7466516,0.0295 -13.8599304,0.46302 -0.066551,0.25466 -0.1348131,-1.82893 -0.1516935,-4.63021 l -0.030692,-5.09323 H 3.379658 -0.7213835 v 7.14375 7.14375 H 14.359866 29.441115 v 6.48229 c 0,4.14514 -0.09539,6.48229 -0.264583,6.48229 -0.170876,0 -0.264584,2.99861 -0.264584,8.46667 0,5.46806 0.09371,8.46667 0.264584,8.46667 0.145521,0 0.264583,0.17859 0.264583,0.39687 0,0.21828 -0.119062,0.39688 -0.264583,0.39688 -0.145521,0 -0.264584,-0.1786 -0.264584,-0.39688 0,-0.3197 -0.411575,-0.39687 -2.116666,-0.39687 h -2.116667 v 2.64583 c 0,2.46944 0.03528,2.64583 0.529167,2.64583 0.291042,0 0.529167,-0.11906 0.529167,-0.26458 0,-0.16659 1.763889,-0.26458 4.762499,-0.26458 h 4.7625 v 1.32291 1.32292 h 1.058333 1.058334 v 1.05833 1.05834 h 2.116666 2.116667 v 6.87916 6.87917 h 1.5875 1.5875 v -3.175 -3.175 H 56.428614 68.07028 v 2.11667 2.11666 h 2.645833 2.645833 v -6.87916 -6.87917 h 8.466666 c 7.349538,0 8.466667,-0.0524 8.466667,-0.39688 0,-0.21828 0.119062,-0.39687 0.264583,-0.39687 0.168884,0 0.264583,2.24896 0.264583,6.21771 v 6.21771 h -3.439583 -3.439583 v 8.46666 8.46667 h 3.439583 3.439583 v 5.82083 c 0,3.70417 -0.09621,5.82083 -0.264583,5.82083 -0.154339,0 -0.264583,0.88195 -0.264583,2.11667 v 2.11667 h 3.704166 3.704167 z m -6.35,2.11667 v -1.05833 h 1.5875 1.5875 v 1.05833 1.05833 h -1.5875 -1.5875 z m 4.233333,-0.52917 c 0,-1.23472 -0.08819,-1.5875 -0.396875,-1.5875 -0.319704,0 -0.396875,-0.41157 -0.396875,-2.11666 v -2.11667 h 0.926042 0.926041 v 3.70417 c 0,3.52777 -0.02519,3.70416 -0.529166,3.70416 -0.470371,0 -0.529167,-0.17639 -0.529167,-1.5875 z M 85.003612,236.2449 c 0,-7.23194 0.01259,-7.40833 0.529167,-7.40833 0.515599,0 0.529167,0.17639 0.529167,6.87916 v 6.87917 h 2.381249 c 2.204861,0 2.38125,0.0392 2.38125,0.52917 0,0.49709 -0.176389,0.52916 -2.910416,0.52916 h -2.910417 z m 6.35,5.55625 c 0,-0.19403 0.07937,-0.2734 0.17639,-0.17639 0.09701,0.097 0.09701,0.25577 0,0.35278 -0.09701,0.097 -0.17639,0.0176 -0.17639,-0.17639 z m -4.233333,-6.08542 v -5.82083 h 1.5875 1.5875 v 5.82083 5.82084 h -1.5875 -1.5875 z m 4.233333,-5.95312 c 0,-0.0728 0.05953,-0.13229 0.132292,-0.13229 0.07276,0 0.132291,0.0595 0.132291,0.13229 0,0.0728 -0.05953,0.13229 -0.132291,0.13229 -0.07276,0 -0.132292,-0.0595 -0.132292,-0.13229 z m -22.224999,-1.98437 v -1.05834 h 1.5875 1.5875 v 1.05834 1.05833 h -1.5875 -1.5875 z M 38.436948,215.6074 v -1.5875 h 1.058333 1.058333 v 1.5875 1.5875 h -1.058333 -1.058333 z m -2.116667,-1.05833 c 0,-0.35278 0.17639,-0.52917 0.529167,-0.52917 0.352777,0 0.529167,0.17639 0.529167,0.52917 0,0.35278 -0.17639,0.52917 -0.529167,0.52917 -0.352777,0 -0.529167,-0.17639 -0.529167,-0.52917 z m 48.683331,-4.7625 v -2.11667 h 1.5875 1.5875 v 2.11667 2.11667 h -1.5875 -1.5875 z M 36.320281,209.2574 v -1.5875 h 1.5875 1.5875 v 1.5875 1.5875 h -1.5875 -1.5875 z m 0,-46.03749 v -1.05834 h 1.058334 1.058333 v 1.05834 1.05833 h -1.058333 -1.058334 z m -1.852083,70.64374 V 219.84074 H 21.635907 8.803616 v 14.02291 14.02292 h 12.832291 12.832291 z m -18.785416,0 v -9.78958 h 4.894792 4.894791 v 2.91042 c 0,2.41064 -0.06815,2.91041 -0.396875,2.91041 -0.220485,0 -0.396875,0.23519 -0.396875,0.52917 0,0.48507 0.17639,0.52917 2.116667,0.52917 1.705091,0 2.116666,-0.0772 2.116666,-0.39688 0,-0.21828 0.119063,-0.39687 0.264584,-0.39687 0.16379,0 0.264583,1.41111 0.264583,3.70416 v 3.70417 H 27.45674 25.472365 v 3.04271 3.0427 h -4.894791 -4.894792 z m -14.2874989,0.26458 c 0,-4.05694 -0.02204,-4.23333 -0.52916668,-4.23333 -0.50711891,0 -0.52916664,0.17639 -0.52916664,4.23333 0,4.05695 0.0220398,4.23334 0.52916664,4.23334 0.50711888,0 0.52916668,-0.17639 0.52916668,-4.23334 z M 74.420279,196.02824 v -4.23334 h 1.091407 c 1.081264,0 1.089869,-0.008 0.926041,-0.82682 -0.09095,-0.45475 -0.165364,-1.05006 -0.165364,-1.32292 0,-0.27285 -0.178594,-0.49609 -0.396875,-0.49609 -0.218282,0 -0.396875,-0.11906 -0.396875,-0.26458 0,-0.16602 -1.675694,-0.26459 -4.497917,-0.26459 H 66.48278 v -4.89479 -4.89479 h 2.918603 2.918602 l -0.02769,-8.33437 c -0.02654,-7.98823 -0.04847,-8.33438 -0.528042,-8.33438 -0.275193,0 -0.627792,-0.23812 -0.783553,-0.52916 -0.192008,-0.35878 -0.195006,-0.52917 -0.0093,-0.52917 0.15064,0 0.273891,-0.23813 0.273891,-0.52917 0,-0.38604 -0.176389,-0.52916 -0.65215,-0.52916 -0.38136,0 -0.769742,-0.21973 -0.93535,-0.52917 -0.226036,-0.42236 -0.201213,-0.52917 0.122984,-0.52917 0.234471,0 0.406183,-0.2317 0.406183,-0.5481 0,-0.43196 -0.141327,-0.53007 -0.666948,-0.46302 -0.542735,0.0692 -0.791917,-0.12435 -1.337914,-1.0394 -0.36903,-0.61846 -0.545152,-1.12448 -0.391384,-1.12448 0.153767,0 0.279579,-0.23812 0.279579,-0.52916 0,-0.37304 -0.176389,-0.52917 -0.597812,-0.52917 -0.328798,0 -0.746527,-0.23813 -0.928286,-0.52917 -0.275629,-0.44135 -0.264236,-0.52916 0.06865,-0.52916 0.230055,0 0.399116,-0.23722 0.399116,-0.56002 0,-0.44713 -0.126915,-0.53575 -0.629674,-0.43964 -0.795237,0.15202 -1.486987,-0.90972 -1.486987,-2.28231 0,-0.82706 -0.08273,-0.95137 -0.633151,-0.95137 -0.641955,0 -1.225626,-0.83561 -0.704908,-1.00919 0.15385,-0.0513 0.279726,-0.32144 0.279726,-0.60036 0,-0.36139 -0.185759,-0.50711 -0.646457,-0.50711 -0.695065,0 -1.47021,-0.86803 -1.47021,-1.64638 0,-0.25866 -0.107302,-0.47029 -0.238448,-0.47029 -0.387839,0 -1.438529,-1.95455 -1.109625,-2.06418 0.159356,-0.0531 0.28974,-0.32479 0.28974,-0.6037 0,-0.35998 -0.185664,-0.50712 -0.639879,-0.50712 -0.445886,0 -0.81339,-0.28075 -1.212204,-0.92604 l -0.572326,-0.92604 h -7.476979 c -4.112337,0 -9.281845,-0.0781 -11.487795,-0.1736 l -4.010816,-0.17361 v 4.27465 4.27464 h 4.233333 4.233333 v -1.5875 -1.5875 h 6.35 6.35 v 7.40833 7.40834 h -4.233333 -4.233334 v 10.45104 c 0,10.27465 0.0089,10.45104 0.529167,10.45104 0.505648,0 0.529167,0.17639 0.529167,3.96875 v 3.96875 H 47.56509 46.109882 v 1.19062 1.19063 h 2.910417 c 1.763889,0 2.910416,0.10423 2.910416,0.26458 0,0.14552 -0.178593,0.26458 -0.396875,0.26458 -0.330729,0 -0.396875,0.52917 -0.396875,3.175 v 3.175 h 9.525 c 9.34861,0 9.524999,0.01 9.524999,0.52917 0,0.35278 0.17639,0.52917 0.529167,0.52917 0.352777,0 0.529167,0.17639 0.529167,0.52916 0,0.47037 0.176389,0.52917 1.5875,0.52917 h 1.587499 z M 36.320281,144.16991 v -3.175 h 1.5875 1.5875 v 2.11666 2.11667 h 1.5875 1.5875 v 1.05833 1.05834 h -3.175 -3.175 z M 2.4536163,328.71677 c 0,-0.28663 -0.2939811,-0.39687 -1.0583332,-0.39687 H 0.33694978 v -1.05834 c 0,-0.76435 -0.11024393,-1.05833 -0.39687498,-1.05833 -0.21828124,0 -0.39687498,-0.11906 -0.39687498,-0.26458 0,-0.14925 0.74965186,-0.26459 1.71979158,-0.26459 H 2.982783 v 1.7198 c 0,0.97014 -0.1153319,1.71979 -0.2645833,1.71979 -0.1455209,0 -0.2645834,-0.1786 -0.2645834,-0.39688 z m 17.5286447,-5.60634 c 0.42703,-0.11159 0.463021,-0.69534 0.463021,-7.50993 v -7.38894 h 1.058333 1.058334 v 7.38894 c 0,6.81459 0.03599,7.39834 0.46302,7.50993 0.254662,0.0666 -0.429947,0.121 -1.521354,0.121 -1.091406,0 -1.776015,-0.0544 -1.521354,-0.121 z m 3.638021,-13.57595 v -1.32292 h 1.5875 1.5875 v 1.05834 c 0,0.58208 0.119062,1.05833 0.264583,1.05833 0.145521,0 0.264583,0.11906 0.264583,0.26458 0,0.1512 -0.79375,0.26459 -1.852083,0.26459 h -1.852083 z m -34.395832,-4.49792 c 0,-1.05833 0.113393,-1.85208 0.264584,-1.85208 0.14552,0 0.264583,0.1786 0.264583,0.39688 0,0.30868 0.3527768,0.39687 1.5874999,0.39687 h 1.5874999 v 1.05833 1.05834 h -1.5874999 c -1.2347231,0 -1.5874999,0.0882 -1.5874999,0.39687 0,0.21828 -0.119063,0.39688 -0.264583,0.39688 -0.151191,0 -0.264584,-0.79375 -0.264584,-1.85209 z m 137.05416,-79.37499 v -1.05833 h 1.05833 1.05834 v 1.05833 1.05833 h -1.05834 -1.05833 z m -184.149991,-2.64583 c 0,-0.58407 -0.936974,-0.76096 -1.120135,-0.21147 -0.0824,0.2472 -0.149464,0.2472 -0.302247,0 -0.107991,-0.17474 -0.07026,-0.3177 0.08385,-0.3177 0.154109,0 0.280198,-0.23813 0.280198,-0.52917 0,-0.35277 -0.176389,-0.52916 -0.529167,-0.52916 -0.352777,0 -0.529166,-0.17639 -0.529166,-0.52917 0,-0.47037 0.176389,-0.52917 1.5875,-0.52917 h 1.5875 v 1.5875 c 0,1.41111 -0.0588,1.5875 -0.529167,1.5875 -0.352777,0 -0.529167,-0.17639 -0.529167,-0.52916 z M 124.16194,205.02407 v -7.9375 h -12.17083 c -11.994442,0 -12.170832,-0.008 -12.170832,-0.52917 0,-0.29398 -0.17639,-0.52916 -0.396875,-0.52916 -0.218281,0 -0.396875,-0.1786 -0.396875,-0.39688 0,-0.21828 0.178594,-0.39687 0.396875,-0.39687 0.218281,0 0.396875,0.17859 0.396875,0.39687 0,0.34727 1.587502,0.39688 12.700002,0.39688 h 12.7 v 7.9375 7.9375 h 2.11666 c 1.94028,0 2.11667,0.0441 2.11667,0.52916 0,0.49389 -0.17639,0.52917 -2.64583,0.52917 h -2.64584 z m 2.11667,-2.11667 v -7.9375 H 113.04944 99.820278 v -1.5875 c 0,-1.23472 -0.08819,-1.5875 -0.396875,-1.5875 -0.218281,0 -0.396875,-0.11906 -0.396875,-0.26458 0,-0.17332 5.247572,-0.26458 15.213542,-0.26458 h 15.21354 v 9.78958 9.78958 h -1.5875 -1.5875 z m -31.749998,-9.90023 c 0,-0.49742 -0.07227,-1.09274 -0.1606,-1.32292 -0.135641,-0.35347 0.09051,-0.41851 1.455209,-0.41851 0.900816,0 1.615807,0.11708 1.615807,0.26458 0,0.14552 -0.178593,0.26458 -0.396875,0.26458 -0.286631,0 -0.396875,0.29398 -0.396875,1.05834 v 1.05833 h -1.058333 c -1.028311,0 -1.058333,-0.0257 -1.058333,-0.9044 z M -12.36305,154.22407 v -1.5875 h 1.058334 1.058333 v 1.5875 1.5875 h -1.058333 -1.058334 z m 31.523931,-1.91578 c -0.422069,-1.36695 -0.446971,-1.67103 -0.14264,-1.74164 0.578057,-0.13412 0.455102,-1.10508 -0.13994,-1.10508 -0.552794,0 -0.652095,-0.23803 -1.64804,-3.95053 -0.441923,-1.64733 -0.514945,-2.25858 -0.279206,-2.33716 0.52905,-0.17635 0.379267,-1.12064 -0.177755,-1.12064 -0.358654,0 -0.571754,-0.29458 -0.765617,-1.05833 -0.151689,-0.5976 -0.165698,-1.05834 -0.03218,-1.05834 0.359291,0 0.282477,-0.99889 -0.08626,-1.1218 -0.286067,-0.0954 2.836659,-0.99486 3.453762,-0.99486 0.134292,0 0.365054,0.47625 0.512802,1.05833 0.217522,0.85697 0.198475,1.05833 -0.100107,1.05833 -0.202809,0 -0.368742,0.23813 -0.368742,0.52917 0,0.34566 0.17639,0.52917 0.508648,0.52917 0.552794,0 0.652095,0.23803 1.648039,3.95053 0.441923,1.64732 0.514946,2.25858 0.279207,2.33715 -0.52905,0.17635 -0.379267,1.12065 0.177755,1.12065 0.358653,0 0.571754,0.29458 0.765617,1.05833 0.151688,0.5976 0.165698,1.05834 0.03218,1.05834 -0.130048,0 -0.23645,0.23812 -0.23645,0.52916 0,0.29104 0.165856,0.52917 0.368567,0.52917 0.307509,0 0.689766,0.52519 0.689766,0.94768 0,0.0609 -0.47625,0.11065 -1.058333,0.11065 -0.745088,0 -1.058334,0.11285 -1.058334,0.38126 0,0.44394 -0.142639,0.54319 -1.114131,0.77523 -0.687194,0.16414 -0.738693,0.1019 -1.228603,-1.48477 z m 53.142732,-9.19672 v -1.05833 h 1.5875 1.5875 v 1.05833 1.05834 h -1.5875 -1.5875 z m -87.047912,-6.08541 v -2.91042 h 3.836458 3.8364578 v 2.91042 2.91041 h -3.8364578 -3.836458 z m 7.9374991,-5.02709 c 0,-0.88194 0.1175914,-1.5875 0.2645834,-1.5875 0.1469919,0 0.2645833,0.70556 0.2645833,1.5875 0,0.88195 -0.1175914,1.5875 -0.2645833,1.5875 -0.146992,0 -0.2645834,-0.70555 -0.2645834,-1.5875 z m 10.5833328,-6.61458 c 0,-0.14552 0.1785938,-0.26458 0.396875,-0.26458 0.2866311,0 0.396875,-0.29398 0.396875,-1.05834 0,-0.88194 0.088194,-1.05833 0.5291666,-1.05833 0.4409731,0 0.5291667,0.17639 0.5291667,1.05833 0,0.58209 0.1190625,1.05834 0.2645833,1.05834 0.1455208,0 0.2645833,0.11906 0.2645833,0.26458 0,0.14552 -0.5357812,0.26458 -1.1906249,0.26458 -0.6548437,0 -1.190625,-0.11906 -1.190625,-0.26458 z m 2.8425695,-1.25677 c 0.1565142,-2.20521 0.2875438,-2.31648 0.3115415,-0.26458 0.011483,0.98226 -0.078203,1.78593 -0.1993159,1.78593 -0.121113,0 -0.1716166,-0.68461 -0.1122256,-1.52135 z"
         id="path3288" />
    </g>
    <rect
       style="fill:none;stroke:#656565;stroke-width:0.00928154;stroke-miterlimit:4;stroke-dasharray:none;stroke-opacity:1"
       id="rect13"
       width="352.2887"
       height="352.28873"
       x="-1455.0576"
       y="427.05231" />
  </g>
</svg>
