<?xml version="1.0" encoding="UTF-8" standalone="no"?>
<svg
   xmlns:dc="http://purl.org/dc/elements/1.1/"
   xmlns:cc="http://creativecommons.org/ns#"
   xmlns:rdf="http://www.w3.org/1999/02/22-rdf-syntax-ns#"
   xmlns:svg="http://www.w3.org/2000/svg"
   xmlns="http://www.w3.org/2000/svg"
   xmlns:sodipodi="http://sodipodi.sourceforge.net/DTD/sodipodi-0.dtd"
   xmlns:inkscape="http://www.inkscape.org/namespaces/inkscape"
   width="1281.343"
   height="1281.343"
   viewBox="0 0 339.02201 339.02201"
   version="1.1"
   id="svg8"
   inkscape:version="1.0.2-2 (e86c870879, 2021-01-15)"
   sodipodi:docname="split.svg">
  <defs
     id="defs2" />
  <sodipodi:namedview
     id="base"
     pagecolor="#ffffff"
     bordercolor="#666666"
     borderopacity="1.0"
     inkscape:pageopacity="0.0"
     inkscape:pageshadow="2"
     inkscape:zoom="0.87420043"
     inkscape:cx="1232.7098"
     inkscape:cy="1065.519"
     inkscape:document-units="mm"
     inkscape:current-layer="g4532"
     inkscape:document-rotation="0"
     showgrid="false"
     inkscape:window-width="1920"
     inkscape:window-height="1010"
     inkscape:window-x="-7"
     inkscape:window-y="-7"
     inkscape:window-maximized="1"
     units="px" />
  <metadata
     id="metadata5">
    <rdf:RDF>
      <cc:Work
         rdf:about="">
        <dc:format>image/svg+xml</dc:format>
        <dc:type
           rdf:resource="http://purl.org/dc/dcmitype/StillImage" />
        <dc:title></dc:title>
      </cc:Work>
    </rdf:RDF>
  </metadata>
  <g
     inkscape:label="Layer 1"
     inkscape:groupmode="layer"
     id="layer1"
     transform="translate(1079.325,-349.83912)">
    <g
       id="g4532"
       transform="matrix(1.2513116,0,0,1.2513116,-1065.1349,308.86352)">
      <rect
         style="fill:none;stroke:#656565;stroke-width:0.00713795;stroke-miterlimit:4;stroke-dasharray:none;stroke-opacity:1"
         id="rect13"
         width="270.92618"
         height="270.92618"
         x="-11.336613"
         y="32.74968" />
      <path
         style="fill:#969685;stroke-width:0.264583"
         d="m 50.836905,289.52424 v -6.21771 h 1.984375 1.984375 v -0.92604 c 0,-0.92114 0.0063,-0.92604 1.190625,-0.92604 h 1.190625 v -1.19063 -1.19062 h 4.630208 4.630208 v -12.30313 -12.30312 h -6.879166 -6.879166 v 0.79375 c 0,0.43656 0.119062,0.79375 0.264583,0.79375 0.145521,0 0.264583,0.29766 0.264583,0.66146 v 0.66146 h -6.614583 c -4.233333,0 -6.614583,-0.0952 -6.614583,-0.26459 0,-0.14552 0.0893,-0.26456 0.198438,-0.26453 0.10914,3e-5 0.166192,-7.91762 0.126785,-17.59479 l -0.07165,-17.59484 h 7.016966 7.016964 V 203.66695 185.67529 H 28.744198 3.2119076 V 175.35654 165.03779 H 21.071282 38.930656 V 145.59091 126.14404 H 31.654615 24.378573 V 100.87633 75.608626 h 7.276042 7.276041 v 5.688541 5.688542 h 1.190625 c 1.146527,0 1.190625,-0.0294 1.190625,-0.79375 v -0.79375 h 1.984375 1.984375 V 73.095084 60.79196 h 4.762499 4.7625 v -7.672916 -7.672917 h 4.365625 c 4.189235,0 4.365625,0.02138 4.365625,0.529167 0,0.523287 0.176389,0.529167 15.874999,0.529167 15.698609,0 15.874999,-0.0059 15.874999,-0.529167 0,-0.506407 0.17639,-0.529167 4.101042,-0.529167 h 4.101045 l -5.3e-4,2.447396 -5.3e-4,2.447396 -5.819782,8.202083 -5.81978,8.202083 -5.29e-4,9.723437 -5.19e-4,9.723437 h 14.02292 14.02291 v -3.307292 -3.307291 h -4.36562 -4.36563 v -6.085417 -6.085416 h 16.80104 16.80104 v -6.217708 -6.217708 h 7.27605 7.27604 v 8.202083 8.202083 h 3.43958 3.43958 v -1.984375 -1.984375 h 2.11667 2.11667 v 1.058333 1.058334 h 4.89479 4.89479 v -1.058334 -1.058333 h 2.24896 2.24896 v 1.984375 1.984375 h 1.32291 1.32292 v 23.283332 23.283335 h 10.05416 10.05417 v 22.48958 22.48958 h 15.64255 15.64254 l -0.16812,6.54844 c -0.24026,9.35827 -0.38511,11.17864 -0.88946,11.17864 -0.35962,0 -0.38801,0.47835 -0.23157,3.90261 0.0981,2.14643 0.25052,4.46815 0.3388,5.15937 0.13419,1.05062 0.0898,1.25677 -0.27045,1.25677 -0.37324,0 -0.43096,0.40751 -0.43096,3.04271 v 3.04271 h -13.36145 c -13.18507,0 -13.36146,-0.007 -13.36146,-0.52917 0,-0.47877 -0.17639,-0.52916 -1.85209,-0.52916 h -1.85208 v 2.38125 2.38125 h 1.05833 1.05834 v 18.52083 18.52083 h -5.42396 -5.42396 v 2.91042 c 0,2.41065 0.0682,2.91041 0.39688,2.91041 0.21828,0 0.39865,0.14883 0.40083,0.33073 0.0145,1.20831 -0.91704,7.87136 -1.10044,7.87136 -0.12454,0 -0.22644,1.78593 -0.22644,3.96875 v 3.96875 h -16.66874 -16.66875 v -4.23334 -4.23333 h -1.32292 -1.32292 v 0.92604 0.92604 h -8.33437 -8.33438 v 7.54063 7.54062 h 4.23334 4.23333 v 4.36563 c 0,4.18923 -0.0214,4.36562 -0.52917,4.36562 -0.49709,0 -0.52916,0.17639 -0.52916,2.91042 v 2.91042 h -1.5875 -1.5875 v 1.54236 c 0,1.42298 -0.0454,1.54074 -0.58706,1.52135 -0.37669,-0.0135 -0.60407,0.14677 -0.63452,0.4472 -0.0328,0.32307 -0.009,0.34357 0.0773,0.0661 0.17639,-0.56843 0.7925,-0.49958 0.95093,0.10626 0.12951,0.49527 -0.16196,0.50912 -11.34623,0.53897 l -11.47915,0.0306 v -1.99418 -1.99418 h -2.24896 -2.24896 v 1.98437 1.98438 h -8.46666 -8.46667 v 2.11667 2.11666 h -2.77813 -2.77812 v 2.24896 2.24896 h -8.73125 -8.73125 v -5.42396 -5.42396 h -2.381249 -2.38125 v 5.42396 5.42396 H 63.801488 50.836905 Z M 94.22857,266.90237 v -7.9375 h 2.116666 2.116667 v -2.24896 -2.24896 h -7.011458 -7.011458 v 3.70417 3.70416 H 82.32232 80.205654 v 2.11667 2.11667 h 2.116666 2.116667 v 4.36562 4.36563 h 4.894791 4.894792 z m -13.758333,-2.91042 v -1.85208 h 1.984375 1.984375 v 1.85208 1.85208 h -1.984375 -1.984375 z m 13.758333,-7.27604 v -1.98438 h 1.984375 1.984375 v 1.98438 1.98437 H 96.212945 94.22857 Z m 31.48541,10.58333 v -7.54062 h 2.24896 2.24896 v -2.24896 -2.24896 l -0.99219,5.3e-4 -0.99218,5.3e-4 v -1.2572 -1.2572 h -1.2572 -1.2572 l 5.3e-4,-4.56406 3.2e-4,-4.56427 h 9.525 9.525 v 0.66146 c 0,0.65044 0.0353,0.66146 2.11667,0.66146 h 2.11667 v -5.29167 -5.29166 h 11.1125 11.1125 v -3.30729 -3.30729 H 160.24211 149.2619 v -5.15938 -5.15937 h 1.98438 c 1.14652,0 1.98437,-0.11172 1.98437,-0.26459 0,-0.15287 -0.83785,-0.26458 -1.98437,-0.26458 h -1.98438 v -8.73125 -8.73125 h 1.98438 1.98437 v -2.11667 -2.11666 h 2.11667 2.11666 v -1.05834 -1.05833 h -10.58333 -10.58333 v -2.64583 -2.64584 h -6.87917 -6.87916 v 10.51995 10.51994 l 4.76249,4.75699 4.7625,4.75698 v 3.24391 3.2439 h -13.49374 c -11.81806,0 -13.49375,0.0493 -13.49375,0.39687 0,0.33886 -0.73496,0.39688 -5.02709,0.39688 h -5.02708 v 4.49791 4.49792 h 1.5875 1.5875 v 1.98438 1.98437 h -15.875 -15.874999 v -1.71979 -1.71979 h 12.170833 12.170833 v -8.86354 -8.86354 h -6.35 -6.35 v -7.40834 -7.40833 h -6.879166 -6.879166 v 12.7 12.7 h -2.116667 -2.116667 v 2.11666 2.11667 h -5.820833 -5.820833 v 4.23333 4.23334 h 2.116667 2.116667 v 3.175 3.175 h 6.879166 6.879166 v -4.10104 -4.10105 h 4.365625 4.365625 v 1.98438 1.98437 h 1.984375 1.984375 v -1.98437 -1.98438 h 9.657291 9.657291 v -1.71979 -1.71979 h 5.159377 5.15937 v 19.71146 19.71146 h 8.46667 8.46666 z m 0,-9.78958 v -1.98438 h 2.11667 2.11667 v 1.98438 1.98437 h -2.11667 -2.11667 z m 0,-2.38125 c 0,-0.0728 0.0595,-0.13229 0.1323,-0.13229 0.0728,0 0.13229,0.0595 0.13229,0.13229 0,0.0728 -0.0595,0.13229 -0.13229,0.13229 -0.0728,0 -0.1323,-0.0595 -0.1323,-0.13229 z m 0.37414,-0.49303 c -0.0833,-0.21699 -0.11222,-0.67108 -0.0643,-1.00908 0.0722,-0.50938 0.24556,-0.61456 1.01311,-0.61456 0.88195,0 0.92604,0.0441 0.92604,0.92604 0,0.85178 -0.0691,0.9327 -0.86171,1.00909 -0.57787,0.0557 -0.91159,-0.0469 -1.01311,-0.31149 z m -17.04288,-15.64655 v -3.83646 h -5.29167 c -4.527315,0 -5.291667,-0.0573 -5.291667,-0.39688 0,-0.30868 -0.352777,-0.39687 -1.5875,-0.39687 h -1.5875 v -4.23334 -4.23333 h 9.657287 9.6573 v 8.46667 8.46666 h -2.77813 -2.77812 z m -33.602086,1.71979 v -1.85209 h 1.719792 1.719791 v 1.85209 1.85208 H 77.162946 75.443154 Z M 60.361905,230.12528 v -1.85208 h 1.852083 1.852083 v 1.85208 1.85209 h -1.852083 -1.852083 z m 88.899995,-1.05833 v -1.05833 h 10.84792 10.84791 v 1.05833 1.05833 H 160.10982 149.2619 Z m 0,-31.75 v -1.85208 h 1.85208 1.85209 v 1.85208 1.85209 h -1.85209 -1.85208 z m 35.98333,32.67604 v -8.86354 h 5.21437 5.21436 l 1.00335,-0.97974 1.00334,-0.97974 v -25.47859 -25.47859 h -3.57188 -3.57187 v -2.64584 -2.64583 h 3.04271 3.0427 v -12.56771 -12.5677 h -11.24479 -11.24479 v -2.51355 -2.51354 h 2.24896 2.24896 v -4.23333 -4.23333 h -2.2524 -2.25241 l 0.0696,-19.05003 0.0696,-19.050037 -6.28385,3.4e-5 -6.28385,3.2e-5 v -2.116667 -2.116666 h -3.04271 -3.04271 v 0.661458 c 0,0.579564 0.11465,0.661458 0.92604,0.661458 h 0.92604 v 3.96875 3.96875 h -4.23333 -4.23333 v -3.96875 -3.96875 h 0.92604 c 0.81139,0 0.92604,-0.08189 0.92604,-0.661458 v -0.661458 h -3.04271 -3.04271 v -2.116667 -2.116667 h -6.35 -6.35 v 2.185914 2.185913 l 4.23334,4.227131 4.23333,4.227132 v 6.286954 6.286954 h -6.74687 -6.74688 l 0.0569,8.53281 c 0.0313,4.69305 0.0946,7.13383 0.14069,5.42396 l 0.0838,-3.10885 h 4.09264 4.09265 v 8.28929 8.2893 l -3.37344,3.34964 -3.37344,3.34963 -8.92968,0.003 -8.92969,0.003 v -2.77813 -2.77812 h -2.11667 -2.11666 v 1.5875 1.5875 h -1.05834 -1.05833 v 1.19062 1.19063 h -5.820834 -5.820833 l -0.03159,-2.3151 c -0.01738,-1.27331 -0.0064,-2.99972 0.02434,-3.83646 0.05173,-1.40694 0.01228,-1.52136 -0.52473,-1.52136 -0.542972,0 -0.576363,0.10735 -0.514336,1.65365 0.03648,0.9095 0.0487,4.12419 0.02716,7.14375 l -0.03917,5.4901 H 88.14319 84.439024 v -4.49791 -4.49792 h -4.101042 -4.101041 v -1.94612 -1.94611 l -1.785937,-0.16867 c -0.982266,-0.0928 -2.470547,-0.16952 -3.307292,-0.17055 l -1.521354,-0.002 v 6.87916 6.87917 h -11.112499 -11.1125 l 0.01474,11.31094 0.01474,11.31093 2.961822,2.44223 2.961823,2.44223 7.077603,0.005 7.077609,0.005 v 6.87917 6.87917 h -1.587499 -1.5875 v 4.63021 4.6302 h 9.524999 9.525 v 7.01146 7.01146 h 9.392708 9.392706 v 2.11667 2.11666 h 2.24896 2.24896 v -2.11666 -2.11667 h 3.70416 3.70417 v -2.11667 -2.11666 h -4.23333 -4.23334 v -7.27605 -7.27604 h 4.23334 4.23333 v -1.19062 -1.19063 h -3.175 -3.175 v -6.35 c 0,-6.17361 -0.0147,-6.35 -0.52917,-6.35 -0.35277,0 -0.52916,0.17639 -0.52916,0.52917 0,0.46801 -0.17639,0.52917 -1.52632,0.52917 h -1.52632 l -2.63591,2.64583 -2.6359,2.64583 H 95.093429 91.84732 v -11.50937 -11.50937 h 3.836458 3.836458 v -2.11667 -2.11667 h 3.571874 3.57188 v 7.80521 c 0,7.62882 0.012,7.80521 0.52916,7.80521 0.29104,0 0.52917,-0.11906 0.52917,-0.26459 0,-0.14552 0.65484,-0.26458 1.45521,-0.26458 h 1.45521 v -1.19062 -1.19063 h 5.95312 5.95313 v 2.24896 2.24896 h 2.11666 2.11667 v -2.24896 -2.24896 h 4.63021 4.6302 v 4.36116 4.36116 l -6.81302,0.0753 -6.81302,0.0753 6.94532,0.0615 6.94531,0.0615 0.0347,-2.71197 c 0.0191,-1.49159 0.0341,-3.26281 0.0334,-3.93604 l -0.001,-1.22407 4.33226,-0.0458 4.33225,-0.0458 v 4.11415 4.11416 h 1.98438 1.98437 v -15.34583 -15.34584 h -1.85208 -1.85208 v -3.175 -3.175 h 8.06979 8.06979 V 119.52946 99.950291 h -6.21771 -6.21771 v -4.233333 -4.233333 h 10.58334 10.58333 v 26.987495 26.9875 h -6.35 -6.35 v 11.24479 11.24479 h 7.40833 7.40834 l 1.7e-4,9.59115 1.7e-4,9.59115 H 171.289 c -0.94372,0 -0.99223,0.0421 -0.9898,0.85989 0.002,0.76825 -0.0773,0.8599 -0.7465,0.8599 -0.41199,0 -0.91915,0.17009 -1.12704,0.37797 -0.48731,0.48731 -0.52582,3.48702 -0.0472,3.68013 0.1819,0.0734 -0.29435,0.14285 -1.05833,0.15434 l -1.38906,0.0209 v 1.05833 1.05834 h 4.36562 4.36563 v 7.01145 7.01146 h -4.36563 -4.36562 v 4.10104 4.10105 h 6.35 6.35 v 8.46666 8.46667 h 1.05833 1.05834 v 2.24896 2.24895 h 2.24895 2.24896 z m -4.23333,6.48229 v -2.11666 h 1.98437 1.98438 v 2.11666 2.11667 h -1.98438 -1.98437 z m -78.58125,-25.53229 v -1.98437 h 1.98438 1.98437 v 1.98437 1.98438 h -1.98437 -1.98438 z m 66.21198,-18.25514 c -0.45461,-0.51634 -0.42193,-2.72583 0.0472,-3.195 0.21903,-0.21904 0.89454,-0.37798 1.60639,-0.37798 0.71186,0 1.38737,0.15894 1.6064,0.37798 0.21904,0.21903 0.37798,0.89454 0.37798,1.6064 0,0.71185 -0.15894,1.38736 -0.37798,1.60639 -0.49734,0.49735 -2.81764,0.48468 -3.26004,-0.0178 z m 3.37344,0.26348 c 0,-0.0728 0.0595,-0.13229 0.13229,-0.13229 0.0728,0 0.13229,0.0595 0.13229,0.13229 0,0.0728 -0.0595,0.13229 -0.13229,0.13229 -0.0728,0 -0.13229,-0.0595 -0.13229,-0.13229 z m 0.0209,-3.9908 c 0.0127,-0.30823 0.0754,-0.37092 0.15985,-0.15985 0.0764,0.19099 0.067,0.4192 -0.0209,0.50712 -0.0879,0.0879 -0.15046,-0.0684 -0.13897,-0.34727 z m -1.51241,-0.77093 c -0.0914,-0.23827 -0.044,-0.55544 0.10537,-0.70483 0.4313,-0.43129 1.25386,-0.14061 1.25386,0.4431 0,0.67301 -1.11874,0.88844 -1.35923,0.26173 z m -25.23138,-16.27265 v -3.96875 h 1.71979 1.71979 v 3.96875 3.96875 h -1.71979 -1.71979 z m -22.48958,-2.77812 v -1.98438 h 1.85208 1.85208 v 1.98438 1.98437 h -1.85208 -1.85208 z m -15.875,0 c 0,-0.0728 0.0595,-0.13229 0.13229,-0.13229 0.0728,0 0.13229,0.0595 0.13229,0.13229 0,0.0728 -0.0595,0.13229 -0.13229,0.13229 -0.0728,0 -0.13229,-0.0595 -0.13229,-0.13229 z M 84.438987,149.0305 v -4.89479 h 7.672916 7.672917 v 1.28522 1.28523 l 1.62631,0.16998 c 0.89447,0.0935 2.44229,0.16998 3.43958,0.16998 h 1.81328 v 3.43959 3.43958 H 95.551486 84.438987 Z m 17.727083,-3.43959 v -1.19062 h 2.11667 2.11666 v 1.19062 1.19063 h -2.11666 -2.11667 z m -2.11667,-0.13229 c 0,-0.99954 0.0441,-1.05833 0.79375,-1.05833 0.74965,0 0.79375,0.0588 0.79375,1.05833 0,0.99954 -0.0441,1.05834 -0.79375,1.05834 -0.74965,0 -0.79375,-0.0588 -0.79375,-1.05834 z m 6.87917,-10.84791 v -2.64584 h 1.85208 1.85209 v 2.64584 2.64583 h -1.85209 -1.85208 z m -2.11667,1.4552 c 0,-0.85254 0.063,-0.92604 0.79375,-0.92604 0.73076,0 0.79375,0.0735 0.79375,0.92604 0,0.85255 -0.063,0.92605 -0.79375,0.92605 -0.73075,0 -0.79375,-0.0735 -0.79375,-0.92605 z m -34.924996,-3.30729 v -1.85208 h 1.852084 1.852083 v 1.85208 1.85209 h -1.852083 -1.852084 z m 3.96875,0.13229 v -1.71979 h 1.058333 1.058334 v 1.71979 1.7198 h -1.058334 -1.058333 z m 100.277076,-2.38125 v -1.98437 h 2.11667 2.11667 v 1.98437 1.98438 h -2.11667 -2.11667 z m 0,-4.10104 v -1.85208 h 2.11667 2.11667 v 1.85208 1.85209 h -2.11667 -2.11667 z m -4.28294,-35.370318 c 0.19099,-0.07643 0.4192,-0.06703 0.50712,0.02088 0.0879,0.08792 -0.0684,0.150453 -0.34727,0.138964 -0.30822,-0.0127 -0.37092,-0.07539 -0.15985,-0.15985 z m -32.58233,79.908508 c -0.097,-0.097 -0.25577,-0.097 -0.35278,0 -0.097,0.097 -0.0176,0.17639 0.17639,0.17639 0.19402,0 0.2734,-0.0794 0.17639,-0.17639 z m 0.52916,-0.79375 c -0.097,-0.097 -0.17639,-0.0176 -0.17639,0.17639 0,0.19403 0.0794,0.27341 0.17639,0.17639 0.097,-0.097 0.097,-0.25576 0,-0.35278 z m -0.44097,-0.61736 c 0,-0.14552 -0.11906,-0.26458 -0.26458,-0.26458 -0.14552,0 -0.26459,0.11906 -0.26459,0.26458 0,0.14553 0.11907,0.26459 0.26459,0.26459 0.14552,0 0.26458,-0.11906 0.26458,-0.26459 z m 0.44097,-0.97014 c -0.097,-0.097 -0.17639,-0.0176 -0.17639,0.17639 0,0.19403 0.0794,0.27341 0.17639,0.17639 0.097,-0.097 0.097,-0.25576 0,-0.35278 z m -85.310853,-43.87667 -0.07093,-13.36152 h 7.545408 c 6.530641,0 7.545408,-0.0534 7.545408,-0.39687 0,-0.30467 -0.338079,-0.39688 -1.455208,-0.39688 h -1.455208 v -3.57187 -3.57188 h 17.859374 17.859379 v 1.85209 1.85208 H 90.431939 80.54989 l -3.347117,1.58913 c -2.635943,1.25148 -3.347119,1.70122 -3.347119,2.11666 0,0.48304 0.178567,0.52754 2.116667,0.52754 h 2.116666 v 1.2984 1.2984 l 6.568091,3.4641 c 4.429905,2.33639 6.841624,3.4641 7.408333,3.4641 h 0.840242 v -2.11666 -2.11667 h 3.972819 3.972818 l 3.16686,1.5875 3.16687,1.5875 h 5.56031 5.56032 v -8.33437 c 0,-8.15799 -0.0112,-8.33438 -0.52916,-8.33438 -0.50397,0 -0.52917,-0.17639 -0.52917,-3.704165 v -3.704167 h -3.175 c -2.99861,0 -3.175,-0.0294 -3.175,-0.529166 0,-0.511527 -0.17639,-0.529167 -5.29167,-0.529167 h -5.29166 v 4.233333 4.233332 h -8.334378 -8.334375 v -2.11667 -2.116662 H 81.52857 79.411904 v 2.116662 2.11667 h -7.408333 -7.408333 v -1.45521 -1.45521 h -5.688541 -5.688542 v -0.893726 c 0,-0.767347 -0.239593,-1.104082 -1.694307,-2.38125 l -1.694309,-1.487519 h -4.258815 -4.258818 v -0.926042 c 0,-0.921141 -0.0063,-0.926041 -1.190625,-0.926041 h -1.190625 v 6.879168 6.87916 h -2.778125 -2.778125 v 1.05834 1.05833 h 7.011458 7.011458 v 14.2875 14.2875 l 2.579687,6e-5 2.579688,6e-5 z m 27.19072,-23.54797 v -1.984379 h 1.852083 1.852084 v 1.984379 1.98437 H 81.52857 79.676487 Z m 31.220833,-1.587504 v -3.571874 h 3.04271 3.04271 v 3.571874 3.571874 h -3.04271 -3.04271 z M 66.447321,78.254459 v -6.879166 h 2.116667 2.116666 v -2.248958 -2.248959 h -9.392708 -9.392707 v 9.128125 9.128124 h 7.276041 7.276041 z m 0,-9.128124 V 67.14196 h 1.984375 1.984375 v 1.984375 1.984374 h -1.984375 -1.984375 z m 16.933333,-9.525 V 57.61696 h -4.101042 -4.101041 v 1.984375 1.984375 h 4.101041 4.101042 z m -7.9375,0 v -1.719792 h 3.836458 3.836458 v 1.719792 1.719792 h -3.836458 -3.836458 z m 1.5875,230.848945 v -5.29166 h 2.116667 2.116666 v 5.29166 5.29167 h -2.116666 -2.116667 z m 22.224999,3.175 v -2.11666 h 2.645837 2.64583 v 2.11666 2.11667 h -2.64583 -2.645837 z m 5.556247,0 v -2.11666 h 1.98438 1.98437 v 2.11666 2.11667 h -1.98437 -1.98438 z m 0,-4.36562 v -1.98438 h 1.98438 1.98437 v 1.98438 1.98437 h -1.98437 -1.98438 z m 16.93334,-4.10104 v -1.85209 h 1.98437 1.98437 v 1.85209 1.85208 h -1.98437 -1.98437 z m 27.51666,-0.1323 v -1.98437 h 1.98438 1.98437 v 1.98437 1.98438 h -1.98437 -1.98438 z m -98.424995,-3.96875 v -1.98437 h 1.852084 1.852083 v 1.98437 1.98438 H 52.688989 50.836905 Z M 152.4369,279.99924 c 0,-2.29306 0.0693,-2.77812 0.39688,-2.77812 0.32758,0 0.39687,0.48506 0.39687,2.77812 0,2.29306 -0.0693,2.77813 -0.39687,2.77813 -0.32759,0 -0.39688,-0.48507 -0.39688,-2.77813 z m -97.366662,0.26458 c 0,-0.88194 0.0441,-0.92604 0.926042,-0.92604 0.881944,0 0.926042,0.0441 0.926042,0.92604 0,0.88195 -0.0441,0.92605 -0.926042,0.92605 -0.881943,0 -0.926042,-0.0441 -0.926042,-0.92605 z m 93.927082,-23.6802 v -3.175 h 7.40833 7.40833 v 3.175 3.175 h -7.40833 -7.40833 z m 48.68333,-0.66146 c 0,-2.11005 0.0953,-3.83646 0.21186,-3.83646 0.19408,0 1.11821,-6.75403 1.11321,-8.13594 -0.001,-0.35182 -0.16448,-0.59531 -0.39903,-0.59531 -0.32632,0 -0.39688,-0.47037 -0.39688,-2.64583 v -2.64584 h 1.85209 1.85208 v 10.84792 10.84792 h -2.11667 -2.11666 z m -35.98333,-3.70417 c 0,-0.59531 0.10583,-0.66146 1.05833,-0.66146 0.9525,0 1.05833,0.0661 1.05833,0.66146 0,0.59531 -0.10583,0.66146 -1.05833,0.66146 -0.9525,0 -1.05833,-0.0661 -1.05833,-0.66146 z M 159.58065,69.258626 v -1.852083 h 1.98437 1.98438 v 1.852083 1.852083 h -1.98438 -1.98437 z m 4.23333,0 v -1.852083 h 1.05834 1.05833 v 1.852083 1.852083 h -1.05833 -1.05834 z m 21.16667,0 v -1.852083 h 1.05833 1.05834 v 1.852083 1.852083 h -1.05834 -1.05833 z m -14.2875,-0.926041 v -0.926042 h 4.63021 4.63021 v 0.926042 0.926041 h -4.63021 -4.63021 z"
         id="path4540" />
      <path
         style="fill:#807d80;stroke-width:0.264583"
         d="m 50.836905,289.52424 v -6.21771 h 1.984375 1.984375 v -0.92604 c 0,-0.92114 0.0063,-0.92604 1.190625,-0.92604 h 1.190625 v -1.19063 -1.19062 h 4.630208 4.630208 v -2.24896 -2.24896 h 2.778125 2.778125 v -2.11666 -2.11667 h 6.217708 6.217708 v 2.24896 2.24896 h 4.894791 4.894792 v -7.9375 -7.9375 h 2.116666 2.116667 v -2.24896 -2.24896 h -5.283964 -5.283967 l -0.07385,-7.80536 -0.07385,-7.80536 5.357813,1.5e-4 5.357812,1.5e-4 v -1.71979 -1.71979 h 5.159373 5.15937 v 19.71146 19.71146 h 8.46667 8.46666 v -7.54063 -7.54062 h 2.24896 2.24896 v -2.24896 -2.24896 l -0.99219,5.3e-4 -0.99218,5.3e-4 v -1.2572 -1.2572 h -1.2572 -1.2572 l 5.3e-4,-4.56406 3.2e-4,-4.56427 h 9.525 9.525 v 0.66146 c 0,0.65044 0.0353,0.66146 2.11667,0.66146 h 2.11667 v -5.29167 -5.29166 h 11.1125 11.1125 v -3.30729 -3.30729 h -10.9802 -10.98021 v -5.15938 -5.15937 h 1.98438 c 1.14652,0 1.98437,-0.11172 1.98437,-0.26459 0,-0.15287 -0.83785,-0.26458 -1.98437,-0.26458 h -1.98438 v -8.73125 -8.73125 h 1.98438 1.98437 v -2.11667 -2.11666 h 2.11667 2.11666 v -1.05834 -1.05833 h -10.58333 -10.58333 v -2.64583 -2.64584 h -6.87917 -6.87916 v 10.51995 10.51994 l 4.76249,4.75699 4.7625,4.75698 v 3.24391 3.2439 h -13.49374 c -11.81806,0 -13.49375,0.0493 -13.49375,0.39687 0,0.33886 -0.73496,0.39688 -5.02709,0.39688 h -5.02708 v 4.49791 4.49792 h 1.5875 1.5875 v 1.98438 1.98437 h -15.875 -15.874999 v -1.71979 -1.71979 h 12.170833 12.170833 v -8.86354 -8.86354 h -6.35 -6.35 v -7.40834 -7.40833 h -6.879166 -6.879166 v 12.7 12.7 h -2.116667 -2.116667 v 2.11666 2.11667 h -5.820833 -5.820833 v 4.23333 4.23334 h 2.116667 2.116667 v 3.175 3.175 h 6.746874 6.746875 v 3.28565 c 0,1.80711 0.07227,3.47398 0.160599,3.70417 0.143918,0.37504 -0.556863,0.41851 -6.746874,0.41851 h -6.907474 v 0.92604 0.92604 H 46.47128 40.253572 v -17.3302 -17.33021 h 7.011458 7.011458 V 203.66695 185.67529 H 28.744198 3.2119076 V 175.35654 165.03779 H 21.071282 38.930656 V 145.59091 126.14404 H 31.654615 24.378573 V 100.87633 75.608626 h 7.276042 7.276041 v 5.688541 5.688542 h 1.190625 c 1.146527,0 1.190625,-0.0294 1.190625,-0.79375 v -0.79375 h 1.984375 1.984375 V 73.095084 60.79196 h 4.630208 4.630208 v 3.042708 3.042708 h -1.322917 -1.322916 v 9.128125 9.128124 h 7.276041 7.276041 v -5.556249 -5.55625 h 12.7 12.699999 v 6.085416 6.085417 h 14.02292 14.02291 v -3.307292 -3.307291 h -4.36562 -4.36563 v -6.085417 -6.085416 h 16.80104 16.80104 v -6.217708 -6.217708 h 7.27605 7.27604 v 8.202083 8.202083 h 3.43958 3.43958 v -1.984375 -1.984375 h 2.11667 2.11667 v 1.058333 1.058334 h 4.89479 4.89479 v -1.058334 -1.058333 h 2.24896 2.24896 v 1.984375 1.984375 h 1.32291 1.32292 v 23.283332 23.283335 h 10.05416 10.05417 v 22.48958 22.48958 h 15.64255 15.64254 l -0.16812,6.54844 c -0.24026,9.35827 -0.38511,11.17864 -0.88946,11.17864 -0.35962,0 -0.38801,0.47835 -0.23157,3.90261 0.0981,2.14643 0.25052,4.46815 0.3388,5.15937 0.13419,1.05062 0.0898,1.25677 -0.27045,1.25677 -0.37324,0 -0.43096,0.40751 -0.43096,3.04271 v 3.04271 h -13.36145 c -13.18507,0 -13.36146,-0.007 -13.36146,-0.52917 0,-0.47877 -0.17639,-0.52916 -1.85209,-0.52916 h -1.85208 v 2.38125 2.38125 h 1.05833 1.05834 v 18.52083 18.52083 h -5.42396 -5.42396 v 2.91042 c 0,2.41065 0.0682,2.91041 0.39688,2.91041 0.21828,0 0.39865,0.14883 0.40083,0.33073 0.0145,1.20831 -0.91704,7.87136 -1.10044,7.87136 -0.12454,0 -0.22644,1.78593 -0.22644,3.96875 v 3.96875 h -16.66874 -16.66875 v -4.23334 -4.23333 h -1.32292 -1.32292 v 0.92604 0.92604 h -8.33437 -8.33438 v 7.54063 7.54062 h 4.23334 4.23333 v 4.36563 c 0,4.18923 -0.0214,4.36562 -0.52917,4.36562 -0.49709,0 -0.52916,0.17639 -0.52916,2.91042 v 2.91042 h -1.5875 -1.5875 v 1.54236 c 0,1.42298 -0.0454,1.54074 -0.58706,1.52135 -0.37669,-0.0135 -0.60407,0.14677 -0.63452,0.4472 -0.0328,0.32307 -0.009,0.34357 0.0773,0.0661 0.17639,-0.56843 0.7925,-0.49958 0.95093,0.10626 0.12951,0.49527 -0.16196,0.50912 -11.34623,0.53897 l -11.47915,0.0306 v -1.99418 -1.99418 h -2.24896 -2.24896 v 1.98437 1.98438 h -8.46666 -8.46667 v 2.11667 2.11666 h -2.77813 -2.77812 v 2.24896 2.24896 h -8.73125 -8.73125 v -5.42396 -5.42396 h -2.381249 -2.38125 v 5.42396 5.42396 H 63.801488 50.836905 Z M 185.24523,229.99299 v -8.86354 h 5.21437 5.21436 l 1.00335,-0.97974 1.00334,-0.97974 v -25.47859 -25.47859 h -3.57188 -3.57187 v -2.64584 -2.64583 h 3.04271 3.0427 v -12.56771 -12.5677 l -10.64947,-0.004 c -5.85722,-0.002 -10.91737,-0.0754 -11.24479,-0.16315 -0.56072,-0.15027 -0.59532,-0.29615 -0.59532,-2.50993 v -2.35041 h 2.24896 2.24896 v -4.23333 -4.23333 h -2.2524 -2.25241 l 0.0696,-19.05003 0.0696,-19.050037 -6.28385,3.4e-5 -6.28385,3.2e-5 v -2.116667 -2.116666 h -3.04271 -3.04271 v 0.661458 c 0,0.579564 0.11465,0.661458 0.92604,0.661458 h 0.92604 v 3.96875 3.96875 h -4.23333 -4.23333 v -3.96875 -3.96875 h 0.92604 c 0.81139,0 0.92604,-0.08189 0.92604,-0.661458 v -0.661458 h -3.04271 -3.04271 v -2.116667 -2.116667 h -6.35 -6.35 v 2.185914 2.185913 l 4.23334,4.227131 4.23333,4.227132 v 6.286954 6.286954 h -6.74687 -6.74688 l 0.0569,8.53281 c 0.0313,4.69305 0.0946,7.13383 0.14069,5.42396 l 0.0838,-3.10885 h 4.09264 4.09265 l -0.0374,8.40052 -0.0374,8.40052 -3.2815,3.175 -3.2815,3.175 -8.98424,0.0762 -8.98424,0.0762 v -2.78814 -2.78814 h -2.11667 -2.11666 v 1.5875 1.5875 h -1.05834 -1.05833 v 1.19062 1.19063 h -5.820834 -5.820833 v -3.83646 c 0,-3.66007 -0.02432,-3.83646 -0.529166,-3.83646 -0.516102,0 -0.529167,0.17639 -0.529167,7.14375 v 7.14375 h -3.704167 -3.704166 v -4.49791 -4.49792 h -4.101042 -4.101041 v -1.94612 -1.94611 l -1.785937,-0.16867 c -0.982266,-0.0928 -2.470547,-0.16952 -3.307292,-0.17055 l -1.521354,-0.002 v 6.87916 6.87917 h -11.112499 -11.1125 l 0.01474,11.31094 0.01474,11.31093 2.961822,2.44223 2.961823,2.44223 7.077603,0.005 7.077609,0.005 v 6.87917 6.87917 h -1.587499 -1.5875 v 4.63021 4.6302 h 9.524999 9.525 v 7.01146 7.01146 h 9.392708 9.392713 v 2.11667 2.11666 h 2.24896 2.24896 v -2.11666 -2.11667 h 3.70416 3.70417 v -2.11667 -2.11666 h -4.23333 -4.23334 v -7.27605 -7.27604 h 4.23334 4.23333 v -1.19062 -1.19063 h -3.175 -3.175 v -6.35 c 0,-6.17361 -0.0147,-6.35 -0.52917,-6.35 -0.35277,0 -0.52916,0.17639 -0.52916,0.52917 0,0.46801 -0.17639,0.52917 -1.52632,0.52917 h -1.52632 l -2.63591,2.64583 -2.635907,2.64583 H 95.093429 91.84732 v -11.50937 -11.50937 h 3.836458 3.836458 v -2.11667 -2.11667 h 3.571874 3.57188 v 7.80521 c 0,7.62882 0.012,7.80521 0.52916,7.80521 0.29104,0 0.52917,-0.11906 0.52917,-0.26459 0,-0.14552 0.65484,-0.26458 1.45521,-0.26458 h 1.45521 v -1.19062 -1.19063 h 5.95312 5.95313 v 2.24896 2.24896 h 2.11666 2.11667 v -2.24896 -2.24896 h 4.63021 4.6302 v 4.36116 4.36116 l -6.81302,0.0753 -6.81302,0.0753 6.94532,0.0615 6.94531,0.0615 v -2.45782 -2.45783 l 0.7276,0.0104 c 0.7016,0.0101 0.73044,-0.0439 0.80695,-1.51093 l 0.0794,-1.52135 h 3.55867 3.55867 v 4.10104 4.10104 h 1.98437 1.98438 v -15.34583 -15.34583 h -1.85209 -1.85208 v -3.175 -3.175 h 8.06979 8.06979 V 119.52945 99.950286 h -6.2177 -6.21771 V 95.716953 91.48362 h 10.58333 10.58333 v 26.9875 26.9875 h -6.35 -6.35 v 11.24479 11.24479 h 7.40834 7.40833 l 1.7e-4,9.59114 1.8e-4,9.59115 h -0.99236 c -0.94373,0 -0.99224,0.0421 -0.98981,0.8599 0.002,0.76825 -0.0773,0.85989 -0.7465,0.85989 -0.41198,0 -0.91915,0.17009 -1.12704,0.37798 -0.4873,0.48731 -0.52582,3.48702 -0.0472,3.68013 0.1819,0.0734 -0.29435,0.14285 -1.05834,0.15434 l -1.38906,0.0209 v 1.05833 1.05834 h 4.36562 4.36563 v 7.01145 7.01146 h -4.36563 -4.36562 v 4.10104 4.10105 h 6.35 6.35 v 8.46666 8.46667 h 1.05833 1.05834 v 2.24896 2.24895 h 2.24895 2.24896 z m -4.23333,6.48229 v -2.11666 h 1.98437 1.98438 v 2.11666 2.11667 h -1.98438 -1.98437 z m -78.58125,-25.53229 v -1.98437 h 1.98438 1.98437 v 1.98437 1.98438 h -1.98437 -1.98438 z m 66.21198,-18.25514 c -0.45461,-0.51634 -0.42193,-2.72583 0.0472,-3.195 0.21903,-0.21904 0.89454,-0.37798 1.60639,-0.37798 0.71186,0 1.38737,0.15894 1.6064,0.37798 0.21904,0.21903 0.37798,0.89454 0.37798,1.6064 0,0.71185 -0.15894,1.38736 -0.37798,1.60639 -0.49734,0.49735 -2.81764,0.48468 -3.26004,-0.0178 z m 3.37344,0.26348 c 0,-0.0728 0.0595,-0.13229 0.13229,-0.13229 0.0728,0 0.13229,0.0595 0.13229,0.13229 0,0.0728 -0.0595,0.13229 -0.13229,0.13229 -0.0728,0 -0.13229,-0.0595 -0.13229,-0.13229 z m 0.0209,-3.9908 c 0.0127,-0.30823 0.0754,-0.37092 0.15985,-0.15985 0.0764,0.19099 0.067,0.4192 -0.0209,0.50712 -0.0879,0.0879 -0.15046,-0.0684 -0.13897,-0.34727 z m -1.51241,-0.77093 c -0.0914,-0.23827 -0.044,-0.55544 0.10537,-0.70483 0.4313,-0.43129 1.25386,-0.14061 1.25386,0.4431 0,0.67301 -1.11874,0.88844 -1.35923,0.26173 z m -25.23138,-16.27265 v -3.96875 h 1.71979 1.71979 v 3.96875 3.96875 h -1.71979 -1.71979 z m -22.48958,-2.77812 v -1.98438 h 1.85208 1.85208 v 1.98438 1.98437 h -1.85208 -1.85208 z m 13.75833,1.19893 c 0,-0.14095 0.17859,-0.18775 0.39688,-0.10399 0.21828,0.0838 0.39687,0.19909 0.39687,0.25628 0,0.0572 -0.17859,0.10399 -0.39687,0.10399 -0.21829,0 -0.39688,-0.11533 -0.39688,-0.25628 z m -0.26458,-0.80206 c 0,-0.19402 0.0794,-0.2734 0.17639,-0.17639 0.097,0.097 0.097,0.25577 0,0.35278 -0.097,0.097 -0.17639,0.0176 -0.17639,-0.17639 z m 0.26458,-0.79375 c 0,-0.14552 0.17859,-0.26458 0.39688,-0.26458 0.21828,0 0.39687,0.11906 0.39687,0.26458 0,0.14553 -0.17859,0.26459 -0.39687,0.26459 -0.21829,0 -0.39688,-0.11906 -0.39688,-0.26459 z m -0.26458,-0.66145 c 0,-0.0728 0.0595,-0.1323 0.13229,-0.1323 0.0728,0 0.13229,0.0595 0.13229,0.1323 0,0.0728 -0.0595,0.13229 -0.13229,0.13229 -0.0728,0 -0.13229,-0.0595 -0.13229,-0.13229 z m -51.858333,-19.05 v -4.89479 h 7.672916 7.672917 v 1.28522 1.28523 l 1.62631,0.16998 c 0.89447,0.0935 2.44229,0.16998 3.43958,0.16998 h 1.81328 v 3.43959 3.43958 H 95.551486 84.438987 Z m 17.727083,-3.43959 v -1.19062 h 2.11667 2.11666 v 1.19062 1.19063 h -2.11666 -2.11667 z m -2.11667,-0.13229 c 0,-0.99954 0.0441,-1.05833 0.79375,-1.05833 0.74965,0 0.79375,0.0588 0.79375,1.05833 0,0.99954 -0.0441,1.05834 -0.79375,1.05834 -0.74965,0 -0.79375,-0.0588 -0.79375,-1.05834 z m 6.87917,-10.84791 v -2.64584 h 1.85208 1.85209 v 2.64584 2.64583 h -1.85209 -1.85208 z m -2.11667,1.4552 c 0,-0.85254 0.063,-0.92604 0.79375,-0.92604 0.73076,0 0.79375,0.0735 0.79375,0.92604 0,0.85255 -0.063,0.92605 -0.79375,0.92605 -0.73075,0 -0.79375,-0.0735 -0.79375,-0.92605 z m -34.924996,-3.30729 v -1.85208 h 1.852084 1.852083 v 1.85208 1.85209 h -1.852083 -1.852084 z m 3.96875,0.13229 v -1.71979 h 1.058333 1.058334 v 1.71979 1.7198 h -1.058334 -1.058333 z m 100.277076,-2.38125 v -1.98437 h 2.11667 2.11667 v 1.98437 1.98438 h -2.11667 -2.11667 z m 0,-4.10104 v -1.85208 h 2.11667 2.11667 v 1.85208 1.85209 h -2.11667 -2.11667 z m -121.646963,-1.71973 -0.07093,-13.36152 h 7.545408 c 6.530641,0 7.545408,-0.0534 7.545408,-0.39687 0,-0.30467 -0.338079,-0.39688 -1.455208,-0.39688 h -1.455208 v -3.57187 -3.57188 h 17.859374 17.859379 v 1.85209 1.85208 H 90.431939 80.54989 l -3.347117,1.58913 c -2.635943,1.25148 -3.347119,1.70122 -3.347119,2.11666 0,0.48304 0.178567,0.52754 2.116667,0.52754 h 2.116666 v 1.2984 1.2984 l 6.568091,3.4641 c 4.429905,2.33639 6.841624,3.4641 7.408333,3.4641 h 0.840242 v -2.11666 -2.11667 h 3.983752 3.983755 l 3.12377,1.5875 3.12377,1.5875 h 5.59248 5.59247 v -8.33437 c 0,-8.15799 -0.0112,-8.33438 -0.52916,-8.33438 -0.50397,0 -0.52917,-0.17639 -0.52917,-3.704165 v -3.704167 h -3.175 c -2.99861,0 -3.175,-0.0294 -3.175,-0.529166 0,-0.511527 -0.17639,-0.529167 -5.29167,-0.529167 h -5.29166 v 4.233333 4.233332 h -8.334378 -8.334375 v -2.11667 -2.116662 H 81.52857 79.411904 v 2.116662 2.11667 h -7.408333 -7.408333 v -1.45521 -1.45521 h -5.688541 -5.688542 v -0.893726 c 0,-0.767347 -0.239593,-1.104082 -1.694307,-2.38125 l -1.694309,-1.487519 h -4.258815 -4.258818 v -0.926042 c 0,-0.921141 -0.0063,-0.926041 -1.190625,-0.926041 h -1.190625 v 6.879168 6.87916 h -2.778125 -2.778125 v 1.05834 1.05833 h 7.011458 7.011458 v 14.2875 14.2875 l 2.579687,6e-5 2.579688,6e-5 z m 27.19072,-23.54797 v -1.984379 h 1.852083 1.852084 v 1.984379 1.98437 H 81.52857 79.676487 Z m 31.220833,-1.587504 v -3.571874 h 3.04271 3.04271 v 3.571874 3.571874 h -3.04271 -3.04271 z M 77.030654,290.45028 v -5.29166 h 2.116667 2.116666 v 5.29166 5.29167 h -2.116666 -2.116667 z m 22.224999,3.175 v -2.11666 h 2.645837 2.64583 v 2.11666 2.11667 h -2.64583 -2.645837 z m 5.556247,0 v -2.11666 h 1.98438 1.98437 v 2.11666 2.11667 h -1.98437 -1.98438 z m 0,-4.36562 v -1.98438 h 1.98438 1.98437 v 1.98438 1.98437 h -1.98437 -1.98438 z m 16.93334,-4.10104 v -1.85209 h 1.98437 1.98437 v 1.85209 1.85208 h -1.98437 -1.98437 z m 27.51666,-0.1323 v -1.98437 h 1.98438 1.98437 v 1.98437 1.98438 h -1.98437 -1.98438 z m -98.424995,-3.96875 v -1.98437 h 1.852084 1.852083 v 1.98437 1.98438 H 52.688989 50.836905 Z M 152.4369,279.99924 c 0,-2.29306 0.0693,-2.77812 0.39688,-2.77812 0.32758,0 0.39687,0.48506 0.39687,2.77812 0,2.29306 -0.0693,2.77813 -0.39687,2.77813 -0.32759,0 -0.39688,-0.48507 -0.39688,-2.77813 z m -97.366662,0.26458 c 0,-0.88194 0.0441,-0.92604 0.926042,-0.92604 0.881944,0 0.926042,0.0441 0.926042,0.92604 0,0.88195 -0.0441,0.92605 -0.926042,0.92605 -0.881943,0 -0.926042,-0.0441 -0.926042,-0.92605 z m 25.399999,-16.27187 v -1.85208 h 1.984375 1.984375 v 1.85208 1.85208 h -1.984375 -1.984375 z m 68.527083,-7.40833 v -3.175 h 7.40833 7.40833 v 3.175 3.175 h -7.40833 -7.40833 z m 48.68333,-0.66146 c 0,-2.11005 0.0953,-3.83646 0.21186,-3.83646 0.19408,0 1.11821,-6.75403 1.11321,-8.13594 -0.001,-0.35182 -0.16448,-0.59531 -0.39903,-0.59531 -0.32632,0 -0.39688,-0.47037 -0.39688,-2.64583 v -2.64584 h 1.85209 1.85208 v 10.84792 10.84792 h -2.11667 -2.11666 z m -71.96667,1.5875 v -1.98438 h 2.11667 2.11667 v 1.98438 1.98437 h -2.11667 -2.11667 z m -31.48541,-0.79375 v -1.98438 h 1.984375 1.984375 v 1.98438 1.98437 H 96.212945 94.22857 Z m -54.239581,0.39687 c 0,-0.16933 2.38125,-0.26458 6.614583,-0.26458 4.233333,0 6.614583,0.0952 6.614583,0.26458 0,0.16934 -2.38125,0.26459 -6.614583,0.26459 -4.233333,0 -6.614583,-0.0952 -6.614583,-0.26459 z m 85.724991,-1.98437 c 0,-0.0728 0.0595,-0.13229 0.1323,-0.13229 0.0728,0 0.13229,0.0595 0.13229,0.13229 0,0.0728 -0.0595,0.13229 -0.13229,0.13229 -0.0728,0 -0.1323,-0.0595 -0.1323,-0.13229 z m 0.37414,-0.49303 c -0.0833,-0.21699 -0.11222,-0.67108 -0.0643,-1.00908 0.0722,-0.50938 0.24556,-0.61456 1.01311,-0.61456 0.88195,0 0.92604,0.0441 0.92604,0.92604 0,0.85178 -0.0691,0.9327 -0.86171,1.00909 -0.57787,0.0557 -0.91159,-0.0469 -1.01311,-0.31149 z m 35.6092,-2.41739 c 0,-0.59531 0.10583,-0.66146 1.05833,-0.66146 0.9525,0 1.05833,0.0661 1.05833,0.66146 0,0.59531 -0.10583,0.66146 -1.05833,0.66146 -0.9525,0 -1.05833,-0.0661 -1.05833,-0.66146 z m -52.65208,-13.22916 v -3.83646 h -5.29167 c -4.527315,0 -5.291667,-0.0573 -5.291667,-0.39688 0,-0.30868 -0.352777,-0.39687 -1.5875,-0.39687 h -1.5875 v -4.23334 -4.23333 h 9.657287 9.6573 v 8.46667 8.46666 h -2.77813 -2.77812 z m -33.602086,1.71979 v -1.85209 h 1.719792 1.719791 v 1.85209 1.85208 H 77.162946 75.443154 Z M 60.361905,230.13737 v -1.86417 h 1.864172 1.864172 l -0.07824,1.78594 -0.07823,1.78594 -1.785938,0.0782 -1.785937,0.0782 z m 88.899995,-1.07042 v -1.05833 h 10.84792 10.84791 v 1.05833 1.05833 H 160.10982 149.2619 Z m 0,-31.75 v -1.85208 h 1.85208 1.85209 v 1.85208 1.85209 h -1.85209 -1.85208 z M 66.447321,69.126335 V 67.14196 h 1.984375 1.984375 v 1.984375 1.984374 h -1.984375 -1.984375 z m 93.133329,0.132291 v -1.852083 h 1.98437 1.98438 v 1.852083 1.852083 h -1.98438 -1.98437 z m 4.23333,0 v -1.852083 h 1.05834 1.05833 v 1.852083 1.852083 h -1.05833 -1.05834 z m 21.16667,0 v -1.852083 h 1.05833 1.05834 v 1.852083 1.852083 h -1.05834 -1.05833 z m -14.2875,-0.926041 v -0.926042 h 4.63021 4.63021 v 0.926042 0.926041 h -4.63021 -4.63021 z m -95.249996,-8.73125 v -1.719792 h 3.836458 3.836458 v 1.719792 1.719792 h -3.836458 -3.836458 z"
         id="path4538" />
      <path
         style="fill:#7c807c;stroke-width:0.264583"
         d="m 76.501487,295.47737 c 0,-0.17272 -4.409723,-0.26459 -12.699999,-0.26459 H 51.101489 v -5.82083 -5.82083 h 2.116666 2.116667 v -1.05834 -1.05833 h 1.084974 1.084977 l -0.09279,-1.12448 -0.09279,-1.12448 3.961585,0.08 c 4.303947,0.0869 5.166539,-0.0156 5.166539,-0.61424 0,-0.2155 0.119063,-0.39183 0.264583,-0.39183 0.398722,0 0.335497,-3.10558 -0.06615,-3.24902 -0.192371,-0.0687 -0.232561,-0.21629 -0.09607,-0.35278 0.136494,-0.13649 0.284076,-0.0963 0.35278,0.0961 0.145849,0.40837 4.307353,0.47228 4.307353,0.0661 0,-0.14552 0.176326,-0.26459 0.391835,-0.26459 0.527264,0 0.755282,-1.04246 0.610335,-2.79034 l -0.119666,-1.44299 h 6.173332 6.17333 v 2.24392 c 0,2.1365 0.02985,2.25141 0.623581,2.40042 0.911748,0.22884 8.820191,0.0246 9.078546,-0.23448 0.120862,-0.12119 0.219747,-3.72279 0.219747,-8.00356 v -7.78321 l 2.050521,-9e-5 2.050521,-8e-5 v -2.24896 -2.24896 H 96.47752 c -1.146527,0 -1.984375,-0.11171 -1.984375,-0.26458 0,-0.14552 -0.238125,-0.26459 -0.529167,-0.26459 -0.291041,0 -0.529166,0.11907 -0.529166,0.26459 0,0.15954 -1.099862,0.26458 -2.770423,0.26458 h -2.770425 l -0.07385,-7.80536 -0.07385,-7.80536 5.357813,1.5e-4 5.357812,1.5e-4 v -1.71979 -1.71979 h 5.159381 5.15937 v 3.43958 c 0,2.11667 -0.10176,3.43959 -0.26458,3.43959 -0.17345,0 -0.26458,5.46805 -0.26458,15.875 0,10.40694 0.0911,15.875 0.26458,15.875 0.14552,0 0.26458,0.16585 0.26458,0.36856 0,0.20272 0.18833,0.44084 0.41852,0.52917 0.54624,0.20961 15.55006,0.20961 16.0963,0 0.23018,-0.0883 0.41851,-0.32645 0.41851,-0.52917 0,-0.20271 0.11907,-0.36856 0.26459,-0.36856 0.421,0 0.35557,-13.68174 -0.0662,-13.83236 -0.19237,-0.0687 -0.23256,-0.21628 -0.0961,-0.35278 0.1365,-0.13649 0.28408,-0.0963 0.35278,0.0961 0.081,0.22679 0.77643,0.33073 2.21274,0.33073 h 2.09461 v -2.64583 -2.64583 h -1.05833 -1.05833 v -1.5875 -1.5875 h -1.05834 -1.05833 v -4.10104 -4.10105 h 8.99583 c 6.08159,0 8.99584,0.0896 8.99584,0.27661 0,0.15214 0.29224,0.56886 0.64943,0.92604 0.51943,0.51944 0.91906,0.64944 1.9964,0.64944 1.07734,0 1.47697,-0.13 1.9964,-0.64944 0.64017,-0.64016 0.64943,-0.71565 0.64943,-5.29166 v -4.64224 h 10.46307 10.46307 l 0.64943,-0.64943 c 0.57476,-0.57476 0.64943,-0.87897 0.64943,-2.64583 0,-1.15455 -0.11157,-1.9964 -0.26458,-1.9964 -0.14552,0 -0.26458,-0.41672 -0.26458,-0.92604 v -0.92604 l -10.3849,-0.0508 c -5.71169,-0.028 -10.65279,-0.053 -10.98021,-0.0557 -0.59476,-0.005 -0.59531,-0.009 -0.59531,-4.69004 0,-2.57683 0.0723,-4.87348 0.1606,-5.10366 0.12495,-0.32562 0.5654,-0.41851 1.98437,-0.41851 1.03947,0 1.82378,-0.11379 1.82378,-0.26459 0,-0.15287 -0.83785,-0.26458 -1.98437,-0.26458 h -1.98438 v -8.46667 -8.46666 h 2.24896 2.24896 v -2.09462 c 0,-1.43631 -0.10395,-2.13174 -0.33073,-2.21274 -0.19237,-0.0687 -0.23256,-0.21628 -0.0961,-0.35278 0.13649,-0.13649 0.28407,-0.0963 0.35278,0.0961 0.0749,0.20981 0.64654,0.33073 1.5633,0.33073 1.18162,0 1.56363,-0.11844 2.09462,-0.64943 0.81148,-0.81148 0.81148,-1.06466 0,-1.87613 l -0.64943,-0.64944 h -9.93391 -9.9339 v -1.9964 c 0,-1.76686 -0.0747,-2.07107 -0.64943,-2.64583 l -0.64943,-0.64943 h -6.10947 -6.10947 l -0.64943,0.64943 -0.64943,0.64943 0.004,9.86776 0.004,9.86775 4.75749,4.7625 4.75749,4.7625 0.001,3.24115 0.001,3.24114 h -13.22917 -13.22916 v 0.66146 0.66146 h -5.02709 -5.027084 v 4.49791 4.49792 h 1.5875 1.5875 v 1.98438 1.98437 h -15.875 -15.874999 v -1.71979 -1.71979 H 78.61801 90.788843 v -4.89479 c 0,-3.08681 0.09773,-4.89479 0.264583,-4.89479 0.163367,0 0.264583,-1.37103 0.264583,-3.5839 0,-3.45236 -0.02384,-3.60774 -0.649433,-4.23334 -0.64933,-0.64933 -0.650322,-0.64943 -6.349999,-0.64943 H 78.61792 v -6.7589 -6.7589 l -0.649433,-0.64943 -0.64943,-0.64944 h -6.10947 -6.10947 l -0.64943,0.64944 -0.649433,0.64943 v 12.02851 c 0,9.38344 0.07273,12.0545 0.330729,12.14664 0.192371,0.0687 0.232561,0.21629 0.09607,0.35278 -0.136493,0.13649 -0.284075,0.0963 -0.352779,-0.0961 -0.08099,-0.22678 -0.776425,-0.33073 -2.212734,-0.33073 h -2.094619 v 2.09462 c 0,1.43631 0.103944,2.13174 0.330729,2.21273 0.192371,0.0687 0.232561,0.21629 0.09607,0.35278 -0.136493,0.13649 -0.284075,0.0963 -0.352779,-0.0961 -0.147257,-0.41231 -5.365687,-0.47665 -5.365687,-0.0661 0,0.15875 -1.058333,0.26458 -2.645833,0.26458 -1.5875,0 -2.645833,-0.10583 -2.645833,-0.26458 0,-0.14552 -0.238125,-0.26459 -0.529167,-0.26459 -0.506473,0 -0.529166,0.17639 -0.529166,4.11307 0,4.01419 0.01561,4.12868 0.649433,4.7625 0.533371,0.53337 0.911637,0.64943 2.116666,0.64943 0.806979,0 1.467234,-0.11906 1.467234,-0.26458 0,-0.14552 0.119062,-0.26458 0.264583,-0.26458 0.160354,0 0.264584,1.14652 0.264584,2.91041 0,1.76389 -0.10423,2.91042 -0.264584,2.91042 -0.145521,0 -0.264583,0.23813 -0.264583,0.52917 0,0.5156 0.17639,0.52916 6.879166,0.52916 5.299501,0 6.890983,-0.0759 6.930625,-0.33073 0.0283,-0.1819 0.1176,1.33615 0.198438,3.37344 0.138946,3.50176 0.09561,4.39818 -0.175877,3.63802 -0.08994,-0.25184 -1.600414,-0.33073 -6.332674,-0.33073 -6.824705,0 -6.970511,0.0328 -6.970511,1.5686 v 0.81265 l -6.151563,5e-5 -6.151562,4e-5 v -17.33019 -17.33019 l 6.945312,-6e-5 6.945312,-6e-5 v -17.99167 c 0,-17.81527 -0.0052,-17.99166 -0.529166,-17.99166 -0.291042,0 -0.529167,-0.11907 -0.529167,-0.26459 0,-0.17451 -8.466666,-0.26458 -24.870832,-0.26458 H 3.4764909 v -10.0542 -10.05416 H 21.203573 c 17.550693,0 17.727083,-0.005 17.727083,-0.52917 0,-0.29104 0.119062,-0.52917 0.264583,-0.52917 0.172553,0 0.264583,-4.23333 0.264583,-12.17083 0,-7.9375 -0.09203,-12.17083 -0.264583,-12.17083 -0.169039,0 -0.264583,-2.29306 -0.264583,-6.35 0,-4.05694 0.09554,-6.35 0.264583,-6.35 0.145521,0 0.264583,-0.23812 0.264583,-0.52917 0,-0.51656 -0.176389,-0.52916 -7.408332,-0.52916 H 24.643157 V 101.00862 76.137793 h 6.879166 6.879166 v 5.286626 5.286626 l 0.624848,0.156826 c 0.343665,0.08625 1.028274,0.118287 1.521354,0.07119 0.696122,-0.0665 0.915403,-0.218702 0.981054,-0.680952 0.07564,-0.532623 0.233574,-0.595313 1.499714,-0.595313 1.658972,0 2.252197,-0.181684 2.252197,-0.689766 0,-0.202711 0.119062,-0.368567 0.264583,-0.368567 0.172381,0 0.264583,-4.056944 0.264583,-11.641666 v -11.64167 h 4.211286 c 3.121464,0 4.245818,-0.08559 4.344736,-0.33073 0.0734,-0.181901 0.143102,1.03849 0.154895,2.711979 l 0.02146,3.042709 -1.720347,-0.08872 -1.720347,-0.08872 v 9.547574 9.547576 h 6.35 c 4.056943,0 6.349999,-0.09554 6.349999,-0.264583 0,-0.145521 0.47625,-0.264584 1.058333,-0.264584 0.582084,0 1.058334,0.119063 1.058334,0.264584 0,0.145521 0.238125,0.264583 0.529166,0.264583 0.352777,0 0.529167,-0.17639 0.529167,-0.529167 0,-0.291041 -0.119062,-0.529166 -0.264583,-0.529166 -0.167569,0 -0.264584,-1.940277 -0.264584,-5.291667 v -5.291666 h 12.7 12.699999 v 6.085416 6.085417 h 1.322917 c 0.727604,0 1.322916,0.119062 1.322916,0.264583 0,0.172715 4.409723,0.264583 12.700001,0.264583 h 12.7 v -3.704166 -3.704167 h -4.23334 -4.23333 v -5.820833 -5.820833 h 16.25023 c 8.93763,0 16.43857,-0.07227 16.66875,-0.160599 0.23019,-0.08833 0.41852,-0.326454 0.41852,-0.529167 0,-0.20271 0.11906,-0.368567 0.26458,-0.368567 0.16837,0 0.26458,-2.116667 0.26458,-5.820833 V 54.97113 h 6.87917 6.87917 l 0.0382,5.886979 c 0.021,3.237838 0.008,7.047838 -0.0291,8.466666 l -0.0673,2.579687 h 3.73331 3.73331 v -2.116666 -2.116667 h 1.5875 1.5875 v 1.058334 1.058333 h 5.29167 5.29166 V 68.72946 67.671126 h 2.11667 2.11667 v 2.116667 2.116666 h 1.05833 c 0.58208,0 1.05833,-0.119062 1.05833,-0.264583 0,-0.145521 0.1786,-0.264583 0.39688,-0.264583 0.34977,0 0.39687,2.763424 0.39687,23.283332 v 23.283335 h 10.05417 10.05416 v 22.48958 22.48958 h 15.62805 15.62805 l -0.1392,6.68073 c -0.14721,7.06488 -0.26051,8.13594 -0.86067,8.13594 -0.31361,0 -0.36186,1.02172 -0.29988,6.34997 0.0406,3.49248 0.16316,6.34998 0.2723,6.35 0.10914,1e-5 0.19844,0.11909 0.19844,0.26461 0,0.14552 -0.1786,0.26458 -0.39688,0.26458 -0.21828,0 -0.39687,0.11907 -0.39687,0.26459 0,0.14552 -0.1786,0.26458 -0.39688,0.26458 -0.32612,0 -0.39687,0.46821 -0.39687,2.62643 0,2.29068 0.0592,2.63794 0.46302,2.71647 0.25466,0.0495 -5.46034,0.10193 -12.7,0.11645 l -13.16302,0.0264 v -0.56355 c 0,-0.52806 -0.13334,-0.56356 -2.11667,-0.56356 h -2.11667 v 2.58317 2.58317 h 1.05834 1.05833 v 18.38854 18.38854 h -3.175 c -2.64583,0 -3.175,-0.0661 -3.175,-0.39688 0,-0.22048 -0.23518,-0.39687 -0.52917,-0.39687 -0.29398,0 -0.52916,0.17639 -0.52916,0.39687 0,0.31208 -0.36748,0.39688 -1.71979,0.39688 h -1.7198 v 2.91041 c 0,2.41065 0.0682,2.91042 0.39688,2.91042 0.21828,0 0.39866,0.14883 0.40084,0.33073 0.0145,1.20831 -0.91705,7.87135 -1.10045,7.87135 -0.12455,2e-5 -0.22645,1.66689 -0.22645,3.70418 v 3.70417 h -11.24479 c -7.32014,0 -11.24479,0.0924 -11.24479,0.26458 0,0.14552 -0.47625,0.26459 -1.05833,0.26459 -0.58208,0 -1.05833,-0.11907 -1.05833,-0.26459 0,-0.16576 -1.64089,-0.26458 -4.39348,-0.26458 h -4.39348 l 0.0622,-3.10885 c 0.10432,-5.21495 0.20934,-4.82865 -1.31264,-4.82865 -1.28021,0 -1.3078,0.0171 -1.38906,0.8599 l -0.0829,0.85989 h -8.53297 -8.53298 l 1.6e-4,7.22192 1.7e-4,7.22193 0.64943,0.64943 c 0.62559,0.62559 0.78098,0.64943 4.23333,0.64943 h 3.5839 v 3.70417 c 0,2.29305 0.1008,3.70416 0.26459,3.70416 0.14552,0 0.26458,0.1786 0.26458,0.39688 0,0.21828 -0.11906,0.39687 -0.26458,0.39687 -0.14552,0 -0.26459,-0.17859 -0.26459,-0.39687 0,-0.22049 -0.23518,-0.39688 -0.52916,-0.39688 -0.49977,0 -0.52917,0.17639 -0.52917,3.175 v 3.175 h -1.5875 -1.5875 v 1.5875 c 0,1.41111 -0.0588,1.5875 -0.52917,1.5875 -0.55963,0 -0.77161,0.93342 -0.25136,1.10684 0.15279,0.0509 -4.63947,0.0906 -10.64948,0.0882 l -10.92728,-0.004 -0.0777,-1.91823 -0.0777,-1.91823 h -2.23737 -2.23737 v 1.84704 c 0,1.7814 -0.0251,1.85335 -0.70724,2.02455 -0.38898,0.0976 -4.31804,0.10935 -8.73125,0.0261 l -8.02401,-0.15147 v 2.22795 2.22795 h -2.51354 -2.513537 v 1.98438 1.98437 h -8.576911 c -5.544925,0 -8.608086,0.0945 -8.665103,0.26746 -0.04851,0.14711 -0.05174,-2.23414 -0.0072,-5.29166 l 0.081,-5.55913 h -2.675535 -2.675536 l 0.081,5.55654 c 0.04455,3.05609 0.05123,5.55641 0.01484,5.55625 -0.03637,-1.6e-4 -0.06614,-0.11935 -0.06614,-0.26487 z m 108.834403,-59.5974 c 0.0943,-1.63711 0.17206,-5.6257 0.17272,-8.86354 l 0.001,-5.88698 5.22552,-0.0293 c 2.87403,-0.0161 5.49341,-0.008 5.82083,0.0189 0.4413,0.0358 0.59531,-0.0936 0.59531,-0.49988 0,-0.37171 0.1703,-0.5481 0.52917,-0.5481 0.52556,0 0.52916,-0.17639 0.52916,-25.92917 v -25.9291 h -3.70416 -3.70417 v -2.64583 -2.64584 h 2.91042 c 2.73403,0 2.91041,-0.0321 2.91041,-0.52916 0,-0.29105 0.11907,-0.52917 0.26459,-0.52917 0.17238,0 0.26458,-4.05694 0.26458,-11.64167 0,-7.58472 -0.0922,-11.64166 -0.26458,-11.64166 -0.14552,0 -0.26459,-0.16586 -0.26459,-0.36857 0,-0.20271 -0.18833,-0.44084 -0.41851,-0.52917 -0.23018,-0.0883 -5.11174,-0.16061 -10.84792,-0.16061 h -10.4294 v -2.11666 -2.11667 h 2.11667 2.11667 v -4.7625 -4.7625 h -2.11667 -2.11667 v -18.52083 c 0,-16.598179 -0.0428,-18.520835 -0.41249,-18.520835 -0.22687,0 -0.3389,-0.119062 -0.24897,-0.264583 0.10718,-0.173411 -1.89973,-0.264583 -5.82411,-0.264583 -4.83651,0 -6.06031,-0.07267 -6.36562,-0.377976 -0.25089,-0.250889 -0.37797,-0.962581 -0.37797,-2.116667 v -1.73869 h -2.91042 c -1.76389,0 -2.91042,-0.10423 -2.91042,-0.264584 0,-0.145521 -0.23812,-0.264583 -0.52916,-0.264583 -0.44098,0 -0.52917,0.17639 -0.52917,1.058333 v 1.058333 h 1.32292 1.32291 v 3.675859 c 0,3.107828 -0.0647,3.700677 -0.41851,3.836458 -0.23018,0.08833 -2.16495,0.151199 -4.29948,0.139711 -2.13453,-0.01148 -3.73214,-0.08094 -3.55024,-0.154339 0.24224,-0.09775 0.33073,-1.113759 0.33073,-3.797168 0,-3.597971 0.0107,-3.665233 0.59532,-3.748265 0.42624,-0.06054 0.61908,-0.291184 0.67903,-0.812151 l 0.0837,-0.727604 h -2.68231 c -3.29547,0 -3.43826,-0.103601 -3.43826,-2.494643 v -1.738691 h -6.35 -6.35 v 2.233343 c 0,1.228339 0.11907,2.306928 0.26459,2.396866 0.14552,0.08994 0.26458,0.39462 0.26458,0.677074 0,0.337161 0.18175,0.51355 0.52917,0.51355 0.35277,0 0.52916,0.17639 0.52916,0.529167 0,0.352777 0.17639,0.529167 0.52917,0.529167 0.35278,0 0.52917,0.17639 0.52917,0.529166 0,0.352777 0.17639,0.529167 0.52916,0.529167 0.35278,0 0.52917,0.17639 0.52917,0.529167 0,0.352777 0.17639,0.529166 0.52917,0.529166 0.35277,0 0.52916,0.17639 0.52916,0.529167 0,0.352777 0.17639,0.529167 0.52917,0.529167 0.35278,0 0.52917,0.176389 0.52917,0.529166 0,0.352777 0.17639,0.529167 0.52916,0.529167 0.35278,0 0.52917,0.17639 0.52917,0.529167 0,0.352776 0.17639,0.529166 0.52917,0.529166 0.51446,0 0.52916,0.17639 0.52916,6.35 v 6.349995 h -2.11666 c -1.23473,0 -2.11667,0.11025 -2.11667,0.26459 0,0.1657 -1.6316,0.26458 -4.36562,0.26458 -2.73403,0 -4.36563,0.0989 -4.36563,0.26458 0,0.14553 -0.17859,0.26459 -0.39687,0.26459 -0.33955,0 -0.39688,0.76435 -0.39688,5.29166 0,4.52732 0.0573,5.29167 0.39688,5.29167 0.3259,0 0.40698,0.53225 0.45343,2.97656 l 0.0566,2.97657 0.0844,-2.97657 0.0844,-2.97656 h 4.09237 4.09238 v 7.9375 c 0,6.87917 -0.0529,7.9375 -0.39688,7.9375 -0.22048,0 -0.39687,0.23519 -0.39687,0.52917 0,0.35277 -0.17639,0.52916 -0.52917,0.52916 -0.35278,0 -0.52917,0.17639 -0.52917,0.52917 0,0.35278 -0.17639,0.52917 -0.52916,0.52917 -0.35278,0 -0.52917,0.17639 -0.52917,0.52916 0,0.35278 -0.17639,0.52917 -0.52917,0.52917 -0.35277,0 -0.52916,0.17639 -0.52916,0.52917 0,0.35277 -0.17639,0.52916 -0.52917,0.52916 -0.35278,0 -0.52917,0.17639 -0.52917,0.52917 0,0.35278 -0.17639,0.52917 -0.52916,0.52917 -0.35278,0 -0.52917,0.17639 -0.52917,0.52916 0,0.43855 -0.17639,0.52917 -1.03002,0.52917 -0.67151,0 -1.08304,0.13814 -1.18233,0.39687 -0.19789,0.51572 -0.96265,0.51572 -0.96265,0 0,-0.34332 -0.99954,-0.39687 -7.40833,-0.39687 h -7.40833 v -2.64583 -2.64584 h -2.64584 -2.64583 v 1.5875 1.5875 h -1.05833 -1.05834 v 1.05834 1.05833 h -5.291664 c -4.527314,0 -5.291666,0.0573 -5.291666,0.39687 0,0.21829 -0.119063,0.39688 -0.264583,0.39688 -0.152871,0 -0.264584,-0.83785 -0.264584,-1.98438 0,-1.14652 0.111713,-1.98437 0.264584,-1.98437 0.154339,0 0.264583,-0.88194 0.264583,-2.11667 v -2.11666 h -1.058333 -1.058334 v 2.11666 c 0,1.23473 0.110244,2.11667 0.264584,2.11667 0.167568,0 0.264583,1.94028 0.264583,5.29167 v 5.29166 h -3.439583 -3.439583 v -4.11306 c 0,-4.01419 -0.01561,-4.12869 -0.649433,-4.7625 -0.625594,-0.6256 -0.780982,-0.64944 -4.233334,-0.64944 h -3.5839 v -2.11666 -2.11667 h -3.704166 -3.704167 v 2.11667 c 0,1.23472 0.110244,2.11666 0.264584,2.11666 0.166589,0 0.264583,1.76389 0.264583,4.7625 v 4.7625 H 58.887797 c -8.950475,0 -10.797341,0.0628 -11.112499,0.37798 -0.315741,0.31574 -0.377976,2.23258 -0.377976,11.64166 0,7.33274 0.09234,11.26369 0.264583,11.26369 0.145521,0 0.264584,0.23813 0.264584,0.52917 0,0.3307 0.17639,0.52917 0.470294,0.52917 0.778351,0 1.646372,0.77514 1.646372,1.47021 0,0.47006 0.144386,0.64645 0.529167,0.64645 0.352777,0 0.529167,0.17639 0.529167,0.52917 0,0.35278 0.176389,0.52917 0.529166,0.52917 0.352777,0 0.529167,0.17639 0.529167,0.52916 0,0.35278 0.17639,0.52917 0.529167,0.52917 0.291041,0 0.529166,-0.11906 0.529166,-0.26458 0,-0.16949 2.431648,-0.26459 6.765774,-0.26459 5.510892,0 6.835878,0.0701 7.14375,0.37798 0.305802,0.3058 0.377975,1.54718 0.377975,6.50119 0,6.94018 0.01744,6.87917 -1.965475,6.87917 h -1.209524 v 4.49791 c 0,2.82223 -0.09857,4.49792 -0.264584,4.49792 -0.145521,0 -0.264583,0.23813 -0.264583,0.52917 0,0.51936 0.17639,0.52916 9.524999,0.52916 8.290277,0 9.525,-0.0514 9.525,-0.39687 0,-0.21828 0.119063,-0.39688 0.264583,-0.39688 0.16501,0 0.264584,1.54341 0.264584,4.10104 0,2.55764 -0.09957,4.10105 -0.264584,4.10105 -0.440745,0 -0.336732,4.99273 0.113393,5.44285 0.313113,0.31311 1.959046,0.37796 9.591145,0.37785 l 9.213172,-1.4e-4 -0.0925,2.38139 -0.0925,2.38138 h 2.67216 2.67216 v -2.11667 c 0,-1.23472 -0.11024,-2.11666 -0.26458,-2.11666 -0.14552,0 -0.26458,-0.11907 -0.26458,-0.26459 0,-0.16379 1.41111,-0.26458 3.70416,-0.26458 h 3.70417 v -2.00327 c 0,-1.3834 -0.11696,-2.12024 -0.37798,-2.38125 -0.29299,-0.293 -1.2448,-0.37798 -4.23333,-0.37798 h -3.85536 v -6.87917 -6.87916 h 3.81482 c 2.09815,0 4.00315,-0.0723 4.23333,-0.1606 0.29375,-0.11272 0.41852,-0.50711 0.41852,-1.32292 v -1.16232 h -2.79703 c -2.0713,0 -2.89509,-0.0981 -3.175,-0.37797 -0.30182,-0.30183 -0.37797,-1.42119 -0.37797,-5.55625 0,-3.27579 0.0972,-5.17828 0.26458,-5.17828 0.39297,0 0.32023,-0.7759 -0.11339,-1.20952 -0.55063,-0.55062 -1.20952,-0.46826 -1.20952,0.15119 0,0.46801 -0.17639,0.52917 -1.52632,0.52917 h -1.52632 l -2.63591,2.64583 c -2.425235,2.43438 -3.307287,3.06945 -3.307287,2.38125 0,-0.16035 -1.146527,-0.26458 -2.910417,-0.26458 H 91.84732 v -11.0925 -11.0925 l 3.682881,-0.0862 c 2.025586,-0.0474 3.781758,-0.18516 3.902604,-0.30619 0.120848,-0.12102 0.219723,-1.10302 0.219723,-2.1822 v -1.96216 l 3.571872,0.0203 c 1.96453,0.0111 3.42305,0.0803 3.24115,0.15373 -0.40116,0.16188 -0.46402,3.26437 -0.0661,3.26437 0.16757,0 0.26459,1.94027 0.26459,5.29166 0,3.35139 -0.097,5.29167 -0.26459,5.29167 -0.14552,0 -0.26458,0.47625 -0.26458,1.05833 0,0.83817 0.0979,1.05833 0.47076,1.05833 0.25891,0 0.64238,-0.23812 0.85216,-0.52916 0.29852,-0.41418 0.68492,-0.52917 1.7782,-0.52917 h 1.3968 v -1.05833 -1.05834 h 5.53461 c 3.04403,0 5.69317,-0.04 5.88697,-0.0889 0.19381,-0.0489 0.26308,-0.039 0.15394,0.022 -0.10914,0.061 -0.19844,1.05355 -0.19844,2.20559 v 2.09462 h 2.64583 2.64583 v -2.24896 -2.24896 l 4.29948,-2.6e-4 4.29948,-2.7e-4 -0.0785,4.36598 -0.0785,4.36581 h -6.86683 c -6.69043,0 -6.86682,0.0136 -6.86682,0.52917 0,0.51656 0.17639,0.52916 7.40833,0.52916 h 7.40833 v -2.74726 c 0,-2.52475 0.0429,-2.75848 0.52917,-2.88565 0.4418,-0.11553 0.52917,-0.36089 0.52917,-1.48607 v -1.34768 l 2.97656,-0.004 c 1.63711,-0.002 3.21469,-0.0444 3.50573,-0.0943 0.29104,-0.0499 0.38034,-0.0395 0.19844,0.023 -0.24598,0.0846 -0.33073,1.19354 -0.33073,4.32765 v 4.21391 h 2.64583 2.64583 v -4.23333 c 0,-2.64583 -0.0992,-4.23333 -0.26458,-4.23333 -0.17229,0 -0.26458,-3.96875 -0.26458,-11.37708 v -11.37709 h -1.85209 -1.85208 v -3.175 -3.175 h 7.9375 c 5.11528,0 7.9375,0.0941 7.9375,0.26459 0,0.14552 0.23812,0.26458 0.52917,0.26458 0.52452,0 0.52916,-0.17639 0.52916,-20.10833 0,-19.931946 -0.005,-20.108335 -0.52916,-20.108335 -0.29105,0 -0.52917,0.119062 -0.52917,0.264583 0,0.15875 -1.05833,0.264583 -2.64583,0.264583 -1.5875,0 -2.64584,-0.105833 -2.64584,-0.264583 0,-0.161689 -1.23472,-0.264583 -3.175,-0.264583 h -3.175 v -3.704167 c 0,-2.293056 -0.10079,-3.704166 -0.26458,-3.704166 -0.14552,0 -0.26458,-0.119063 -0.26458,-0.264584 0,-0.164629 1.4993,-0.264583 3.96875,-0.264583 2.46944,0 3.96875,0.09995 3.96875,0.264583 0,0.145521 0.23812,0.264584 0.52916,0.264584 0.29105,0 0.52917,-0.119063 0.52917,-0.264584 0,-0.168211 2.07887,-0.264583 5.70744,-0.264583 4.59367,0 5.7812,0.07376 6.08542,0.377976 0.29521,0.295214 0.37797,1.28008 0.37797,4.497916 0,2.570239 -0.0995,4.119943 -0.26458,4.119943 -0.17394,0 -0.26458,6.52639 -0.26458,19.05 0,12.52361 0.0906,19.05 0.26458,19.05 0.44572,0 0.34024,6.04755 -0.11339,6.50119 -0.30526,0.30525 -1.52703,0.37797 -6.35,0.37797 H 157.464 v 11.21649 c 0,9.98389 0.046,11.23413 0.41852,11.37708 0.23018,0.0883 3.56393,0.1606 7.40833,0.1606 h 6.98982 v 9.54061 c 0,6.29304 -0.0901,9.48496 -0.26458,9.3771 -0.14552,-0.0899 -0.26459,-0.33509 -0.26459,-0.54479 0,-0.26841 -0.31324,-0.38126 -1.05833,-0.38126 h -1.05833 v 1.05834 c 0,0.88194 -0.0882,1.05833 -0.52917,1.05833 -0.35278,0 -0.52917,0.17639 -0.52917,0.52917 0,0.35277 -0.17639,0.52916 -0.52916,0.52916 -0.46884,0 -0.52917,0.17639 -0.52917,1.54707 0,1.34291 0.0786,1.58496 0.59531,1.83418 0.51198,0.24692 0.40087,0.28961 -0.79375,0.30501 l -1.38906,0.0179 v 1.05833 1.05834 h 4.36562 c 2.73403,0 4.36563,0.0989 4.36563,0.26458 0,0.14552 -0.17859,0.26458 -0.39688,0.26458 -0.34175,0 -0.39687,0.88195 -0.39687,6.35 v 6.35 h -4.23333 c -4.05695,0 -4.23334,0.022 -4.23334,0.52917 0,0.29104 0.11907,0.52917 0.26459,0.52917 0.16463,0 0.26458,1.4993 0.26458,3.96875 v 3.96875 h 5.97202 c 4.82298,0 6.04475,0.0727 6.35,0.37797 0.3111,0.3111 0.37798,1.80925 0.37798,8.46667 v 8.08869 h 0.68036 c 1.13003,0 1.43631,0.56016 1.43631,2.62693 v 1.87098 h 2.20853 2.20853 z m -4.32399,1.01383 c 0,-2.43879 0.0672,-2.53518 1.767,-2.53518 1.92249,0 2.20175,0.31641 2.20175,2.49464 v 1.73869 h -1.98438 -1.98437 z m -78.05208,-25.79647 c 0,-1.01297 -0.11672,-1.60713 -0.33073,-1.68356 -0.19237,-0.0687 -0.23256,-0.21629 -0.0961,-0.35278 0.13649,-0.13649 0.28408,-0.0963 0.35278,0.0961 0.12903,0.36129 3.12107,0.48066 3.3159,0.13229 0.061,-0.10914 0.071,-0.0399 0.022,0.15393 -0.0489,0.1938 -0.0889,0.99747 -0.0889,1.78594 v 1.43357 h -1.5875 -1.5875 v -1.56546 z m 65.77726,-18.43223 c -0.0883,-0.23018 -0.1606,-0.82549 -0.1606,-1.32291 0,-0.72801 0.10321,-0.9044 0.52917,-0.9044 0.35278,0 0.52917,-0.17639 0.52917,-0.52917 0,-0.42596 0.17639,-0.52917 0.9044,-0.52917 1.54416,0 1.74143,0.18519 1.74143,1.63471 0,0.7856 -0.15191,1.46542 -0.37798,1.69148 -0.5417,0.54171 -2.95401,0.51082 -3.16559,-0.0405 z m 3.27899,0.28623 c 0,-0.0728 0.0595,-0.13229 0.13229,-0.13229 0.0728,0 0.13229,0.0595 0.13229,0.13229 0,0.0728 -0.0595,0.13229 -0.13229,0.13229 -0.0728,0 -0.13229,-0.0595 -0.13229,-0.13229 z m 0.0209,-3.9908 c 0.0127,-0.30823 0.0754,-0.37092 0.15985,-0.15985 0.0764,0.19099 0.067,0.4192 -0.0209,0.50712 -0.0879,0.0879 -0.15046,-0.0684 -0.13897,-0.34727 z m -1.34379,-1.18698 c 0,-0.41588 0.14251,-0.52723 0.59261,-0.46302 0.87941,0.12547 0.9567,1.01059 0.0882,1.01059 -0.5121,0 -0.68086,-0.13572 -0.68086,-0.54757 z m -25.4,-15.83402 v -3.68159 l 1.65365,-0.0887 1.65364,-0.0887 -0.0797,3.77031 -0.0797,3.77031 h -1.5739 -1.57391 z m -8.37847,-1.52188 c 0.097,-0.097 0.25576,-0.097 0.35278,0 0.097,0.097 0.0176,0.17639 -0.17639,0.17639 -0.19403,0 -0.2734,-0.0794 -0.17639,-0.17639 z m -13.84653,-1.6757 v -1.5875 h 1.5875 1.5875 v 1.5875 1.5875 h -1.5875 -1.5875 z m 13.75833,0 c 0,-0.14552 0.11907,-0.26458 0.26459,-0.26458 0.14552,0 0.26458,0.11906 0.26458,0.26458 0,0.14553 -0.11906,0.26459 -0.26458,0.26459 -0.14552,0 -0.26459,-0.11906 -0.26459,-0.26459 z M 84.968154,149.42737 c 0,-2.82222 -0.09857,-4.49791 -0.264584,-4.49791 -0.145521,0 -0.264583,-0.1786 -0.264583,-0.39688 0,-0.33242 0.558564,-0.39687 3.439583,-0.39687 2.881019,0 3.439583,0.0645 3.439583,0.39687 0,0.33624 0.646758,0.39688 4.233333,0.39688 h 4.233334 v 1.05833 1.05833 h 3.175 3.175 v 3.175 c 0,1.94028 0.10289,3.175 0.26458,3.175 0.14552,0 0.26459,0.11906 0.26459,0.26459 0,0.17208 -3.79236,0.26458 -10.84792,0.26458 H 84.968154 Z m 17.991666,-3.96875 c 0,-0.47037 0.17639,-0.52916 1.5875,-0.52916 1.41111,0 1.5875,0.0588 1.5875,0.52916 0,0.47037 -0.17639,0.52917 -1.5875,0.52917 -1.41111,0 -1.5875,-0.0588 -1.5875,-0.52917 z m 2.11667,-9.525 c 0,-0.35277 0.17639,-0.52916 0.52916,-0.52916 0.35278,0 0.52917,0.17639 0.52917,0.52916 0,0.35278 -0.17639,0.52917 -0.52917,0.52917 -0.35277,0 -0.52916,-0.17639 -0.52916,-0.52917 z m 2.11666,-1.5875 v -2.11666 h 1.5875 1.5875 v 2.11666 2.11667 h -1.5875 -1.5875 z m -37.085231,-1.52135 0.08872,-1.65365 h 1.564925 1.564923 v 1.56493 1.56492 l -1.653645,0.0887 -1.653646,0.0887 z m 4.276902,-0.0661 c 0,-1.41111 0.0588,-1.5875 0.529166,-1.5875 0.470371,0 0.529167,0.17639 0.529167,1.5875 0,1.41111 -0.0588,1.5875 -0.529167,1.5875 -0.470371,0 -0.529166,-0.17639 -0.529166,-1.5875 z m 100.541659,-2.11666 v -1.5875 h 1.5875 1.5875 v 1.5875 1.5875 h -1.5875 -1.5875 z m 0,-4.23334 v -1.5875 h 1.5875 1.5875 v 1.5875 1.5875 h -1.5875 -1.5875 z M 53.218155,125.35029 v -13.22917 h 7.408333 c 6.55846,0 7.408333,-0.0477 7.408333,-0.41577 0,-0.77223 -0.715219,-1.17173 -2.097767,-1.17173 h -1.341816 l 0.0013,-0.99218 c 7.94e-4,-0.54571 0.0779,-2.14783 0.171437,-3.56028 l 0.170066,-2.56809 17.687937,-0.004 17.687942,-0.004 v 1.71238 1.71237 H 89.466025 c -10.671526,0 -10.847916,0.009 -10.847916,0.52917 0,0.35277 -0.17639,0.52916 -0.529167,0.52916 -0.291041,0 -0.529166,0.16586 -0.529166,0.36857 4.5e-5,0.48836 -0.585677,0.68976 -2.005971,0.68976 -0.783071,0 -1.168984,0.11361 -1.168984,0.34413 0,0.48676 -0.622284,1.76801 -0.859896,1.77048 -0.109141,0.001 -0.198438,0.24019 -0.198438,0.53123 0,0.48507 0.17639,0.52916 2.116667,0.52916 1.705091,0 2.116667,-0.0772 2.116667,-0.39687 0,-0.21828 0.119062,-0.39688 0.264583,-0.39688 0.145521,0 0.264583,0.59226 0.264583,1.31613 0,1.19475 0.0732,1.35397 0.79375,1.72658 0.436563,0.22576 0.79375,0.52647 0.79375,0.66826 0,0.14178 0.297656,0.25778 0.661458,0.25778 0.363803,0 0.882351,0.2209 1.152332,0.49088 0.269978,0.26998 0.797436,0.56781 1.172123,0.66185 0.374687,0.094 0.839584,0.32932 1.033103,0.52284 0.193516,0.19351 0.669766,0.43164 1.058333,0.52916 0.388564,0.0975 0.863634,0.33263 1.055711,0.52246 0.192077,0.18982 0.557591,0.42403 0.812252,0.52046 0.254662,0.0964 0.463021,0.35766 0.463021,0.58051 0,0.28868 0.273373,0.40518 0.950812,0.40518 0.708155,0 0.984017,0.12698 1.080923,0.49754 0.101508,0.38817 0.474158,0.53648 1.695022,0.6746 1.109445,0.12552 1.56491,0.28874 1.56491,0.56079 0,0.21105 0.238125,0.38373 0.529166,0.38373 0.352777,0 0.529167,-0.17639 0.529167,-0.52916 0,-0.29104 -0.119063,-0.52917 -0.264583,-0.52917 -0.146992,0 -0.264584,-0.70556 -0.264584,-1.5875 v -1.5875 h 3.96875 c 3.306597,0 3.968747,-0.0646 3.968747,-0.38705 0,-0.28271 0.57057,-0.0985 2.11667,0.68351 1.16417,0.5888 2.11667,1.23922 2.11667,1.44538 0,0.25385 0.30688,0.37483 0.95081,0.37483 0.7283,0 0.98319,0.12384 1.08919,0.52916 0.13306,0.50883 0.3609,0.52917 5.92835,0.52917 h 5.78998 v -8.35327 c 0,-8.76123 -0.0448,-9.10923 -1.17173,-9.10923 -0.35817,0 -0.41577,-0.51313 -0.41577,-3.704165 v -3.704167 h -3.175 c -2.99861,0 -3.175,-0.0294 -3.175,-0.529166 0,-0.511527 -0.17639,-0.529167 -5.29167,-0.529167 h -5.29166 v 4.233333 4.233332 H 92.111903 83.90982 v -2.38125 -2.381249 h -2.645833 -2.645833 v 2.381249 2.38125 h -6.865339 -6.86534 l -0.07997,-1.38906 -0.07997,-1.38906 -5.754688,-0.0713 -5.754687,-0.0713 v -0.888575 c 0,-0.761006 -0.243239,-1.102125 -1.694307,-2.376091 -1.683154,-1.477727 -1.70553,-1.487519 -3.398938,-1.487519 -0.937545,0 -2.783001,-0.07654 -4.101015,-0.170101 -2.372984,-0.168439 -2.39786,-0.17748 -2.547572,-0.926041 C 41.33675,93.658717 41.233192,93.600662 40.1279,93.600662 h -1.197239 v 6.501188 c 0,5.28159 -0.07091,6.5721 -0.377976,6.87917 -0.271608,0.27161 -1.048395,0.37797 -2.760295,0.37797 -2.149948,0 -2.398701,0.0516 -2.550271,0.52917 -0.09237,0.29104 -0.09237,0.76729 0,1.05833 0.159491,0.50251 0.400323,0.52917 4.780331,0.52917 2.898528,0 4.612377,0.0983 4.612377,0.26458 0,0.15679 0.97014,0.26459 2.38125,0.26459 h 2.38125 v 14.02291 14.02292 h 2.38125 c 1.41111,0 2.38125,0.10779 2.38125,0.26458 0,0.14552 0.238125,0.26459 0.529167,0.26459 0.52211,0 0.529166,-0.17639 0.529166,-13.22917 z m 26.458332,-24.07708 v -1.852085 h 1.5875 1.5875 v 1.852085 1.85208 h -1.5875 -1.5875 z m 31.551563,1.45631 c -0.22548,-0.2561 -0.33073,-1.38961 -0.33073,-3.561811 v -3.186167 h 3.04271 3.04271 v 3.571874 3.571874 l -2.71198,-0.0101 c -2.00084,-0.007 -2.79871,-0.10857 -3.04271,-0.38571 z M 77.030654,295.47737 c 0,-0.14553 0.119062,-0.26459 0.264583,-0.26459 0.16659,0 0.264584,-1.76389 0.264584,-4.7625 v -4.7625 h 1.5875 1.587499 v 4.74045 c 0,3.55298 0.08285,4.77004 0.33073,4.85857 0.19237,0.0687 0.23256,0.21629 0.09607,0.35278 -0.136493,0.13649 -0.284075,0.0963 -0.35278,-0.0961 -0.143444,-0.40164 -3.249019,-0.46487 -3.249019,-0.0661 0,0.14552 -0.119063,0.26458 -0.264584,0.26458 -0.145521,0 -0.264583,-0.11906 -0.264583,-0.26458 z m 26.987496,0 c 0,-0.15679 -0.97014,-0.26459 -2.38125,-0.26459 h -2.381247 v -1.85208 -1.85208 h 2.381247 2.38125 v 1.85208 c 0,1.05833 0.1134,1.85208 0.26459,1.85208 0.14552,0 0.26458,0.11906 0.26458,0.26459 0,0.14552 -0.11906,0.26458 -0.26458,0.26458 -0.14552,0 -0.26459,-0.11906 -0.26459,-0.26458 z m 0.96941,-0.22008 c 0.0489,-0.1938 0.0889,-0.99748 0.0889,-1.78594 v -1.43357 h 1.56545 c 1.01297,0 1.60714,-0.11672 1.68357,-0.33073 0.0687,-0.19237 0.21628,-0.23256 0.35278,-0.0961 0.13649,0.1365 0.0963,0.28408 -0.0961,0.35278 -0.214,0.0764 -0.33072,0.67059 -0.33072,1.68357 v 1.56545 h -1.56546 c -0.86099,0 -1.61539,0.0893 -1.67642,0.19844 -0.061,0.10914 -0.071,0.0399 -0.022,-0.15393 z m 1.74257,-4.20916 -1.65364,-0.0939 v -1.57488 -1.57487 h 1.56545 c 1.01297,0 1.60714,-0.11672 1.68357,-0.33073 0.0687,-0.19237 0.21628,-0.23256 0.35278,-0.0961 0.13649,0.13649 0.0963,0.28407 -0.0961,0.35278 -0.21328,0.0762 -0.33072,0.66618 -0.33072,1.66152 0,0.98716 0.11919,1.5915 0.33072,1.67685 0.18191,0.0734 0.21167,0.11992 0.0661,0.10336 -0.14552,-0.0165 -1.00872,-0.0724 -1.91823,-0.12403 z m 15.19149,-4.21382 c -0.097,-0.097 -0.17638,-0.93045 -0.17638,-1.85208 v -1.6757 h 1.98437 1.98437 v 1.69149 c 0,1.29833 -0.0973,1.72881 -0.41851,1.85208 -0.56511,0.21685 -3.15332,0.20474 -3.37385,-0.0158 z m 26.81111,0.0441 c 0,-0.0728 0.0595,-0.13229 0.1323,-0.13229 0.0728,0 0.13229,0.0595 0.13229,0.13229 0,0.0728 -0.0595,0.13229 -0.13229,0.13229 -0.0728,0 -0.1323,-0.0595 -0.1323,-0.13229 z m 0.75018,-1.65365 0.0887,-1.65364 h 1.54288 c 0.99492,0 1.58483,-0.11746 1.66099,-0.33073 0.0687,-0.19237 0.21629,-0.23256 0.35278,-0.0961 0.13649,0.13649 0.0963,0.28407 -0.0961,0.35278 -0.21327,0.0762 -0.33073,0.66607 -0.33073,1.66099 v 1.54287 l -1.65364,0.0887 -1.65365,0.0887 z m 3.30677,-2.62378 c 0.097,-0.097 0.25576,-0.097 0.35278,0 0.097,0.097 0.0176,0.17639 -0.17639,0.17639 -0.19403,0 -0.2734,-0.0794 -0.17639,-0.17639 z M 51.101489,280.94786 v -1.56493 l 1.653645,-0.0887 1.653646,-0.0887 -0.08872,1.65365 -0.08872,1.65364 h -1.564925 -1.564923 z m 4.233333,-1.08091 c 0,-0.35278 0.176389,-0.52917 0.529166,-0.52917 0.352777,0 0.529167,0.17639 0.529167,0.52917 0,0.35278 -0.17639,0.52917 -0.529167,0.52917 -0.352777,0 -0.529166,-0.17639 -0.529166,-0.52917 z m 25.135415,-15.875 v -1.85208 h 1.984375 1.984375 v 1.85208 1.85208 h -1.984375 -1.984375 z m 68.527083,-7.40833 v -3.175 h 6.08541 c 3.88056,0 6.08542,0.0959 6.08542,0.26458 0,0.14552 0.59531,0.26458 1.32292,0.26458 h 1.32291 v 2.64584 2.64583 h -7.14375 c -4.58611,0 -7.14375,0.0947 -7.14375,0.26458 0,0.14552 -0.11906,0.26459 -0.26458,0.26459 -0.16169,0 -0.26458,-1.23473 -0.26458,-3.175 z m -22.95261,2.71271 c 0.34838,-0.19483 0.22901,-3.18686 -0.13229,-3.3159 -0.19237,-0.0687 -0.23256,-0.21629 -0.0961,-0.35278 0.1365,-0.13649 0.28408,-0.0963 0.35278,0.0961 0.0764,0.21401 0.67059,0.33073 1.68357,0.33073 h 1.56545 v 1.5875 1.5875 h -1.43357 c -0.78846,0 -1.59213,0.04 -1.78593,0.0889 -0.19381,0.0489 -0.26308,0.039 -0.15394,-0.022 z m 71.63594,-3.63875 c 0,-1.96454 0.0953,-3.57188 0.21186,-3.57188 0.19408,0 1.11821,-6.75403 1.11321,-8.13594 -0.001,-0.35182 -0.16448,-0.59531 -0.39903,-0.59531 -0.32632,0 -0.39688,-0.47037 -0.39688,-2.64583 v -2.64584 h 1.5875 1.5875 v 10.58334 10.58333 h -1.85208 -1.85208 z m -103.348096,2.62419 c 0.08833,-0.23018 0.160599,-1.12315 0.160599,-1.98438 v -1.56586 h 1.852083 1.852084 v 1.98438 1.98437 h -2.012683 c -1.726602,0 -1.989854,-0.0595 -1.852083,-0.41851 z m -54.343565,-1.16899 c 0,-0.16933 2.38125,-0.26458 6.614583,-0.26458 4.233333,0 6.614583,0.0952 6.614583,0.26458 0,0.16934 -2.38125,0.26459 -6.614583,0.26459 -4.233333,0 -6.614583,-0.0952 -6.614583,-0.26459 z m 85.724991,-1.98437 c 0,-0.0728 0.0595,-0.13229 0.1323,-0.13229 0.0728,0 0.13229,0.0595 0.13229,0.13229 0,0.0728 -0.0595,0.13229 -0.13229,0.13229 -0.0728,0 -0.1323,-0.0595 -0.1323,-0.13229 z m 0.36765,-0.50992 c -0.2936,-0.76512 0.0165,-1.60494 0.62454,-1.6913 0.53369,-0.0758 0.59531,0.0269 0.59531,0.99219 0,0.90589 -0.0853,1.07674 -0.53746,1.07674 -0.29562,0 -0.60269,-0.16994 -0.68239,-0.37763 z m 35.61569,-2.4005 c 0,-0.59531 0.10583,-0.66146 1.05833,-0.66146 0.9525,0 1.05833,0.0661 1.05833,0.66146 0,0.59531 -0.10583,0.66146 -1.05833,0.66146 -0.9525,0 -1.05833,-0.0661 -1.05833,-0.66146 z M 75.443154,240.70862 v -1.85209 h 1.719792 1.719791 v 1.85209 1.85208 h -1.719791 -1.719792 z m 33.602086,-1.98438 v -3.57187 h -5.29167 c -4.527315,0 -5.291667,-0.0573 -5.291667,-0.39688 0,-0.30868 -0.352777,-0.39687 -1.5875,-0.39687 h -1.5875 v -4.23334 -4.23333 h 4.894787 c 3.08681,0 4.8948,0.0977 4.8948,0.26459 0,0.16658 1.76389,0.26458 4.7625,0.26458 h 4.7625 v 7.9375 7.9375 h -2.77813 -2.77812 z m -48.463279,-8.43393 0.08776,-1.70929 1.709288,-0.0878 1.709288,-0.0878 -0.07726,1.71979 -0.07726,1.7198 -1.719792,0.0773 -1.719792,0.0773 z m 88.721719,-1.22336 c 0,-0.65484 0.06,-1.0418 0.13345,-0.85989 0.15815,0.39192 1.14769,0.44895 1.14769,0.0661 0,-0.17181 3.57187,-0.26458 10.18645,-0.26458 h 10.18646 v 0.79375 0.79375 h -2.77812 c -1.6757,0 -2.77813,0.10499 -2.77813,0.26458 0,0.16837 -2.11666,0.26458 -5.82083,0.26458 -3.70417,0 -5.82083,-0.0962 -5.82083,-0.26458 0,-0.4055 -4.15805,-0.34187 -4.32269,0.0661 -0.0734,0.1819 -0.13345,-0.20505 -0.13345,-0.8599 z m 0.2228,-31.71692 c 0,-1.5293 0.0134,-1.55711 0.82683,-1.7198 0.45475,-0.091 1.19889,-0.16561 1.65364,-0.16592 l 0.82683,-5.2e-4 -0.0887,1.72034 -0.0887,1.72035 h -1.56492 -1.56493 v -1.55443 z M 66.447321,69.126335 V 67.14196 h 1.984375 1.984375 v 1.984375 1.984374 h -1.984375 -1.984375 z m 119.657809,1.79765 c -0.53755,-0.103537 -0.59531,-0.266912 -0.59531,-1.683761 0,-1.392708 0.0595,-1.569098 0.52916,-1.569098 0.46954,0 0.52917,0.17639 0.52917,1.565452 0,1.004798 0.11845,1.613247 0.33073,1.698903 0.38634,0.155895 0.05,0.151024 -0.79375,-0.01148 z m -25.99531,-1.643311 c 0,-0.860997 -0.0893,-1.61539 -0.19844,-1.676426 -0.10914,-0.06104 -0.0399,-0.07096 0.15393,-0.02204 0.1938,0.04891 0.99747,0.08893 1.78594,0.08893 h 1.43357 v 1.5875 1.5875 h -1.5875 -1.5875 v -1.565452 z m 4.23333,-0.02205 c 0,-1.41111 0.0588,-1.5875 0.52917,-1.5875 0.47037,0 0.52916,0.17639 0.52916,1.5875 0,1.41111 -0.0588,1.5875 -0.52916,1.5875 -0.47037,0 -0.52917,-0.17639 -0.52917,-1.5875 z m 6.35,-1.058333 c 0,-0.507119 0.17639,-0.529167 4.23333,-0.529167 4.05695,0 4.23334,0.02204 4.23334,0.529167 0,0.507119 -0.17639,0.529167 -4.23334,0.529167 -4.05694,0 -4.23333,-0.02204 -4.23333,-0.529167 z M 75.443154,59.601335 v -1.719792 h 3.836458 3.836458 v 1.719792 1.719792 h -3.836458 -3.836458 z"
         id="path4536" />
      <path
         style="fill:#7c7d7c;stroke-width:0.264583"
         d="m 54.276488,279.20549 c 0,-0.0728 0.05953,-0.13229 0.132292,-0.13229 0.07276,0 0.132292,0.0595 0.132292,0.13229 0,0.0728 -0.05953,0.13229 -0.132292,0.13229 -0.07276,0 -0.132292,-0.0595 -0.132292,-0.13229 z m 2.910417,0 c 0,-0.0728 0.05953,-0.13229 0.132292,-0.13229 0.07276,0 0.132291,0.0595 0.132291,0.13229 0,0.0728 -0.05953,0.13229 -0.132291,0.13229 -0.07276,0 -0.132292,-0.0595 -0.132292,-0.13229 z m 9.260416,-4.36562 c 0,-0.14552 0.119063,-0.26459 0.264583,-0.26459 0.145521,0 0.264584,0.11907 0.264584,0.26459 0,0.14552 -0.119063,0.26458 -0.264584,0.26458 -0.14552,0 -0.264583,-0.11906 -0.264583,-0.26458 z M 197.20976,254.5331 c -0.054,-4.47156 -0.0235,-4.82865 0.41174,-4.82865 0.38877,0 0.45256,0.18291 0.36908,1.05833 -0.0555,0.58209 -0.20422,1.05834 -0.33046,1.05834 -0.12624,0 -0.2661,1.69664 -0.3108,3.77031 -0.0803,3.72578 -0.082,3.71328 -0.13956,-1.05833 z m 0.47089,1.12448 c 0,-2.20486 0.10126,-3.57188 0.26458,-3.57188 0.16332,0 0.26458,1.36702 0.26458,3.57188 0,2.20486 -0.10126,3.57187 -0.26458,3.57187 -0.16332,0 -0.26458,-1.36701 -0.26458,-3.57187 z m -157.603467,1.5434 c 0.09701,-0.097 0.255764,-0.097 0.352779,0 0.09701,0.097 0.01764,0.17639 -0.17639,0.17639 -0.194026,0 -0.273401,-0.0794 -0.176389,-0.17639 z m 85.962767,-3.2632 c 0,-0.50932 0.0544,-0.71768 0.121,-0.46302 0.0666,0.25466 0.0666,0.67138 0,0.92604 -0.0666,0.25467 -0.121,0.0463 -0.121,-0.46302 z m -38.035187,-7.2098 0.0061,-7.73915 5.22552,-0.0717 5.225521,-0.0717 v -1.7142 -1.7142 h 5.159376 5.15937 v 3.43958 c 0,2.11667 -0.10176,3.43959 -0.26458,3.43959 -0.16169,0 -0.26458,-1.23473 -0.26458,-3.175 v -3.175 h -4.7625 -4.762503 v 1.5875 1.5875 h -5.287671 -5.287669 l -0.07624,7.67301 -0.07624,7.67301 0.0061,-7.73916 z M 198.2596,250.3028 c 0.13282,-0.6897 1.00855,-0.76662 1.00855,-0.0886 0,0.37864 -0.16993,0.54856 -0.54857,0.54856 -0.37864,0 -0.52113,-0.14248 -0.45998,-0.45998 z m 0.11698,-2.252 c -0.0877,-0.32742 -0.16117,-1.27992 -0.16315,-2.11666 -0.003,-1.34376 -0.0654,-1.52136 -0.53278,-1.52136 -0.50397,0 -0.52917,-0.17639 -0.52917,-3.70416 v -3.70417 h 2.11667 c 1.70509,0 2.11666,0.0772 2.11666,0.39688 0,0.31207 -0.36747,0.39687 -1.71979,0.39687 h -1.71979 v 2.91042 c 0,2.46731 0.0632,2.91041 0.41506,2.91041 0.35415,0 0.39568,0.32032 0.28303,2.18282 l -0.13203,2.18281 0.34359,-2.38125 0.34359,-2.38125 0.0348,2.71198 c 0.0276,2.14943 -0.0411,2.71198 -0.33118,2.71198 -0.20131,0 -0.43781,-0.26789 -0.52555,-0.59532 z M 65.918155,247.3232 c 0,-0.19403 0.07937,-0.2734 0.176389,-0.17639 0.09701,0.097 0.09701,0.25577 0,0.35278 -0.09701,0.097 -0.176389,0.0176 -0.176389,-0.17639 z m 43.127085,-8.59896 v -3.57187 h -5.29167 c -4.527315,0 -5.291667,-0.0573 -5.291667,-0.39688 0,-0.30868 -0.352777,-0.39687 -1.5875,-0.39687 h -1.5875 v -4.23334 -4.23333 h 4.894787 c 3.08681,0 4.8948,0.0977 4.8948,0.26459 0,0.16658 -1.76389,0.26458 -4.7625,0.26458 h -4.762504 v 3.70416 3.70417 h 1.5875 c 1.41111,0 1.5875,0.0588 1.5875,0.52917 0,0.51152 0.17639,0.52916 5.291664,0.52916 h 5.29167 v 3.70417 c 0,2.03729 -0.0595,3.70417 -0.13229,3.70417 -0.0728,0 -0.13229,-1.60735 -0.13229,-3.57188 z m -32.880382,0.20592 c 0.469696,-0.0584 1.303134,-0.0594 1.852083,-0.002 0.548947,0.0573 0.16465,0.1051 -0.853995,0.10628 -1.018646,0.001 -1.467787,-0.0457 -0.998088,-0.10414 z m -9.717537,-0.60279 c 0,-0.17187 3.615973,-0.26459 10.31875,-0.26459 6.702776,0 10.318749,0.0927 10.318749,0.26459 0,0.17186 -3.615973,0.26458 -10.318749,0.26458 -6.702777,0 -10.31875,-0.0927 -10.31875,-0.26458 z m 21.695832,0 c 0,-0.16659 1.76389,-0.26459 4.7625,-0.26459 h 4.7625 v -1.5875 -1.5875 h -1.5875 -1.5875 v -4.7625 -4.76249 l 5.357812,0.0601 5.357815,0.0601 -5.09323,0.0779 -5.09323,0.0779 v 4.4922 4.4922 h 1.5875 1.5875 v 1.98438 1.98437 h -5.027083 c -3.175,0 -5.027084,-0.0975 -5.027084,-0.26458 z m -26.007617,-6.53842 1.64134,-0.10078 0.09734,-1.50904 0.09734,-1.50905 -0.01889,1.5875 -0.01889,1.5875 -1.719792,0.0223 -1.719791,0.0223 1.64134,-0.10077 z m 108.557614,-2.722 c 0,-0.51988 -0.17639,-0.52916 -10.05417,-0.52916 -6.52639,0 -10.05416,-0.0928 -10.05416,-0.26459 0,-0.17181 3.57187,-0.26458 10.18645,-0.26458 h 10.18646 v 0.79375 c 0,0.43656 -0.0595,0.79375 -0.13229,0.79375 -0.0728,0 -0.13229,-0.23813 -0.13229,-0.52917 z m 0.52917,-0.3938 v -0.92297 l -10.3849,-0.0724 -10.38489,-0.0724 10.64947,-0.063 10.64948,-0.063 v 1.05834 c 0,0.58208 -0.11906,1.05833 -0.26458,1.05833 -0.14552,0 -0.26458,-0.41534 -0.26458,-0.92297 z m -40.74584,-11.24786 c 0,-0.35278 -0.17639,-0.52917 -0.52916,-0.52917 -0.35278,0 -0.52917,-0.17639 -0.52917,-0.52917 0,-0.35277 -0.17639,-0.52916 -0.52917,-0.52916 -0.35277,0 -0.52916,-0.17639 -0.52916,-0.52917 0,-0.35278 -0.17639,-0.52917 -0.52917,-0.52917 -0.35278,0 -0.52917,-0.17639 -0.52917,-0.52916 0,-0.35278 -0.17638,-0.52917 -0.52916,-0.52917 -0.37106,0 -0.52917,-0.17639 -0.52917,-0.59035 0,-0.47437 0.51979,-0.0725 2.64583,2.04556 1.45521,1.44974 2.64584,2.6679 2.64584,2.70701 0,0.0391 -0.23813,0.0711 -0.52917,0.0711 -0.35278,0 -0.52917,-0.17639 -0.52917,-0.52916 z m -47.624993,-8.46667 c 0,-0.62667 0.167627,-0.66392 0.680358,-0.15119 0.512728,0.51273 0.475477,0.68036 -0.151191,0.68036 -0.352777,0 -0.529167,-0.17639 -0.529167,-0.52917 z m 39.158333,0 c 0,-0.29104 0.0904,-0.52917 0.20094,-0.52917 0.11051,0 0.34965,0.23813 0.53141,0.52917 0.28928,0.46321 0.26423,0.52917 -0.20094,0.52917 -0.35502,0 -0.53141,-0.17565 -0.53141,-0.52917 z m -8.13594,-4.09994 c -0.4582,-0.52043 -0.41564,-0.66256 0.19844,-0.66256 0.35278,0 0.52917,0.17639 0.52917,0.52917 0,0.61599 -0.26064,0.66377 -0.72761,0.13339 z m 37.17396,-9.31595 c 0.32742,-0.0631 0.8632,-0.0631 1.19062,0 0.32742,0.0631 0.0595,0.11466 -0.59531,0.11466 -0.65484,0 -0.92273,-0.0516 -0.59531,-0.11466 z M 99.78482,179.32529 c 0,-0.35278 0.176389,-0.52917 0.52917,-0.52917 0.35277,0 0.52916,-0.17639 0.52916,-0.52917 0,-0.35277 0.17639,-0.52916 0.52917,-0.52916 0.35278,0 0.52917,-0.17639 0.52917,-0.52917 0,-0.37016 0.17639,-0.52917 0.58703,-0.52917 0.49699,0 0.34609,0.24348 -0.98391,1.5875 -0.86401,0.87313 -1.604427,1.5875 -1.645363,1.5875 -0.04093,0 -0.07443,-0.23812 -0.07443,-0.52916 z m 37.04166,-8.03894 c 0,-0.0558 0.23813,-0.1637 0.52917,-0.23981 0.29104,-0.0761 0.52917,-0.0305 0.52917,0.10143 0,0.1319 -0.23813,0.23982 -0.52917,0.23982 -0.29104,0 -0.52917,-0.0456 -0.52917,-0.10144 z m 0.0882,-0.8687 c 0.097,-0.097 0.25576,-0.097 0.35278,0 0.097,0.097 0.0176,0.17639 -0.17639,0.17639 -0.19403,0 -0.2734,-0.0794 -0.17639,-0.17639 z m -0.0882,-1.6757 c 0,-0.14552 0.11907,-0.26458 0.26459,-0.26458 0.14552,0 0.26458,0.11906 0.26458,0.26458 0,0.14553 -0.11906,0.26459 -0.26458,0.26459 -0.14552,0 -0.26459,-0.11906 -0.26459,-0.26459 z m 101.69245,-3.70416 c 0,-1.23693 0.0456,-1.74294 0.10128,-1.12448 0.0557,0.61846 0.0557,1.63049 0,2.24896 -0.0557,0.61846 -0.10128,0.11245 -0.10128,-1.12448 z M 46.868155,144.40029 c 0,-0.35278 0.17639,-0.52917 0.529167,-0.52917 0.626668,0 0.663919,0.16763 0.151191,0.68036 -0.512731,0.51273 -0.680358,0.47548 -0.680358,-0.15119 z m 35.983332,-27.38437 c 0,-0.44531 0.04846,-0.46321 0.639818,-0.23628 0.591185,0.22686 0.520181,0.63315 -0.110651,0.63315 -0.293982,0 -0.529167,-0.17639 -0.529167,-0.39687 z m -2.116667,-1.19994 c 0,-0.45649 0.08057,-0.49535 0.529167,-0.25527 0.291042,0.15576 0.529167,0.39807 0.529167,0.53847 0,0.1404 -0.238125,0.25528 -0.529167,0.25528 -0.355827,0 -0.529167,-0.17639 -0.529167,-0.53848 z m 37.37239,-12.55729 c -0.4582,-0.52044 -0.41563,-0.66257 0.19844,-0.66257 0.35278,0 0.52917,0.17639 0.52917,0.52917 0,0.61599 -0.26064,0.66378 -0.72761,0.1334 z m 8.13594,-0.1334 c 0,-0.36173 0.17639,-0.52917 0.55748,-0.52917 0.39964,0 0.512,0.1185 0.39687,0.41852 -0.0883,0.23018 -0.1606,0.46831 -0.1606,0.52917 0,0.0609 -0.17859,0.11065 -0.39687,0.11065 -0.22049,0 -0.39688,-0.23519 -0.39688,-0.52917 z m 31.75,-11.377082 c 0,-0.16837 2.11667,-0.264583 5.82083,-0.264583 3.70417,0 5.82084,0.09621 5.82084,0.264583 0,0.168371 -2.11667,0.264584 -5.82084,0.264584 -3.70416,0 -5.82083,-0.09621 -5.82083,-0.264584 z m 16.27187,-5.291666 c 0.0899,-0.145521 0.0374,-0.264583 -0.11667,-0.264583 -0.15411,0 -0.2802,-0.119063 -0.2802,-0.264584 0,-0.14552 0.23812,-0.264583 0.52917,-0.264583 0.35277,0 0.52916,0.17639 0.52916,0.529167 0,0.302884 -0.17639,0.529166 -0.41249,0.529166 -0.22687,0 -0.3389,-0.119062 -0.24897,-0.264583 z m -23.5608,-3.969589 c -0.0103,-0.846439 0.0821,-1.057494 0.46302,-1.057494 0.37884,0 0.47591,0.215866 0.47591,1.058333 0,0.831869 -0.0991,1.058154 -0.46302,1.057495 -0.36145,-5.29e-4 -0.46585,-0.232828 -0.47591,-1.058334 z M 54.276488,61.056543 c 0,-0.194027 0.07937,-0.273402 0.17639,-0.176389 0.09701,0.09701 0.09701,0.255764 0,0.352779 -0.09701,0.09701 -0.17639,0.01764 -0.17639,-0.17639 z m 28.574999,-1.315651 v -1.580236 l -3.770312,-0.08128 -3.770313,-0.08128 3.902604,-0.05828 3.902604,-0.05828 v 1.719792 c 0,0.945885 -0.05953,1.719792 -0.132291,1.719792 -0.07276,0 -0.132292,-0.711105 -0.132292,-1.580235 z"
         id="path4534" />
    </g>
  </g>
</svg>
